<svg width="495" height="74" viewBox="0 0 495 74" fill="none" xmlns="http://www.w3.org/2000/svg">
<path d="M474.238 58.5078C469.97 58.5078 466.167 57.6871 462.83 56.0456C459.492 54.4042 456.866 51.9146 454.951 48.577C453.036 45.2393 452.078 41.0809 452.078 36.1018V34.4603C452.078 29.8642 453.063 25.952 455.033 22.7238C457.057 19.4956 459.738 17.0607 463.076 15.4193C466.468 13.7231 470.189 12.875 474.238 12.875C478.615 12.875 482.281 13.641 485.236 15.1731C488.19 16.6504 490.461 18.6475 492.048 21.1644C493.635 23.6813 494.537 26.4718 494.756 29.5359H481.707C481.324 27.5661 480.53 26.0615 479.327 25.0219C478.177 23.9276 476.481 23.3804 474.238 23.3804C472.487 23.3804 470.9 23.7908 469.478 24.6115C468.11 25.4322 467.016 26.6633 466.195 28.3048C465.429 29.8916 465.046 31.9434 465.046 34.4603V36.1018C465.046 38.7829 465.429 40.9988 466.195 42.7497C466.961 44.5006 468.028 45.8138 469.396 46.6893C470.764 47.51 472.378 47.9204 474.238 47.9204C476.153 47.9204 477.767 47.4279 479.08 46.443C480.448 45.4035 481.324 43.8714 481.707 41.8469H494.756C494.537 45.2393 493.553 48.1939 491.802 50.7109C490.051 53.2278 487.671 55.1702 484.661 56.5381C481.707 57.8513 478.232 58.5078 474.238 58.5078Z" fill="black"/>
<path d="M427.039 58.5078C422.771 58.5078 418.968 57.6871 415.631 56.0456C412.293 54.4042 409.667 51.9146 407.751 48.577C405.836 45.2393 404.879 41.0809 404.879 36.1018V34.4603C404.879 29.8642 405.864 25.952 407.834 22.7238C409.858 19.4956 412.539 17.0607 415.877 15.4193C419.269 13.7231 422.99 12.875 427.039 12.875C431.416 12.875 435.082 13.641 438.037 15.1731C440.991 16.6504 443.262 18.6475 444.849 21.1644C446.435 23.6813 447.338 26.4718 447.557 29.5359H434.507C434.124 27.5661 433.331 26.0615 432.127 25.0219C430.978 23.9276 429.282 23.3804 427.039 23.3804C425.288 23.3804 423.701 23.7908 422.278 24.6115C420.911 25.4322 419.816 26.6633 418.996 28.3048C418.23 29.8916 417.847 31.9434 417.847 34.4603V36.1018C417.847 38.7829 418.23 40.9988 418.996 42.7497C419.762 44.5006 420.829 45.8138 422.196 46.6893C423.564 47.51 425.178 47.9204 427.039 47.9204C428.954 47.9204 430.568 47.4279 431.881 46.443C433.249 45.4035 434.124 43.8714 434.507 41.8469H447.557C447.338 45.2393 446.353 48.1939 444.602 50.7109C442.852 53.2278 440.471 55.1702 437.462 56.5381C434.507 57.8513 431.033 58.5078 427.039 58.5078Z" fill="black"/>
<path d="M377.824 58.5078C373.775 58.5078 370.054 57.7145 366.662 56.1277C363.324 54.541 360.643 52.0788 358.619 48.7411C356.649 45.3487 355.664 41.1356 355.664 36.1018V34.4603C355.664 29.7548 356.649 25.8153 358.619 22.6417C360.643 19.4135 363.324 16.9787 366.662 15.3372C370.054 13.6957 373.775 12.875 377.824 12.875C381.928 12.875 385.648 13.6957 388.986 15.3372C392.324 16.9787 394.977 19.4135 396.947 22.6417C398.971 25.8153 399.984 29.7548 399.984 34.4603V36.1018C399.984 41.0809 398.971 45.2393 396.947 48.577C394.977 51.8599 392.324 54.3495 388.986 56.0456C385.648 57.6871 381.928 58.5078 377.824 58.5078ZM377.824 48.0024C379.794 48.0024 381.463 47.5374 382.83 46.6072C384.198 45.6223 385.238 44.2271 385.949 42.4214C386.66 40.6158 387.016 38.5093 387.016 36.1018V34.4603C387.016 32.2717 386.66 30.3566 385.949 28.7152C385.238 27.0737 384.198 25.7879 382.83 24.8577C381.463 23.8728 379.794 23.3804 377.824 23.3804C375.854 23.3804 374.185 23.8728 372.817 24.8577C371.45 25.7879 370.41 27.0737 369.699 28.7152C368.987 30.3566 368.632 32.2717 368.632 34.4603V36.1018C368.632 38.6187 368.987 40.78 369.699 42.5856C370.41 44.3365 371.45 45.677 372.817 46.6072C374.185 47.5374 375.854 48.0024 377.824 48.0024Z" fill="black"/>
<path d="M306.809 73.8556V13.942H318.463V19.8512C319.612 18.1003 321.308 16.5136 323.552 15.091C325.85 13.6137 328.667 12.875 332.005 12.875C338.133 12.875 342.784 14.6806 345.958 18.2918C349.131 21.9031 350.718 27.2926 350.718 34.4603V36.1018C350.718 41.0262 349.952 45.1572 348.42 48.4949C346.888 51.7778 344.727 54.2674 341.936 55.9636C339.146 57.6597 335.835 58.5078 332.005 58.5078C329.543 58.5078 327.19 57.9607 324.947 56.8664C322.758 55.7173 320.925 54.0759 319.448 51.942V73.8556H306.809ZM328.968 48.0845C331.485 48.0845 333.565 47.0723 335.206 45.0478C336.902 42.9686 337.75 39.9866 337.75 36.1018V34.4603C337.75 30.6849 336.93 27.8944 335.288 26.0888C333.701 24.2285 331.595 23.2983 328.968 23.2983C327.218 23.2983 325.603 23.6813 324.126 24.4474C322.703 25.1587 321.554 26.253 320.679 27.7303C319.858 29.2076 319.448 31.0406 319.448 33.2292V37.3329C319.448 39.5762 319.858 41.5186 320.679 43.1601C321.554 44.7469 322.703 45.978 324.126 46.8534C325.603 47.6741 327.218 48.0845 328.968 48.0845Z" fill="black"/>
<path d="M259.215 57.4579V13.959H271.854V30.3737H275.137L287.284 13.959H301.072L285.068 34.3953L301.893 57.4579H286.956L275.137 40.2225H271.854V57.4579H259.215Z" fill="black"/>
<path d="M230.511 58.5078C226.462 58.5078 222.742 57.7145 219.349 56.1277C216.012 54.541 213.331 52.0788 211.306 48.7411C209.336 45.3487 208.352 41.1356 208.352 36.1018V34.4603C208.352 29.7548 209.336 25.8153 211.306 22.6417C213.331 19.4135 216.012 16.9787 219.349 15.3372C222.742 13.6957 226.462 12.875 230.511 12.875C234.615 12.875 238.336 13.6957 241.673 15.3372C245.011 16.9787 247.665 19.4135 249.635 22.6417C251.659 25.8153 252.671 29.7548 252.671 34.4603V36.1018C252.671 41.0809 251.659 45.2393 249.635 48.577C247.665 51.8599 245.011 54.3495 241.673 56.0456C238.336 57.6871 234.615 58.5078 230.511 58.5078ZM230.511 48.0024C232.481 48.0024 234.15 47.5374 235.518 46.6072C236.886 45.6223 237.925 44.2271 238.637 42.4214C239.348 40.6158 239.704 38.5093 239.704 36.1018V34.4603C239.704 32.2717 239.348 30.3566 238.637 28.7152C237.925 27.0737 236.886 25.7879 235.518 24.8577C234.15 23.8728 232.481 23.3804 230.511 23.3804C228.542 23.3804 226.873 23.8728 225.505 24.8577C224.137 25.7879 223.097 27.0737 222.386 28.7152C221.675 30.3566 221.319 32.2717 221.319 34.4603V36.1018C221.319 38.6187 221.675 40.78 222.386 42.5856C223.097 44.3365 224.137 45.677 225.505 46.6072C226.873 47.5374 228.542 48.0024 230.511 48.0024Z" fill="black"/>
<path d="M134.971 58.5249C134.478 58.5249 133.822 58.4975 133.001 58.4428C132.235 58.4428 131.633 58.3881 131.195 58.2786V47.1987C131.359 47.2534 131.77 47.2808 132.426 47.2808C133.685 47.2808 134.724 46.761 135.545 45.7214C136.421 44.6818 137.05 42.9309 137.433 40.4687C137.871 38.0065 138.089 34.6415 138.089 30.3737V13.959H201.724V57.4579H189.084V24.3002H149.99V32.0151C149.99 37.432 149.662 41.8913 149.005 45.3931C148.349 48.8949 147.391 51.6033 146.133 53.5184C144.874 55.3787 143.287 56.6919 141.372 57.4579C139.512 58.1692 137.378 58.5249 134.971 58.5249Z" fill="black"/>
<path d="M103.391 58.5078C99.1227 58.5078 95.2926 57.7145 91.9002 56.1277C88.5079 54.4862 85.7994 51.9967 83.775 48.659C81.8052 45.3214 80.8203 41.1356 80.8203 36.1018V34.4603C80.8203 29.6453 81.7778 25.6511 83.6929 22.4776C85.6079 19.3041 88.2069 16.924 91.4899 15.3372C94.8275 13.6957 98.5208 12.875 102.57 12.875C109.738 12.875 115.154 14.7353 118.82 18.456C122.486 22.1219 124.319 27.4567 124.319 34.4603V39.0564H93.7879C93.8974 41.1903 94.3898 42.9686 95.2652 44.3912C96.1954 45.8138 97.3718 46.8534 98.7944 47.51C100.217 48.1119 101.749 48.4128 103.391 48.4128C105.798 48.4128 107.686 48.0572 109.054 47.3459C110.476 46.5798 111.406 45.5676 111.844 44.3091H123.499C122.623 49.0694 120.462 52.6259 117.015 54.9787C113.568 57.3315 109.026 58.5078 103.391 58.5078ZM102.98 22.97C101.448 22.97 99.9981 23.2163 98.6302 23.7087C97.2624 24.2011 96.1407 25.0219 95.2652 26.1709C94.4445 27.2652 93.9794 28.7699 93.87 30.6849H111.926C111.926 28.6605 111.516 27.1011 110.695 26.0068C109.874 24.8577 108.78 24.0643 107.412 23.6266C106.099 23.1889 104.622 22.97 102.98 22.97Z" fill="black"/>
<path d="M0 57.4514V0H53.7414C60.4714 0 65.3684 1.34053 68.4325 4.0216C71.4966 6.64795 73.0286 10.4233 73.0286 15.3477C73.0286 18.3024 72.2626 20.8467 70.7306 22.9806C69.1985 25.0598 67.1467 26.5644 64.5751 27.4946C67.9127 28.2606 70.5664 29.82 72.5362 32.1728C74.5059 34.4709 75.4908 37.4802 75.4908 41.2009C75.4908 44.5385 74.7522 47.4384 73.2748 49.9007C71.8522 52.3081 69.6089 54.1685 66.5448 55.4816C63.4807 56.7948 59.4865 57.4514 54.5621 57.4514H0ZM14.7732 46.1253H51.2792C54.8357 46.1253 57.2979 45.6055 58.6658 44.5659C60.0337 43.4716 60.7176 41.8027 60.7176 39.5594C60.7176 37.3161 60.0063 35.6472 58.5837 34.5529C57.2158 33.4586 54.6989 32.9115 51.0329 32.9115H14.7732V46.1253ZM14.7732 22.8985H50.1301C53.3036 22.8985 55.4375 22.406 56.5319 21.4212C57.6809 20.3816 58.2554 18.9316 58.2554 17.0713C58.2554 15.1562 57.6809 13.7336 56.5319 12.8035C55.4375 11.8186 53.331 11.3261 50.2122 11.3261H14.7732V22.8985Z" fill="black"/>
</svg>
