<svg width="651" height="74" viewBox="0 0 651 74" fill="none" xmlns="http://www.w3.org/2000/svg">
<path d="M584.453 57.4579V13.959H596.764V42.6086L639.091 13.959H650.171V57.4579H637.86V28.8083L595.533 57.4579H584.453Z" fill="black"/>
<path d="M513.844 57.4579L528.207 35.0519L514.665 13.959H528.042L537.973 30.6199H540.353V13.959H552.993V30.6199H555.455L565.878 13.959H578.682L565.14 34.1491L579.503 57.4579H565.55L555.455 39.9763H552.993V57.4579H540.353V39.9763H537.809L527.386 57.4579H513.844Z" fill="black"/>
<path d="M454.777 57.4579V13.959H467.417V28.0756H474.475C480.165 28.0756 484.461 29.2794 487.361 31.6868C490.26 34.0943 491.71 37.7876 491.71 42.7668C491.71 45.612 491.136 48.1563 489.987 50.3996C488.838 52.6429 487.005 54.3938 484.488 55.6523C481.971 56.856 478.633 57.4579 474.475 57.4579H454.777ZM467.417 47.9374H472.833C475.022 47.9374 476.609 47.527 477.594 46.7063C478.579 45.8308 479.071 44.5177 479.071 42.7668C479.071 40.9612 478.579 39.648 477.594 38.8272C476.664 38.0065 475.077 37.5961 472.833 37.5961H467.417V47.9374ZM495.486 57.4579V13.959H508.125V57.4579H495.486Z" fill="black"/>
<path d="M377.381 58.5249C376.888 58.5249 376.232 58.4975 375.411 58.4428C374.645 58.4428 374.043 58.3881 373.605 58.2786V47.1987C373.77 47.2534 374.18 47.2808 374.837 47.2808C376.095 47.2808 377.135 46.761 377.955 45.7214C378.831 44.6818 379.46 42.9309 379.843 40.4687C380.281 38.0065 380.5 34.6415 380.5 30.3737V13.959H445.327V57.4579H432.688V24.3002H392.4V32.0151C392.4 37.432 392.072 41.8913 391.415 45.3931C390.759 48.8949 389.801 51.6033 388.543 53.5184C387.284 55.3787 385.698 56.6919 383.783 57.4579C381.922 58.1692 379.788 58.5249 377.381 58.5249Z" fill="black"/>
<path d="M328.07 58.5078C323.802 58.5078 319.972 57.7145 316.58 56.1277C313.188 54.4862 310.479 51.9967 308.455 48.659C306.485 45.3214 305.5 41.1356 305.5 36.1018V34.4603C305.5 29.6453 306.458 25.6511 308.373 22.4776C310.288 19.3041 312.887 16.924 316.17 15.3372C319.507 13.6957 323.201 12.875 327.249 12.875C334.417 12.875 339.834 14.7353 343.5 18.456C347.166 22.1219 348.999 27.4567 348.999 34.4603V39.0564H318.468C318.577 41.1903 319.069 42.9686 319.945 44.3912C320.875 45.8138 322.051 46.8534 323.474 47.51C324.897 48.1119 326.429 48.4128 328.07 48.4128C330.478 48.4128 332.365 48.0572 333.733 47.3459C335.156 46.5798 336.086 45.5676 336.524 44.3091H348.178C347.303 49.0694 345.141 52.6259 341.694 54.9787C338.247 57.3315 333.706 58.5078 328.07 58.5078ZM327.66 22.97C326.128 22.97 324.678 23.2163 323.31 23.7087C321.942 24.2011 320.82 25.0219 319.945 26.1709C319.124 27.2652 318.659 28.7699 318.55 30.6849H336.606C336.606 28.6605 336.195 27.1011 335.375 26.0068C334.554 24.8577 333.46 24.0643 332.092 23.6266C330.779 23.1889 329.301 22.97 327.66 22.97Z" fill="black"/>
<path d="M244.773 57.4579V13.959H257.413V28.0756H264.471C270.161 28.0756 274.457 29.2794 277.357 31.6868C280.257 34.0943 281.706 37.7876 281.706 42.7668C281.706 45.612 281.132 48.1563 279.983 50.3996C278.834 52.6429 277.001 54.3938 274.484 55.6523C271.967 56.856 268.629 57.4579 264.471 57.4579H244.773ZM257.413 47.9374H262.83C265.018 47.9374 266.605 47.527 267.59 46.7063C268.575 45.8308 269.067 44.5177 269.067 42.7668C269.067 40.9612 268.575 39.648 267.59 38.8272C266.66 38.0065 265.073 37.5961 262.83 37.5961H257.413V47.9374ZM285.482 57.4579V13.959H298.121V57.4579H285.482Z" fill="black"/>
<path d="M168.441 57.4579V13.959H181.081V30.1275H225.099V13.959H237.739V57.4579H225.099V40.4687H181.081V57.4579H168.441Z" fill="black"/>
<path d="M117.941 73.8556V13.942H129.596V19.8512C130.745 18.1003 132.441 16.5136 134.684 15.091C136.982 13.6137 139.8 12.875 143.138 12.875C149.266 12.875 153.917 14.6806 157.09 18.2918C160.264 21.9031 161.851 27.2926 161.851 34.4603V36.1018C161.851 41.0262 161.085 45.1572 159.553 48.4949C158.021 51.7778 155.859 54.2674 153.069 55.9636C150.278 57.6597 146.968 58.5078 143.138 58.5078C140.676 58.5078 138.323 57.9607 136.08 56.8664C133.891 55.7173 132.058 54.0759 130.581 51.942V73.8556H117.941ZM140.101 48.0845C142.618 48.0845 144.697 47.0723 146.339 45.0478C148.035 42.9686 148.883 39.9866 148.883 36.1018V34.4603C148.883 30.6849 148.062 27.8944 146.421 26.0888C144.834 24.2285 142.728 23.2983 140.101 23.2983C138.35 23.2983 136.736 23.6813 135.259 24.4474C133.836 25.1587 132.687 26.253 131.812 27.7303C130.991 29.2076 130.581 31.0406 130.581 33.2292V37.3329C130.581 39.5762 130.991 41.5186 131.812 43.1601C132.687 44.7469 133.836 45.978 135.259 46.8534C136.736 47.6741 138.35 48.0845 140.101 48.0845Z" fill="black"/>
<path d="M89.2497 58.5078C85.2007 58.5078 81.4801 57.7145 78.0877 56.1277C74.75 54.541 72.069 52.0788 70.0445 48.7411C68.0747 45.3487 67.0898 41.1356 67.0898 36.1018V34.4603C67.0898 29.7548 68.0747 25.8153 70.0445 22.6417C72.069 19.4135 74.75 16.9787 78.0877 15.3372C81.4801 13.6957 85.2007 12.875 89.2497 12.875C93.3533 12.875 97.074 13.6957 100.412 15.3372C103.749 16.9787 106.403 19.4135 108.373 22.6417C110.397 25.8153 111.41 29.7548 111.41 34.4603V36.1018C111.41 41.0809 110.397 45.2393 108.373 48.577C106.403 51.8599 103.749 54.3495 100.412 56.0456C97.074 57.6871 93.3533 58.5078 89.2497 58.5078ZM89.2497 48.0024C91.2194 48.0024 92.8883 47.5374 94.2562 46.6072C95.624 45.6223 96.6636 44.2271 97.3749 42.4214C98.0863 40.6158 98.4419 38.5093 98.4419 36.1018V34.4603C98.4419 32.2717 98.0863 30.3566 97.3749 28.7152C96.6636 27.0737 95.624 25.7879 94.2562 24.8577C92.8883 23.8728 91.2194 23.3804 89.2497 23.3804C87.2799 23.3804 85.6111 23.8728 84.2432 24.8577C82.8753 25.7879 81.8357 27.0737 81.1244 28.7152C80.4131 30.3566 80.0575 32.2717 80.0575 34.4603V36.1018C80.0575 38.6187 80.4131 40.78 81.1244 42.5856C81.8357 44.3365 82.8753 45.677 84.2432 46.6072C85.6111 47.5374 87.2799 48.0024 89.2497 48.0024Z" fill="black"/>
<path d="M0 57.4514V0H69.5934V12.1469H14.7732V57.4514H0Z" fill="black"/>
</svg>
