<svg width="399" height="74" viewBox="0 0 399 74" fill="none" xmlns="http://www.w3.org/2000/svg">
<path d="M366.973 57.458V13.9591H398.981V24.3003H379.612V57.458H366.973Z" fill="black"/>
<path d="M289.453 57.458V13.9591H302.092V30.1276H346.111V13.9591H358.75V57.458H346.111V40.4688H302.092V57.458H289.453Z" fill="black"/>
<path d="M239.34 57.458V13.9591H251.651V40.2226L270.117 13.9591H281.197V57.458H268.886V31.1945L250.42 57.458H239.34Z" fill="black"/>
<path d="M207.62 57.458V24.3003H194.242V13.9591H233.637V24.3003H220.259V57.458H207.62Z" fill="black"/>
<path d="M155.516 73.8661V58.5184C148.184 58.5184 142.548 56.6307 138.609 52.8553C134.669 49.0252 132.699 43.4716 132.699 36.1944V34.4709C132.699 27.4673 134.669 22.1325 138.609 18.4665C142.548 14.7459 148.184 12.8855 155.516 12.8855V0H168.155V12.8855C175.487 12.8855 181.123 14.7459 185.062 18.4665C189.002 22.1325 190.971 27.4673 190.971 34.4709V36.1944C190.971 43.4716 189.002 49.0252 185.062 52.8553C181.123 56.6307 175.487 58.5184 168.155 58.5184V73.8661H155.516ZM178.086 36.1123V34.4709C178.086 30.8049 177.238 28.0418 175.542 26.1814C173.9 24.3211 171.301 23.3909 167.745 23.3909V48.013C171.301 48.013 173.9 47.0007 175.542 44.9763C177.238 42.8971 178.086 39.9424 178.086 36.1123ZM145.503 34.4709V36.1123C145.503 39.9971 146.351 42.9518 148.047 44.9763C149.798 47.0007 152.452 48.013 156.008 48.013V23.3909C152.287 23.3909 149.606 24.3485 147.965 26.2635C146.323 28.1786 145.503 30.9143 145.503 34.4709Z" fill="black"/>
<path d="M100.277 58.5078C97.1583 58.5078 94.4773 57.9059 92.2339 56.7022C90.0453 55.4984 88.3765 53.857 87.2274 51.7778C86.0784 49.6439 85.5039 47.2911 85.5039 44.7195C85.5039 40.3969 86.8171 37.0866 89.4434 34.7886C92.1245 32.4905 96.1461 31.3415 101.508 31.3415H113.819V29.5359C113.819 26.9095 113.19 25.1039 111.932 24.119C110.728 23.1342 109.032 22.6417 106.843 22.6417C104.764 22.6417 103.232 22.97 102.247 23.6266C101.262 24.2285 100.715 25.2407 100.605 26.6633H87.9661C88.1303 24.037 88.951 21.6842 90.4283 19.605C91.9604 17.5258 94.1216 15.8843 96.9121 14.6806C99.7573 13.4768 103.204 12.875 107.253 12.875C111.083 12.875 114.448 13.4495 117.348 14.5985C120.248 15.7475 122.492 17.6079 124.078 20.1795C125.72 22.6964 126.541 26.0888 126.541 30.3566V46.3609C126.541 48.659 126.595 50.6835 126.705 52.4344C126.814 54.1306 126.978 55.7994 127.197 57.4409H115.132C115.078 56.5107 114.996 55.69 114.886 54.9787C114.831 54.2674 114.804 53.3919 114.804 52.3523C113.491 54.1032 111.658 55.5805 109.305 56.7843C107.007 57.9333 103.998 58.5078 100.277 58.5078ZM104.381 49.5618C106.186 49.5618 107.801 49.2335 109.223 48.5769C110.646 47.9203 111.767 46.9355 112.588 45.6223C113.409 44.2544 113.819 42.7224 113.819 41.0262V39.2206H103.97C102.11 39.2206 100.715 39.713 99.7847 40.6979C98.9092 41.6828 98.4715 42.8044 98.4715 44.0629C98.4715 45.7044 98.9092 47.0449 99.7847 48.0845C100.715 49.0694 102.247 49.5618 104.381 49.5618Z" fill="black"/>
<path d="M0 57.4514V0H57.9889C63.3511 0 67.7557 0.793377 71.2028 2.38013C74.6498 3.91217 77.1941 6.15551 78.8356 9.11015C80.5318 12.0101 81.3799 15.5119 81.3799 19.6156C81.3799 23.6645 80.5318 27.1663 78.8356 30.121C77.1941 33.0756 74.6498 35.3463 71.2028 36.9331C67.7557 38.4651 63.3511 39.2311 57.9889 39.2311H14.7732V57.4514H0ZM14.7732 27.0842H56.3475C60.1228 27.0842 62.7765 26.455 64.3086 25.1966C65.8406 23.9381 66.6066 22.0778 66.6066 19.6156C66.6066 17.1533 65.8406 15.293 64.3086 14.0346C62.7765 12.7761 60.1228 12.1469 56.3475 12.1469H14.7732V27.0842Z" fill="black"/>
</svg>
