<svg width="601" height="76" viewBox="0 0 601 76" fill="none" xmlns="http://www.w3.org/2000/svg">
<path d="M568.594 59.4994V16.0005H600.602V26.3417H581.233V59.4994H568.594Z" fill="black"/>
<path d="M518.504 59.4994V16.0005H531.143V32.169H547.722V16.0005H560.361V59.4994H547.722V42.5102H531.143V59.4994H518.504Z" fill="black"/>
<path d="M468.422 59.4994V16.0005H480.733V42.264L499.199 16.0005H510.279V59.4994H497.968V33.2359L479.502 59.4994H468.422Z" fill="black"/>
<path d="M383.219 69.7586V49.1582H387.815C388.581 48.0091 389.183 46.6139 389.62 44.9724C390.113 43.2762 390.469 41.197 390.687 38.7348C390.906 36.2726 391.016 33.3453 391.016 29.953V16.0005H454.157V49.1582H459.082V69.7586H448.412V59.4994H393.888V69.7586H383.219ZM400.208 49.1582H441.518V26.3417H402.67V31.5944C402.67 35.7528 402.479 39.2546 402.096 42.0998C401.713 44.8903 401.083 47.2431 400.208 49.1582Z" fill="black"/>
<path d="M336 75.9049V15.9913H347.654V21.9006C348.803 20.1497 350.5 18.5629 352.743 17.1403C355.041 15.663 357.859 14.9243 361.197 14.9243C367.325 14.9243 371.976 16.7299 375.149 20.3412C378.323 23.9524 379.909 29.3419 379.909 36.5096V38.1511C379.909 43.0755 379.143 47.2065 377.611 50.5442C376.079 53.8271 373.918 56.3167 371.127 58.0129C368.337 59.7091 365.027 60.5572 361.197 60.5572C358.734 60.5572 356.382 60.01 354.138 58.9157C351.95 57.7667 350.117 56.1252 348.639 53.9913V75.9049H336ZM358.16 50.1338C360.677 50.1338 362.756 49.1216 364.397 47.0971C366.094 45.0179 366.942 42.0359 366.942 38.1511V36.5096C366.942 32.7343 366.121 29.9438 364.479 28.1381C362.893 26.2778 360.786 25.3476 358.16 25.3476C356.409 25.3476 354.795 25.7307 353.317 26.4967C351.895 27.208 350.746 28.3023 349.87 29.7796C349.05 31.2569 348.639 33.0899 348.639 35.2785V39.3822C348.639 41.6255 349.05 43.568 349.87 45.2094C350.746 46.7962 351.895 48.0273 353.317 48.9027C354.795 49.7235 356.409 50.1338 358.16 50.1338Z" fill="black"/>
<path d="M307.324 60.5572C303.275 60.5572 299.554 59.7638 296.162 58.177C292.824 56.5903 290.143 54.1281 288.119 50.7904C286.149 47.398 285.164 43.1849 285.164 38.1511V36.5096C285.164 31.8041 286.149 27.8646 288.119 24.6911C290.143 21.4628 292.824 19.028 296.162 17.3865C299.554 15.7451 303.275 14.9243 307.324 14.9243C311.428 14.9243 315.148 15.7451 318.486 17.3865C321.824 19.028 324.477 21.4628 326.447 24.6911C328.471 27.8646 329.484 31.8041 329.484 36.5096V38.1511C329.484 43.1302 328.471 47.2886 326.447 50.6263C324.477 53.9092 321.824 56.3988 318.486 58.095C315.148 59.7364 311.428 60.5572 307.324 60.5572ZM307.324 50.0518C309.294 50.0518 310.962 49.5867 312.33 48.6565C313.698 47.6716 314.738 46.2764 315.449 44.4708C316.16 42.6651 316.516 40.5586 316.516 38.1511V36.5096C316.516 34.321 316.16 32.406 315.449 30.7645C314.738 29.123 313.698 27.8372 312.33 26.907C310.962 25.9222 309.294 25.4297 307.324 25.4297C305.354 25.4297 303.685 25.9222 302.317 26.907C300.95 27.8372 299.91 29.123 299.199 30.7645C298.487 32.406 298.132 34.321 298.132 36.5096V38.1511C298.132 40.668 298.487 42.8293 299.199 44.6349C299.91 46.3858 300.95 47.7263 302.317 48.6565C303.685 49.5867 305.354 50.0518 307.324 50.0518Z" fill="black"/>
<path d="M258.031 60.5702C253.818 60.5702 250.015 59.64 246.623 57.7797C243.285 55.8647 240.659 53.0468 238.744 49.3261C236.829 45.5508 235.871 40.8726 235.871 35.2916V33.6501C235.871 27.139 236.61 21.5853 238.087 16.9892C239.564 12.3384 241.999 8.72714 245.392 6.15551C248.784 3.58387 253.38 2.16127 259.18 1.88769C261.478 1.77826 263.749 1.69618 265.992 1.64147C268.235 1.58675 270.315 1.44996 272.23 1.2311C274.145 0.957522 275.704 0.547156 276.908 0V10.8337C276.361 11.162 275.431 11.4629 274.117 11.7365C272.859 12.0101 271.108 12.2289 268.865 12.3931C266.676 12.5025 263.858 12.612 260.411 12.7214C257.238 12.7214 254.611 13.1865 252.532 14.1166C250.508 14.9921 248.948 16.3873 247.854 18.3024C246.814 20.2174 246.103 22.7617 245.72 25.9352C246.541 24.4579 247.635 23.1447 249.003 21.9957C250.425 20.8467 252.176 19.9438 254.256 19.2873C256.389 18.576 258.879 18.2203 261.724 18.2203C265.335 18.2203 268.536 18.9316 271.327 20.3542C274.117 21.7221 276.279 23.8013 277.811 26.5918C279.397 29.3823 280.191 32.9114 280.191 37.1793V38.6566C280.191 43.2527 279.206 47.1922 277.236 50.4752C275.266 53.7581 272.613 56.275 269.275 58.0259C265.937 59.7221 262.189 60.5702 258.031 60.5702ZM258.031 50.0648C260.986 50.0648 263.256 49.1346 264.843 47.2743C266.43 45.3593 267.223 42.8697 267.223 39.8056V38.1642C267.223 34.8812 266.402 32.3643 264.761 30.6134C263.119 28.8078 260.876 27.905 258.031 27.905C255.24 27.905 252.997 28.8078 251.301 30.6134C249.659 32.3643 248.839 34.8812 248.839 38.1642V39.4773C248.839 41.5565 249.222 43.4169 249.988 45.0583C250.808 46.6451 251.903 47.8762 253.271 48.7516C254.693 49.6271 256.28 50.0648 258.031 50.0648Z" fill="black"/>
<path d="M180.543 69.7586V49.1582H185.139C185.905 48.0091 186.507 46.6139 186.945 44.9724C187.437 43.2762 187.793 41.197 188.012 38.7348C188.231 36.2726 188.34 33.3453 188.34 29.953V16.0005H225.235V49.1582H230.159V69.7586H219.49V59.4994H191.213V69.7586H180.543ZM197.532 49.1582H212.596V26.3417H199.994V31.5944C199.994 35.7528 199.803 39.2546 199.42 42.0998C199.037 44.8903 198.408 47.2431 197.532 49.1582Z" fill="black"/>
<path d="M105.879 59.4994V16.0005H118.518V32.169H162.537V16.0005H175.176V59.4994H162.537V42.5102H118.518V59.4994H105.879Z" fill="black"/>
<path d="M77.1473 60.5572C73.2078 60.5572 69.7059 59.9006 66.6419 58.5874C63.6325 57.2195 61.2524 55.2771 59.5015 52.7602C57.8053 50.2433 56.8478 47.2886 56.6289 43.8962H69.5965C70.0342 45.9207 70.9097 47.4528 72.2229 48.4924C73.5908 49.4772 75.2322 49.9697 77.1473 49.9697C79.5548 49.9697 81.4972 49.3952 82.9745 48.2461C84.5065 47.0424 85.5188 45.0179 86.0112 42.1727H73.0436V32.488H85.9291C85.4367 30.0258 84.4245 28.2476 82.8924 27.1533C81.3604 26.0042 79.4453 25.4297 77.1473 25.4297C74.9039 25.4297 73.1804 25.9769 71.9766 27.0712C70.8276 28.1108 70.0342 29.6155 69.5965 31.5852H56.6289C56.8478 28.5212 57.7506 25.7307 59.3373 23.2137C60.9241 20.6968 63.1674 18.6997 66.0674 17.2224C69.022 15.6903 72.7153 14.9243 77.1473 14.9243C81.2509 14.9243 84.9716 15.7724 88.3093 17.4686C91.6469 19.1101 94.3006 21.5449 96.2704 24.7731C98.2949 28.0014 99.3071 31.9135 99.3071 36.5096V38.1511C99.3071 43.1302 98.3496 47.2886 96.4345 50.6263C94.5195 53.9639 91.8931 56.4535 88.5555 58.095C85.2178 59.7364 81.4151 60.5572 77.1473 60.5572Z" fill="black"/>
<path d="M26.6739 60.5668C21.4212 60.5668 16.7703 59.6093 12.7214 57.6942C8.72714 55.7244 5.60835 52.5783 3.36501 48.2558C1.12167 43.9332 0 38.2154 0 31.1024V29.543C0 24.5092 0.683945 20.1866 2.05184 16.5754C3.41973 12.9642 5.30742 10.0095 7.71491 7.71147C10.1771 5.41341 13.0223 3.71723 16.2505 2.62292C19.4788 1.5286 22.9532 0.981445 26.6739 0.981445C30.0115 0.981445 33.1577 1.36445 36.1123 2.13047C39.067 2.89649 41.6386 4.10024 43.8272 5.74171C46.0706 7.38318 47.8762 9.51709 49.2441 12.1434C50.612 14.7698 51.4327 17.9707 51.7063 21.746H36.3585C35.8661 18.7367 34.7171 16.5754 32.9115 15.2622C31.1058 13.9491 29.0266 13.2925 26.6739 13.2925C24.4852 13.2925 22.5155 13.8396 20.7646 14.9339C19.0684 15.9735 17.7279 17.6697 16.743 20.0225C15.7581 22.3753 15.2657 25.5488 15.2657 29.543V31.2666C15.2657 34.4401 15.5666 37.1211 16.1685 39.3098C16.7703 41.4984 17.5911 43.2493 18.6307 44.5625C19.725 45.8756 20.9561 46.8332 22.324 47.435C23.6919 47.9822 25.1418 48.2558 26.6739 48.2558C29.4644 48.2558 31.6804 47.5992 33.3218 46.286C35.018 44.9181 36.0302 42.7568 36.3585 39.8022H51.7063C51.4874 43.6323 50.694 46.8879 49.3261 49.5689C48.013 52.1953 46.2347 54.3292 43.9914 55.9707C41.8027 57.5574 39.2311 58.7338 36.2765 59.4998C33.3218 60.2111 30.121 60.5668 26.6739 60.5668Z" fill="black"/>
</svg>
