<svg width="683" height="64" viewBox="0 0 683 64" fill="none" xmlns="http://www.w3.org/2000/svg">
<path d="M661.754 63.0976C657.42 63.0976 653.531 62.2934 650.087 60.6849C646.642 59.021 643.892 56.4973 641.836 53.114C639.836 49.7306 638.836 45.4876 638.836 40.3848V38.7209C638.836 33.84 639.808 29.7911 641.753 26.5741C643.697 23.3572 646.336 20.9445 649.67 19.336C653.059 17.6721 656.809 16.8401 660.92 16.8401C668.199 16.8401 673.699 18.7259 677.421 22.4975C681.144 26.2136 683.005 31.6214 683.005 38.7209V43.3799H652.003C652.114 45.5431 652.614 47.3457 653.503 48.7877C654.448 50.2298 655.642 51.2837 657.087 51.9492C658.531 52.5593 660.087 52.8644 661.754 52.8644C664.198 52.8644 666.115 52.5039 667.504 51.7828C668.949 51.0063 669.893 49.9802 670.338 48.7045H682.171C681.283 53.53 679.088 57.1352 675.588 59.5202C672.088 61.9051 667.476 63.0976 661.754 63.0976ZM661.337 27.0733C659.781 27.0733 658.309 27.3229 656.92 27.8221C655.531 28.3213 654.392 29.1532 653.503 30.318C652.67 31.4273 652.198 32.9526 652.087 34.8938H670.421C670.421 32.8417 670.004 31.2609 669.171 30.1516C668.337 28.9869 667.226 28.1826 665.837 27.7389C664.504 27.2952 663.004 27.0733 661.337 27.0733Z" fill="#191919"/>
<path d="M570.43 62.0107L585.014 39.2979L571.263 17.9163H584.847L594.931 34.8053H597.348V17.9163H610.182V34.8053H612.682L623.266 17.9163H636.266L622.516 38.3827L637.1 62.0107H622.932L612.682 44.2897H610.182V62.0107H597.348V44.2897H594.764L584.18 62.0107H570.43Z" fill="#191919"/>
<path d="M524.609 62.0107V17.9163H537.443V34.5557H540.777L553.111 17.9163H567.112L550.861 38.6323L567.945 62.0107H552.777L540.777 44.5393H537.443V62.0107H524.609Z" fill="#191919"/>
<path d="M490.024 63.0976C486.857 63.0976 484.135 62.4875 481.857 61.2673C479.635 60.0471 477.94 58.3831 476.774 56.2755C475.607 54.1124 475.023 51.7274 475.023 49.1205C475.023 44.7388 476.357 41.3832 479.024 39.0537C481.746 36.7242 485.83 35.5594 491.274 35.5594H503.775V33.7291C503.775 31.0668 503.136 29.2364 501.858 28.2381C500.636 27.2397 498.914 26.7405 496.691 26.7405C494.58 26.7405 493.024 27.0733 492.024 27.7389C491.024 28.349 490.469 29.3751 490.358 30.8172H477.524C477.69 28.1549 478.524 25.7699 480.024 23.6622C481.579 21.5546 483.774 19.8906 486.607 18.6704C489.496 17.4502 492.997 16.8401 497.108 16.8401C500.997 16.8401 504.414 17.4225 507.358 18.5872C510.303 19.752 512.581 21.6378 514.192 24.2446C515.859 26.796 516.692 30.2348 516.692 34.5611V50.7845C516.692 53.114 516.748 55.1662 516.859 56.941C516.97 58.6605 517.137 60.3521 517.359 62.0161H505.108C505.053 61.0732 504.969 60.2412 504.858 59.5202C504.803 58.7991 504.775 57.9117 504.775 56.8579C503.442 58.6327 501.58 60.1303 499.191 61.3505C496.858 62.5152 493.802 63.0976 490.024 63.0976ZM494.191 54.0292C496.025 54.0292 497.663 53.6964 499.108 53.0308C500.553 52.3652 501.691 51.3669 502.525 50.0357C503.358 48.6491 503.775 47.0961 503.775 45.3767V43.5463H493.774C491.885 43.5463 490.469 44.0455 489.524 45.0439C488.635 46.0422 488.191 47.1793 488.191 48.455C488.191 50.1189 488.635 51.4778 489.524 52.5316C490.469 53.53 492.024 54.0292 494.191 54.0292Z" fill="#191919"/>
<path d="M343.941 63.0976C339.608 63.0976 335.719 62.2934 332.274 60.6849C328.829 59.021 326.079 56.4973 324.024 53.114C322.023 49.7306 321.023 45.4876 321.023 40.3848V38.7209C321.023 33.84 321.996 29.7911 323.94 26.5741C325.885 23.3572 328.524 20.9445 331.857 19.336C335.246 17.6721 338.997 16.8401 343.108 16.8401C350.386 16.8401 355.886 18.7259 359.609 22.4975C363.331 26.2136 365.192 31.6214 365.192 38.7209V43.3799H334.191C334.302 45.5431 334.802 47.3457 335.691 48.7877C336.635 50.2298 337.83 51.2837 339.274 51.9492C340.719 52.5593 342.274 52.8644 343.941 52.8644C346.386 52.8644 348.303 52.5039 349.692 51.7828C351.136 51.0063 352.081 49.9802 352.525 48.7045H364.359C363.47 53.53 361.275 57.1352 357.775 59.5202C354.275 61.9051 349.664 63.0976 343.941 63.0976ZM343.525 27.0733C341.969 27.0733 340.497 27.3229 339.108 27.8221C337.719 28.3213 336.58 29.1532 335.691 30.318C334.857 31.4273 334.385 32.9526 334.274 34.8938H352.608C352.608 32.8417 352.192 31.2609 351.358 30.1516C350.525 28.9869 349.414 28.1826 348.025 27.7389C346.691 27.2952 345.191 27.0733 343.525 27.0733Z" fill="#191919"/>
<path d="M291.303 62.0107V28.3991H277.719V17.9163H317.721V28.3991H304.137V62.0107H291.303Z" fill="#191919"/>
<path d="M229.359 62.0143V17.9198H241.86V44.5429L260.611 17.9198H271.861V62.0143H259.361V35.3912L240.61 62.0143H229.359ZM250.61 13.4272C245.166 13.4272 241.304 12.3734 239.027 10.2657C236.749 8.15805 235.61 4.99657 235.61 0.78125H246.944C246.944 2.72252 247.249 4.05367 247.86 4.77471C248.471 5.49575 249.388 5.85627 250.61 5.85627C251.833 5.85627 252.749 5.49575 253.361 4.77471C253.972 4.05367 254.277 2.72252 254.277 0.78125H265.611C265.611 4.99657 264.472 8.15805 262.194 10.2657C259.916 12.3734 256.055 13.4272 250.61 13.4272Z" fill="#191919"/>
<path d="M194.774 63.0976C191.607 63.0976 188.885 62.4875 186.607 61.2673C184.385 60.0471 182.69 58.3831 181.524 56.2755C180.357 54.1124 179.773 51.7274 179.773 49.1205C179.773 44.7388 181.107 41.3832 183.774 39.0537C186.496 36.7242 190.58 35.5594 196.024 35.5594H208.525V33.7291C208.525 31.0668 207.886 29.2364 206.608 28.2381C205.386 27.2397 203.664 26.7405 201.441 26.7405C199.33 26.7405 197.774 27.0733 196.774 27.7389C195.774 28.349 195.219 29.3751 195.108 30.8172H182.274C182.44 28.1549 183.274 25.7699 184.774 23.6622C186.329 21.5546 188.524 19.8906 191.357 18.6704C194.246 17.4502 197.747 16.8401 201.858 16.8401C205.747 16.8401 209.164 17.4225 212.108 18.5872C215.053 19.752 217.331 21.6378 218.942 24.2446C220.609 26.796 221.442 30.2348 221.442 34.5611V50.7845C221.442 53.114 221.498 55.1662 221.609 56.941C221.72 58.6605 221.887 60.3521 222.109 62.0161H209.858C209.803 61.0732 209.719 60.2412 209.608 59.5202C209.553 58.7991 209.525 57.9117 209.525 56.8579C208.192 58.6327 206.33 60.1303 203.941 61.3505C201.608 62.5152 198.552 63.0976 194.774 63.0976ZM198.941 54.0292C200.774 54.0292 202.413 53.6964 203.858 53.0308C205.303 52.3652 206.441 51.3669 207.275 50.0357C208.108 48.6491 208.525 47.0961 208.525 45.3767V43.5463H198.524C196.635 43.5463 195.219 44.0455 194.274 45.0439C193.385 46.0422 192.941 47.1793 192.941 48.455C192.941 50.1189 193.385 51.4778 194.274 52.5316C195.219 53.53 196.774 54.0292 198.941 54.0292Z" fill="#191919"/>
<path d="M56.2578 62.0107V17.9163H68.7584V44.5393L87.5094 17.9163H98.7599V62.0107H86.2593V35.3876L67.5084 62.0107H56.2578Z" fill="#191919"/>
<path d="M32.4183 62.014V38.8021C30.9738 39.745 29.057 40.6047 26.668 41.3812C24.3345 42.1022 21.5566 42.4627 18.3342 42.4627C12.2784 42.4627 7.69483 40.9652 4.58356 37.9701C1.52785 34.9195 0 30.0387 0 23.3274V3.77612H15.0008V20.8315C15.0008 24.1039 15.6952 26.4612 17.0842 27.9033C18.4731 29.2899 20.4177 29.9832 22.9178 29.9832C25.1957 29.9832 27.1125 29.7336 28.6681 29.2344C30.2237 28.6798 31.4738 28.0974 32.4183 27.4873V3.77612H47.5024V62.014H32.4183Z" fill="#191919"/>
<path d="M134.613 62.5646V28.953H106.492V18.4702H175.568V28.953H147.447V62.5646H134.613Z" fill="#191919"/>
<path d="M430.191 63.7812V30.1696H402.07V19.6868H471.146V30.1696H443.025V63.7812H430.191Z" fill="#191919"/>
</svg>
