<svg width="532" height="68" viewBox="0 0 532 68" fill="none" xmlns="http://www.w3.org/2000/svg">
<path d="M409.719 67.5422V13.5413H420.223V18.8674C421.259 17.2893 422.787 15.8591 424.809 14.5769C426.881 13.2454 429.42 12.5796 432.429 12.5796C437.952 12.5796 442.144 14.207 445.004 17.4619C447.865 20.7167 449.295 25.5743 449.295 32.0347V33.5142C449.295 37.9527 448.604 41.676 447.224 44.6843C445.843 47.6432 443.895 49.8871 441.38 51.4159C438.864 52.9447 435.881 53.7091 432.429 53.7091C430.21 53.7091 428.089 53.2159 426.067 52.2296C424.094 51.194 422.442 49.7145 421.111 47.7912V67.5422H409.719ZM429.692 44.3144C431.96 44.3144 433.834 43.4021 435.314 41.5774C436.843 39.7034 437.607 37.0156 437.607 33.5142V32.0347C437.607 28.6319 436.867 26.1168 435.388 24.4894C433.958 22.8127 432.059 21.9743 429.692 21.9743C428.114 21.9743 426.659 22.3195 425.327 23.0099C424.045 23.651 423.009 24.6373 422.22 25.9689C421.481 27.3004 421.111 28.9525 421.111 30.9251V34.6238C421.111 36.6458 421.481 38.3965 422.22 39.876C423.009 41.3061 424.045 42.4157 425.327 43.2048C426.659 43.9445 428.114 44.3144 429.692 44.3144Z" fill="black"/>
<path d="M383.86 53.7091C380.21 53.7091 376.857 52.994 373.799 51.5638C370.791 50.1337 368.374 47.9145 366.55 44.9062C364.774 41.8486 363.887 38.0513 363.887 33.5142V32.0347C363.887 27.7936 364.774 24.2428 366.55 21.3825C368.374 18.4728 370.791 16.2783 373.799 14.7988C376.857 13.3193 380.21 12.5796 383.86 12.5796C387.558 12.5796 390.912 13.3193 393.92 14.7988C396.928 16.2783 399.32 18.4728 401.096 21.3825C402.92 24.2428 403.833 27.7936 403.833 32.0347V33.5142C403.833 38.002 402.92 41.75 401.096 44.7582C399.32 47.7172 396.928 49.9611 393.92 51.4899C390.912 52.9693 387.558 53.7091 383.86 53.7091ZM383.86 44.2404C385.635 44.2404 387.139 43.8212 388.372 42.9829C389.605 42.0952 390.542 40.8376 391.183 39.2102C391.824 37.5828 392.145 35.6841 392.145 33.5142V32.0347C392.145 30.0621 391.824 28.336 391.183 26.8566C390.542 25.3771 389.605 24.2182 388.372 23.3798C387.139 22.4921 385.635 22.0483 383.86 22.0483C382.084 22.0483 380.58 22.4921 379.347 23.3798C378.114 24.2182 377.177 25.3771 376.536 26.8566C375.895 28.336 375.575 30.0621 375.575 32.0347V33.5142C375.575 35.7827 375.895 37.7307 376.536 39.3582C377.177 40.9363 378.114 42.1445 379.347 42.9829C380.58 43.8212 382.084 44.2404 383.86 44.2404Z" fill="black"/>
<path d="M332.062 52.7457V13.5396H360.912V22.8603H343.454V52.7457H332.062Z" fill="black"/>
<path d="M270.656 52.7457V13.5396H291.665C295.117 13.5396 297.903 14.0081 300.024 14.9451C302.144 15.8327 303.698 17.0656 304.684 18.6438C305.671 20.1725 306.164 21.9233 306.164 23.8959C306.164 25.7206 305.621 27.4713 304.536 29.1481C303.451 30.7755 301.898 31.8358 299.876 32.3289C302.292 32.9207 304.191 34.055 305.572 35.7317C306.953 37.4085 307.643 39.3565 307.643 41.5757C307.643 44.9785 306.435 47.6908 304.018 49.7128C301.602 51.7348 297.977 52.7457 293.144 52.7457H270.656ZM282.048 44.1648H290.259C292.281 44.1648 293.785 43.8689 294.772 43.2771C295.758 42.6853 296.251 41.7729 296.251 40.54C296.251 39.3071 295.758 38.3948 294.772 37.803C293.785 37.1619 292.281 36.8413 290.259 36.8413H282.048V44.1648ZM282.048 28.8522H289.668C291.69 28.8522 293.046 28.5563 293.736 27.9645C294.427 27.3234 294.772 26.485 294.772 25.4494C294.772 24.4137 294.402 23.6 293.662 23.0082C292.922 22.4164 291.591 22.1205 289.668 22.1205H282.048V28.8522Z" fill="black"/>
<path d="M174.75 52.7457V13.5396H186.142V28.1124H225.817V13.5396H237.209V52.7457H225.817V37.4331H186.142V52.7457H174.75Z" fill="black"/>
<path d="M129.605 52.7457V13.5396H140.702V37.2112L157.346 13.5396H167.332V52.7457H156.236V29.0741L139.592 52.7457H129.605Z" fill="black"/>
<path d="M52.8203 61.9925V43.425H56.9629C57.6533 42.3894 58.1958 41.1318 58.5903 39.6523C59.0341 38.1236 59.3547 36.2495 59.5519 34.0303C59.7492 31.8111 59.8478 29.1727 59.8478 26.1151V13.5396H116.758V43.425H121.197V61.9925H111.58V52.7457H62.4369V61.9925H52.8203ZM68.1329 43.425H105.366V22.8603H70.3521V27.5946C70.3521 31.3426 70.1795 34.4988 69.8343 37.0633C69.4891 39.5784 68.922 41.699 68.1329 43.425Z" fill="black"/>
<path d="M25.1511 53.7051C21.7976 53.7051 18.5921 53.2119 15.5345 52.2256C12.4769 51.2393 9.78922 49.6858 7.47137 47.5652C5.15352 45.4446 3.32883 42.7076 1.9973 39.3541C0.665765 35.9513 0 31.9074 0 27.2224V25.7429C0 21.2059 0.665765 17.3099 1.9973 14.055C3.32883 10.8002 5.15352 8.13713 7.47137 6.06586C9.78922 3.99459 12.4769 2.4658 15.5345 1.47948C18.5921 0.49316 21.7976 0 25.1511 0C28.6032 0 31.8334 0.49316 34.8417 1.47948C37.85 2.4658 40.5131 3.99459 42.8309 6.06586C45.1487 8.13713 46.9734 10.8002 48.305 14.055C49.6365 17.3099 50.3023 21.2059 50.3023 25.7429V27.2224C50.3023 31.9074 49.6365 35.9513 48.305 39.3541C46.9734 42.7076 45.1487 45.4446 42.8309 47.5652C40.5131 49.6858 37.85 51.2393 34.8417 52.2256C31.8334 53.2119 28.6032 53.7051 25.1511 53.7051ZM25.0772 42.609C27.0991 42.609 28.9731 42.1651 30.6992 41.2774C32.4252 40.3404 33.8061 38.787 34.8417 36.6171C35.9267 34.3979 36.4691 31.2663 36.4691 27.2224V25.7429C36.4691 21.8963 35.9267 18.9127 34.8417 16.7921C33.8061 14.6715 32.4252 13.192 30.6992 12.3536C28.9731 11.5153 27.0991 11.0961 25.0772 11.0961C23.1538 11.0961 21.3291 11.5153 19.6031 12.3536C17.877 13.192 16.4715 14.6715 15.3866 16.7921C14.3016 18.9127 13.7591 21.8963 13.7591 25.7429V27.2224C13.7591 31.2663 14.3016 34.3979 15.3866 36.6171C16.4715 38.787 17.877 40.3404 19.6031 41.2774C21.3291 42.1651 23.1538 42.609 25.0772 42.609Z" fill="black"/>
<path d="M456.898 53.2294V14.0232H468.29V26.7467H500.459C505.588 26.7467 509.459 27.8317 512.073 30.0016C514.687 32.1715 515.994 35.5003 515.994 39.988C515.994 42.5525 515.476 44.8457 514.44 46.8676C513.405 48.8896 511.753 50.4677 509.484 51.6019C507.216 52.6869 504.207 53.2294 500.459 53.2294H456.898ZM468.29 44.6484H498.98C500.952 44.6484 502.383 44.2785 503.27 43.5388C504.158 42.7497 504.602 41.5662 504.602 39.988C504.602 38.3606 504.158 37.177 503.27 36.4373C502.432 35.6976 501.002 35.3277 498.98 35.3277H468.29V44.6484ZM520.472 53.2294V14.0232H531.864V53.2294H520.472Z" fill="black"/>
</svg>
