<svg width="660" height="65" viewBox="0 0 660 65" fill="none" xmlns="http://www.w3.org/2000/svg">
<path d="M207.734 64.2576V45.6902H211.877C212.567 44.6545 213.11 43.397 213.504 41.9175C213.948 40.3887 214.269 38.5147 214.466 36.2955C214.663 34.0762 214.762 31.4378 214.762 28.3803V15.8047H271.672V45.6902H276.111V64.2576H266.494V55.0109H217.351V64.2576H207.734ZM223.047 45.6902H260.28V25.1254H225.266V29.8597C225.266 33.6077 225.094 36.764 224.748 39.3284C224.403 41.8435 223.836 43.9641 223.047 45.6902Z" fill="black"/>
<path d="M181.614 55.9732C177.964 55.9732 174.611 55.2582 171.553 53.828C168.545 52.3978 166.128 50.1786 164.304 47.1704C162.528 44.1128 161.641 40.3154 161.641 35.7784V34.2989C161.641 30.0577 162.528 26.507 164.304 23.6466C166.128 20.737 168.545 18.5424 171.553 17.063C174.611 15.5835 177.964 14.8438 181.614 14.8438C185.312 14.8438 188.666 15.5835 191.674 17.063C194.682 18.5424 197.074 20.737 198.85 23.6466C200.674 26.507 201.587 30.0577 201.587 34.2989V35.7784C201.587 40.2661 200.674 44.0141 198.85 47.0224C197.074 49.9814 194.682 52.2252 191.674 53.754C188.666 55.2335 185.312 55.9732 181.614 55.9732ZM181.614 46.5046C183.389 46.5046 184.893 46.0854 186.126 45.247C187.359 44.3593 188.296 43.1018 188.937 41.4744C189.578 39.8469 189.899 37.9483 189.899 35.7784V34.2989C189.899 32.3263 189.578 30.6002 188.937 29.1207C188.296 27.6412 187.359 26.4823 186.126 25.6439C184.893 24.7563 183.389 24.3124 181.614 24.3124C179.838 24.3124 178.334 24.7563 177.101 25.6439C175.868 26.4823 174.931 27.6412 174.29 29.1207C173.649 30.6002 173.329 32.3263 173.329 34.2989V35.7784C173.329 38.0469 173.649 39.9949 174.29 41.6223C174.931 43.2004 175.868 44.4087 177.101 45.247C178.334 46.0854 179.838 46.5046 181.614 46.5046Z" fill="black"/>
<path d="M118.688 55.0109L131.189 34.5941L119.427 15.8047H132.003L139.696 27.7145L147.093 15.8047H159.373L147.685 34.2242L160.113 55.0109H147.463L139.252 41.0298L131.041 55.0109H118.688Z" fill="black"/>
<path d="M97.2308 55.9732C93.5814 55.9732 90.2279 55.2582 87.1703 53.828C84.162 52.3978 81.7456 50.1786 79.9209 47.1704C78.1455 44.1128 77.2578 40.3154 77.2578 35.7784V34.2989C77.2578 30.0577 78.1455 26.507 79.9209 23.6466C81.7456 20.737 84.162 18.5424 87.1703 17.063C90.2279 15.5835 93.5814 14.8438 97.2308 14.8438C100.929 14.8438 104.283 15.5835 107.291 17.063C110.299 18.5424 112.691 20.737 114.467 23.6466C116.291 26.507 117.204 30.0577 117.204 34.2989V35.7784C117.204 40.2661 116.291 44.0141 114.467 47.0224C112.691 49.9814 110.299 52.2252 107.291 53.754C104.283 55.2335 100.929 55.9732 97.2308 55.9732ZM97.2308 46.5046C99.0061 46.5046 100.51 46.0854 101.743 45.247C102.976 44.3593 103.913 43.1018 104.554 41.4744C105.195 39.8469 105.516 37.9483 105.516 35.7784V34.2989C105.516 32.3263 105.195 30.6002 104.554 29.1207C103.913 27.6412 102.976 26.4823 101.743 25.6439C100.51 24.7563 99.0061 24.3124 97.2308 24.3124C95.4554 24.3124 93.9513 24.7563 92.7184 25.6439C91.4855 26.4823 90.5485 27.6412 89.9074 29.1207C89.2662 30.6002 88.9457 32.3263 88.9457 34.2989V35.7784C88.9457 38.0469 89.2662 39.9949 89.9074 41.6223C90.5485 43.2004 91.4855 44.4087 92.7184 45.247C93.9513 46.0854 95.4554 46.5046 97.2308 46.5046Z" fill="black"/>
<path d="M0 55.0161V3.23438H69.8559V55.0161H56.5406V14.1825H13.3153V55.0161H0Z" fill="black"/>
<path d="M621.383 54.4448V15.2386H632.479V38.9103L649.123 15.2386H659.109V54.4448H648.013V30.7732L631.369 54.4448H621.383ZM640.246 11.244C635.413 11.244 631.986 10.307 629.964 8.43303C627.942 6.55902 626.931 3.74801 626.931 0H636.991C636.991 1.72606 637.263 2.90964 637.805 3.55075C638.347 4.19186 639.161 4.51241 640.246 4.51241C641.331 4.51241 642.145 4.19186 642.687 3.55075C643.23 2.90964 643.501 1.72606 643.501 0H653.561C653.561 3.74801 652.551 6.55902 650.529 8.43303C648.507 10.307 645.079 11.244 640.246 11.244Z" fill="black"/>
<path d="M596.616 55.4107C592.77 55.4107 589.318 54.6957 586.26 53.2655C583.202 51.786 580.761 49.5422 578.936 46.5339C577.161 43.5256 576.273 39.7529 576.273 35.2159V33.7364C576.273 29.3966 577.136 25.7965 578.863 22.9362C580.589 20.0759 582.931 17.9306 585.89 16.5005C588.898 15.021 592.227 14.2812 595.876 14.2812C602.337 14.2812 607.219 15.958 610.523 19.3115C613.827 22.6156 615.48 27.424 615.48 33.7364V37.8789H587.961C588.06 39.8023 588.504 41.405 589.293 42.6872C590.131 43.9694 591.192 44.9065 592.474 45.4982C593.756 46.0407 595.137 46.312 596.616 46.312C598.786 46.312 600.488 45.9914 601.72 45.3503C603.003 44.6599 603.841 43.7475 604.236 42.6133H614.74C613.951 46.9037 612.003 50.1093 608.896 52.2299C605.789 54.3505 601.696 55.4107 596.616 55.4107ZM596.246 23.38C594.866 23.38 593.559 23.602 592.326 24.0458C591.093 24.4897 590.082 25.2294 589.293 26.265C588.553 27.2513 588.134 28.6075 588.035 30.3336H604.309C604.309 28.5089 603.94 27.1034 603.2 26.1171C602.46 25.0814 601.474 24.3664 600.241 23.9718C599.057 23.5773 597.726 23.38 596.246 23.38Z" fill="black"/>
<path d="M510.219 54.4484V15.2422H521.611V27.9657H555.259C560.388 27.9657 564.259 29.0507 566.873 31.2206C569.487 33.3905 570.794 36.7193 570.794 41.207C570.794 43.7715 570.276 46.0647 569.24 48.0866C568.205 50.1086 566.552 51.6867 564.284 52.8209C562.015 53.9059 559.007 54.4484 555.259 54.4484H510.219ZM521.611 45.8674H553.78C555.802 45.8674 557.232 45.4975 558.07 44.7578C558.958 43.9687 559.402 42.7851 559.402 41.207C559.402 39.5796 558.958 38.396 558.07 37.6563C557.232 36.9165 555.802 36.5467 553.78 36.5467H521.611V45.8674Z" fill="black"/>
<path d="M456.242 54.4484V15.2422H470.075L479.396 34.6973L488.717 15.2422H502.106V54.4484H491.306V30.4068L482.873 47.051H475.475L467.042 30.4068V54.4484H456.242Z" fill="black"/>
<path d="M431.476 55.4107C427.629 55.4107 424.177 54.6957 421.119 53.2655C418.062 51.786 415.621 49.5422 413.796 46.5339C412.021 43.5256 411.133 39.7529 411.133 35.2159V33.7364C411.133 29.3966 411.996 25.7965 413.722 22.9362C415.448 20.0759 417.79 17.9306 420.749 16.5005C423.758 15.021 427.087 14.2812 430.736 14.2812C437.196 14.2812 442.079 15.958 445.383 19.3115C448.687 22.6156 450.339 27.424 450.339 33.7364V37.8789H422.821C422.919 39.8023 423.363 41.405 424.152 42.6872C424.991 43.9694 426.051 44.9065 427.333 45.4982C428.615 46.0407 429.996 46.312 431.476 46.312C433.646 46.312 435.347 45.9914 436.58 45.3503C437.862 44.6599 438.7 43.7475 439.095 42.6133H449.599C448.81 46.9037 446.862 50.1093 443.755 52.2299C440.648 54.3505 436.555 55.4107 431.476 55.4107ZM431.106 23.38C429.725 23.38 428.418 23.602 427.185 24.0458C425.952 24.4897 424.941 25.2294 424.152 26.265C423.412 27.2513 422.993 28.6075 422.895 30.3336H439.169C439.169 28.5089 438.799 27.1034 438.059 26.1171C437.32 25.0814 436.333 24.3664 435.1 23.9718C433.917 23.5773 432.585 23.38 431.106 23.38Z" fill="black"/>
<path d="M388.543 55.4107C384.697 55.4107 381.269 54.671 378.261 53.1915C375.253 51.7121 372.885 49.4682 371.159 46.4599C369.433 43.4516 368.57 39.7036 368.57 35.2159V33.7364C368.57 29.5939 369.458 26.0678 371.233 23.1581C373.058 20.2485 375.475 18.0539 378.483 16.5744C381.54 15.0456 384.894 14.2812 388.543 14.2812C392.489 14.2812 395.793 14.9717 398.456 16.3525C401.119 17.6841 403.165 19.4841 404.596 21.7526C406.026 24.0211 406.839 26.5363 407.037 29.298H395.275C394.93 27.5226 394.215 26.1664 393.13 25.2294C392.094 24.2431 390.565 23.7499 388.543 23.7499C386.965 23.7499 385.535 24.1198 384.253 24.8595C383.02 25.5993 382.034 26.7089 381.294 28.1884C380.603 29.6185 380.258 31.4679 380.258 33.7364V35.2159C380.258 37.6324 380.603 39.6297 381.294 41.2078C381.984 42.7859 382.946 43.9694 384.179 44.7585C385.412 45.4982 386.867 45.8681 388.543 45.8681C390.269 45.8681 391.724 45.4243 392.908 44.5366C394.141 43.5996 394.93 42.2187 395.275 40.394H407.037C406.839 43.4516 405.952 46.1147 404.374 48.3832C402.796 50.6518 400.65 52.4025 397.938 53.6354C395.275 54.819 392.143 55.4107 388.543 55.4107Z" fill="black"/>
<path d="M327.52 55.4107C323.673 55.4107 320.246 54.671 317.237 53.1915C314.229 51.7121 311.862 49.4682 310.136 46.4599C308.41 43.4516 307.547 39.7036 307.547 35.2159V33.7364C307.547 29.5939 308.435 26.0678 310.21 23.1581C312.035 20.2485 314.451 18.0539 317.459 16.5744C320.517 15.0456 323.87 14.2812 327.52 14.2812C331.465 14.2812 334.769 14.9717 337.432 16.3525C340.095 17.6841 342.142 19.4841 343.572 21.7526C345.002 24.0211 345.816 26.5363 346.013 29.298H334.251C333.906 27.5226 333.191 26.1664 332.106 25.2294C331.071 24.2431 329.542 23.7499 327.52 23.7499C325.942 23.7499 324.512 24.1198 323.229 24.8595C321.996 25.5993 321.01 26.7089 320.27 28.1884C319.58 29.6185 319.235 31.4679 319.235 33.7364V35.2159C319.235 37.6324 319.58 39.6297 320.27 41.2078C320.961 42.7859 321.922 43.9694 323.155 44.7585C324.388 45.4982 325.843 45.8681 327.52 45.8681C329.246 45.8681 330.701 45.4243 331.884 44.5366C333.117 43.5996 333.906 42.2187 334.251 40.394H346.013C345.816 43.4516 344.928 46.1147 343.35 48.3832C341.772 50.6518 339.627 52.4025 336.915 53.6354C334.251 54.819 331.12 55.4107 327.52 55.4107Z" fill="black"/>
</svg>
