<svg width="806" height="69" viewBox="0 0 806 69" fill="none" xmlns="http://www.w3.org/2000/svg">
<path d="M759.93 53.9619V15.1035H773.64L782.878 34.3861L792.116 15.1035H805.387V53.9619H794.682V30.1336L786.324 46.6301H778.992L770.634 30.1336V53.9619H759.93Z" fill="black"/>
<path d="M735.832 54.9131C731.579 54.9131 728.109 54.3754 725.42 53.3001C722.781 52.1759 720.801 50.5629 719.482 48.4611C718.162 46.3593 717.453 43.7932 717.355 40.7628H728.94C729.086 41.7403 729.306 42.5957 729.6 43.3289C729.942 44.0621 730.553 44.6242 731.432 45.0152C732.361 45.4062 733.754 45.6017 735.612 45.6017C738.055 45.6017 739.791 45.2107 740.817 44.4286C741.892 43.5977 742.43 42.6935 742.43 41.7159C742.43 40.445 741.941 39.5164 740.964 38.9298C740.035 38.2944 738.471 37.9767 736.271 37.9767H731.212V30.4983H735.685C737.542 30.4983 738.935 30.205 739.864 29.6185C740.793 29.0319 741.257 28.1277 741.257 26.9057C741.257 25.9281 740.793 25.0972 739.864 24.4129C738.984 23.7286 737.591 23.3865 735.685 23.3865C733.583 23.3865 732.092 23.7775 731.212 24.5595C730.333 25.3416 729.819 26.4658 729.673 27.9322H718.089C718.284 24.8528 719.066 22.3111 720.435 20.3071C721.852 18.2542 723.832 16.7146 726.374 15.6881C728.964 14.6617 732.068 14.1484 735.685 14.1484C741.159 14.1484 745.338 15.1749 748.222 17.2278C751.106 19.2318 752.548 22.0179 752.548 25.586C752.548 27.4434 752.108 29.1052 751.228 30.5716C750.348 32.038 748.882 33.1133 746.829 33.7976C749.664 34.3841 751.57 35.435 752.548 36.9502C753.574 38.4655 754.088 40.274 754.088 42.3757C754.088 44.7708 753.354 46.9214 751.888 48.8277C750.422 50.734 748.32 52.2248 745.583 53.3001C742.894 54.3754 739.644 54.9131 735.832 54.9131Z" fill="black"/>
<path d="M674.449 53.9619V15.1035H685.447V38.5652L701.943 15.1035H711.841V53.9619H700.844V30.5002L684.347 53.9619H674.449Z" fill="black"/>
<path d="M594.527 53.9619V15.1035H605.818V29.5471H655.799V15.1035H667.089V53.9619H655.799V38.7851H605.818V53.9619H594.527Z" fill="black"/>
<path d="M549.77 53.9619V15.1035H560.767V38.5652L577.264 15.1035H587.162V53.9619H576.164V30.5002L559.667 53.9619H549.77Z" fill="black"/>
<path d="M505.809 53.9619V15.1035H542.467V53.9619H531.177V24.3415H517.1V53.9619H505.809Z" fill="black"/>
<path d="M466.234 53.9619V15.1035H477.525V27.7142H485.297C490.38 27.7142 494.217 28.7895 496.808 30.9401C499.398 33.0908 500.694 36.3901 500.694 40.838C500.694 43.3797 500.18 45.6526 499.154 47.6566C498.128 49.6606 496.49 51.2247 494.242 52.3489C491.993 53.4242 489.012 53.9619 485.297 53.9619H466.234ZM477.525 45.457H483.831C485.835 45.457 487.252 45.0904 488.083 44.3573C488.963 43.5752 489.403 42.4021 489.403 40.838C489.403 39.225 488.963 38.052 488.083 37.3188C487.252 36.5856 485.835 36.219 483.831 36.219H477.525V45.457Z" fill="black"/>
<path d="M398.482 54.915C398.042 54.915 397.456 54.8906 396.722 54.8417C396.038 54.8417 395.5 54.7928 395.109 54.6951V44.7972C395.256 44.8461 395.623 44.8705 396.209 44.8705C397.333 44.8705 398.262 44.4061 398.995 43.4775C399.777 42.5488 400.339 40.9847 400.682 38.7851C401.073 36.5856 401.268 33.5796 401.268 29.7671V15.1035H458.114V53.9619H446.823V24.3415H411.899V31.2334C411.899 36.0724 411.606 40.056 411.019 43.1842C410.433 46.3124 409.577 48.7319 408.453 50.4426C407.329 52.1045 405.912 53.2776 404.201 53.9619C402.539 54.5973 400.633 54.915 398.482 54.915Z" fill="black"/>
<path d="M366.881 54.9131C364.095 54.9131 361.7 54.3754 359.696 53.3001C357.741 52.2248 356.25 50.7584 355.223 48.901C354.197 46.9948 353.684 44.893 353.684 42.5957C353.684 38.7343 354.857 35.7772 357.203 33.7243C359.598 31.6714 363.19 30.6449 367.981 30.6449H378.978V29.0319C378.978 26.6858 378.416 25.0728 377.292 24.193C376.217 23.3132 374.701 22.8732 372.746 22.8732C370.889 22.8732 369.52 23.1665 368.64 23.7531C367.761 24.2907 367.272 25.195 367.174 26.4658H355.883C356.03 24.1196 356.763 22.0179 358.083 20.1605C359.451 18.3031 361.382 16.8368 363.875 15.7614C366.416 14.6861 369.496 14.1484 373.113 14.1484C376.534 14.1484 379.54 14.6617 382.131 15.6881C384.721 16.7146 386.725 18.3764 388.143 20.6737C389.609 22.9221 390.342 25.9526 390.342 29.7651V44.0621C390.342 46.115 390.391 47.9235 390.489 49.4876C390.587 51.0028 390.733 52.4936 390.929 53.9599H380.151C380.102 53.129 380.029 52.3958 379.931 51.7604C379.882 51.125 379.858 50.3429 379.858 49.4142C378.685 50.9784 377.048 52.2981 374.946 53.3734C372.893 54.3998 370.205 54.9131 366.881 54.9131ZM370.547 46.9214C372.16 46.9214 373.602 46.6282 374.872 46.0416C376.143 45.4551 377.145 44.5753 377.878 43.4022C378.612 42.1802 378.978 40.8116 378.978 39.2964V37.6834H370.18C368.518 37.6834 367.272 38.1233 366.441 39.0031C365.659 39.8829 365.268 40.885 365.268 42.0092C365.268 43.4755 365.659 44.673 366.441 45.6017C367.272 46.4815 368.64 46.9214 370.547 46.9214Z" fill="black"/>
<path d="M291.699 53.9618V15.1034H302.697V38.5651L319.193 15.1034H329.091V53.9618H318.094V30.5002L301.597 53.9618H291.699ZM310.395 11.1443C305.605 11.1443 302.208 10.2156 300.204 8.35822C298.2 6.50084 297.198 3.71476 297.198 0H307.169C307.169 1.71075 307.438 2.88383 307.976 3.51925C308.513 4.15467 309.32 4.47238 310.395 4.47238C311.471 4.47238 312.277 4.15467 312.815 3.51925C313.352 2.88383 313.621 1.71075 313.621 0H323.592C323.592 3.71476 322.59 6.50084 320.586 8.35822C318.582 10.2156 315.185 11.1443 310.395 11.1443Z" fill="black"/>
<path d="M236 53.9619V15.1035H247.291V27.7142H253.596C258.68 27.7142 262.517 28.7895 265.107 30.9401C267.698 33.0908 268.993 36.3901 268.993 40.838C268.993 43.3797 268.48 45.6526 267.453 47.6566C266.427 49.6606 264.789 51.2247 262.541 52.3489C260.293 53.4242 257.311 53.9619 253.596 53.9619H236ZM247.291 45.457H252.13C254.085 45.457 255.503 45.0904 256.382 44.3573C257.262 43.5752 257.702 42.4021 257.702 40.838C257.702 39.225 257.262 38.052 256.382 37.3188C255.551 36.5856 254.134 36.219 252.13 36.219H247.291V45.457ZM272.366 53.9619V15.1035H283.656V53.9619H272.366Z" fill="black"/>
<path d="M166.738 53.9619V15.1035H178.029V29.5471H217.352V15.1035H228.643V53.9619H217.352V38.7851H178.029V53.9619H166.738Z" fill="black"/>
<path d="M121.629 68.6235V15.1016H132.04V20.3804C133.066 18.8163 134.582 17.3989 136.586 16.128C138.639 14.8083 141.156 14.1484 144.137 14.1484C149.612 14.1484 153.766 15.7614 156.601 18.9874C159.436 22.2134 160.854 27.0279 160.854 33.431V34.8973C160.854 39.2964 160.17 42.9867 158.801 45.9683C157.432 48.901 155.502 51.125 153.009 52.6402C150.516 54.1555 147.559 54.9131 144.137 54.9131C141.938 54.9131 139.836 54.4243 137.832 53.4467C135.877 52.4203 134.24 50.9539 132.92 49.0477V68.6235H121.629ZM141.425 45.6017C143.673 45.6017 145.53 44.6975 146.997 42.889C148.512 41.0316 149.27 38.3677 149.27 34.8973V33.431C149.27 30.0584 148.536 27.5656 147.07 25.9526C145.653 24.2907 143.771 23.4598 141.425 23.4598C139.861 23.4598 138.419 23.8019 137.099 24.4862C135.828 25.1217 134.802 26.0992 134.02 27.4189C133.286 28.7387 132.92 30.3761 132.92 32.3312V35.9971C132.92 38.0011 133.286 39.7363 134.02 41.2027C134.802 42.6201 135.828 43.7199 137.099 44.502C138.419 45.2351 139.861 45.6017 141.425 45.6017Z" fill="black"/>
<path d="M91.205 54.9131C88.4189 54.9131 86.0239 54.3754 84.0199 53.3001C82.0647 52.2248 80.5739 50.7584 79.5475 48.901C78.521 46.9948 78.0078 44.893 78.0078 42.5957C78.0078 38.7343 79.1809 35.7772 81.5271 33.7243C83.9221 31.6714 87.5147 30.6449 92.3048 30.6449H103.302V29.0319C103.302 26.6858 102.74 25.0728 101.616 24.193C100.541 23.3132 99.0256 22.8732 97.0704 22.8732C95.213 22.8732 93.8444 23.1665 92.9646 23.7531C92.0848 24.2907 91.596 25.195 91.4983 26.4658H80.2073C80.354 24.1196 81.0872 22.0179 82.4069 20.1605C83.7755 18.3031 85.7062 16.8368 88.199 15.7614C90.7407 14.6861 93.82 14.1484 97.437 14.1484C100.858 14.1484 103.865 14.6617 106.455 15.6881C109.046 16.7146 111.05 18.3764 112.467 20.6737C113.933 22.9221 114.667 25.9526 114.667 29.7651V44.0621C114.667 46.115 114.716 47.9235 114.813 49.4876C114.911 51.0028 115.058 52.4936 115.253 53.9599H104.476C104.427 53.129 104.353 52.3958 104.256 51.7604C104.207 51.125 104.182 50.3429 104.182 49.4142C103.009 50.9784 101.372 52.2981 99.2699 53.3734C97.217 54.3998 94.5287 54.9131 91.205 54.9131ZM94.8709 46.9214C96.4839 46.9214 97.9258 46.6282 99.1966 46.0416C100.467 45.4551 101.469 44.5753 102.203 43.4022C102.936 42.1802 103.302 40.8116 103.302 39.2964V37.6834H94.5043C92.8424 37.6834 91.596 38.1233 90.7651 39.0031C89.983 39.8829 89.592 40.885 89.592 42.0092C89.592 43.4755 89.983 44.673 90.7651 45.6017C91.596 46.4815 92.9646 46.9214 94.8709 46.9214Z" fill="black"/>
<path d="M0 53.9601V2.6377H70.302V53.9601H57.1048V13.4887H13.1972V53.9601H0Z" fill="black"/>
</svg>
