<svg width="693" height="70" viewBox="0 0 693 70" fill="none" xmlns="http://www.w3.org/2000/svg">
<path d="M642.137 54.4468V15.2406H692.492V24.5613H653.529V54.4468H642.137Z" fill="black"/>
<path d="M596.992 54.4468V15.2406H608.384V29.8135H623.327V15.2406H634.719V54.4468H623.327V39.1342H608.384V54.4468H596.992Z" fill="black"/>
<path d="M530.332 54.4468V15.2406H541.428V41.0629L581.729 15.2406H591.715V54.4468H580.619V28.6246L540.319 54.4468H530.332Z" fill="black"/>
<path d="M492.487 69.2376V55.4045C485.878 55.4045 480.799 53.7031 477.248 50.3003C473.697 46.8482 471.922 41.8426 471.922 35.2836V33.7301C471.922 27.4177 473.697 22.6094 477.248 19.3052C480.799 15.9517 485.878 14.275 492.487 14.275V2.66107H503.879V14.275C510.487 14.275 515.566 15.9517 519.117 19.3052C522.668 22.6094 524.443 27.4177 524.443 33.7301V35.2836C524.443 41.8426 522.668 46.8482 519.117 50.3003C515.566 53.7031 510.487 55.4045 503.879 55.4045V69.2376H492.487ZM512.829 35.2096V33.7301C512.829 30.426 512.065 27.9355 510.536 26.2588C509.057 24.582 506.714 23.7436 503.509 23.7436V45.9358C506.714 45.9358 509.057 45.0235 510.536 43.1988C512.065 41.3248 512.829 38.6617 512.829 35.2096ZM483.462 33.7301V35.2096C483.462 38.711 484.226 41.3741 485.755 43.1988C487.333 45.0235 489.725 45.9358 492.93 45.9358V23.7436C489.577 23.7436 487.16 24.6067 485.681 26.3327C484.202 28.0588 483.462 30.5246 483.462 33.7301Z" fill="black"/>
<path d="M427.902 69.2434V15.2425H438.407V20.5686C439.442 18.9905 440.971 17.5603 442.993 16.2781C445.064 14.9466 447.604 14.2808 450.612 14.2808C456.136 14.2808 460.328 15.9082 463.188 19.1631C466.048 22.4179 467.478 27.2755 467.478 33.7359V35.2154C467.478 39.6539 466.788 43.3772 465.407 46.3855C464.026 49.3444 462.078 51.5883 459.563 53.1171C457.048 54.6459 454.064 55.4103 450.612 55.4103C448.393 55.4103 446.273 54.9171 444.251 53.9308C442.278 52.8952 440.626 51.4157 439.294 49.4924V69.2434H427.902ZM447.875 46.0156C450.144 46.0156 452.018 45.1033 453.497 43.2786C455.026 41.4046 455.791 38.7168 455.791 35.2154V33.7359C455.791 30.3331 455.051 27.818 453.571 26.1906C452.141 24.5139 450.242 23.6755 447.875 23.6755C446.297 23.6755 444.842 24.0207 443.511 24.7111C442.229 25.3522 441.193 26.3385 440.404 27.6701C439.664 29.0016 439.294 30.6537 439.294 32.6263V36.325C439.294 38.347 439.664 40.0977 440.404 41.5772C441.193 43.0073 442.229 44.1169 443.511 44.906C444.842 45.6457 446.297 46.0156 447.875 46.0156Z" fill="black"/>
<path d="M403.124 55.4103C399.277 55.4103 395.825 54.6952 392.768 53.265C389.71 51.7856 387.269 49.5417 385.444 46.5334C383.669 43.5252 382.781 39.7525 382.781 35.2154V33.7359C382.781 29.3961 383.644 25.7961 385.37 22.9357C387.096 20.0754 389.439 17.9302 392.398 16.5C395.406 15.0205 398.735 14.2808 402.384 14.2808C408.845 14.2808 413.727 15.9575 417.031 19.311C420.335 22.6152 421.987 27.4235 421.987 33.7359V37.8785H394.469C394.568 39.8018 395.012 41.4046 395.801 42.6868C396.639 43.969 397.699 44.906 398.982 45.4978C400.264 46.0403 401.645 46.3115 403.124 46.3115C405.294 46.3115 406.995 45.9909 408.228 45.3498C409.511 44.6594 410.349 43.7471 410.743 42.6128H421.248C420.459 46.9033 418.511 50.1088 415.404 52.2294C412.297 54.35 408.204 55.4103 403.124 55.4103ZM402.754 23.3796C401.373 23.3796 400.067 23.6015 398.834 24.0454C397.601 24.4892 396.59 25.2289 395.801 26.2646C395.061 27.2509 394.642 28.6071 394.543 30.3331H410.817C410.817 28.5084 410.447 27.1029 409.708 26.1166C408.968 25.081 407.982 24.3659 406.749 23.9714C405.565 23.5768 404.234 23.3796 402.754 23.3796Z" fill="black"/>
<path d="M360.2 55.4103C356.353 55.4103 352.925 54.6706 349.917 53.1911C346.909 51.7116 344.542 49.4677 342.816 46.4594C341.09 43.4512 340.227 39.7032 340.227 35.2154V33.7359C340.227 29.5934 341.114 26.0673 342.89 23.1577C344.714 20.248 347.131 18.0535 350.139 16.574C353.197 15.0452 356.55 14.2808 360.2 14.2808C364.145 14.2808 367.449 14.9712 370.112 16.3521C372.775 17.6836 374.822 19.4836 376.252 21.7522C377.682 24.0207 378.496 26.5358 378.693 29.2975H366.931C366.586 27.5221 365.871 26.1659 364.786 25.2289C363.75 24.2426 362.221 23.7495 360.2 23.7495C358.621 23.7495 357.191 24.1193 355.909 24.8591C354.676 25.5988 353.69 26.7084 352.95 28.1879C352.26 29.6181 351.914 31.4674 351.914 33.7359V35.2154C351.914 37.6319 352.26 39.6292 352.95 41.2073C353.641 42.7854 354.602 43.969 355.835 44.758C357.068 45.4978 358.523 45.8677 360.2 45.8677C361.926 45.8677 363.38 45.4238 364.564 44.5361C365.797 43.5991 366.586 42.2183 366.931 40.3936H378.693C378.496 43.4512 377.608 46.1142 376.03 48.3828C374.452 50.6513 372.307 52.402 369.594 53.6349C366.931 54.8185 363.8 55.4103 360.2 55.4103Z" fill="black"/>
<path d="M278.07 54.4448V15.2386H289.166V38.9103L305.811 15.2386H315.797V54.4448H304.701V30.7732L288.057 54.4448H278.07ZM296.934 11.244C292.101 11.244 288.673 10.307 286.651 8.43303C284.629 6.55902 283.618 3.74801 283.618 0H293.679C293.679 1.72606 293.95 2.90964 294.493 3.55075C295.035 4.19186 295.849 4.51241 296.934 4.51241C298.019 4.51241 298.832 4.19186 299.375 3.55075C299.917 2.90964 300.189 1.72606 300.189 0H310.249C310.249 3.74801 309.238 6.55902 307.216 8.43303C305.194 10.307 301.767 11.244 296.934 11.244Z" fill="black"/>
<path d="M232.918 54.4468V15.2406H244.014V38.9123L260.658 15.2406H270.645V54.4468H259.549V30.7752L242.904 54.4468H232.918Z" fill="black"/>
<path d="M164.105 54.4468V15.2406H175.497V29.8135H214.097V15.2406H225.489V54.4468H214.097V39.1342H175.497V54.4468H164.105Z" fill="black"/>
<path d="M133.562 54.2595V24.3741H121.504V15.0533H157.011V24.3741H144.954V54.2595H133.562Z" fill="black"/>
<path d="M99.4756 55.4103C95.629 55.4103 92.1769 54.6952 89.1193 53.265C86.0617 51.7856 83.6206 49.5417 81.7959 46.5334C80.0205 43.5252 79.1328 39.7525 79.1328 35.2154V33.7359C79.1328 29.3961 79.9958 25.7961 81.7219 22.9357C83.448 20.0754 85.7905 17.9302 88.7494 16.5C91.7577 15.0205 95.0865 14.2808 98.7359 14.2808C105.196 14.2808 110.079 15.9575 113.383 19.311C116.687 22.6152 118.339 27.4235 118.339 33.7359V37.8785H90.8207C90.9193 39.8018 91.3632 41.4046 92.1522 42.6868C92.9906 43.969 94.0509 44.906 95.3331 45.4978C96.6153 46.0403 97.9962 46.3115 99.4756 46.3115C101.646 46.3115 103.347 45.9909 104.58 45.3498C105.862 44.6594 106.7 43.7471 107.095 42.6128H117.599C116.81 46.9033 114.862 50.1088 111.755 52.2294C108.648 54.35 104.555 55.4103 99.4756 55.4103ZM99.1058 23.3796C97.7249 23.3796 96.4181 23.6015 95.1852 24.0454C93.9523 24.4892 92.9413 25.2289 92.1522 26.2646C91.4125 27.2509 90.9933 28.6071 90.8947 30.3331H107.169C107.169 28.5084 106.799 27.1029 106.059 26.1166C105.32 25.081 104.333 24.3659 103.1 23.9714C101.917 23.5768 100.585 23.3796 99.1058 23.3796Z" fill="black"/>
<path d="M3.32883 55.4045C2.9343 55.4045 2.36717 55.3798 1.62743 55.3305C0.937003 55.3305 0.394528 55.2812 0 55.1826V43.4947C0.147948 43.544 0.517818 43.5686 1.10961 43.5686C2.09593 43.5686 2.9343 43.4454 3.62472 43.1988C4.36446 42.9029 4.98091 42.3111 5.47407 41.4234C5.96723 40.4864 6.38642 39.1302 6.73163 37.3548C7.12615 35.5795 7.39739 33.2123 7.54534 30.2533C7.69329 27.2451 7.76726 23.4724 7.76726 18.9353V2.66107H71.7053V54.4428H58.316V13.5352H20.1949V20.4148C20.1949 26.5793 19.9483 31.7575 19.4551 35.9493C18.962 40.0919 18.2222 43.4454 17.2359 46.0098C16.2989 48.5742 15.14 50.5469 13.7591 51.9277C12.3783 53.2592 10.8002 54.1716 9.02482 54.6647C7.29876 55.1579 5.4001 55.4045 3.32883 55.4045Z" fill="black"/>
</svg>
