<svg width="773" height="77" viewBox="0 0 773 77" fill="none" xmlns="http://www.w3.org/2000/svg">
<path d="M437.379 60.7755C433.15 60.7755 429.355 59.9912 425.993 58.4226C422.631 56.7999 419.947 54.3388 417.941 51.0393C415.989 47.7399 415.013 43.602 415.013 38.6257V37.003C415.013 32.2431 415.962 28.2945 417.859 25.1573C419.757 22.0201 422.333 19.6672 425.586 18.0986C428.894 16.4759 432.554 15.6646 436.566 15.6646C443.669 15.6646 449.037 17.5036 452.67 21.1817C456.303 24.8057 458.12 30.0795 458.12 37.003V41.5466H427.863C427.972 43.6561 428.46 45.414 429.327 46.8203C430.249 48.2267 431.415 49.2544 432.825 49.9034C434.235 50.4984 435.753 50.7959 437.379 50.7959C439.765 50.7959 441.636 50.4443 442.992 49.7412C444.401 48.9839 445.323 47.9833 445.757 46.7392H457.306C456.439 51.445 454.297 54.9609 450.881 57.2867C447.465 59.6126 442.964 60.7755 437.379 60.7755ZM436.973 25.6441C435.455 25.6441 434.018 25.8875 432.662 26.3744C431.307 26.8612 430.195 27.6725 429.327 28.8084C428.514 29.8902 428.053 31.3777 427.945 33.2708H445.838C445.838 31.2695 445.432 29.7279 444.618 28.6461C443.805 27.5102 442.72 26.7259 441.365 26.2932C440.064 25.8605 438.599 25.6441 436.973 25.6441Z" fill="#191919"/>
<path d="M385.997 59.7183V26.9398H372.739V16.7168H411.779V26.9398H398.522V59.7183H385.997Z" fill="#191919"/>
<path d="M325.529 59.7152V16.7138H337.729V42.6769L356.029 16.7138H367.01V59.7152H354.809V33.7521L336.509 59.7152H325.529ZM346.269 12.3325C340.956 12.3325 337.187 11.3048 334.964 9.24937C332.741 7.19396 331.629 4.11083 331.629 0H342.691C342.691 1.89315 342.989 3.1913 343.585 3.89447C344.182 4.59764 345.077 4.94923 346.269 4.94923C347.462 4.94923 348.357 4.59764 348.953 3.89447C349.55 3.1913 349.848 1.89315 349.848 0H360.909C360.909 4.11083 359.798 7.19396 357.575 9.24937C355.352 11.3048 351.583 12.3325 346.269 12.3325Z" fill="#191919"/>
<path d="M290.591 60.7755C287.501 60.7755 284.844 60.1805 282.621 58.9905C280.452 57.8006 278.798 56.1779 277.659 54.1225C276.521 52.013 275.951 49.6871 275.951 47.1449C275.951 42.8718 277.252 39.5993 279.855 37.3275C282.512 35.0558 286.497 33.9199 291.811 33.9199H304.011V32.1349C304.011 29.5386 303.388 27.7536 302.141 26.78C300.948 25.8064 299.267 25.3196 297.098 25.3196C295.037 25.3196 293.519 25.6441 292.543 26.2932C291.567 26.8882 291.025 27.8889 290.917 29.2952H278.391C278.554 26.6989 279.367 24.373 280.831 22.3176C282.349 20.2622 284.491 18.6395 287.257 17.4495C290.076 16.2595 293.492 15.6646 297.505 15.6646C301.3 15.6646 304.635 16.2325 307.509 17.3684C310.382 18.5043 312.606 20.3433 314.178 22.8856C315.805 25.3737 316.618 28.7273 316.618 32.9463V48.7676C316.618 51.0393 316.672 53.0407 316.781 54.7715C316.889 56.4483 317.052 58.0981 317.269 59.7208H305.313C305.258 58.8012 305.177 57.9899 305.069 57.2867C305.014 56.5836 304.987 55.7181 304.987 54.6904C303.686 56.4213 301.87 57.8817 299.538 59.0717C297.261 60.2076 294.278 60.7755 290.591 60.7755ZM294.658 51.9318C296.447 51.9318 298.047 51.6073 299.457 50.9582C300.866 50.3091 301.978 49.3355 302.791 48.0373C303.605 46.6851 304.011 45.1706 304.011 43.4938V41.7088H294.251C292.408 41.7088 291.025 42.1956 290.103 43.1693C289.236 44.1429 288.802 45.2517 288.802 46.4958C288.802 48.1185 289.236 49.4437 290.103 50.4714C291.025 51.445 292.543 51.9318 294.658 51.9318Z" fill="#191919"/>
<path d="M184.046 59.7183V16.7168H196.571V49.4953H219.7V16.7168H232.225V49.4953H255.353V16.7168H267.879V59.7183H184.046Z" fill="#191919"/>
<path d="M141.449 77C140.635 77 139.822 76.9188 139.009 76.7566V66.3713C139.822 66.5336 140.635 66.6147 141.449 66.6147C142.533 66.6147 143.428 66.3713 144.133 65.8845C144.838 65.4518 145.461 64.7216 146.003 63.6939C146.6 62.6662 147.223 61.3139 147.874 59.6371L129.655 16.7168H143.482L154.218 45.3574L164.385 16.7168H176.829L160.399 59.7183C158.773 63.775 157.227 67.0745 155.763 69.6167C154.299 72.213 152.456 74.0791 150.233 75.215C148.064 76.405 145.136 77 141.449 77Z" fill="#191919"/>
<path d="M59.7492 60.773C59.2612 60.773 58.6105 60.746 57.7972 60.6919C57.038 60.6919 56.4416 60.6378 56.0078 60.5296V49.5764C56.1705 49.6305 56.5771 49.6575 57.2278 49.6575C58.4749 49.6575 59.5052 49.1437 60.3185 48.116C61.1861 47.0883 61.8096 45.3574 62.1892 42.9233C62.623 40.4893 62.8398 37.1628 62.8398 32.9438V16.7168H124.718V59.7183H112.193V26.9398H74.6332V34.5665C74.6332 39.9214 74.3079 44.3297 73.6572 47.7914C73.0066 51.2532 72.0577 53.9306 70.8106 55.8238C69.5634 57.6628 67.991 58.961 66.0932 59.7183C64.2496 60.4214 62.135 60.773 59.7492 60.773Z" fill="#191919"/>
<path d="M26.4335 60.7667C21.2281 60.7667 16.6192 59.8201 12.6067 57.927C8.64849 55.9797 5.55781 52.8696 3.33468 48.5965C1.11156 44.3234 0 38.671 0 31.6393V30.0977C0 25.1214 0.677781 20.8483 2.03334 17.2784C3.38891 13.7085 5.25958 10.7876 7.64537 8.51585C10.0854 6.24408 12.905 4.56729 16.1041 3.48549C19.3032 2.40369 22.7463 1.86279 26.4335 1.86279C29.741 1.86279 32.8588 2.24142 35.7869 2.99868C38.7149 3.75594 41.2633 4.94592 43.4322 6.56861C45.6554 8.19131 47.4447 10.3008 48.8003 12.8971C50.1558 15.4934 50.9692 18.6577 51.2403 22.3899H36.0309C35.5429 19.415 34.4042 17.2784 32.6148 15.9803C30.8255 14.6821 28.765 14.033 26.4335 14.033C24.2646 14.033 22.3126 14.5739 20.5774 15.6557C18.8965 16.6834 17.5681 18.3602 16.5921 20.6861C15.6161 23.0119 15.1281 26.1492 15.1281 30.0977V31.8015C15.1281 34.9388 15.4263 37.5892 16.0228 39.7528C16.6192 41.9164 17.4325 43.6472 18.4628 44.9454C19.5472 46.2435 20.7672 47.1901 22.1228 47.7851C23.4783 48.326 24.9152 48.5965 26.4335 48.5965C29.1988 48.5965 31.3948 47.9474 33.0215 46.6492C34.7024 45.297 35.7055 43.1604 36.0309 40.2396H51.2403C51.0234 44.0259 50.2372 47.2442 48.8816 49.8946C47.5803 52.4909 45.818 54.6004 43.5949 56.2231C41.426 57.7917 38.8775 58.9547 35.9495 59.7119C33.0215 60.4151 29.8495 60.7667 26.4335 60.7667Z" fill="#191919"/>
<path d="M752.26 61.1886C748.031 61.1886 744.235 60.4043 740.874 58.8357C737.512 57.213 734.828 54.7519 732.822 51.4524C730.87 48.1529 729.894 44.0151 729.894 39.0388V37.4161C729.894 32.6562 730.842 28.7076 732.74 25.5704C734.638 22.4332 737.214 20.0803 740.467 18.5117C743.774 16.889 747.435 16.0776 751.447 16.0776C758.55 16.0776 763.918 17.9167 767.551 21.5948C771.184 25.2188 773 30.4926 773 37.4161V41.9596H742.744C742.853 44.0692 743.341 45.8271 744.208 47.2334C745.13 48.6397 746.296 49.6675 747.706 50.3165C749.115 50.9115 750.634 51.209 752.26 51.209C754.646 51.209 756.517 50.8574 757.872 50.1543C759.282 49.397 760.204 48.3963 760.638 47.1523H772.187C771.32 51.8581 769.178 55.3739 765.762 57.6998C762.346 60.0257 757.845 61.1886 752.26 61.1886ZM751.854 26.0572C750.335 26.0572 748.898 26.3006 747.543 26.7874C746.187 27.2742 745.076 28.0856 744.208 29.2215C743.395 30.3033 742.934 31.7908 742.826 33.6839H760.719C760.719 31.6826 760.312 30.141 759.499 29.0592C758.686 27.9233 757.601 27.139 756.246 26.7063C754.944 26.2736 753.48 26.0572 751.854 26.0572Z" fill="#191919"/>
<path d="M663.136 60.1392L677.369 37.9893L663.949 17.1377H677.206L687.048 33.6081H689.407V17.1377H701.932V33.6081H704.372L714.701 17.1377H727.389L713.969 37.0969L728.203 60.1392H714.376L704.372 42.8574H701.932V60.1392H689.407V42.8574H686.885L676.556 60.1392H663.136Z" fill="#191919"/>
<path d="M618.41 60.1392V17.1377H630.936V33.3647H634.189L646.226 17.1377H659.89L644.03 37.3403L660.704 60.1392H645.901L634.189 43.1008H630.936V60.1392H618.41Z" fill="#191919"/>
<path d="M584.652 61.1886C581.561 61.1886 578.904 60.5936 576.681 59.4036C574.512 58.2137 572.858 56.591 571.72 54.5355C570.581 52.426 570.012 50.1002 570.012 47.558C570.012 43.2848 571.313 40.0124 573.916 37.7406C576.573 35.4689 580.558 34.333 585.872 34.333H598.072V32.548C598.072 29.9517 597.448 28.1667 596.201 27.1931C595.008 26.2195 593.327 25.7327 591.159 25.7327C589.098 25.7327 587.58 26.0572 586.604 26.7063C585.628 27.3013 585.086 28.302 584.977 29.7083H572.452C572.614 27.112 573.428 24.7861 574.892 22.7307C576.41 20.6753 578.552 19.0526 581.317 17.8626C584.137 16.6726 587.553 16.0776 591.565 16.0776C595.361 16.0776 598.695 16.6456 601.569 17.7815C604.443 18.9174 606.666 20.7564 608.239 23.2986C609.865 25.7868 610.679 29.1403 610.679 33.3594V49.1806C610.679 51.4524 610.733 53.4537 610.841 55.1846C610.95 56.8614 611.112 58.5112 611.329 60.1338H599.373C599.319 59.2143 599.238 58.403 599.129 57.6998C599.075 56.9966 599.048 56.1312 599.048 55.1035C597.747 56.8344 595.93 58.2948 593.599 59.4848C591.321 60.6207 588.339 61.1886 584.652 61.1886ZM588.719 52.3449C590.508 52.3449 592.107 52.0204 593.517 51.3713C594.927 50.7222 596.039 49.7486 596.852 48.4504C597.665 47.0982 598.072 45.5837 598.072 43.9069V42.1219H588.312C586.468 42.1219 585.086 42.6087 584.164 43.5823C583.296 44.556 582.862 45.6648 582.862 46.9089C582.862 48.5316 583.296 49.8568 584.164 50.8845C585.086 51.8581 586.604 52.3449 588.719 52.3449Z" fill="#191919"/>
<path d="M526.254 60.6768V27.8983H498.81V17.6753H566.225V27.8983H538.78V60.6768H526.254Z" fill="#191919"/>
</svg>
