<svg width="773" height="76" viewBox="0 0 773 76" fill="none" xmlns="http://www.w3.org/2000/svg">
<path d="M751.775 60.4358C747.446 60.4358 743.561 59.6311 740.121 58.0217C736.68 56.3569 733.933 53.8318 731.88 50.4466C729.882 47.0613 728.883 42.8159 728.883 37.7103V36.0454C728.883 31.1618 729.854 27.1106 731.796 23.8918C733.739 20.6731 736.375 18.259 739.704 16.6497C743.09 14.9848 746.836 14.1523 750.942 14.1523C758.212 14.1523 763.706 16.0392 767.425 19.8129C771.143 23.5311 773.002 28.942 773.002 36.0454V40.7071H742.035C742.146 42.8714 742.646 44.675 743.534 46.1179C744.477 47.5608 745.67 48.6152 747.113 49.2811C748.556 49.8916 750.11 50.1968 751.775 50.1968C754.217 50.1968 756.131 49.8361 757.519 49.1147C758.961 48.3377 759.905 47.311 760.349 46.0346H772.169C771.282 50.8628 769.089 54.47 765.593 56.8563C762.097 59.2426 757.491 60.4358 751.775 60.4358ZM751.359 24.3913C749.805 24.3913 748.334 24.641 746.947 25.1405C745.559 25.64 744.422 26.4724 743.534 27.6378C742.701 28.7477 742.229 30.2739 742.118 32.2162H760.432C760.432 30.1629 760.016 28.5812 759.183 27.4713C758.351 26.3059 757.241 25.5012 755.854 25.0573C754.522 24.6133 753.023 24.3913 751.359 24.3913Z" fill="#191919"/>
<path d="M660.555 59.3535L675.122 36.628L661.387 15.2344H674.956L685.028 32.1328H687.442V15.2344H700.262V32.1328H702.759L713.331 15.2344H726.317L712.582 35.7123L727.15 59.3535H712.998L702.759 41.6226H700.262V59.3535H687.442V41.6226H684.862L674.29 59.3535H660.555Z" fill="#191919"/>
<path d="M614.781 59.3535V15.2344H627.601V31.8831H630.931L643.251 15.2344H657.235L641.003 35.962L658.068 59.3535H642.918L630.931 41.8723H627.601V59.3535H614.781Z" fill="#191919"/>
<path d="M580.242 60.4358C577.078 60.4358 574.359 59.8253 572.084 58.6044C569.864 57.3835 568.171 55.7187 567.006 53.6098C565.841 51.4455 565.258 49.0592 565.258 46.4509C565.258 42.0667 566.59 38.7092 569.254 36.3784C571.973 34.0476 576.052 32.8822 581.49 32.8822H593.977V31.0508C593.977 28.387 593.339 26.5556 592.062 25.5567C590.841 24.5578 589.121 24.0583 586.901 24.0583C584.792 24.0583 583.238 24.3913 582.24 25.0573C581.241 25.6677 580.686 26.6944 580.575 28.1373H567.755C567.922 25.4735 568.754 23.0872 570.252 20.9783C571.806 18.8695 573.998 17.2046 576.829 15.9837C579.714 14.7628 583.211 14.1523 587.317 14.1523C591.202 14.1523 594.615 14.7351 597.556 15.9005C600.498 17.0659 602.773 18.9527 604.382 21.561C606.047 24.1138 606.88 27.5546 606.88 31.8832V48.1157C606.88 50.4466 606.935 52.4999 607.046 54.2758C607.157 55.9961 607.324 57.6887 607.546 59.3536H595.309C595.253 58.4102 595.17 57.5778 595.059 56.8563C595.004 56.1349 594.976 55.2469 594.976 54.1925C593.644 55.9684 591.785 57.4668 589.398 58.6877C587.068 59.8531 584.015 60.4358 580.242 60.4358ZM584.404 51.3622C586.235 51.3622 587.872 51.0293 589.315 50.3633C590.758 49.6974 591.896 48.6984 592.728 47.3665C593.561 45.9792 593.977 44.4253 593.977 42.7049V40.8735H583.988C582.101 40.8735 580.686 41.373 579.742 42.3719C578.854 43.3709 578.41 44.5085 578.41 45.7849C578.41 47.4498 578.854 48.8094 579.742 49.8639C580.686 50.8628 582.24 51.3622 584.404 51.3622Z" fill="#191919"/>
<path d="M437.962 60.4358C433.634 60.4358 429.749 59.6311 426.308 58.0217C422.867 56.3569 420.12 53.8318 418.067 50.4466C416.069 47.0613 415.07 42.8159 415.07 37.7103V36.0454C415.07 31.1618 416.041 27.1106 417.984 23.8918C419.926 20.6731 422.562 18.259 425.892 16.6497C429.277 14.9848 433.023 14.1523 437.13 14.1523C444.4 14.1523 449.894 16.0392 453.612 19.8129C457.33 23.5311 459.189 28.942 459.189 36.0454V40.7071H428.223C428.334 42.8714 428.833 44.675 429.721 46.1179C430.665 47.5608 431.858 48.6152 433.301 49.2811C434.744 49.8916 436.297 50.1968 437.962 50.1968C440.404 50.1968 442.319 49.8361 443.706 49.1147C445.149 48.3377 446.092 47.311 446.536 46.0346H458.357C457.469 50.8628 455.277 54.47 451.781 56.8563C448.285 59.2426 443.678 60.4358 437.962 60.4358ZM437.546 24.3913C435.992 24.3913 434.522 24.641 433.134 25.1405C431.747 25.64 430.609 26.4724 429.721 27.6378C428.889 28.7477 428.417 30.2739 428.306 32.2162H446.62C446.62 30.1629 446.203 28.5812 445.371 27.4713C444.539 26.3059 443.429 25.5012 442.041 25.0573C440.709 24.6133 439.211 24.3913 437.546 24.3913Z" fill="#191919"/>
<path d="M385.373 59.3535V25.7231H371.805V15.2344H411.762V25.7231H398.193V59.3535H385.373Z" fill="#191919"/>
<path d="M299.305 59.3535V15.2344H311.791V43.0824L354.722 15.2344H365.96V59.3535H353.473V31.5055L310.543 59.3535H299.305Z" fill="#191919"/>
<path d="M244.445 76.0023V15.2345H256.266V21.2281C257.431 19.4522 259.152 17.8428 261.427 16.3999C263.758 14.9015 266.616 14.1523 270.001 14.1523C276.217 14.1523 280.934 15.9837 284.153 19.6464C287.371 23.3091 288.981 28.7755 288.981 36.0454V37.7103C288.981 42.7049 288.204 46.8948 286.65 50.2801C285.096 53.6098 282.904 56.1349 280.074 57.8552C277.243 59.5756 273.886 60.4358 270.001 60.4358C267.504 60.4358 265.117 59.8808 262.842 58.7709C260.622 57.6055 258.763 55.9406 257.265 53.7763V76.0023H244.445ZM266.921 49.8638C269.474 49.8638 271.583 48.8372 273.248 46.7838C274.968 44.675 275.828 41.6505 275.828 37.7103V36.0454C275.828 32.2162 274.996 29.3859 273.331 27.5546C271.721 25.6677 269.585 24.7243 266.921 24.7243C265.145 24.7243 263.508 25.1128 262.01 25.8897C260.567 26.6111 259.401 27.7211 258.513 29.2194C257.681 30.7178 257.265 32.5769 257.265 34.7968V38.9589C257.265 41.2343 257.681 43.2044 258.513 44.8692C259.401 46.4786 260.567 47.7273 262.01 48.6152C263.508 49.4476 265.145 49.8638 266.921 49.8638Z" fill="#191919"/>
<path d="M195.331 59.3535V25.7231H167.242V15.2344H236.24V25.7231H208.151V59.3535H195.331Z" fill="#191919"/>
<path d="M520.464 59.9082V26.2778H492.375V15.7891H561.373V26.2778H533.284V59.9082H520.464Z" fill="#191919"/>
<path d="M140.241 60.4358C136.135 60.4358 132.361 59.6311 128.92 58.0217C125.535 56.4123 122.816 53.915 120.762 50.5298C118.765 47.0891 117.766 42.8159 117.766 37.7103V36.0454C117.766 31.2728 118.765 27.2771 120.762 24.0583C122.816 20.7841 125.535 18.3145 128.92 16.6497C132.361 14.9848 136.135 14.1523 140.241 14.1523C144.404 14.1523 148.177 14.9848 151.563 16.6497C154.948 18.3145 157.639 20.7841 159.637 24.0583C161.691 27.2771 162.717 31.2728 162.717 36.0454V37.7103C162.717 42.7604 161.691 46.9781 159.637 50.3633C157.639 53.6931 154.948 56.2181 151.563 57.9385C148.177 59.6034 144.404 60.4358 140.241 60.4358ZM140.241 49.7806C142.239 49.7806 143.932 49.3089 145.319 48.3655C146.707 47.3665 147.761 45.9514 148.483 44.12C149.204 42.2887 149.565 40.1521 149.565 37.7103V36.0454C149.565 33.8256 149.204 31.8832 148.483 30.2184C147.761 28.5535 146.707 27.2493 145.319 26.3059C143.932 25.307 142.239 24.8075 140.241 24.8075C138.244 24.8075 136.551 25.307 135.164 26.3059C133.776 27.2493 132.722 28.5535 132 30.2184C131.279 31.8832 130.918 33.8256 130.918 36.0454V37.7103C130.918 40.2631 131.279 42.4552 132 44.2865C132.722 46.0624 133.776 47.422 135.164 48.3655C136.551 49.3089 138.244 49.7806 140.241 49.7806Z" fill="#191919"/>
<path d="M59.5156 59.3535V15.2344H75.0822L85.5709 37.1274L96.0596 15.2344H111.127V59.3535H98.9731V32.2993L89.4833 51.0291H81.159L71.6692 32.2993V59.3535H59.5156Z" fill="#191919"/>
<path d="M27.0542 60.4348C21.7266 60.4348 17.0094 59.4637 12.9028 57.5213C8.85157 55.5235 5.68831 52.3325 3.41299 47.9483C1.13766 43.5642 0 37.7648 0 30.5504V28.9688C0 23.8632 0.693697 19.479 2.08109 15.8163C3.46848 12.1536 5.38309 9.1568 7.8249 6.82598C10.3222 4.49516 13.208 2.77479 16.4822 1.66487C19.7565 0.554958 23.2805 0 27.0542 0C30.4394 0 33.6304 0.38847 36.6272 1.16541C39.624 1.94235 42.2323 3.16326 44.4521 4.82813C46.7274 6.493 48.5588 8.65734 49.9462 11.3211C51.3336 13.9849 52.166 17.2314 52.4435 21.0606H36.8769C36.3775 18.0084 35.212 15.8163 33.3807 14.4844C31.5493 13.1525 29.4405 12.4865 27.0542 12.4865C24.8343 12.4865 22.8365 13.0415 21.0606 14.1514C19.3403 15.2058 17.9806 16.9262 16.9817 19.3125C15.9828 21.6988 15.4833 24.9176 15.4833 28.9688V30.7169C15.4833 33.9356 15.7885 36.6549 16.399 38.8748C17.0094 41.0946 17.8419 42.8705 18.8963 44.2024C20.0062 45.5343 21.2549 46.5054 22.6423 47.1159C24.0297 47.6708 25.5003 47.9483 27.0542 47.9483C29.8845 47.9483 32.132 47.2824 33.7969 45.9505C35.5173 44.5631 36.5439 42.371 36.8769 39.3742H52.4435C52.2215 43.2589 51.4168 46.5609 50.0294 49.2802C48.6975 51.944 46.8939 54.1083 44.6186 55.7732C42.3987 57.3826 39.7904 58.5757 36.7937 59.3527C33.7969 60.0741 30.5504 60.4348 27.0542 60.4348Z" fill="#191919"/>
</svg>
