<svg width="42" height="26" viewBox="0 0 42 26" fill="none" xmlns="http://www.w3.org/2000/svg">
<path fill-rule="evenodd" clip-rule="evenodd" d="M26.7694 4.45419C25.6882 3.61018 25.4934 2.04626 26.3343 0.961099C27.1752 -0.124067 28.7334 -0.319556 29.8145 0.524462C32.0493 2.26901 33.5261 3.52423 34.8196 4.64658C35.0624 4.85729 35.2968 5.06154 35.527 5.26214L35.5271 5.26227L35.5272 5.26231C36.5237 6.1308 37.442 6.93106 38.6298 7.89202C38.7345 7.97674 38.8483 8.06532 38.9689 8.15925L38.9691 8.15941C39.8037 8.80904 40.9673 9.71482 41.7355 11.3724C42.141 12.2473 41.9897 13.0633 41.8722 13.4749C41.7448 13.9208 41.5416 14.2999 41.3768 14.5705C41.0417 15.1208 40.5946 15.6564 40.2079 16.0851C39.4906 16.8801 38.6803 17.632 38.3596 17.9297L38.2763 18.0071C36.3043 19.8501 35.3773 20.6497 33.8153 21.9971L33.8152 21.9972C32.8731 22.8099 31.6999 23.8219 29.9271 25.3823C28.8973 26.2887 27.3304 26.1856 26.4273 25.152C25.5242 24.1183 25.627 22.5456 26.6568 21.6392C28.5326 19.9882 29.7259 18.9593 30.6608 18.1533C31.8049 17.1669 32.5619 16.5142 33.7094 15.463C32.6317 15.4621 31.5367 15.4612 30.4543 15.4602L30.1581 15.4599L30.1548 15.4599C27.4857 15.4575 24.9106 15.4551 22.878 15.4551C19.4911 15.4551 15.8504 15.457 12.3268 15.459L11.933 15.4592H11.9313C8.54893 15.461 5.28778 15.4628 2.48004 15.4628C1.11035 15.4628 0 14.3483 0 12.9736C0 11.5988 1.11035 10.4843 2.48004 10.4843C5.28702 10.4843 8.54777 10.4826 11.9315 10.4807L12.3241 10.4805C15.8475 10.4786 19.4896 10.4767 22.878 10.4767C24.9139 10.4767 27.4924 10.479 30.1617 10.4815L30.4587 10.4817C31.6273 10.4828 32.81 10.4839 33.9695 10.4847C33.3682 9.97427 32.8124 9.48976 32.2544 9.00341L32.2543 9.00336L32.2527 9.00189C32.0284 8.8064 31.8038 8.61061 31.5757 8.41271C30.3269 7.32912 28.9182 6.13174 26.7694 4.45419Z" fill="black"/>
</svg>
