<svg width="42" height="27" viewBox="0 0 42 27" fill="none" xmlns="http://www.w3.org/2000/svg">
<path fill-rule="evenodd" clip-rule="evenodd" d="M26.7694 4.56699C25.6882 3.72297 25.4934 2.15906 26.3343 1.07389C27.1752 -0.0112741 28.7334 -0.206763 29.8145 0.637255C32.0493 2.3818 33.5261 3.63702 34.8196 4.75937C35.0624 4.97008 35.2968 5.17433 35.527 5.37494L35.5271 5.37506L35.5272 5.3751C36.5237 6.24359 37.442 7.04386 38.6298 8.00481C38.7345 8.08953 38.8483 8.17811 38.9689 8.27204L38.9691 8.2722C39.8037 8.92183 40.9673 9.82762 41.7355 11.4852C42.141 12.3601 41.9897 13.1761 41.8722 13.5877C41.7448 14.0336 41.5416 14.4127 41.3768 14.6832C41.0417 15.2336 40.5946 15.7692 40.2079 16.1979C39.4906 16.9929 38.6803 17.7448 38.3596 18.0424L38.2763 18.1199C36.3043 19.9629 35.3773 20.7625 33.8153 22.1099L33.8152 22.11C32.8731 22.9227 31.6999 23.9347 29.9271 25.4951C28.8973 26.4015 27.3304 26.2984 26.4273 25.2648C25.5242 24.2311 25.627 22.6584 26.6568 21.752C28.5326 20.101 29.7259 19.0721 30.6608 18.2661C31.8049 17.2797 32.5619 16.627 33.7094 15.5758C32.6317 15.5749 31.5367 15.5739 30.4543 15.573L30.1581 15.5727L30.1548 15.5727C27.4857 15.5703 24.9106 15.5679 22.878 15.5679C19.4911 15.5679 15.8504 15.5698 12.3268 15.5717L11.933 15.572H11.9313C8.54893 15.5738 5.28778 15.5756 2.48004 15.5756C1.11035 15.5756 0 14.4611 0 13.0864C0 11.7116 1.11035 10.5971 2.48004 10.5971C5.28702 10.5971 8.54777 10.5954 11.9315 10.5935L12.3241 10.5933C15.8475 10.5914 19.4896 10.5895 22.878 10.5895C24.9139 10.5895 27.4924 10.5918 30.1617 10.5943L30.4587 10.5945C31.6273 10.5956 32.81 10.5967 33.9695 10.5975C33.3682 10.0871 32.8124 9.60256 32.2544 9.1162L32.2543 9.11616L32.2527 9.11468C32.0284 8.91919 31.8038 8.7234 31.5757 8.52551C30.3269 7.44191 28.9182 6.24453 26.7694 4.56699Z" fill="#F1B8FF"/>
</svg>
