<svg width="42" height="27" viewBox="0 0 42 27" fill="none" xmlns="http://www.w3.org/2000/svg">
<path fill-rule="evenodd" clip-rule="evenodd" d="M26.7694 4.67929C25.6882 3.83527 25.4934 2.27136 26.3343 1.1862C27.1752 0.101031 28.7334 -0.0944583 29.8145 0.74956C32.0493 2.49411 33.5261 3.74933 34.8196 4.87168C35.0624 5.08239 35.2968 5.28663 35.527 5.48724L35.5271 5.48737L35.5272 5.48741C36.5237 6.35589 37.442 7.15616 38.6298 8.11712C38.7345 8.20184 38.8483 8.29042 38.9689 8.38435L38.9691 8.38451C39.8037 9.03413 40.9673 9.93992 41.7355 11.5975C42.141 12.4724 41.9897 13.2884 41.8722 13.7C41.7448 14.1459 41.5416 14.525 41.3768 14.7956C41.0417 15.3459 40.5946 15.8815 40.2079 16.3102C39.4906 17.1052 38.6803 17.8571 38.3596 18.1547L38.2763 18.2322C36.3043 20.0752 35.3773 20.8748 33.8153 22.2222L33.8152 22.2223C32.8731 23.035 31.6999 24.047 29.9271 25.6074C28.8973 26.5138 27.3304 26.4107 26.4273 25.3771C25.5242 24.3434 25.627 22.7707 26.6568 21.8643C28.5326 20.2133 29.7259 19.1844 30.6608 18.3784C31.8049 17.392 32.5619 16.7393 33.7094 15.6881C32.6317 15.6872 31.5367 15.6862 30.4543 15.6853L30.1581 15.685L30.1548 15.685C27.4857 15.6826 24.9106 15.6802 22.878 15.6802C19.4911 15.6802 15.8504 15.6821 12.3268 15.6841L11.933 15.6843H11.9313C8.54893 15.6861 5.28778 15.6879 2.48004 15.6879C1.11035 15.6879 0 14.5734 0 13.1987C0 11.8239 1.11035 10.7094 2.48004 10.7094C5.28702 10.7094 8.54777 10.7077 11.9315 10.7058L12.3241 10.7056C15.8475 10.7037 19.4896 10.7018 22.878 10.7018C24.9139 10.7018 27.4924 10.7041 30.1617 10.7066L30.4587 10.7068C31.6273 10.7079 32.81 10.709 33.9695 10.7098C33.3682 10.1994 32.8124 9.71486 32.2544 9.22851L32.2543 9.22846L32.2527 9.22699C32.0284 9.0315 31.8038 8.83571 31.5757 8.63781C30.3269 7.55421 28.9182 6.35684 26.7694 4.67929Z" fill="#FF5C00"/>
</svg>
