<svg width="1873" height="1368" viewBox="0 0 1873 1368" fill="none" xmlns="http://www.w3.org/2000/svg">
<rect x="297.789" y="1365.48" width="315.468" height="371.129" transform="rotate(-90 297.789 1365.48)" fill="white" stroke="#191919" stroke-width="5.03343"/>
<path d="M372.059 1175.13C368.123 1175.13 364.638 1174.42 361.604 1172.98C358.611 1171.51 356.274 1169.15 354.593 1165.91C352.912 1162.67 352.071 1158.39 352.071 1153.06V1151.89C352.071 1148.12 352.584 1144.88 353.609 1142.18C354.634 1139.47 356.048 1137.26 357.852 1135.54C359.697 1133.81 361.829 1132.54 364.249 1131.72C366.668 1130.9 369.271 1130.49 372.059 1130.49C374.56 1130.49 376.918 1130.78 379.132 1131.35C381.346 1131.93 383.273 1132.83 384.913 1134.06C386.594 1135.29 387.947 1136.89 388.972 1138.86C389.997 1140.82 390.612 1143.22 390.817 1146.05H379.316C378.947 1143.8 378.086 1142.18 376.733 1141.19C375.38 1140.21 373.822 1139.72 372.059 1139.72C370.419 1139.72 368.943 1140.13 367.631 1140.95C366.36 1141.72 365.356 1143 364.618 1144.76C363.88 1146.52 363.51 1148.9 363.51 1151.89V1153.18C363.51 1155.56 363.736 1157.57 364.187 1159.21C364.638 1160.85 365.253 1162.16 366.032 1163.14C366.852 1164.13 367.775 1164.84 368.8 1165.3C369.825 1165.71 370.911 1165.91 372.059 1165.91C374.15 1165.91 375.811 1165.42 377.041 1164.43C378.312 1163.41 379.07 1161.79 379.316 1159.58H390.817C390.653 1162.45 390.058 1164.89 389.033 1166.89C388.049 1168.86 386.717 1170.46 385.036 1171.69C383.396 1172.88 381.469 1173.76 379.255 1174.33C377.041 1174.87 374.642 1175.13 372.059 1175.13Z" fill="#191919"/>
<path d="M478.873 1174.94C476.536 1174.94 474.527 1174.49 472.846 1173.59C471.206 1172.69 469.955 1171.46 469.094 1169.9C468.233 1168.3 467.802 1166.54 467.802 1164.61C467.802 1161.37 468.787 1158.89 470.755 1157.17C472.764 1155.45 475.777 1154.59 479.795 1154.59H489.02V1153.24C489.02 1151.27 488.549 1149.92 487.606 1149.18C486.704 1148.44 485.433 1148.07 483.793 1148.07C482.235 1148.07 481.087 1148.32 480.349 1148.81C479.611 1149.26 479.201 1150.02 479.119 1151.08H469.648C469.771 1149.12 470.386 1147.35 471.493 1145.8C472.641 1144.24 474.26 1143.01 476.351 1142.11C478.483 1141.21 481.066 1140.75 484.1 1140.75C486.97 1140.75 489.492 1141.18 491.665 1142.05C493.838 1142.91 495.519 1144.3 496.708 1146.23C497.938 1148.11 498.553 1150.65 498.553 1153.85V1165.84C498.553 1167.56 498.594 1169.08 498.676 1170.39C498.758 1171.66 498.881 1172.91 499.045 1174.14H490.004C489.963 1173.45 489.902 1172.83 489.82 1172.3C489.779 1171.77 489.758 1171.11 489.758 1170.33C488.774 1171.64 487.401 1172.75 485.638 1173.65C483.916 1174.51 481.661 1174.94 478.873 1174.94ZM481.948 1168.24C483.301 1168.24 484.51 1167.99 485.576 1167.5C486.642 1167.01 487.483 1166.27 488.098 1165.29C488.713 1164.26 489.02 1163.12 489.02 1161.84V1160.49H481.64C480.246 1160.49 479.201 1160.86 478.504 1161.6C477.848 1162.34 477.52 1163.18 477.52 1164.12C477.52 1165.35 477.848 1166.35 478.504 1167.13C479.201 1167.87 480.349 1168.24 481.948 1168.24Z" fill="#191919"/>
<path d="M412.737 1175.2V1142.61H422.208V1154.73H453.299V1142.61H462.77V1175.2H453.299V1162.47H422.208V1175.2H412.737Z" fill="#191919"/>
<path d="M504.193 1175.2V1142.61H515.693L523.442 1158.78L531.192 1142.61H542.323V1175.2H533.344V1155.22L526.333 1169.05H520.183L513.172 1155.22V1175.2H504.193Z" fill="#191919"/>
<path d="M547.159 1175.2V1142.61H556.384V1162.29L588.889 1142.61H597.192V1175.2H587.967V1155.53L555.462 1175.2H547.159Z" fill="#191919"/>
<path d="M365.711 1232.67H355.631V1202.67H374.351V1207.15H360.991V1214.23H365.711C369.071 1214.23 371.725 1215.03 373.671 1216.63C375.618 1218.23 376.591 1220.38 376.591 1223.07C376.591 1225.84 375.631 1228.14 373.711 1229.95C371.818 1231.76 369.151 1232.67 365.711 1232.67ZM360.951 1218.47V1228.27H365.671C367.378 1228.27 368.725 1227.83 369.711 1226.95C370.725 1226.04 371.231 1224.79 371.231 1223.19C371.231 1221.8 370.738 1220.67 369.751 1219.79C368.765 1218.91 367.405 1218.47 365.671 1218.47H360.951ZM390.17 1233.15C386.756 1233.15 384.13 1232.19 382.29 1230.27C380.476 1228.32 379.57 1225.78 379.57 1222.63C379.57 1219.62 380.476 1217.11 382.29 1215.11C384.103 1213.11 386.596 1212.11 389.77 1212.11C392.916 1212.11 395.276 1212.95 396.85 1214.63C398.423 1216.28 399.21 1218.47 399.21 1221.19L399.01 1223.55H384.45C384.583 1225.28 385.143 1226.64 386.13 1227.63C387.116 1228.62 388.476 1229.11 390.21 1229.11C390.77 1229.11 391.29 1229.07 391.77 1228.99C392.276 1228.91 392.703 1228.82 393.05 1228.71C393.396 1228.58 393.703 1228.43 393.97 1228.27C394.236 1228.11 394.45 1227.95 394.61 1227.79C394.77 1227.63 394.903 1227.5 395.01 1227.39C395.116 1227.26 395.196 1227.15 395.25 1227.07L395.29 1226.95H398.81V1229.59C398.756 1229.7 398.663 1229.83 398.53 1229.99C398.423 1230.15 398.13 1230.43 397.65 1230.83C397.196 1231.23 396.663 1231.59 396.05 1231.91C395.463 1232.23 394.636 1232.51 393.57 1232.75C392.53 1233.02 391.396 1233.15 390.17 1233.15ZM384.61 1220.27H394.49C394.49 1219.07 394.076 1218.08 393.25 1217.31C392.45 1216.51 391.29 1216.11 389.77 1216.11C386.916 1216.11 385.196 1217.5 384.61 1220.27ZM410.46 1233.15C408.274 1233.15 406.554 1232.76 405.3 1231.99C404.047 1231.24 403.114 1230.44 402.5 1229.59V1226.95H406.02C406.82 1228.52 408.274 1229.31 410.38 1229.31C412.887 1229.31 414.14 1228.43 414.14 1226.67C414.14 1225.07 412.914 1224.27 410.46 1224.27H407.26V1220.79H410.3C412.38 1220.79 413.42 1219.98 413.42 1218.35C413.42 1217.6 413.14 1217.02 412.58 1216.59C412.047 1216.16 411.26 1215.95 410.22 1215.95C408.247 1215.95 406.887 1216.74 406.14 1218.31H402.7V1215.63C403.234 1214.8 404.114 1214.02 405.34 1213.27C406.567 1212.5 408.314 1212.11 410.58 1212.11C412.927 1212.11 414.767 1212.6 416.1 1213.59C417.46 1214.55 418.14 1215.91 418.14 1217.67C418.14 1219.78 417.154 1221.26 415.18 1222.11C417.66 1222.94 418.9 1224.55 418.9 1226.95C418.9 1228.9 418.167 1230.42 416.7 1231.51C415.234 1232.6 413.154 1233.15 410.46 1233.15ZM432.548 1233.15C429.375 1233.15 426.841 1232.15 424.948 1230.15C423.081 1228.12 422.148 1225.6 422.148 1222.59C422.148 1219.6 423.081 1217.11 424.948 1215.11C426.815 1213.11 429.348 1212.11 432.548 1212.11C435.695 1212.11 438.201 1213.11 440.068 1215.11C441.961 1217.11 442.908 1219.6 442.908 1222.59C442.908 1225.58 441.961 1228.08 440.068 1230.11C438.201 1232.14 435.695 1233.15 432.548 1233.15ZM428.388 1227.11C429.321 1228.36 430.708 1228.99 432.548 1228.99C434.388 1228.99 435.775 1228.36 436.708 1227.11C437.588 1225.88 438.028 1224.38 438.028 1222.59C438.028 1220.88 437.588 1219.4 436.708 1218.15C435.775 1216.9 434.388 1216.27 432.548 1216.27C430.708 1216.27 429.321 1216.9 428.388 1218.15C427.481 1219.38 427.028 1220.86 427.028 1222.59C427.028 1224.38 427.481 1225.88 428.388 1227.11ZM452.133 1232.67H447.293V1212.59H465.173V1232.67H460.293V1216.63H452.133V1232.67ZM476.09 1233.15C473.85 1233.15 472.17 1232.54 471.05 1231.31C469.93 1230.08 469.37 1228.62 469.37 1226.91C469.37 1225.07 470.063 1223.6 471.45 1222.51C472.836 1221.39 474.93 1220.83 477.73 1220.83C478.396 1220.83 479.076 1220.87 479.77 1220.95C480.49 1221.03 481.036 1221.11 481.41 1221.19L481.93 1221.31V1220.23C481.93 1217.54 480.636 1216.19 478.05 1216.19C477.623 1216.19 477.223 1216.23 476.85 1216.31C476.503 1216.39 476.196 1216.5 475.93 1216.63C475.663 1216.74 475.41 1216.87 475.17 1217.03C474.956 1217.19 474.77 1217.35 474.61 1217.51C474.476 1217.67 474.356 1217.82 474.25 1217.95C474.17 1218.06 474.103 1218.15 474.05 1218.23L473.97 1218.35H470.53V1215.71C470.583 1215.6 470.663 1215.47 470.77 1215.31C470.876 1215.15 471.13 1214.87 471.53 1214.47C471.956 1214.04 472.436 1213.67 472.97 1213.35C473.503 1213.03 474.223 1212.75 475.13 1212.51C476.063 1212.24 477.076 1212.11 478.17 1212.11C480.996 1212.11 483.143 1212.82 484.61 1214.23C486.076 1215.62 486.81 1217.66 486.81 1220.35V1232.67H482.65L482.21 1229.91C480.743 1232.07 478.703 1233.15 476.09 1233.15ZM477.29 1229.31C478.703 1229.31 479.823 1228.91 480.65 1228.11C481.503 1227.31 481.93 1226.43 481.93 1225.47V1224.51C480.81 1224.19 479.463 1224.03 477.89 1224.03C475.41 1224.03 474.17 1224.91 474.17 1226.67C474.17 1228.43 475.21 1229.31 477.29 1229.31ZM501.335 1233.15C498.028 1233.15 495.482 1232.16 493.695 1230.19C491.908 1228.19 491.015 1225.67 491.015 1222.63C491.015 1219.62 491.948 1217.11 493.815 1215.11C495.682 1213.08 498.188 1212.07 501.335 1212.07C502.535 1212.07 503.628 1212.22 504.615 1212.51C505.628 1212.78 506.402 1213.11 506.935 1213.51C507.495 1213.91 507.962 1214.32 508.335 1214.75C508.708 1215.15 508.962 1215.5 509.095 1215.79L509.255 1216.19V1218.83H505.855L505.815 1218.67C505.788 1218.59 505.722 1218.47 505.615 1218.31C505.535 1218.15 505.415 1217.99 505.255 1217.83C505.122 1217.64 504.935 1217.46 504.695 1217.27C504.455 1217.06 504.188 1216.88 503.895 1216.75C503.602 1216.59 503.228 1216.47 502.775 1216.39C502.322 1216.28 501.842 1216.23 501.335 1216.23C499.575 1216.23 498.228 1216.83 497.295 1218.03C496.362 1219.23 495.895 1220.76 495.895 1222.63C495.895 1224.5 496.362 1226.03 497.295 1227.23C498.228 1228.4 499.575 1228.99 501.335 1228.99C501.762 1228.99 502.162 1228.96 502.535 1228.91C502.908 1228.86 503.228 1228.78 503.495 1228.67C503.788 1228.56 504.042 1228.44 504.255 1228.31C504.495 1228.18 504.695 1228.04 504.855 1227.91C505.015 1227.78 505.162 1227.63 505.295 1227.47C505.428 1227.31 505.522 1227.18 505.575 1227.07C505.655 1226.94 505.722 1226.82 505.775 1226.71C505.828 1226.6 505.868 1226.52 505.895 1226.47V1226.39H509.295V1229.03C509.242 1229.14 509.162 1229.28 509.055 1229.47C508.975 1229.66 508.735 1229.99 508.335 1230.47C507.935 1230.95 507.468 1231.38 506.935 1231.75C506.402 1232.1 505.628 1232.42 504.615 1232.71C503.628 1233 502.535 1233.15 501.335 1233.15ZM518.657 1232.67H513.817V1212.59H518.657V1220.35H527.217V1212.59H532.097V1232.67H527.217V1224.43H518.657V1232.67ZM546.884 1233.15C543.71 1233.15 541.177 1232.15 539.284 1230.15C537.417 1228.12 536.484 1225.6 536.484 1222.59C536.484 1219.6 537.417 1217.11 539.284 1215.11C541.15 1213.11 543.684 1212.11 546.884 1212.11C550.03 1212.11 552.537 1213.11 554.404 1215.11C556.297 1217.11 557.244 1219.6 557.244 1222.59C557.244 1225.58 556.297 1228.08 554.404 1230.11C552.537 1232.14 550.03 1233.15 546.884 1233.15ZM542.724 1227.11C543.657 1228.36 545.044 1228.99 546.884 1228.99C548.724 1228.99 550.11 1228.36 551.044 1227.11C551.924 1225.88 552.364 1224.38 552.364 1222.59C552.364 1220.88 551.924 1219.4 551.044 1218.15C550.11 1216.9 548.724 1216.27 546.884 1216.27C545.044 1216.27 543.657 1216.9 542.724 1218.15C541.817 1219.38 541.364 1220.86 541.364 1222.59C541.364 1224.38 541.817 1225.88 542.724 1227.11ZM359.591 1268.35L356.751 1275.67H352.671V1272.87L363.471 1245.67H368.271L379.031 1272.47V1275.67H374.751L371.911 1268.35H359.591ZM361.191 1263.99H370.311L365.751 1252.11L361.191 1263.99ZM387.368 1275.67H382.528V1255.59H387.368V1264.27L395.608 1255.59H399.248V1258.23L392.608 1265.15L399.928 1272.87V1275.67H395.888L387.368 1266.39V1275.67ZM412.934 1275.67H408.094V1259.63H401.934V1255.59H419.094V1259.63H412.934V1275.67ZM427.204 1275.67H422.684V1255.59H427.524V1268.75L436.804 1255.59H441.364V1275.67H436.484V1262.47L427.204 1275.67ZM456.861 1275.67H446.981V1255.51H456.421C458.581 1255.51 460.314 1255.96 461.621 1256.87C462.927 1257.78 463.581 1259.08 463.581 1260.79C463.581 1262.82 462.581 1264.23 460.581 1265.03C461.781 1265.38 462.714 1265.96 463.381 1266.79C464.047 1267.59 464.381 1268.55 464.381 1269.67C464.381 1271.64 463.701 1273.14 462.341 1274.15C460.981 1275.16 459.154 1275.67 456.861 1275.67ZM451.741 1259.11V1263.43H455.901C457.687 1263.43 458.581 1262.7 458.581 1261.23C458.581 1259.82 457.687 1259.11 455.901 1259.11H451.741ZM451.741 1267.07V1272.03H456.141C458.301 1272.03 459.381 1271.2 459.381 1269.55C459.381 1267.9 458.301 1267.07 456.141 1267.07H451.741ZM473.657 1275.67H468.817V1255.59H473.657V1263.35H482.217V1255.59H487.097V1275.67H482.217V1267.43H473.657V1275.67ZM501.884 1276.15C498.71 1276.15 496.177 1275.15 494.284 1273.15C492.417 1271.12 491.484 1268.6 491.484 1265.59C491.484 1262.6 492.417 1260.11 494.284 1258.11C496.15 1256.11 498.684 1255.11 501.884 1255.11C505.03 1255.11 507.537 1256.11 509.404 1258.11C511.297 1260.11 512.244 1262.6 512.244 1265.59C512.244 1268.58 511.297 1271.08 509.404 1273.11C507.537 1275.14 505.03 1276.15 501.884 1276.15ZM497.724 1270.11C498.657 1271.36 500.044 1271.99 501.884 1271.99C503.724 1271.99 505.11 1271.36 506.044 1270.11C506.924 1268.88 507.364 1267.38 507.364 1265.59C507.364 1263.88 506.924 1262.4 506.044 1261.15C505.11 1259.9 503.724 1259.27 501.884 1259.27C500.044 1259.27 498.657 1259.9 497.724 1261.15C496.817 1262.38 496.364 1263.86 496.364 1265.59C496.364 1267.38 496.817 1268.88 497.724 1270.11ZM360.991 1319.67H355.631V1289.67H360.991V1311.67L374.991 1289.67H380.311V1319.67H374.991V1297.91L360.991 1319.67ZM401.352 1319.67H396.512V1299.59H414.392V1319.67H409.512V1303.63H401.352V1319.67ZM424.828 1329.67H419.988V1299.59H424.428L424.788 1302.63C426.388 1300.28 428.682 1299.11 431.668 1299.11C434.495 1299.11 436.735 1300.11 438.388 1302.11C440.042 1304.11 440.868 1306.6 440.868 1309.59C440.868 1312.58 440.028 1315.08 438.348 1317.11C436.668 1319.14 434.442 1320.15 431.668 1320.15C428.708 1320.15 426.428 1319 424.828 1316.71V1329.67ZM430.428 1315.91C432.268 1315.91 433.655 1315.28 434.588 1314.03C435.522 1312.78 435.988 1311.3 435.988 1309.59C435.988 1307.91 435.522 1306.44 434.588 1305.19C433.682 1303.96 432.295 1303.35 430.428 1303.35C428.695 1303.35 427.335 1303.95 426.348 1305.15C425.335 1306.4 424.828 1307.88 424.828 1309.59C424.828 1311.3 425.335 1312.78 426.348 1314.03C427.362 1315.28 428.722 1315.91 430.428 1315.91ZM454.501 1320.15C451.328 1320.15 448.794 1319.15 446.901 1317.15C445.034 1315.12 444.101 1312.6 444.101 1309.59C444.101 1306.6 445.034 1304.11 446.901 1302.11C448.768 1300.11 451.301 1299.11 454.501 1299.11C457.648 1299.11 460.154 1300.11 462.021 1302.11C463.914 1304.11 464.861 1306.6 464.861 1309.59C464.861 1312.58 463.914 1315.08 462.021 1317.11C460.154 1319.14 457.648 1320.15 454.501 1320.15ZM450.341 1314.11C451.274 1315.36 452.661 1315.99 454.501 1315.99C456.341 1315.99 457.728 1315.36 458.661 1314.11C459.541 1312.88 459.981 1311.38 459.981 1309.59C459.981 1307.88 459.541 1306.4 458.661 1305.15C457.728 1303.9 456.341 1303.27 454.501 1303.27C452.661 1303.27 451.274 1303.9 450.341 1305.15C449.434 1306.38 448.981 1307.86 448.981 1309.59C448.981 1311.38 449.434 1312.88 450.341 1314.11ZM478.366 1320.15C475.06 1320.15 472.513 1319.16 470.726 1317.19C468.94 1315.19 468.046 1312.67 468.046 1309.63C468.046 1306.62 468.98 1304.11 470.846 1302.11C472.713 1300.08 475.22 1299.07 478.366 1299.07C479.566 1299.07 480.66 1299.22 481.646 1299.51C482.66 1299.78 483.433 1300.11 483.966 1300.51C484.526 1300.91 484.993 1301.32 485.366 1301.75C485.74 1302.15 485.993 1302.5 486.126 1302.79L486.286 1303.19V1305.83H482.886L482.846 1305.67C482.82 1305.59 482.753 1305.47 482.646 1305.31C482.566 1305.15 482.446 1304.99 482.286 1304.83C482.153 1304.64 481.966 1304.46 481.726 1304.27C481.486 1304.06 481.22 1303.88 480.926 1303.75C480.633 1303.59 480.26 1303.47 479.806 1303.39C479.353 1303.28 478.873 1303.23 478.366 1303.23C476.606 1303.23 475.26 1303.83 474.326 1305.03C473.393 1306.23 472.926 1307.76 472.926 1309.63C472.926 1311.5 473.393 1313.03 474.326 1314.23C475.26 1315.4 476.606 1315.99 478.366 1315.99C478.793 1315.99 479.193 1315.96 479.566 1315.91C479.94 1315.86 480.26 1315.78 480.526 1315.67C480.82 1315.56 481.073 1315.44 481.286 1315.31C481.526 1315.18 481.726 1315.04 481.886 1314.91C482.046 1314.78 482.193 1314.63 482.326 1314.47C482.46 1314.31 482.553 1314.18 482.606 1314.07C482.686 1313.94 482.753 1313.82 482.806 1313.71C482.86 1313.6 482.9 1313.52 482.926 1313.47V1313.39H486.326V1316.03C486.273 1316.14 486.193 1316.28 486.086 1316.47C486.006 1316.66 485.766 1316.99 485.366 1317.47C484.966 1317.95 484.5 1318.38 483.966 1318.75C483.433 1319.1 482.66 1319.42 481.646 1319.71C480.66 1320 479.566 1320.15 478.366 1320.15ZM499.848 1319.67H495.008V1303.63H488.848V1299.59H506.008V1303.63H499.848V1319.67ZM518.329 1320.15C515.156 1320.15 512.622 1319.15 510.729 1317.15C508.862 1315.12 507.929 1312.6 507.929 1309.59C507.929 1306.6 508.862 1304.11 510.729 1302.11C512.596 1300.11 515.129 1299.11 518.329 1299.11C521.476 1299.11 523.982 1300.11 525.849 1302.11C527.742 1304.11 528.689 1306.6 528.689 1309.59C528.689 1312.58 527.742 1315.08 525.849 1317.11C523.982 1319.14 521.476 1320.15 518.329 1320.15ZM514.169 1314.11C515.102 1315.36 516.489 1315.99 518.329 1315.99C520.169 1315.99 521.556 1315.36 522.489 1314.11C523.369 1312.88 523.809 1311.38 523.809 1309.59C523.809 1307.88 523.369 1306.4 522.489 1305.15C521.556 1303.9 520.169 1303.27 518.329 1303.27C516.489 1303.27 515.102 1303.9 514.169 1305.15C513.262 1306.38 512.809 1307.86 512.809 1309.59C512.809 1311.38 513.262 1312.88 514.169 1314.11Z" fill="#191919"/>
<path d="M1118.16 320.08C1144.41 291.1 1195.37 239.558 1217.79 214.92" stroke="#FF5C00" stroke-width="25.1577" stroke-linecap="round"/>
<path d="M1216.43 321.347C1189.64 292.863 1142.35 237.944 1119.58 213.615" stroke="#FF5C00" stroke-width="25.1577" stroke-linecap="round"/>
<path d="M1240.36 271.342C1201.27 270.139 1128.99 264.743 1095.68 263.633" stroke="#FF5C00" stroke-width="25.1577" stroke-linecap="round"/>
<path d="M769.239 1107.73C795.487 1078.75 846.446 1027.21 868.875 1002.57" stroke="#FF5C00" stroke-width="25.1577" stroke-linecap="round"/>
<path d="M867.511 1109C840.725 1080.52 793.427 1025.6 770.663 1001.27" stroke="#FF5C00" stroke-width="25.1577" stroke-linecap="round"/>
<path d="M891.437 1058.99C852.351 1057.79 780.065 1052.39 746.762 1051.29" stroke="#FF5C00" stroke-width="25.1577" stroke-linecap="round"/>
<path d="M1708.77 582.99C1747.64 578.724 1819.97 573.974 1853.1 570.422" stroke="#FF5C00" stroke-width="25.1577" stroke-linecap="round"/>
<path d="M1781.43 649.135C1780.3 610.055 1781.37 537.59 1780.49 504.287" stroke="#FF5C00" stroke-width="25.1577" stroke-linecap="round"/>
<path d="M1832.53 627.584C1804.08 600.752 1753.59 548.757 1729.41 525.832" stroke="#FF5C00" stroke-width="25.1577" stroke-linecap="round"/>
<path d="M1427.7 979.572C1448.45 946.437 1489.57 886.755 1507.33 858.564" stroke="#FF5C00" stroke-width="25.1577" stroke-linecap="round"/>
<path d="M1524.68 963.579C1493.31 940.236 1437.1 894.467 1410.42 874.51" stroke="#FF5C00" stroke-width="25.1577" stroke-linecap="round"/>
<path d="M1539.44 910.132C1500.75 915.804 1428.64 923.174 1395.66 927.924" stroke="#FF5C00" stroke-width="25.1577" stroke-linecap="round"/>
<path d="M45.0925 663.864C65.8474 630.729 106.969 571.047 124.725 542.856" stroke="#FF5C00" stroke-width="25.1577" stroke-linecap="round"/>
<path d="M142.072 647.871C110.702 624.529 54.499 578.76 27.8179 558.802" stroke="#FF5C00" stroke-width="25.1577" stroke-linecap="round"/>
<path d="M156.839 594.424C118.148 600.097 46.037 607.466 13.0557 612.217" stroke="#FF5C00" stroke-width="25.1577" stroke-linecap="round"/>
<path fill-rule="evenodd" clip-rule="evenodd" d="M367.879 28.6575C375.77 27.783 381.458 20.6774 380.584 12.7866C379.709 4.89579 372.603 -0.792073 364.713 0.0823795C347.096 2.03464 338.336 2.91214 331.465 3.60046C320.858 4.66299 314.751 5.27471 287.514 8.6931L287.511 8.69346C287.519 8.69241 287.512 8.69296 287.486 8.6949C287.374 8.70331 286.913 8.73776 285.881 8.7803C285.064 8.81393 284.148 8.84385 283.077 8.87884L283.077 8.87885L283.076 8.87889C282.642 8.89306 282.182 8.90806 281.694 8.92449C278.45 9.03351 274.284 9.19322 270.201 9.55777C266.34 9.90249 261.553 10.5064 257.428 11.8197C255.444 12.4513 252.45 13.5969 249.717 15.8054C246.702 18.2413 243.019 22.9148 243.32 29.664L243.321 29.6699C243.675 37.5437 246.843 45.8507 249.625 52.1497C251.919 57.3445 254.623 62.5934 256.734 66.6899L256.734 66.69C257.301 67.7908 257.825 68.8084 258.287 69.7193L258.288 69.7221C264.721 82.4031 268.348 90.4729 275.266 105.862L275.266 105.863C278.411 112.857 282.234 121.364 287.31 132.502C290.602 139.727 299.128 142.914 306.352 139.622C313.576 136.33 316.764 127.805 313.472 120.581C308.626 109.945 304.89 101.636 301.763 94.679L301.762 94.6781C295.038 79.7197 291.122 71.0089 285.01 58.8582C345.166 93.373 466.641 154.08 587.559 214.167C598.792 219.749 610.021 225.326 621.2 230.879L621.204 230.881C727.686 283.766 829.574 334.37 885.875 364.915C788.585 412.273 528.969 530.64 477.175 552.201C469.845 555.252 466.377 563.667 469.428 570.996C469.644 571.515 469.886 572.013 470.153 572.492C470.46 573.328 470.848 574.147 471.322 574.939C491.804 609.187 518.672 657.596 540.835 697.529L543.555 702.43C527.616 700.391 507.718 697.988 486.356 695.409L486.304 695.403C474.202 693.941 461.632 692.423 449.046 690.883C398.498 684.696 347.867 678.165 323.839 673.3L297.602 667.988L307.666 692.794C313.862 708.065 322.602 729.943 332.979 755.92C371.756 852.985 433.398 1007.29 470.614 1088.04C473.937 1095.25 482.476 1098.4 489.686 1095.07C496.896 1091.75 500.047 1083.21 496.724 1076C459.87 996.037 398.766 843.089 359.952 745.936C354.05 731.162 348.663 717.678 343.955 705.937C371.45 710.183 409.006 714.947 445.554 719.42C458.456 720.999 471.245 722.544 483.48 724.021L483.501 724.024C519.244 728.34 550.247 732.084 565.484 734.45C566.028 734.534 566.57 734.587 567.107 734.61C570.389 735.304 573.927 734.86 577.086 733.097C584.018 729.227 586.501 720.471 582.631 713.539C577.651 704.618 572.094 694.605 566.179 683.946L566.133 683.863L566.131 683.86C546.438 648.377 522.776 605.744 503.194 572.346C585.622 536.553 853.945 413.798 920.903 379.632C926.237 376.911 929.145 371.317 928.704 365.698C929.216 360.269 926.601 354.786 921.569 351.885C872.304 323.487 755.751 265.602 634.534 205.4L634.534 205.4L634.379 205.323C623.061 199.702 611.702 194.06 600.353 188.421C480.73 128.977 362.442 69.836 302.58 35.789C320.016 33.6393 325.401 33.1012 334.02 32.24L334.02 32.2399C340.809 31.5615 349.606 30.6826 367.879 28.6575Z" fill="#F1B8FF"/>
<path d="M873.021 836.179C865.328 836.179 858.424 834.749 852.309 831.889C846.193 828.931 841.311 824.444 837.662 818.429C834.111 812.414 832.336 804.87 832.336 795.798V792.839C832.336 784.161 834.062 776.963 837.514 771.243C840.966 765.524 845.651 761.234 851.569 758.375C857.585 755.416 864.243 753.937 871.542 753.937C884.462 753.937 894.227 757.29 900.835 763.995C907.443 770.602 910.747 780.217 910.747 792.839V801.123H855.711C855.908 804.968 856.796 808.173 858.374 810.737C860.051 813.301 862.172 815.175 864.736 816.358C867.3 817.443 870.062 817.985 873.021 817.985C877.361 817.985 880.764 817.344 883.229 816.062C885.794 814.682 887.47 812.857 888.26 810.589H909.268C907.69 819.168 903.794 825.578 897.58 829.818C891.366 834.059 883.18 836.179 873.021 836.179ZM872.281 772.131C869.52 772.131 866.906 772.575 864.44 773.462C861.974 774.35 859.952 775.829 858.374 777.9C856.895 779.872 856.056 782.584 855.859 786.035H888.407C888.407 782.386 887.668 779.576 886.188 777.604C884.709 775.533 882.736 774.103 880.27 773.314C877.903 772.525 875.24 772.131 872.281 772.131Z" fill="#191919"/>
<path d="M746.434 834.254L771.437 793.429L747.913 755.858H773.064L788.451 779.673L803.245 755.858H827.804L804.429 792.69L829.284 834.254H803.985L787.563 806.298L771.141 834.254H746.434Z" fill="#191919"/>
<path d="M596.937 834.254V755.858H619.72V781.3H675.456C685.713 781.3 693.456 783.469 698.683 787.808C703.911 792.147 706.524 798.803 706.524 807.777C706.524 812.905 705.489 817.49 703.418 821.533C701.346 825.576 698.042 828.732 693.505 831C688.968 833.169 682.951 834.254 675.456 834.254H596.937ZM619.72 817.096H672.497C676.442 817.096 679.302 816.356 681.078 814.877C682.853 813.299 683.741 810.933 683.741 807.777C683.741 804.523 682.853 802.156 681.078 800.677C679.401 799.198 676.541 798.458 672.497 798.458H619.72V817.096ZM713.33 834.254V755.858H736.114V834.254H713.33Z" fill="#191919"/>
<path d="M499.311 852.744V815.617H507.595C508.976 813.546 510.061 811.031 510.85 808.073C511.738 805.016 512.379 801.269 512.774 796.831C513.168 792.394 513.365 787.118 513.365 781.004V755.858H577.722V815.617H586.599V852.744H567.366V834.254H518.544V852.744H499.311ZM529.935 815.617H554.939V774.496H534.374V783.962C534.374 791.457 534.029 797.768 533.338 802.896C532.648 807.925 531.514 812.165 529.935 815.617Z" fill="#191919"/>
<path d="M426.678 834.254V774.496H381.057V755.858H495.083V774.496H449.462V834.254H426.678Z" fill="#191919"/>
<path d="M335.225 836.179C327.926 836.179 321.219 834.749 315.104 831.889C309.088 829.03 304.255 824.592 300.606 818.577C297.055 812.463 295.28 804.87 295.28 795.798V792.839C295.28 784.359 297.055 777.259 300.606 771.539C304.255 765.721 309.088 761.333 315.104 758.375C321.219 755.416 327.926 753.937 335.225 753.937C342.623 753.937 349.329 755.416 355.346 758.375C361.362 761.333 366.146 765.721 369.697 771.539C373.346 777.259 375.171 784.359 375.171 792.839V795.798C375.171 804.771 373.346 812.266 369.697 818.281C366.146 824.198 361.362 828.684 355.346 831.741C349.329 834.7 342.623 836.179 335.225 836.179ZM335.225 817.245C338.776 817.245 341.784 816.407 344.25 814.731C346.716 812.956 348.59 810.441 349.872 807.187C351.154 803.933 351.795 800.136 351.795 795.798V792.839C351.795 788.895 351.154 785.443 349.872 782.485C348.59 779.527 346.716 777.209 344.25 775.533C341.784 773.758 338.776 772.87 335.225 772.87C331.674 772.87 328.666 773.758 326.2 775.533C323.735 777.209 321.861 779.527 320.578 782.485C319.296 785.443 318.655 788.895 318.655 792.839V795.798C318.655 800.334 319.296 804.229 320.578 807.483C321.861 810.639 323.735 813.055 326.2 814.731C328.666 816.407 331.674 817.245 335.225 817.245Z" fill="#191919"/>
<path d="M1456.96 564.221C1449.36 564.221 1442.51 562.545 1436.39 559.192C1430.38 555.74 1425.64 550.662 1422.19 543.956C1418.74 537.152 1417.01 528.721 1417.01 518.663V515.704C1417.01 503.969 1418.35 493.96 1421.01 485.677C1423.67 477.295 1428.06 470.787 1434.18 466.152C1440.29 461.517 1448.58 458.953 1459.03 458.46C1463.17 458.263 1467.27 458.115 1471.31 458.017C1475.35 457.918 1479.1 457.671 1482.55 457.277C1486.01 456.784 1488.82 456.044 1490.99 455.058V474.583C1490 475.175 1488.32 475.717 1485.96 476.21C1483.69 476.703 1480.53 477.098 1476.49 477.394C1472.54 477.591 1467.46 477.788 1461.25 477.985C1455.53 477.985 1450.79 478.824 1447.05 480.5C1443.4 482.078 1440.59 484.592 1438.61 488.044C1436.74 491.495 1435.46 496.081 1434.77 501.8C1436.25 499.137 1438.22 496.771 1440.69 494.7C1443.25 492.629 1446.41 491.002 1450.15 489.819C1454 488.537 1458.49 487.896 1463.62 487.896C1470.13 487.896 1475.9 489.178 1480.93 491.742C1485.96 494.207 1489.85 497.954 1492.61 502.983C1495.47 508.013 1496.9 514.373 1496.9 522.065V524.727C1496.9 533.011 1495.13 540.111 1491.58 546.027C1488.03 551.944 1483.24 556.48 1477.23 559.636C1471.21 562.693 1464.46 564.221 1456.96 564.221ZM1456.96 545.288C1462.29 545.288 1466.38 543.611 1469.24 540.258C1472.1 536.807 1473.53 532.32 1473.53 526.798V523.84C1473.53 517.923 1472.05 513.387 1469.09 510.231C1466.13 506.977 1462.09 505.35 1456.96 505.35C1451.93 505.35 1447.89 506.977 1444.83 510.231C1441.87 513.387 1440.39 517.923 1440.39 523.84V526.206C1440.39 529.954 1441.08 533.306 1442.46 536.265C1443.94 539.124 1445.91 541.343 1448.38 542.921C1450.94 544.499 1453.8 545.288 1456.96 545.288Z" fill="#191919"/>
<path d="M1367.51 564.234C1360.21 564.234 1353.51 562.804 1347.39 559.944C1341.37 557.085 1336.54 552.647 1332.89 546.632C1329.34 540.518 1327.57 532.925 1327.57 523.852V520.894C1327.57 512.414 1329.34 505.314 1332.89 499.594C1336.54 493.776 1341.37 489.388 1347.39 486.429C1353.51 483.471 1360.21 481.992 1367.51 481.992C1374.91 481.992 1381.62 483.471 1387.63 486.429C1393.65 489.388 1398.43 493.776 1401.98 499.594C1405.63 505.314 1407.46 512.414 1407.46 520.894V523.852C1407.46 532.826 1405.63 540.321 1401.98 546.336C1398.43 552.253 1393.65 556.739 1387.63 559.796C1381.62 562.755 1374.91 564.234 1367.51 564.234ZM1367.51 545.3C1371.06 545.3 1374.07 544.462 1376.54 542.786C1379 541.011 1380.88 538.496 1382.16 535.242C1383.44 531.988 1384.08 528.191 1384.08 523.852V520.894C1384.08 516.95 1383.44 513.498 1382.16 510.54C1380.88 507.582 1379 505.264 1376.54 503.588C1374.07 501.813 1371.06 500.925 1367.51 500.925C1363.96 500.925 1360.95 501.813 1358.49 503.588C1356.02 505.264 1354.15 507.582 1352.86 510.54C1351.58 513.498 1350.94 516.95 1350.94 520.894V523.852C1350.94 528.389 1351.58 532.284 1352.86 535.538C1354.15 538.693 1356.02 541.109 1358.49 542.786C1360.95 544.462 1363.96 545.3 1367.51 545.3Z" fill="#191919"/>
<path d="M1224.56 563.109C1218.94 563.109 1214.11 562.025 1210.06 559.855C1206.12 557.686 1203.11 554.727 1201.04 550.98C1198.97 547.134 1197.93 542.894 1197.93 538.259C1197.93 530.469 1200.3 524.503 1205.03 520.361C1209.87 516.22 1217.12 514.149 1226.78 514.149H1248.97V510.895C1248.97 506.161 1247.84 502.907 1245.57 501.132C1243.4 499.357 1240.34 498.47 1236.4 498.47C1232.65 498.47 1229.89 499.061 1228.11 500.245C1226.34 501.329 1225.35 503.154 1225.15 505.717H1202.37C1202.67 500.984 1204.15 496.744 1206.81 492.997C1209.57 489.249 1213.47 486.291 1218.5 484.122C1223.62 481.952 1229.84 480.867 1237.14 480.867C1244.04 480.867 1250.11 481.903 1255.33 483.974C1260.56 486.045 1264.61 489.397 1267.47 494.032C1270.43 498.568 1271.9 504.682 1271.9 512.374V541.218C1271.9 545.359 1272 549.008 1272.2 552.163C1272.4 555.22 1272.69 558.228 1273.09 561.186H1251.34C1251.24 559.51 1251.09 558.031 1250.9 556.749C1250.8 555.467 1250.75 553.889 1250.75 552.016C1248.38 555.171 1245.08 557.834 1240.84 560.003C1236.69 562.074 1231.27 563.109 1224.56 563.109ZM1231.96 546.986C1235.21 546.986 1238.12 546.395 1240.69 545.211C1243.25 544.028 1245.27 542.253 1246.75 539.886C1248.23 537.421 1248.97 534.66 1248.97 531.603V528.349H1231.22C1227.87 528.349 1225.35 529.236 1223.67 531.011C1222.1 532.786 1221.31 534.808 1221.31 537.076C1221.31 540.034 1222.1 542.45 1223.67 544.324C1225.35 546.099 1228.11 546.986 1231.96 546.986Z" fill="#191919"/>
<path d="M1109.84 561.184V482.788H1132.03V530.122L1165.32 482.788H1185.3V561.184H1163.1V513.851L1129.81 561.184H1109.84Z" fill="#191919"/>
<path d="M969.195 579.674V542.547H977.48C978.861 540.476 979.946 537.962 980.735 535.003C981.622 531.946 982.263 528.199 982.658 523.761C983.052 519.324 983.25 514.048 983.25 507.934V482.788H1090.62V542.547H1099.5V579.674H1080.26V561.185H988.428V579.674H969.195ZM999.82 542.547H1067.83V501.426H1004.26V510.893C1004.26 518.387 1003.91 524.698 1003.22 529.826C1002.53 534.855 1001.4 539.096 999.82 542.547Z" fill="#191919"/>
<path d="M925.572 563.109C917.878 563.109 910.974 561.679 904.859 558.82C898.744 555.861 893.862 551.375 890.212 545.359C886.661 539.344 884.886 531.8 884.886 522.728V519.77C884.886 511.092 886.612 503.893 890.064 498.174C893.516 492.454 898.201 488.165 904.119 485.305C910.136 482.347 916.793 480.867 924.092 480.867C937.013 480.867 946.777 484.22 953.386 490.926C959.994 497.533 963.298 507.147 963.298 519.77V528.053H908.262C908.459 531.899 909.347 535.104 910.925 537.668C912.602 540.231 914.722 542.105 917.286 543.288C919.851 544.373 922.613 544.916 925.572 544.916C929.911 544.916 933.314 544.275 935.78 542.993C938.344 541.612 940.021 539.788 940.81 537.52H961.818C960.24 546.099 956.344 552.509 950.131 556.749C943.917 560.989 935.731 563.109 925.572 563.109ZM924.832 499.061C922.07 499.061 919.456 499.505 916.991 500.392C914.525 501.28 912.503 502.759 910.925 504.83C909.445 506.802 908.607 509.514 908.41 512.965H940.958C940.958 509.317 940.218 506.506 938.739 504.534C937.259 502.463 935.287 501.033 932.821 500.245C930.454 499.456 927.791 499.061 924.832 499.061Z" fill="#191919"/>
<path d="M738.334 561.184V482.788H766L806.147 521.691L846.294 482.788H873.073V561.184H851.472V513.111L813.101 546.393H798.306L759.934 513.111V561.184H738.334Z" fill="#191919"/>
<path d="M607.551 559.63V481.234H629.743V528.568L663.032 481.234H683.004V559.63H660.812V512.297L627.524 559.63H607.551ZM645.278 473.247C635.612 473.247 628.757 471.373 624.713 467.626C620.669 463.879 618.647 458.258 618.647 450.763H638.768C638.768 454.215 639.311 456.581 640.396 457.863C641.481 459.145 643.108 459.786 645.278 459.786C647.448 459.786 649.075 459.145 650.16 457.863C651.245 456.581 651.788 454.215 651.788 450.763H671.908C671.908 458.258 669.886 463.879 665.843 467.626C661.799 471.373 654.944 473.247 645.278 473.247Z" fill="#191919"/>
<path d="M555.831 561.547C548.532 561.547 541.825 560.118 535.71 557.258C529.693 554.398 524.86 549.961 521.211 543.945C517.66 537.831 515.885 530.238 515.885 521.166V518.208C515.885 509.727 517.66 502.627 521.211 496.908C524.86 491.09 529.693 486.701 535.71 483.743C541.825 480.785 548.532 479.306 555.831 479.306C563.228 479.306 569.935 480.785 575.951 483.743C581.968 486.701 586.752 491.09 590.302 496.908C593.952 502.627 595.776 509.727 595.776 518.208V521.166C595.776 530.14 593.952 537.634 590.302 543.649C586.752 549.566 581.968 554.053 575.951 557.11C569.935 560.068 563.228 561.547 555.831 561.547ZM555.831 542.614C559.381 542.614 562.39 541.776 564.855 540.099C567.321 538.324 569.195 535.81 570.477 532.556C571.76 529.302 572.401 525.505 572.401 521.166V518.208C572.401 514.263 571.76 510.812 570.477 507.854C569.195 504.895 567.321 502.578 564.855 500.901C562.39 499.126 559.381 498.239 555.831 498.239C552.28 498.239 549.272 499.126 546.806 500.901C544.34 502.578 542.466 504.895 541.184 507.854C539.902 510.812 539.261 514.263 539.261 518.208V521.166C539.261 525.702 539.902 529.597 541.184 532.852C542.466 536.007 544.34 538.423 546.806 540.099C549.272 541.776 552.28 542.614 555.831 542.614Z" fill="#191919"/>
<path d="M390.031 559.623V481.227H475.06C481.964 481.227 487.536 482.163 491.778 484.037C496.019 485.812 499.126 488.277 501.098 491.433C503.071 494.49 504.057 497.99 504.057 501.935C504.057 505.584 502.972 509.084 500.802 512.437C498.632 515.691 495.526 517.811 491.482 518.797C496.315 519.981 500.112 522.249 502.874 525.602C505.635 528.954 507.016 532.85 507.016 537.287C507.016 544.091 504.6 549.515 499.767 553.558C494.934 557.601 487.684 559.623 478.019 559.623H390.031ZM412.815 542.464H472.249C476.292 542.464 479.301 541.873 481.273 540.689C483.246 539.506 484.232 537.682 484.232 535.216C484.232 532.751 483.246 530.927 481.273 529.743C479.301 528.461 476.292 527.82 472.249 527.82H412.815V542.464ZM412.815 511.845H471.065C475.109 511.845 477.821 511.254 479.202 510.07C480.583 508.788 481.273 507.112 481.273 505.041C481.273 502.97 480.534 501.343 479.054 500.16C477.575 498.977 474.912 498.385 471.065 498.385H412.815V511.845Z" fill="#191919"/>
<path d="M327.088 559.623V477.973H295.28V456.081H385.527V477.973H353.719V559.623H327.088Z" fill="#191919"/>
<path d="M1479.24 692.339V613.943H1506.91L1525.55 652.845L1544.19 613.943H1570.97V692.339H1549.37V644.266L1532.5 677.547H1517.71L1500.84 644.266V692.339H1479.24Z" fill="#191919"/>
<path d="M1427.5 694.264C1420.2 694.264 1413.49 692.834 1407.38 689.974C1401.36 687.114 1396.53 682.677 1392.88 676.661C1389.33 670.548 1387.55 662.955 1387.55 653.882V650.924C1387.55 642.443 1389.33 635.343 1392.88 629.624C1396.53 623.806 1401.36 619.418 1407.38 616.459C1413.49 613.501 1420.2 612.022 1427.5 612.022C1434.89 612.022 1441.6 613.501 1447.62 616.459C1453.63 619.418 1458.42 623.806 1461.97 629.624C1465.62 635.343 1467.44 642.443 1467.44 650.924V653.882C1467.44 662.856 1465.62 670.35 1461.97 676.366C1458.42 682.282 1453.63 686.769 1447.62 689.826C1441.6 692.784 1434.89 694.264 1427.5 694.264ZM1427.5 675.33C1431.05 675.33 1434.06 674.492 1436.52 672.816C1438.99 671.041 1440.86 668.526 1442.14 665.272C1443.43 662.018 1444.07 658.221 1444.07 653.882V650.924C1444.07 646.979 1443.43 643.528 1442.14 640.57C1440.86 637.611 1438.99 635.294 1436.52 633.618C1434.06 631.843 1431.05 630.955 1427.5 630.955C1423.95 630.955 1420.94 631.843 1418.47 633.618C1416.01 635.294 1414.13 637.611 1412.85 640.57C1411.57 643.528 1410.93 646.979 1410.93 650.924V653.882C1410.93 658.418 1411.57 662.314 1412.85 665.568C1414.13 668.723 1416.01 671.139 1418.47 672.816C1420.94 674.492 1423.95 675.33 1427.5 675.33Z" fill="#191919"/>
<path d="M1257.21 692.339V613.943H1280V643.082H1352.9V613.943H1375.68V692.339H1352.9V661.72H1280V692.339H1257.21Z" fill="#191919"/>
<path d="M1177.36 692.339V613.943H1200.14V639.384H1215.82C1226.08 639.384 1233.82 641.554 1239.05 645.893C1244.28 650.232 1246.89 656.888 1246.89 665.862C1246.89 670.989 1245.86 675.575 1243.79 679.618C1241.71 683.661 1238.41 686.817 1233.87 689.085C1229.34 691.254 1223.32 692.339 1215.82 692.339H1177.36ZM1200.14 675.18H1212.87C1216.91 675.18 1219.77 674.441 1221.45 672.962C1223.22 671.384 1224.11 669.017 1224.11 665.862C1224.11 662.607 1223.22 660.241 1221.45 658.762C1219.77 657.282 1216.91 656.543 1212.87 656.543H1200.14V675.18Z" fill="#191919"/>
<path d="M1047.09 694.262C1046.2 694.262 1045.01 694.212 1043.53 694.114C1042.15 694.114 1041.07 694.015 1040.28 693.818V673.849C1040.58 673.948 1041.32 673.997 1042.5 673.997C1044.77 673.997 1046.64 673.06 1048.12 671.187C1049.7 669.313 1050.83 666.157 1051.52 661.72C1052.31 657.282 1052.71 651.218 1052.71 643.526V613.943H1160.96V692.339H1138.18V632.58H1074.16V646.485C1074.16 656.247 1073.57 664.284 1072.38 670.595C1071.2 676.906 1069.47 681.787 1067.21 685.239C1064.94 688.592 1062.08 690.958 1058.63 692.339C1055.27 693.621 1051.43 694.262 1047.09 694.262Z" fill="#191919"/>
<path d="M983.289 694.264C977.667 694.264 972.834 693.179 968.79 691.009C964.845 688.84 961.837 685.882 959.766 682.134C957.694 678.289 956.659 674.048 956.659 669.414C956.659 661.623 959.026 655.657 963.76 651.516C968.593 647.374 975.843 645.303 985.508 645.303H1007.7V642.049C1007.7 637.316 1006.57 634.061 1004.3 632.286C1002.13 630.511 999.07 629.624 995.125 629.624C991.377 629.624 988.615 630.216 986.84 631.399C985.065 632.484 984.078 634.308 983.881 636.872H961.097C961.393 632.138 962.873 627.898 965.536 624.151C968.297 620.404 972.193 617.445 977.223 615.276C982.352 613.106 988.566 612.022 995.865 612.022C1002.77 612.022 1008.83 613.057 1014.06 615.128C1019.29 617.199 1023.33 620.552 1026.19 625.186C1029.15 629.722 1030.63 635.836 1030.63 643.528V672.372C1030.63 676.514 1030.73 680.162 1030.93 683.318C1031.13 686.375 1031.42 689.382 1031.82 692.341H1010.07C1009.97 690.664 1009.82 689.185 1009.62 687.903C1009.53 686.621 1009.48 685.043 1009.48 683.17C1007.11 686.325 1003.8 688.988 999.563 691.157C995.421 693.228 989.996 694.264 983.289 694.264ZM990.687 678.141C993.941 678.141 996.851 677.549 999.415 676.366C1001.98 675.182 1004 673.407 1005.48 671.041C1006.96 668.575 1007.7 665.814 1007.7 662.757V659.503H989.947C986.593 659.503 984.078 660.391 982.402 662.166C980.823 663.941 980.034 665.962 980.034 668.23C980.034 671.189 980.823 673.605 982.402 675.478C984.078 677.253 986.84 678.141 990.687 678.141Z" fill="#191919"/>
<path d="M800.733 694.264C793.04 694.264 786.136 692.834 780.02 689.974C773.905 687.016 769.023 682.529 765.374 676.514C761.823 670.498 760.048 662.955 760.048 653.882V650.924C760.048 642.246 761.774 635.047 765.226 629.328C768.678 623.609 773.363 619.319 779.281 616.459C785.297 613.501 791.955 612.022 799.254 612.022C812.174 612.022 821.939 615.375 828.547 622.08C835.155 628.687 838.459 638.302 838.459 650.924V659.207H783.423C783.62 663.053 784.508 666.258 786.086 668.822C787.763 671.386 789.884 673.259 792.448 674.443C795.012 675.527 797.774 676.07 800.733 676.07C805.073 676.07 808.476 675.429 810.941 674.147C813.506 672.766 815.182 670.942 815.972 668.674H836.98C835.402 677.253 831.506 683.663 825.292 687.903C819.078 692.143 810.892 694.264 800.733 694.264ZM799.993 630.216C797.232 630.216 794.618 630.659 792.152 631.547C789.686 632.434 787.664 633.913 786.086 635.984C784.607 637.957 783.768 640.668 783.571 644.12H816.119C816.119 640.471 815.38 637.661 813.9 635.688C812.421 633.618 810.448 632.188 807.982 631.399C805.615 630.61 802.952 630.216 799.993 630.216Z" fill="#191919"/>
<path d="M671.974 721.924V613.945H692.983V624.595C695.054 621.439 698.111 618.579 702.155 616.015C706.298 613.353 711.377 612.022 717.394 612.022C728.441 612.022 736.824 615.276 742.545 621.784C748.265 628.293 751.126 638.006 751.126 650.924V653.882C751.126 662.757 749.745 670.202 746.983 676.218C744.222 682.134 740.326 686.621 735.295 689.678C730.265 692.735 724.298 694.264 717.394 694.264C712.955 694.264 708.714 693.278 704.67 691.305C700.725 689.234 697.421 686.276 694.758 682.43V721.924H671.974ZM711.92 675.478C716.457 675.478 720.205 673.654 723.164 670.005C726.221 666.258 727.75 660.884 727.75 653.882V650.924C727.75 644.12 726.271 639.091 723.312 635.836C720.451 632.484 716.654 630.807 711.92 630.807C708.764 630.807 705.854 631.497 703.191 632.878C700.627 634.16 698.555 636.132 696.977 638.795C695.498 641.457 694.758 644.761 694.758 648.705V656.101C694.758 660.144 695.498 663.645 696.977 666.603C698.555 669.463 700.627 671.682 703.191 673.259C705.854 674.739 708.764 675.478 711.92 675.478Z" fill="#191919"/>
<path d="M593.311 692.339V632.58H547.69V613.943H661.716V632.58H616.095V692.339H593.311Z" fill="#191919"/>
<path d="M503.999 694.264C496.306 694.264 489.451 692.784 483.434 689.826C477.418 686.868 472.683 682.381 469.231 676.366C465.779 670.35 464.053 662.856 464.053 653.882V650.924C464.053 642.641 465.829 635.59 469.379 629.772C473.029 623.954 477.862 619.565 483.878 616.607C489.993 613.55 496.7 612.022 503.999 612.022C511.889 612.022 518.498 613.402 523.824 616.163C529.15 618.826 533.243 622.425 536.103 626.961C538.964 631.497 540.591 636.527 540.986 642.049H517.462C516.772 638.499 515.341 635.787 513.172 633.913C511.1 631.941 508.043 630.955 503.999 630.955C500.843 630.955 497.982 631.695 495.418 633.174C492.952 634.653 490.98 636.872 489.5 639.83C488.119 642.69 487.429 646.388 487.429 650.924V653.882C487.429 658.714 488.119 662.708 489.5 665.864C490.881 669.019 492.804 671.386 495.27 672.964C497.736 674.443 500.645 675.182 503.999 675.182C507.451 675.182 510.361 674.295 512.728 672.52C515.194 670.646 516.772 667.885 517.462 664.236H540.986C540.591 670.35 538.816 675.675 535.66 680.211C532.503 684.748 528.213 688.248 522.788 690.714C517.462 693.08 511.199 694.264 503.999 694.264Z" fill="#191919"/>
<path d="M384.095 692.339V613.943H406.879V643.526H412.797L434.693 613.943H459.548L430.698 650.774L461.027 692.339H434.101L412.797 661.276H406.879V692.339H384.095Z" fill="#191919"/>
<path d="M332.266 694.264C325.165 694.264 318.852 693.08 313.329 690.714C307.904 688.248 303.614 684.748 300.458 680.211C297.4 675.675 295.674 670.35 295.28 664.236H318.655C319.444 667.885 321.022 670.646 323.389 672.52C325.855 674.295 328.814 675.182 332.266 675.182C336.606 675.182 340.107 674.147 342.771 672.076C345.532 669.907 347.357 666.258 348.245 661.13H324.869V643.676H348.097C347.209 639.238 345.384 636.034 342.623 634.061C339.861 631.991 336.409 630.955 332.266 630.955C328.222 630.955 325.116 631.941 322.946 633.913C320.874 635.787 319.444 638.499 318.655 642.049H295.28C295.674 636.527 297.301 631.497 300.162 626.961C303.022 622.425 307.066 618.826 312.293 616.163C317.62 613.402 324.277 612.022 332.266 612.022C339.664 612.022 346.371 613.55 352.387 616.607C358.404 619.565 363.187 623.954 366.738 629.772C370.387 635.59 372.212 642.641 372.212 650.924V653.882C372.212 662.856 370.486 670.35 367.034 676.366C363.582 682.381 358.847 686.868 352.831 689.826C346.814 692.784 339.96 694.264 332.266 694.264Z" fill="#191919"/>
<path d="M852.276 690.418V612.022H879.942L898.584 650.924L917.225 612.022H944.003V690.418H922.403V642.345L905.537 675.626H890.743L873.877 642.345V690.418H852.276Z" fill="#191919"/>
</svg>
