<svg width="606" height="80" viewBox="0 0 606 80" fill="none" xmlns="http://www.w3.org/2000/svg">
<path d="M0 62.4754V1.1391H78.9243V62.4754H63.1521V14.1073H15.7722V62.4754H0Z" fill="black"/>
<path d="M89.4391 80V16.0351H101.882V22.3439C103.108 20.4746 104.919 18.7806 107.314 17.2618C109.768 15.6846 112.776 14.8959 116.339 14.8959C122.882 14.8959 127.847 16.8237 131.235 20.6791C134.623 24.5345 136.318 30.2884 136.318 37.9409V39.6933C136.318 44.9507 135.5 49.3611 133.864 52.9244C132.228 56.4294 129.921 59.0873 126.942 60.8981C123.963 62.709 120.428 63.6145 116.339 63.6145C113.711 63.6145 111.199 63.0303 108.804 61.862C106.467 60.6353 104.51 58.8828 102.933 56.6046V80H89.4391ZM113.097 52.4863C115.784 52.4863 118.004 51.4056 119.757 49.2442C121.568 47.0245 122.473 43.8408 122.473 39.6933V37.9409C122.473 33.9102 121.597 30.931 119.844 29.0033C118.15 27.0172 115.901 26.0241 113.097 26.0241C111.228 26.0241 109.505 26.433 107.928 27.2508C106.409 28.0102 105.182 29.1785 104.247 30.7558C103.371 32.333 102.933 34.2899 102.933 36.6265V41.0077C102.933 43.4027 103.371 45.4765 104.247 47.2289C105.182 48.923 106.409 50.2373 107.928 51.172C109.505 52.0482 111.228 52.4863 113.097 52.4863Z" fill="black"/>
<path d="M165.254 63.6145C160.931 63.6145 156.959 62.7674 153.337 61.0734C149.774 59.3793 146.911 56.7506 144.75 53.1873C142.647 49.5655 141.595 45.0675 141.595 39.6933V37.9409C141.595 32.9171 142.647 28.7112 144.75 25.3231C146.911 21.8766 149.774 19.2771 153.337 17.5246C156.959 15.7722 160.931 14.8959 165.254 14.8959C169.635 14.8959 173.607 15.7722 177.17 17.5246C180.734 19.2771 183.567 21.8766 185.67 25.3231C187.831 28.7112 188.912 32.9171 188.912 37.9409V39.6933C188.912 45.0091 187.831 49.4487 185.67 53.012C183.567 56.517 180.734 59.1749 177.17 60.9858C173.607 62.7382 169.635 63.6145 165.254 63.6145ZM165.254 52.3987C167.357 52.3987 169.138 51.9022 170.599 50.9091C172.059 49.8576 173.169 48.368 173.928 46.4403C174.688 44.5126 175.067 42.2636 175.067 39.6933V37.9409C175.067 35.6042 174.688 33.5597 173.928 31.8072C173.169 30.0548 172.059 28.682 170.599 27.6889C169.138 26.6375 167.357 26.1117 165.254 26.1117C163.151 26.1117 161.369 26.6375 159.909 27.6889C158.448 28.682 157.338 30.0548 156.579 31.8072C155.82 33.5597 155.44 35.6042 155.44 37.9409V39.6933C155.44 42.3804 155.82 44.6878 156.579 46.6156C157.338 48.4849 158.448 49.916 159.909 50.9091C161.369 51.9022 163.151 52.3987 165.254 52.3987Z" fill="black"/>
<path d="M245.044 62.4754V46.1774C243.701 46.9368 242.153 47.6378 240.4 48.2804C238.648 48.923 236.34 49.2442 233.478 49.2442C227.636 49.2442 223.314 47.8423 220.51 45.0383C217.764 42.2344 216.391 37.9701 216.391 32.2453V16.0351H230.061V30.931C230.061 33.5013 230.586 35.3414 231.638 36.4513C232.748 37.5027 234.734 38.0285 237.596 38.0285C239.524 38.0285 241.13 37.7948 242.416 37.3275C243.701 36.8018 244.577 36.3052 245.044 35.8379V16.0351H258.538V62.4754H245.044Z" fill="black"/>
<path d="M292.67 62.4754V27.0756H265.651V16.0351H333.184V27.0756H306.164V62.4754H292.67Z" fill="black"/>
<path d="M360.327 63.6145C356.004 63.6145 352.032 62.7674 348.41 61.0734C344.847 59.3793 341.984 56.7506 339.823 53.1873C337.72 49.5655 336.668 45.0675 336.668 39.6933V37.9409C336.668 32.9171 337.72 28.7112 339.823 25.3231C341.984 21.8766 344.847 19.2771 348.41 17.5246C352.032 15.7722 356.004 14.8959 360.327 14.8959C364.708 14.8959 368.68 15.7722 372.243 17.5246C375.807 19.2771 378.64 21.8766 380.743 25.3231C382.904 28.7112 383.985 32.9171 383.985 37.9409V39.6933C383.985 45.0091 382.904 49.4487 380.743 53.012C378.64 56.517 375.807 59.1749 372.243 60.9858C368.68 62.7382 364.708 63.6145 360.327 63.6145ZM360.327 52.3987C362.43 52.3987 364.211 51.9022 365.672 50.9091C367.132 49.8576 368.242 48.368 369.001 46.4403C369.761 44.5126 370.14 42.2636 370.14 39.6933V37.9409C370.14 35.6042 369.761 33.5597 369.001 31.8072C368.242 30.0548 367.132 28.682 365.672 27.6889C364.211 26.6375 362.43 26.1117 360.327 26.1117C358.224 26.1117 356.442 26.6375 354.982 27.6889C353.521 28.682 352.411 30.0548 351.652 31.8072C350.893 33.5597 350.513 35.6042 350.513 37.9409V39.6933C350.513 42.3804 350.893 44.6878 351.652 46.6156C352.411 48.4849 353.521 49.916 354.982 50.9091C356.442 51.9022 358.224 52.3987 360.327 52.3987Z" fill="black"/>
<path d="M412.866 62.4754V16.0351H429.252L440.292 39.08L451.333 16.0351H467.193V62.4754H454.4V33.9978L444.411 53.713H435.648L425.659 33.9978V62.4754H412.866Z" fill="black"/>
<path d="M475.931 62.4754V16.0351H489.425V31.1062H519.887C525.963 31.1062 530.548 32.3914 533.644 34.9617C536.74 37.5319 538.288 41.475 538.288 46.7908C538.288 49.8284 537.675 52.5447 536.448 54.9398C535.221 57.3348 533.265 59.2041 530.577 60.5476C527.89 61.8328 524.327 62.4754 519.887 62.4754H475.931ZM489.425 52.3111H495.208C497.545 52.3111 522.166 51.8729 523.217 50.9967C524.269 50.0621 524.794 48.6601 524.794 46.7908C524.794 44.8631 524.269 43.4611 523.217 42.5849C522.224 41.7087 497.603 41.2705 495.208 41.2705H489.425V52.3111ZM542.319 62.4754V16.0351H555.813V62.4754H542.319Z" fill="black"/>
<path d="M577.961 41.3582V37.9409C577.961 36.1884 578.282 34.6404 578.925 33.2968C579.626 31.9533 580.561 30.6973 581.729 29.529C582.897 28.3607 584.241 27.1632 585.759 25.9365C587.687 24.3593 589.177 22.9281 590.228 21.6429C591.28 20.2994 591.806 18.8682 591.806 17.3494C591.806 15.4217 591.221 13.9321 590.053 12.8806C588.943 11.7707 587.161 11.2158 584.708 11.2158C582.313 11.2158 580.502 11.8291 579.275 13.0559C578.107 14.2826 577.523 16.0058 577.523 18.2256H563.678C563.678 14.8959 564.525 11.8583 566.22 9.11282C567.972 6.30888 570.396 4.08909 573.492 2.45345C576.647 0.817817 580.385 0 584.708 0C589.264 0 593.091 0.759402 596.187 2.27821C599.341 3.73859 601.707 5.75393 603.284 8.32421C604.92 10.8945 605.738 13.7568 605.738 16.9113C605.738 19.3063 605.358 21.4093 604.598 23.2202C603.839 24.9726 602.875 26.579 601.707 28.0394C600.539 29.4414 599.312 30.6973 598.027 31.8072C596.041 33.5597 594.58 34.9617 593.646 36.0131C592.711 37.0062 592.098 37.7948 591.806 38.379C591.572 38.9631 591.455 39.5473 591.455 40.1314V41.3582H577.961ZM584.62 63.6145C583.16 63.6145 581.787 63.2348 580.502 62.4754C579.217 61.7744 578.195 60.8105 577.435 59.5838C576.734 58.2986 576.384 56.8383 576.384 55.2026C576.384 52.9244 577.172 50.9967 578.75 49.4195C580.385 47.7839 582.371 46.966 584.708 46.966C587.045 46.966 589.002 47.7839 590.579 49.4195C592.214 50.9967 593.032 52.9244 593.032 55.2026C593.032 56.8383 592.653 58.2986 591.893 59.5838C591.192 60.8105 590.199 61.7744 588.914 62.4754C587.687 63.2348 586.256 63.6145 584.62 63.6145Z" fill="black"/>
</svg>
