<svg width="72" height="72" viewBox="0 0 72 72" fill="none" xmlns="http://www.w3.org/2000/svg">
<rect width="71.716" height="71.716" rx="35.858" fill="#F1B8FF"/>
<path fill-rule="evenodd" clip-rule="evenodd" d="M13.6482 34.2385C24.9779 28.9418 32.5203 25.4223 36.3077 23.7148C47.0871 18.8712 49.353 18.0348 50.8097 18C51.1334 18 51.8455 18.0697 52.3311 18.4879C52.7196 18.8363 52.8167 19.2893 52.8814 19.6378C52.9461 19.9863 53.0109 20.718 52.9461 21.2756C52.3635 27.8964 49.8386 43.9607 48.5437 51.3482C47.9934 54.4844 46.9252 55.5298 45.8894 55.6343C43.6234 55.8434 41.9078 54.0314 39.7389 52.4981C36.3077 50.0937 34.3978 48.5953 31.0636 46.2257C27.2115 43.5077 29.704 42.0093 31.9053 39.5701C32.4879 38.9428 42.4257 29.1858 42.6199 28.3146C42.6523 28.2101 42.6523 27.7919 42.4257 27.5828C42.1991 27.3737 41.8754 27.4434 41.6164 27.5131C41.2604 27.5828 35.8221 31.4856 25.2369 39.1867C23.6831 40.3367 22.2912 40.8942 21.0287 40.8594C19.6368 40.8245 16.9824 40.0231 14.9754 39.3261C12.5476 38.4898 10.6054 38.0368 10.7672 36.5732C10.8644 35.8066 11.8355 35.04 13.6482 34.2385Z" fill="#191919"/>
</svg>
