<svg width="72" height="73" viewBox="0 0 72 73" fill="none" xmlns="http://www.w3.org/2000/svg">
<rect y="0.431641" width="72" height="72" rx="36" fill="#FF5C00"/>
<path fill-rule="evenodd" clip-rule="evenodd" d="M13.7022 34.8058C25.0767 29.4881 32.649 25.9547 36.4513 24.2404C47.2734 19.3775 49.5483 18.5379 51.0108 18.5029C51.3358 18.5029 52.0508 18.5729 52.5382 18.9927C52.9282 19.3426 53.0257 19.7974 53.0907 20.1472C53.1557 20.4971 53.2207 21.2317 53.1557 21.7915C52.5707 28.4386 50.0358 44.5665 48.7359 51.9832C48.1834 55.1318 47.1109 56.1814 46.071 56.2863C43.7961 56.4962 42.0736 54.677 39.8962 53.1377C36.4513 50.7238 34.5339 49.2194 31.1865 46.8405C27.3192 44.1117 29.8216 42.6073 32.0315 40.1584C32.6165 39.5287 42.5936 29.733 42.7886 28.8584C42.8211 28.7534 42.8211 28.3336 42.5936 28.1237C42.3661 27.9138 42.0411 27.9838 41.7811 28.0537C41.4236 28.1237 35.9638 32.042 25.3367 39.7736C23.7768 40.9281 22.3793 41.4878 21.1119 41.4528C19.7144 41.4179 17.0495 40.6132 15.0346 39.9135C12.5972 39.0739 10.6473 38.6191 10.8098 37.1497C10.9073 36.3801 11.8822 35.6104 13.7022 34.8058Z" fill="#F1B8FF"/>
</svg>
