<svg width="1725" height="303" viewBox="0 0 1725 303" fill="none" xmlns="http://www.w3.org/2000/svg">
<path fill-rule="evenodd" clip-rule="evenodd" d="M206.688 0L124.844 298.496H177.802L224.876 125.73L242.529 45.2266H243.063L278.904 298.496H325.443L499.83 44.3221H500.9L476.293 125.73L429.219 298.496H481.643L563.487 0H475.758L358.609 173.67L315.279 243.772H314.744L308.325 173.218L284.788 0H206.688ZM523.445 298.496L601.149 0H693.664C724.65 0 748.849 7.68852 766.26 23.0656C783.966 38.4426 792.82 58.7946 792.82 84.1215C792.82 104.323 787.95 122.413 778.212 138.394C768.473 154.072 754.751 166.434 737.045 175.479C719.338 184.223 698.533 188.595 674.63 188.595H601.657L573.329 298.496H523.445ZM679.942 147.439H612.265L639.66 41.1563H689.238C707.829 41.1563 721.552 45.3774 730.405 53.8197C739.553 62.262 744.127 73.4179 744.127 87.2874C744.127 98.1418 741.766 108.242 737.045 117.589C732.323 126.635 725.241 133.871 715.797 139.298C706.354 144.725 694.402 147.439 679.942 147.439ZM1391.8 0C1418.46 0 1441.52 4.97492 1460.99 14.9248C1480.46 24.582 1496.93 38.9215 1510.41 57.9433L1478.06 88.2318C1466.68 71.2585 1453.8 59.1139 1439.42 51.7978C1425.35 44.1891 1408.57 40.3847 1389.1 40.3847C1374.73 40.3847 1362.89 42.2869 1353.61 46.0913C1344.32 49.8956 1337.43 55.0169 1332.94 61.455C1328.75 67.6005 1326.65 74.624 1326.65 82.5253C1326.65 91.5972 1329.8 99.4986 1336.09 106.229C1342.68 112.96 1354.81 118.228 1372.48 122.032L1432.68 135.201C1461.44 141.347 1481.81 150.711 1493.79 163.295C1505.77 175.878 1511.76 191.827 1511.76 211.142C1511.76 228.993 1506.82 244.503 1496.93 257.672C1487.05 270.841 1473.27 280.937 1455.6 287.961C1438.22 294.984 1417.71 298.496 1394.04 298.496C1373.08 298.496 1354.21 295.862 1337.43 290.594C1320.66 285.327 1305.98 278.157 1293.41 269.085C1280.82 260.013 1270.49 249.624 1262.4 237.919L1295.65 205.435C1301.94 215.678 1309.88 224.896 1319.46 233.09C1329.05 240.991 1340.13 247.137 1352.71 251.527C1365.59 255.916 1379.82 258.111 1395.39 258.111C1409.17 258.111 1421 256.502 1430.89 253.282C1441.07 250.063 1448.71 245.381 1453.8 239.236C1459.19 232.798 1461.89 225.189 1461.89 216.409C1461.89 207.923 1458.89 200.46 1452.9 194.022C1447.21 187.584 1436.43 182.609 1420.55 179.097L1355.41 164.612C1337.43 160.807 1322.61 155.393 1310.93 148.37C1299.25 141.347 1290.56 132.86 1284.87 122.91C1279.18 112.668 1276.33 101.254 1276.33 88.6708C1276.33 72.2828 1280.82 57.5043 1289.81 44.3354C1299.1 30.8738 1312.42 20.1924 1329.8 12.291C1347.17 4.09699 1367.84 0 1391.8 0ZM42.2403 298.041L0 0.455078H47.2791L89.5194 298.041H42.2403ZM1536.52 0.449219H1577.65L1577.65 0.493302L1689.92 0.493305L1690.11 42.4083L1584.34 42.4177L1597.59 125.471H1677.71V167.03L1604.2 166.918L1619.07 260.158H1725L1725 300.361L1625.46 300.236L1625.46 300.275H1584.33L1536.52 0.449219ZM1673.61 162.928H1673.61V129.567H1673.61V162.928ZM1685.99 38.3134H1686V38.3119L1685.84 4.58852L1685.99 38.3134ZM1002.88 286.09L1002.86 286.108L1002.84 286.125C988.486 297.176 970.836 302.591 950.149 302.591C923.048 302.591 901.13 292.411 884.801 272.058L884.8 272.056C868.519 251.74 857.456 224.566 851.393 190.803L851.391 190.795L851.39 190.787L817.975 0.455078H861.846L894.027 181.361L894.032 181.392C897.741 204.235 904.125 221.877 912.962 234.588L912.975 234.607L912.988 234.626C921.311 246.888 932.672 252.908 947.49 252.908C958.255 252.908 967.096 250.148 974.251 244.826C981.349 239.253 986.58 230.9 989.726 219.386C992.635 207.634 992.693 192.944 989.654 175.163L989.652 175.153L958.897 0.455078H1003.1L1032.62 164.823L1032.62 164.829C1037.56 192.867 1037.51 217.282 1032.22 237.94C1026.95 258.564 1017.23 274.725 1002.88 286.09ZM1232.37 256.887H1120.3L1179.77 0H1131.12L1062.19 298.496H1222.46L1232.37 256.887Z" fill="black"/>
</svg>
