<svg width="1100" height="279" viewBox="0 0 1100 279" fill="none" xmlns="http://www.w3.org/2000/svg">
<path d="M909.39 278.259L897.477 0.285156H959.028L951.086 222.664H957.042L978.883 73.7497H1018.59L1040.43 222.664H1046.39L1038.45 0.285156H1100L1088.09 278.259H1016.61L1000.72 161.113H996.753L980.869 278.259H909.39Z" fill="#191919"/>
<path d="M329.605 278.259L358.197 0.285156H443.575L472.563 278.259H417.366L413.792 219.09L412.998 191.293L403.467 52.306H398.305L389.171 191.293L387.98 219.09L384.406 278.259H329.605ZM381.229 230.209L383.215 183.351H418.954L420.94 230.209H381.229Z" fill="#191919"/>
<path d="M750.527 278.259L779.119 0.285156H864.497L893.485 278.259H838.288L834.714 219.09L833.92 191.293L824.389 52.306H819.227L810.093 191.293L808.902 219.09L805.328 278.259H750.527ZM802.151 230.209L804.137 183.351H839.876L841.862 230.209H802.151Z" fill="#191919"/>
<path d="M488.426 278.259L564.67 0.285126H661.961L734.631 278.259H679.434L665.138 220.679L657.196 191.293L613.911 52.306H608.749L563.876 191.293L555.934 220.679L543.226 278.259H488.426ZM530.122 230.209L553.948 183.351H669.109L671.094 230.209H530.122Z" fill="#191919"/>
<path d="M11.9132 278.259L0 0.285156H61.5514L53.6093 222.664H59.5658L140.973 73.7497H180.683L262.09 222.664H268.046L260.104 0.285156H321.656L309.742 278.259H238.263L162.813 161.113H158.842L83.3922 278.259H11.9132Z" fill="#191919"/>
</svg>
