<svg width="111" height="19" viewBox="0 0 111 19" fill="none" xmlns="http://www.w3.org/2000/svg">
<path fill-rule="evenodd" clip-rule="evenodd" d="M13.0396 0L7.74116 19H11.1695L14.217 8.00303L15.3598 2.87879H15.3944L17.7146 19H20.7274L32.0169 2.82121H32.0861L30.4931 8.00303L27.4457 19H30.8394L36.1378 0H30.4585L22.8745 11.0545L20.0695 15.5167H20.0348L19.6193 11.0258L18.0956 0H13.0396ZM33.5576 19L38.584 0H44.5687C46.5731 0 48.1384 0.489393 49.2647 1.46818C50.4101 2.44697 50.9828 3.74242 50.9828 5.35454C50.9828 6.6404 50.6678 7.79192 50.0379 8.80909C49.4079 9.80707 48.5202 10.5939 47.3748 11.1697C46.2295 11.7263 44.8836 12.0045 43.3374 12.0045H38.6169L36.7845 19H33.5576ZM43.681 9.38485H39.3031L41.0752 2.6197H44.2823C45.485 2.6197 46.3726 2.88838 46.9453 3.42576C47.5371 3.96313 47.833 4.67323 47.833 5.55606C47.833 6.24697 47.6803 6.8899 47.3748 7.48485C47.0694 8.06061 46.6113 8.52121 46.0004 8.86666C45.3895 9.21212 44.6164 9.38485 43.681 9.38485ZM89.6879 0C91.4128 0 92.9051 0.316666 94.1648 0.949999C95.4246 1.5647 96.4905 2.47745 97.3626 3.68823L95.2695 5.61618C94.5331 4.53578 93.6997 3.76274 92.7694 3.29706C91.8585 2.81274 90.7732 2.57059 89.5134 2.57059C88.5832 2.57059 87.8176 2.69167 87.2168 2.93382C86.616 3.17598 86.1703 3.50196 85.8795 3.91176C85.6082 4.30294 85.4725 4.75 85.4725 5.25294C85.4725 5.83039 85.676 6.33333 86.083 6.76176C86.5094 7.19019 87.2943 7.52549 88.4378 7.76765L92.3333 8.60588C94.1939 8.99706 95.5118 9.59314 96.287 10.3941C97.0622 11.1951 97.4499 12.2103 97.4499 13.4397C97.4499 14.576 97.1301 15.5632 96.4905 16.4015C95.8509 17.2397 94.9594 17.8824 93.816 18.3294C92.6919 18.7765 91.3643 19 89.8332 19C88.4766 19 87.2556 18.8324 86.1703 18.4971C85.0849 18.1618 84.1353 17.7054 83.3213 17.1279C82.5073 16.5505 81.8387 15.8892 81.3154 15.1441L83.4666 13.0765C83.8736 13.7284 84.3872 14.3152 85.0074 14.8368C85.6276 15.3397 86.3447 15.7309 87.1587 16.0103C87.992 16.2897 88.9126 16.4294 89.9204 16.4294C90.8119 16.4294 91.5775 16.327 92.217 16.1221C92.876 15.9172 93.3702 15.6191 93.6997 15.2279C94.0485 14.8181 94.223 14.3338 94.223 13.775C94.223 13.2348 94.0292 12.7598 93.6415 12.35C93.2733 11.9402 92.5756 11.6235 91.5484 11.4L87.3331 10.4779C86.1703 10.2358 85.2109 9.89118 84.4551 9.44412C83.6992 8.99706 83.1372 8.45686 82.7689 7.82353C82.4007 7.17157 82.2166 6.4451 82.2166 5.64412C82.2166 4.60098 82.5073 3.66029 83.0887 2.82206C83.6895 1.9652 84.552 1.28529 85.676 0.782352C86.8001 0.260784 88.1374 0 89.6879 0ZM0 0.316406L2.64828 18.6864H5.16303L2.51475 0.316406H0ZM99.3818 0.316406L102.39 18.8295H104.515L104.514 18.8251L110.999 18.833L110.998 16.8012H104.185L103.139 10.363L107.942 10.3701V8.25232H102.796L101.854 2.46017L108.74 2.45956L108.73 0.318688L101.506 0.318688L101.506 0.316406H99.3818ZM61.1612 18.9997C62.4525 18.9997 63.5357 18.6689 64.4109 18.0072C65.2861 17.3266 65.8886 16.353 66.2186 15.0863C66.5486 13.8196 66.5558 12.3072 66.2402 10.549L64.3678 0.316406H62.0436L63.9805 11.1162C64.1813 12.2694 64.1813 13.243 63.9805 14.0371C63.7652 14.8122 63.3994 15.3982 62.8829 15.7953C62.3664 16.1734 61.7351 16.3624 60.989 16.3624C59.9417 16.3624 59.1239 15.9371 58.5356 15.0863C57.9331 14.2356 57.5098 13.0729 57.2659 11.5982L55.2214 0.316406H52.9187L55.0277 12.1087C55.4151 14.2261 56.1181 15.9087 57.1368 17.1565C58.1411 18.3853 59.4826 18.9997 61.1612 18.9997ZM79.3806 16.3515H72.1555L75.9891 0H72.8526L68.4091 19H78.7417L79.3806 16.3515Z" fill="white"/>
</svg>
