<svg width="172" height="44" viewBox="0 0 172 44" fill="none" xmlns="http://www.w3.org/2000/svg">
<path d="M142.193 44L140.33 0H149.955L148.713 35.2H149.645L153.06 11.6286H159.27L162.685 35.2H163.617L162.375 0H172L170.137 44H158.959L156.475 25.4571H155.854L153.371 44H142.193Z" fill="#FF5C00"/>
<path d="M51.5605 44L56.0315 0H69.3825L73.9156 44H65.284L64.7252 34.6343L64.601 30.2343L63.1106 8.23429H62.3034L60.8751 30.2343L60.6888 34.6343L60.13 44H51.5605ZM59.6332 36.3943L59.9437 28.9771H65.5324L65.8429 36.3943H59.6332Z" fill="#FF5C00"/>
<path d="M117.379 44L121.85 0H135.201L139.734 44H131.102L130.544 34.6343L130.419 30.2343L128.929 8.23429H128.122L126.693 30.2343L126.507 34.6343L125.948 44H117.379ZM125.452 36.3943L125.762 28.9771H131.351L131.661 36.3943H125.452Z" fill="#FF5C00"/>
<path d="M76.3906 44L88.3133 -4.79562e-06H103.527L114.891 44H106.259L104.024 34.8857L102.782 30.2343L96.0134 8.23428H95.2061L88.1891 30.2343L86.9472 34.8857L84.96 44H76.3906ZM82.9108 36.3943L86.6367 28.9771H104.645L104.955 36.3943H82.9108Z" fill="#FF5C00"/>
<path d="M1.86292 44L0 0H9.62508L8.38313 35.2H9.31459L22.0445 11.6286H28.2543L40.9842 35.2H41.9157L40.6737 0H50.2988L48.4359 44H37.2584L25.4599 25.4571H24.8389L13.0404 44H1.86292Z" fill="#FF5C00"/>
</svg>
