<svg width="740" height="799" viewBox="0 0 740 799" fill="none" xmlns="http://www.w3.org/2000/svg">
<path fill-rule="evenodd" clip-rule="evenodd" d="M440.901 335.559C444.795 337.537 448.691 339.518 452.587 341.499C503.044 367.162 553.426 392.956 594.94 414.264C537.486 329.469 466.568 223.578 417.873 150.807C418.381 165.086 419.042 179.355 419.632 192.08L419.672 192.949L419.708 193.735L419.708 193.735C420.456 209.882 421.136 224.544 421.024 232.085C420.794 247.612 408.021 260.012 392.495 259.782C376.968 259.553 364.568 246.779 364.798 231.253C364.878 225.8 364.315 213.163 363.5 195.552L363.45 194.481C362.673 177.713 361.743 157.644 361.219 138.353C360.689 118.852 360.544 99.2247 361.518 84.2318C361.987 77.0158 362.803 69.2274 364.527 62.6734C365.321 59.652 366.89 54.5233 370.247 49.5956C373.67 44.5708 382.797 34.768 398.024 35.9857C402.452 36.3398 406.409 37.5664 408.549 38.2731C411.181 39.1415 413.942 40.2206 416.631 41.3465C422.033 43.608 428.457 46.6139 435.327 49.9757C449.122 56.727 466.132 65.6145 483.071 74.557C488.07 77.1958 493.06 79.8381 497.979 82.4426L497.986 82.4465C509.909 88.7599 521.414 94.8519 531.611 100.137C546.635 107.925 556.799 112.886 560.974 114.451C575.514 119.902 582.882 136.108 577.431 150.648C571.98 165.188 555.774 172.556 541.234 167.105C533.229 164.104 519.767 157.336 505.733 150.062C495.991 145.012 485.003 139.201 473.799 133.269C543.067 236.764 648.632 394.243 702.821 472.507C711.661 485.273 708.477 502.789 695.71 511.628C688.649 516.517 680.134 517.728 672.438 515.673C669.455 515.235 666.492 514.304 663.661 512.847C661.678 511.826 658.92 510.406 655.461 508.624C624.302 492.573 536.211 447.193 444.507 400.484L456.458 393.39L426.831 364.75L446.99 360.115L440.901 335.559Z" fill="#E7E7E4"/>
<path fill-rule="evenodd" clip-rule="evenodd" d="M21.5279 169.165C20.4174 170.386 19.4062 171.714 18.5122 173.143C17.9266 174.079 17.3912 175.058 16.9111 176.077C16.5787 176.783 16.2728 177.508 15.9951 178.252C11.9342 189.129 15.0408 200.927 22.9475 208.459C83.4869 273.123 184.175 369.284 285.117 464.643C305.764 484.149 326.428 503.626 346.787 522.815L346.79 522.819C426.991 598.414 502.438 669.529 553.387 720.22C564.395 731.172 582.197 731.126 593.149 720.118C604.101 709.111 604.056 691.308 593.048 680.356C541.503 629.072 465.268 557.216 384.999 481.557L384.984 481.544C364.713 462.437 344.185 443.088 323.733 423.766C273.414 376.231 223.585 328.893 178.93 285.547C207.471 299.908 237.941 315.343 268.407 330.838C299.884 346.848 331.333 362.908 360.613 377.898L376.291 370.72L402.082 382.747L383.653 347.462L356.669 334.123L389.131 329.324C358.994 313.894 326.463 297.278 293.9 280.716C239.851 253.227 185.644 225.851 142.123 204.286C101.223 184.019 68.0085 167.992 54.005 162.453C43.9625 157.888 31.7297 159.506 23.1664 167.504C22.5927 168.04 22.0467 168.594 21.5279 169.165Z" fill="#E7E7E4"/>
</svg>
