<svg width="507" height="474" viewBox="0 0 507 474" fill="none" xmlns="http://www.w3.org/2000/svg">
<path fill-rule="evenodd" clip-rule="evenodd" d="M275.28 179.915L255.239 198.325L264.588 234.546L219.489 244.694L210.353 284.418C176.59 299.944 145.274 314.574 120.68 326.654C106.065 333.832 88.3986 327.803 81.2206 313.188C74.0425 298.573 80.0713 280.907 94.6862 273.729C120.431 261.084 153.184 245.797 188.116 229.745C152.346 213.739 120.016 199.357 96.4403 189.062C81.5182 182.547 74.7034 165.168 81.2189 150.246C87.7344 135.324 105.113 128.509 120.035 135.025C143.442 145.245 175.473 159.492 210.915 175.349C197.282 137.776 184.915 104.132 175.54 80.2268C169.596 65.0681 177.066 47.9608 192.224 42.0164C207.383 36.0721 224.49 43.5418 230.435 58.7005C242.106 88.4628 258.169 132.588 275.28 179.915Z" fill="#E7E7E4"/>
<path fill-rule="evenodd" clip-rule="evenodd" d="M237.226 303.612L268.639 281.801L253.564 256.285L273.865 238.276L278.448 210.725C318.332 189.239 355.963 168.721 384.293 152.444C398.411 144.332 416.432 149.201 424.544 163.319C432.655 177.437 427.786 195.458 413.668 203.57C388.797 217.86 357.103 235.243 323.283 253.531C360.018 267.181 393.215 279.435 417.411 288.177C432.725 293.71 440.653 310.609 435.121 325.923C429.588 341.237 412.688 349.165 397.375 343.633C373.354 334.954 340.465 322.816 304.069 309.294C320.113 345.904 334.639 378.675 345.546 401.922C352.462 416.663 346.119 434.219 331.379 441.135C316.638 448.051 299.082 441.708 292.166 426.967C278.067 396.918 258.238 351.726 237.226 303.612Z" fill="#E7E7E4"/>
</svg>
