<svg width="31" height="29" viewBox="0 0 31 29" fill="none" xmlns="http://www.w3.org/2000/svg">
<path fill-rule="evenodd" clip-rule="evenodd" d="M2.12253 12.5261C10.4423 8.63652 15.9809 6.05203 18.7621 4.79816C26.6778 1.24129 28.3417 0.627152 29.4114 0.601562C29.6491 0.601562 30.1721 0.652741 30.5287 0.959809C30.8139 1.2157 30.8852 1.54836 30.9328 1.80425C30.9803 2.06014 31.0279 2.59751 30.9803 3.00693C30.5524 7.86885 28.6983 19.6654 27.7475 25.0903C27.3434 27.3933 26.5589 28.1609 25.7983 28.2377C24.1343 28.3912 22.8745 27.0606 21.2818 25.9347C18.7621 24.1691 17.3596 23.0687 14.9112 21.3287C12.0825 19.3327 13.9129 18.2324 15.5293 16.4412C15.9571 15.9806 23.2548 8.81564 23.3974 8.17592C23.4212 8.09915 23.4212 7.79208 23.2548 7.63855C23.0884 7.48501 22.8507 7.53619 22.6605 7.58737C22.399 7.63855 18.4055 10.5045 10.6325 16.1597C9.49148 17.0041 8.46934 17.4136 7.54228 17.388C6.52013 17.3624 4.57092 16.7738 3.09713 16.262C1.31432 15.6479 -0.111928 15.3153 0.00692614 14.2405C0.0782386 13.6776 0.791363 13.1146 2.12253 12.5261Z" fill="black"/>
</svg>
