<svg width="1354" height="83" viewBox="0 0 1354 83" fill="none" xmlns="http://www.w3.org/2000/svg">
<path d="M0 65.265V3.19231H15.9615V27.7553H20.3953L39.3718 3.19231H56.7521L32.8098 32.1891L57.6389 65.265H39.0171L20.3953 38.9284H15.9615V65.265H0Z" fill="black"/>
<path d="M77.1994 66.4177C73.8297 66.4177 70.933 65.7674 68.5092 64.4669C66.1445 63.1663 64.3415 61.3928 63.1 59.1464C61.8586 56.8408 61.2379 54.2988 61.2379 51.5203C61.2379 46.8501 62.6567 43.2735 65.4943 40.7906C68.391 38.3077 72.7361 37.0662 78.5295 37.0662H91.8308V35.1154C91.8308 32.2778 91.151 30.3269 89.7913 29.2628C88.4907 28.1987 86.6581 27.6667 84.2934 27.6667C82.047 27.6667 80.3917 28.0214 79.3276 28.7308C78.2635 29.3811 77.6723 30.4747 77.5541 32.0118H63.8981C64.0755 29.1741 64.9622 26.6321 66.5584 24.3857C68.2136 22.1392 70.5487 20.3657 73.5637 19.0652C76.6378 17.7646 80.3621 17.1143 84.7368 17.1143C88.875 17.1143 92.5106 17.735 95.6438 18.9765C98.777 20.2179 101.201 22.2279 102.915 25.0064C104.689 27.7258 105.575 31.391 105.575 36.0021V53.2938C105.575 55.7767 105.635 57.964 105.753 59.8558C105.871 61.6884 106.048 63.4915 106.285 65.265H93.2496C93.1905 64.26 93.1018 63.3732 92.9836 62.6047C92.9245 61.8362 92.8949 60.8903 92.8949 59.7671C91.4761 61.6588 89.4957 63.255 86.9537 64.5556C84.4708 65.797 81.2193 66.4177 77.1994 66.4177ZM81.6332 56.7521C83.584 56.7521 85.3279 56.3974 86.865 55.688C88.402 54.9786 89.6139 53.9145 90.5007 52.4957C91.3874 51.0178 91.8308 49.3625 91.8308 47.5299V45.5791H81.1898C79.1798 45.5791 77.6723 46.1111 76.6673 47.1752C75.7215 48.2393 75.2485 49.4512 75.2485 50.8109C75.2485 52.5844 75.7215 54.0328 76.6673 55.156C77.6723 56.2201 79.3276 56.7521 81.6332 56.7521Z" fill="black"/>
<path d="M114.007 65.265V18.2671H127.663V36.0021H154.411L167.535 18.2671H182.433L165.141 40.3472L183.32 65.265H167.181L154.411 46.6432H127.663V65.265H114.007Z" fill="black"/>
<path d="M210.816 65.265V18.2671H236C240.138 18.2671 243.478 18.8287 246.02 19.9519C248.562 21.016 250.424 22.4939 251.606 24.3857C252.789 26.2183 253.38 28.317 253.38 30.6816C253.38 32.8689 252.73 34.9676 251.429 36.9776C250.129 38.9284 248.266 40.1994 245.843 40.7906C248.739 41.5 251.015 42.8597 252.671 44.8697C254.326 46.8796 255.153 49.2147 255.153 51.875C255.153 55.9541 253.705 59.2055 250.808 61.6293C247.912 64.0531 243.567 65.265 237.773 65.265H210.816ZM224.472 54.9786H234.315C236.739 54.9786 238.542 54.6239 239.724 53.9145C240.906 53.2051 241.497 52.1115 241.497 50.6335C241.497 49.1556 240.906 48.062 239.724 47.3526C238.542 46.584 236.739 46.1998 234.315 46.1998H224.472V54.9786ZM224.472 36.6229H233.605C236.029 36.6229 237.655 36.2682 238.483 35.5588C239.31 34.7902 239.724 33.7853 239.724 32.5438C239.724 31.3024 239.281 30.3269 238.394 29.6175C237.507 28.9081 235.911 28.5534 233.605 28.5534H224.472V36.6229Z" fill="black"/>
<path d="M262.254 65.265V18.2671H275.91V33.5192H306.738C312.887 33.5192 317.527 34.8198 320.66 37.4209C323.794 40.0221 325.36 44.0125 325.36 49.3921C325.36 52.4662 324.74 55.2151 323.498 57.6389C322.257 60.0627 320.276 61.9544 317.557 63.3141C314.837 64.6147 311.231 65.265 306.738 65.265H262.254ZM275.91 54.9786H304.965C307.33 54.9786 309.044 54.5353 310.108 53.6485C311.172 52.7026 311.704 51.2838 311.704 49.3921C311.704 47.4412 311.172 46.0224 310.108 45.1357C309.103 44.2489 307.389 43.8056 304.965 43.8056H275.91V54.9786ZM329.439 65.265V18.2671H343.095V65.265H329.439Z" fill="black"/>
<path d="M375.441 66.4177C370.889 66.4177 366.78 65.4128 363.115 63.4028C359.509 61.3337 356.671 58.2892 354.602 54.2692C352.533 50.1902 351.499 45.1357 351.499 39.1058V37.3323C351.499 30.2974 352.297 24.297 353.893 19.3312C355.489 14.3063 358.12 10.4046 361.785 7.62607C365.45 4.84758 370.416 3.31054 376.682 3.01496C379.165 2.89672 381.619 2.80805 384.042 2.74893C386.466 2.68982 388.713 2.54203 390.782 2.30556C392.851 2.00997 394.536 1.5666 395.836 0.975431V12.6806C395.245 13.0353 394.24 13.3604 392.821 13.656C391.462 13.9516 389.57 14.188 387.146 14.3654C384.781 14.4836 381.737 14.6019 378.013 14.7201C374.584 14.7201 371.746 15.2226 369.5 16.2276C367.312 17.1734 365.628 18.6809 364.445 20.75C363.322 22.8191 362.553 25.568 362.14 28.9968C363.026 27.4006 364.209 25.9818 365.687 24.7404C367.224 23.4989 369.115 22.5235 371.362 21.8141C373.667 21.0456 376.357 20.6613 379.431 20.6613C383.333 20.6613 386.791 21.4298 389.806 22.9669C392.821 24.4448 395.156 26.6912 396.812 29.7062C398.526 32.7212 399.383 36.5342 399.383 41.1453V42.7415C399.383 47.7073 398.319 51.9637 396.191 55.5107C394.063 59.0577 391.196 61.7771 387.589 63.6688C383.983 65.5014 379.934 66.4177 375.441 66.4177ZM375.441 55.0673C378.633 55.0673 381.087 54.0623 382.801 52.0524C384.515 49.9833 385.373 47.2934 385.373 43.9829V42.2094C385.373 38.6624 384.486 35.943 382.712 34.0513C380.939 32.1004 378.515 31.125 375.441 31.125C372.426 31.125 370.002 32.1004 368.17 34.0513C366.396 35.943 365.509 38.6624 365.509 42.2094V43.6282C365.509 45.8746 365.923 47.8846 366.751 49.6581C367.638 51.3725 368.82 52.7026 370.298 53.6485C371.835 54.5944 373.549 55.0673 375.441 55.0673Z" fill="black"/>
<path d="M406.519 83V18.2671H419.111V24.6517C420.352 22.76 422.185 21.0456 424.609 19.5085C427.091 17.9124 430.136 17.1143 433.742 17.1143C440.363 17.1143 445.388 19.0652 448.817 22.9669C452.246 26.8686 453.96 32.6916 453.96 40.4359V42.2094C453.96 47.5299 453.132 51.9932 451.477 55.5994C449.822 59.1464 447.487 61.8362 444.472 63.6688C441.457 65.5014 437.88 66.4177 433.742 66.4177C431.082 66.4177 428.54 65.8266 426.116 64.6442C423.751 63.4028 421.771 61.6293 420.175 59.3237V83H406.519ZM430.461 55.156C433.18 55.156 435.427 54.0623 437.2 51.875C439.033 49.6286 439.949 46.4067 439.949 42.2094V40.4359C439.949 36.3568 439.063 33.3419 437.289 31.391C435.575 29.3811 433.299 28.3761 430.461 28.3761C428.569 28.3761 426.825 28.7899 425.229 29.6175C423.692 30.386 422.451 31.5684 421.505 33.1645C420.618 34.7607 420.175 36.7411 420.175 39.1058V43.5395C420.175 45.9633 420.618 48.062 421.505 49.8355C422.451 51.5499 423.692 52.88 425.229 53.8259C426.825 54.7126 428.569 55.156 430.461 55.156Z" fill="black"/>
<path d="M475.706 66.4177C472.337 66.4177 469.44 65.7674 467.016 64.4669C464.651 63.1663 462.848 61.3928 461.607 59.1464C460.365 56.8408 459.745 54.2988 459.745 51.5203C459.745 46.8501 461.164 43.2735 464.001 40.7906C466.898 38.3077 471.243 37.0662 477.036 37.0662H490.338V35.1154C490.338 32.2778 489.658 30.3269 488.298 29.2628C486.998 28.1987 485.165 27.6667 482.8 27.6667C480.554 27.6667 478.899 28.0214 477.834 28.7308C476.77 29.3811 476.179 30.4747 476.061 32.0118H462.405C462.582 29.1741 463.469 26.6321 465.065 24.3857C466.721 22.1392 469.056 20.3657 472.071 19.0652C475.145 17.7646 478.869 17.1143 483.244 17.1143C487.382 17.1143 491.018 17.735 494.151 18.9765C497.284 20.2179 499.708 22.2279 501.422 25.0064C503.196 27.7258 504.082 31.391 504.082 36.0021V53.2938C504.082 55.7767 504.141 57.964 504.26 59.8558C504.378 61.6884 504.555 63.4915 504.792 65.265H491.756C491.697 64.26 491.609 63.3732 491.49 62.6047C491.431 61.8362 491.402 60.8903 491.402 59.7671C489.983 61.6588 488.003 63.255 485.461 64.5556C482.978 65.797 479.726 66.4177 475.706 66.4177ZM480.14 56.7521C482.091 56.7521 483.835 56.3974 485.372 55.688C486.909 54.9786 488.121 53.9145 489.008 52.4957C489.894 51.0178 490.338 49.3625 490.338 47.5299V45.5791H479.697C477.687 45.5791 476.179 46.1111 475.174 47.1752C474.228 48.2393 473.755 49.4512 473.755 50.8109C473.755 52.5844 474.228 54.0328 475.174 55.156C476.179 56.2201 477.834 56.7521 480.14 56.7521Z" fill="black"/>
<path d="M523.441 65.265V29.4402H508.987V18.2671H551.551V29.4402H537.097V65.265H523.441Z" fill="black"/>
<path d="M558.604 65.265V18.2671H572.26V33.5192H604.861C611.009 33.5192 615.65 34.8198 618.783 37.4209C621.916 40.0221 623.483 44.0125 623.483 49.3921C623.483 52.4662 622.862 55.2151 621.621 57.6389C620.379 60.0627 618.399 61.9544 615.68 63.3141C612.96 64.6147 609.354 65.265 604.861 65.265H558.604ZM572.26 54.9786H603.088C605.512 54.9786 607.226 54.5353 608.231 53.6485C609.295 52.7026 609.827 51.2838 609.827 49.3921C609.827 47.4412 609.295 46.0224 608.231 45.1357C607.226 44.2489 605.512 43.8056 603.088 43.8056H572.26V54.9786Z" fill="black"/>
<path d="M651.842 65.265V18.2671H696.179V65.265H682.523V29.4402H665.498V65.265H651.842Z" fill="black"/>
<path d="M727.624 66.4177C723.013 66.4177 718.875 65.5605 715.21 63.8462C711.545 62.0726 708.618 59.3828 706.431 55.7767C704.303 52.1706 703.239 47.6481 703.239 42.2094V40.4359C703.239 35.2336 704.273 30.9181 706.342 27.4893C708.412 24.0605 711.22 21.489 714.767 19.7746C718.373 18.0011 722.363 17.1143 726.738 17.1143C734.482 17.1143 740.335 19.1243 744.295 23.1442C748.256 27.1051 750.237 32.8689 750.237 40.4359V45.4017H717.249C717.368 47.7073 717.9 49.6286 718.846 51.1656C719.851 52.7026 721.122 53.8259 722.659 54.5353C724.196 55.1855 725.851 55.5107 727.624 55.5107C730.226 55.5107 732.265 55.1264 733.743 54.3579C735.28 53.5303 736.285 52.4366 736.758 51.0769H749.35C748.404 56.2201 746.069 60.0627 742.345 62.6047C738.62 65.1467 733.714 66.4177 727.624 66.4177ZM727.181 28.0214C725.526 28.0214 723.959 28.2874 722.481 28.8194C721.003 29.3515 719.791 30.2382 718.846 31.4797C717.959 32.662 717.456 34.2878 717.338 36.3568H736.847C736.847 34.1695 736.403 32.4847 735.517 31.3024C734.63 30.0609 733.448 29.2037 731.97 28.7308C730.551 28.2578 728.955 28.0214 727.181 28.0214Z" fill="black"/>
<path d="M757.317 83V18.2671H769.909V24.6517C771.15 22.76 772.983 21.0456 775.407 19.5085C777.889 17.9124 780.934 17.1143 784.54 17.1143C791.161 17.1143 796.186 19.0652 799.615 22.9669C803.044 26.8686 804.758 32.6916 804.758 40.4359V42.2094C804.758 47.5299 803.93 51.9932 802.275 55.5994C800.62 59.1464 798.285 61.8362 795.27 63.6688C792.255 65.5014 788.678 66.4177 784.54 66.4177C781.88 66.4177 779.338 65.8266 776.914 64.6442C774.549 63.4028 772.569 61.6293 770.973 59.3237V83H757.317ZM781.259 55.156C783.979 55.156 786.225 54.0623 787.998 51.875C789.831 49.6286 790.747 46.4067 790.747 42.2094V40.4359C790.747 36.3568 789.861 33.3419 788.087 31.391C786.373 29.3811 784.097 28.3761 781.259 28.3761C779.367 28.3761 777.623 28.7899 776.027 29.6175C774.49 30.386 773.249 31.5684 772.303 33.1645C771.416 34.7607 770.973 36.7411 770.973 39.1058V43.5395C770.973 45.9633 771.416 48.062 772.303 49.8355C773.249 51.5499 774.49 52.88 776.027 53.8259C777.623 54.7126 779.367 55.156 781.259 55.156Z" fill="black"/>
<path d="M811.873 65.265V18.2671H860.259C864.397 18.2671 867.737 18.8287 870.279 19.9519C872.821 21.016 874.683 22.4939 875.865 24.3857C877.048 26.2183 877.639 28.317 877.639 30.6816C877.639 32.8689 876.989 34.9676 875.688 36.9776C874.388 38.9284 872.525 40.1994 870.102 40.7906C872.998 41.5 875.274 42.8597 876.93 44.8697C878.585 46.8796 879.412 49.2147 879.412 51.875C879.412 55.9541 877.964 59.2055 875.067 61.6293C872.171 64.0531 867.826 65.265 862.032 65.265H811.873ZM825.529 54.9786H858.574C860.998 54.9786 862.801 54.6239 863.983 53.9145C865.165 53.2051 865.756 52.1115 865.756 50.6335C865.756 49.1556 865.165 48.062 863.983 47.3526C862.801 46.584 860.998 46.1998 858.574 46.1998H825.529V54.9786ZM825.529 36.6229H857.864C860.288 36.6229 861.914 36.2682 862.742 35.5588C863.569 34.7902 863.983 33.7853 863.983 32.5438C863.983 31.3024 863.54 30.3269 862.653 29.6175C861.766 28.9081 860.17 28.5534 857.864 28.5534H825.529V36.6229Z" fill="black"/>
<path d="M886.513 65.265V18.2671H900.169V33.5192H907.795C913.944 33.5192 918.584 34.8198 921.717 37.4209C924.851 40.0221 926.417 44.0125 926.417 49.3921C926.417 52.4662 925.797 55.2151 924.555 57.6389C923.314 60.0627 921.333 61.9544 918.614 63.3141C915.895 64.6147 912.288 65.265 907.795 65.265H886.513ZM900.169 54.9786H906.022C908.387 54.9786 910.101 54.5353 911.165 53.6485C912.229 52.7026 912.761 51.2838 912.761 49.3921C912.761 47.4412 912.229 46.0224 911.165 45.1357C910.16 44.2489 908.446 43.8056 906.022 43.8056H900.169V54.9786ZM930.496 65.265V18.2671H944.152V65.265H930.496Z" fill="black"/>
<path d="M953.886 65.265V18.2671H967.187V46.6432L987.139 18.2671H999.11V65.265H985.809V36.8889L965.857 65.265H953.886ZM976.498 13.4786C970.704 13.4786 966.596 12.3554 964.172 10.109C961.748 7.86254 960.536 4.49288 960.536 0H972.596C972.596 2.06909 972.921 3.48789 973.572 4.25641C974.222 5.02493 975.197 5.40919 976.498 5.40919C977.798 5.40919 978.774 5.02493 979.424 4.25641C980.074 3.48789 980.4 2.06909 980.4 0H992.459C992.459 4.49288 991.248 7.86254 988.824 10.109C986.4 12.3554 982.291 13.4786 976.498 13.4786Z" fill="black"/>
<path d="M1052.35 66.4177C1047.74 66.4177 1043.63 65.531 1040.02 63.7575C1036.41 61.984 1033.58 59.2942 1031.51 55.688C1029.44 52.0819 1028.4 47.589 1028.4 42.2094V40.4359C1028.4 35.4701 1029.47 31.2432 1031.6 27.7553C1033.78 24.2675 1036.68 21.6368 1040.29 19.8632C1043.95 18.0306 1047.97 17.1143 1052.35 17.1143C1057.08 17.1143 1061.04 17.942 1064.23 19.5972C1067.42 21.1934 1069.87 23.3511 1071.59 26.0705C1073.3 28.7899 1074.28 31.8048 1074.52 35.1154H1060.42C1060 32.9872 1059.14 31.3615 1057.84 30.2383C1056.6 29.0559 1054.77 28.4647 1052.35 28.4647C1050.45 28.4647 1048.74 28.9081 1047.2 29.7949C1045.73 30.6816 1044.54 32.0118 1043.66 33.7853C1042.83 35.4996 1042.41 37.7165 1042.41 40.4359V42.2094C1042.41 45.1061 1042.83 47.5004 1043.66 49.3921C1044.48 51.2838 1045.64 52.7026 1047.11 53.6485C1048.59 54.5353 1050.34 54.9786 1052.35 54.9786C1054.42 54.9786 1056.16 54.4466 1057.58 53.3825C1059.06 52.2593 1060 50.604 1060.42 48.4167H1074.52C1074.28 52.0819 1073.21 55.2742 1071.32 57.9936C1069.43 60.713 1066.86 62.8116 1063.61 64.2895C1060.42 65.7083 1056.66 66.4177 1052.35 66.4177Z" fill="black"/>
<path d="M1081.18 65.265V18.2671H1094.84V36.0021H1098.39L1111.51 18.2671H1126.41L1109.12 40.3472L1127.29 65.265H1111.16L1098.39 46.6432H1094.84V65.265H1081.18Z" fill="black"/>
<path d="M1153.5 66.4177C1148.89 66.4177 1144.75 65.5605 1141.09 63.8462C1137.42 62.0726 1134.5 59.3828 1132.31 55.7767C1130.18 52.1706 1129.12 47.6481 1129.12 42.2094V40.4359C1129.12 35.2336 1130.15 30.9181 1132.22 27.4893C1134.29 24.0605 1137.1 21.489 1140.64 19.7746C1144.25 18.0011 1148.24 17.1143 1152.62 17.1143C1160.36 17.1143 1166.21 19.1243 1170.17 23.1442C1174.13 27.1051 1176.11 32.8689 1176.11 40.4359V45.4017H1143.13C1143.25 47.7073 1143.78 49.6286 1144.72 51.1656C1145.73 52.7026 1147 53.8259 1148.54 54.5353C1150.07 55.1855 1151.73 55.5107 1153.5 55.5107C1156.1 55.5107 1158.14 55.1264 1159.62 54.3579C1161.16 53.5303 1162.16 52.4366 1162.64 51.0769H1175.23C1174.28 56.2201 1171.95 60.0627 1168.22 62.6047C1164.5 65.1467 1159.59 66.4177 1153.5 66.4177ZM1153.06 28.0214C1151.4 28.0214 1149.84 28.2874 1148.36 28.8194C1146.88 29.3515 1145.67 30.2382 1144.72 31.4797C1143.84 32.662 1143.33 34.2878 1143.22 36.3568H1162.72C1162.72 34.1695 1162.28 32.4847 1161.39 31.3024C1160.51 30.0609 1159.33 29.2037 1157.85 28.7308C1156.43 28.2578 1154.83 28.0214 1153.06 28.0214Z" fill="black"/>
<path d="M1183.19 65.265V18.2671H1196.5V46.6432L1216.45 18.2671H1228.42V65.265H1215.12V36.8889L1195.17 65.265H1183.19ZM1205.81 13.4786C1200.01 13.4786 1195.9 12.3554 1193.48 10.109C1191.06 7.86254 1189.84 4.49288 1189.84 0H1201.9C1201.9 2.06909 1202.23 3.48789 1202.88 4.25641C1203.53 5.02493 1204.51 5.40919 1205.81 5.40919C1207.11 5.40919 1208.08 5.02493 1208.73 4.25641C1209.38 3.48789 1209.71 2.06909 1209.71 0H1221.77C1221.77 4.49288 1220.56 7.86254 1218.13 10.109C1215.71 12.3554 1211.6 13.4786 1205.81 13.4786Z" fill="black"/>
<path d="M1263.29 65.265V29.4402H1234.66V18.2671H1306.87V29.4402H1276.95V65.265H1263.29Z" fill="black"/>
<path d="M1325.71 43.8942V40.4359C1325.71 38.6624 1326.04 37.0958 1326.69 35.7361C1327.4 34.3764 1328.35 33.1054 1329.53 31.9231C1330.71 30.7407 1332.07 29.5288 1333.61 28.2874C1335.56 26.6912 1337.06 25.2429 1338.13 23.9423C1339.19 22.5826 1339.72 21.1343 1339.72 19.5972C1339.72 17.6464 1339.13 16.1389 1337.95 15.0748C1336.83 13.9516 1335.03 13.39 1332.54 13.39C1330.12 13.39 1328.29 14.0107 1327.04 15.2521C1325.86 16.4936 1325.27 18.2375 1325.27 20.484H1311.26C1311.26 17.1143 1312.12 14.0402 1313.83 11.2618C1315.61 8.42415 1318.06 6.17771 1321.19 4.52244C1324.38 2.86717 1328.17 2.03953 1332.54 2.03953C1337.15 2.03953 1341.03 2.80805 1344.16 4.34509C1347.35 5.82301 1349.75 7.86254 1351.34 10.4637C1353 13.0648 1353.82 15.9615 1353.82 19.1538C1353.82 21.5776 1353.44 23.7058 1352.67 25.5385C1351.9 27.312 1350.93 28.9377 1349.75 30.4156C1348.56 31.8344 1347.32 33.1054 1346.02 34.2286C1344.01 36.0021 1342.53 37.4209 1341.59 38.485C1340.64 39.49 1340.02 40.2881 1339.72 40.8793C1339.49 41.4704 1339.37 42.0616 1339.37 42.6528V43.8942H1325.71ZM1332.45 66.4177C1330.98 66.4177 1329.59 66.0335 1328.29 65.265C1326.99 64.5556 1325.95 63.5801 1325.18 62.3387C1324.47 61.0381 1324.12 59.5602 1324.12 57.9049C1324.12 55.5994 1324.92 53.6485 1326.51 52.0524C1328.17 50.3971 1330.18 49.5694 1332.54 49.5694C1334.91 49.5694 1336.89 50.3971 1338.48 52.0524C1340.14 53.6485 1340.97 55.5994 1340.97 57.9049C1340.97 59.5602 1340.58 61.0381 1339.81 62.3387C1339.1 63.5801 1338.1 64.5556 1336.8 65.265C1335.56 66.0335 1334.11 66.4177 1332.45 66.4177Z" fill="black"/>
</svg>
