<svg width="981" height="79" viewBox="0 0 981 79" fill="none" xmlns="http://www.w3.org/2000/svg">
<path d="M0 61.9189V2.13513H15.373V25.7924H44.4726L62.7494 2.13513H79.4888L57.6708 30.0627L80.3429 61.9189H62.4078L44.4726 36.5535H15.373V61.9189H0Z" fill="black"/>
<path d="M99.1821 63.0292C95.9367 63.0292 93.1468 62.4029 90.8124 61.1503C88.5349 59.8977 86.7983 58.1896 85.6027 56.0259C84.407 53.8054 83.8092 51.3571 83.8092 48.6811C83.8092 44.1831 85.1756 40.7384 87.9086 38.347C90.6985 35.9557 94.8834 34.76 100.463 34.76H113.274V32.8811C113.274 30.1481 112.619 28.2692 111.31 27.2443C110.057 26.2195 108.292 25.707 106.015 25.707C103.851 25.707 102.257 26.0486 101.232 26.7319C100.207 27.3582 99.6376 28.4115 99.5237 29.8919H86.3713C86.5421 27.1589 87.3962 24.7106 88.9335 22.547C90.5277 20.3834 92.7767 18.6753 95.6805 17.4227C98.6412 16.1701 102.228 15.5438 106.442 15.5438C110.427 15.5438 113.929 16.1416 116.946 17.3373C119.964 18.533 122.299 20.4688 123.95 23.1449C125.658 25.764 126.512 29.2941 126.512 33.7351V50.3892C126.512 52.7805 126.569 54.8872 126.683 56.7092C126.797 58.4742 126.967 60.2108 127.195 61.9189H114.64C114.584 60.951 114.498 60.0969 114.384 59.3568C114.327 58.6166 114.299 57.7056 114.299 56.6238C112.932 58.4458 111.025 59.9831 108.577 61.2357C106.185 62.4314 103.054 63.0292 99.1821 63.0292ZM103.452 53.72C105.331 53.72 107.011 53.3784 108.491 52.6951C109.972 52.0119 111.139 50.987 111.993 49.6205C112.847 48.1971 113.274 46.6029 113.274 44.8378V42.9589H103.025C101.09 42.9589 99.6376 43.4714 98.6697 44.4962C97.7587 45.5211 97.3032 46.6883 97.3032 47.9978C97.3032 49.7059 97.7587 51.1009 98.6697 52.1827C99.6376 53.2076 101.232 53.72 103.452 53.72Z" fill="black"/>
<path d="M134.632 61.9189V16.6541H147.784V33.7351H151.201L163.841 16.6541H178.189L161.535 37.92L179.043 61.9189H163.499L151.201 43.9838H147.784V61.9189H134.632Z" fill="black"/>
<path d="M205.525 61.9189V16.6541H270.574V61.9189H257.422V27.4151H218.678V61.9189H205.525Z" fill="black"/>
<path d="M300.433 63.0292C296.22 63.0292 292.348 62.2036 288.818 60.5524C285.345 58.9013 282.555 56.3391 280.448 52.8659C278.398 49.3359 277.373 44.9517 277.373 39.7135V38.0054C277.373 33.1088 278.398 29.0094 280.448 25.707C282.555 22.3477 285.345 19.8141 288.818 18.1059C292.348 16.3978 296.22 15.5438 300.433 15.5438C304.703 15.5438 308.575 16.3978 312.048 18.1059C315.521 19.8141 318.283 22.3477 320.332 25.707C322.439 29.0094 323.492 33.1088 323.492 38.0054V39.7135C323.492 44.8948 322.439 49.222 320.332 52.6951C318.283 56.1114 315.521 58.702 312.048 60.467C308.575 62.1751 304.703 63.0292 300.433 63.0292ZM300.433 52.0973C302.483 52.0973 304.219 51.6133 305.643 50.6454C307.066 49.6205 308.148 48.1687 308.888 46.2897C309.628 44.4108 309.998 42.2187 309.998 39.7135V38.0054C309.998 35.7279 309.628 33.7351 308.888 32.027C308.148 30.3189 307.066 28.9809 305.643 28.013C304.219 26.9881 302.483 26.4757 300.433 26.4757C298.383 26.4757 296.647 26.9881 295.223 28.013C293.8 28.9809 292.718 30.3189 291.978 32.027C291.238 33.7351 290.867 35.7279 290.867 38.0054V39.7135C290.867 42.3326 291.238 44.5816 291.978 46.4605C292.718 48.2825 293.8 49.6775 295.223 50.6454C296.647 51.6133 298.383 52.0973 300.433 52.0973Z" fill="black"/>
<path d="M352.07 63.0292C347.686 63.0292 343.729 62.0613 340.198 60.1254C336.725 58.1326 333.992 55.2004 331.999 51.3287C330.007 47.4 329.01 42.5319 329.01 36.7243V35.0162C329.01 28.2407 329.779 22.4616 331.316 17.6789C332.854 12.8393 335.387 9.08144 338.917 6.4054C342.447 3.72937 347.23 2.24901 353.265 1.96432C355.657 1.85045 358.02 1.76504 360.354 1.70811C362.689 1.65117 364.852 1.50883 366.845 1.28108C368.838 0.996395 370.46 0.569369 371.713 0V11.2735C371.144 11.6151 370.176 11.9283 368.809 12.213C367.5 12.4977 365.678 12.7254 363.343 12.8962C361.066 13.0101 358.134 13.124 354.547 13.2378C351.244 13.2378 348.511 13.7218 346.348 14.6897C344.241 15.6007 342.618 17.0526 341.48 19.0454C340.398 21.0382 339.658 23.6858 339.259 26.9881C340.113 25.4508 341.252 24.0843 342.675 22.8886C344.156 21.693 345.978 20.7535 348.141 20.0703C350.362 19.3301 352.952 18.96 355.913 18.96C359.671 18.96 363.002 19.7002 365.905 21.1805C368.809 22.604 371.058 24.7676 372.652 27.6714C374.304 30.5751 375.129 34.2476 375.129 38.6886V40.2259C375.129 45.0086 374.104 49.1081 372.055 52.5243C370.005 55.9405 367.243 58.5596 363.77 60.3816C360.297 62.1467 356.397 63.0292 352.07 63.0292ZM352.07 52.0973C355.144 52.0973 357.507 51.1294 359.158 49.1935C360.81 47.2007 361.635 44.6101 361.635 41.4216V39.7135C361.635 36.2973 360.781 33.6782 359.073 31.8562C357.365 29.9773 355.03 29.0378 352.07 29.0378C349.166 29.0378 346.832 29.9773 345.067 31.8562C343.358 33.6782 342.504 36.2973 342.504 39.7135V41.08C342.504 43.2436 342.903 45.1795 343.7 46.8876C344.554 48.5387 345.693 49.8198 347.116 50.7308C348.597 51.6418 350.248 52.0973 352.07 52.0973Z" fill="black"/>
<path d="M403.353 63.0292C399.14 63.0292 395.268 62.2036 391.738 60.5524C388.265 58.9013 385.475 56.3391 383.368 52.8659C381.318 49.3359 380.294 44.9517 380.294 39.7135V38.0054C380.294 33.1088 381.318 29.0094 383.368 25.707C385.475 22.3477 388.265 19.8141 391.738 18.1059C395.268 16.3978 399.14 15.5438 403.353 15.5438C407.623 15.5438 411.495 16.3978 414.968 18.1059C418.441 19.8141 421.203 22.3477 423.253 25.707C425.359 29.0094 426.413 33.1088 426.413 38.0054V39.7135C426.413 44.8948 425.359 49.222 423.253 52.6951C421.203 56.1114 418.441 58.702 414.968 60.467C411.495 62.1751 407.623 63.0292 403.353 63.0292ZM403.353 52.0973C405.403 52.0973 407.139 51.6133 408.563 50.6454C409.986 49.6205 411.068 48.1687 411.808 46.2897C412.548 44.4108 412.918 42.2187 412.918 39.7135V38.0054C412.918 35.7279 412.548 33.7351 411.808 32.027C411.068 30.3189 409.986 28.9809 408.563 28.013C407.139 26.9881 405.403 26.4757 403.353 26.4757C401.303 26.4757 399.567 26.9881 398.143 28.013C396.72 28.9809 395.638 30.3189 394.898 32.027C394.158 33.7351 393.788 35.7279 393.788 38.0054V39.7135C393.788 42.3326 394.158 44.5816 394.898 46.4605C395.638 48.2825 396.72 49.6775 398.143 50.6454C399.567 51.6133 401.303 52.0973 403.353 52.0973Z" fill="black"/>
<path d="M433.212 79V16.6541H445.339V22.8032C446.535 20.9813 448.3 19.3301 450.634 17.8497C453.026 16.3124 455.958 15.5438 459.431 15.5438C465.808 15.5438 470.648 17.4227 473.95 21.1805C477.252 24.9384 478.903 30.5467 478.903 38.0054V39.7135C478.903 44.8378 478.106 49.1366 476.512 52.6097C474.918 56.0259 472.669 58.6166 469.765 60.3816C466.861 62.1467 463.417 63.0292 459.431 63.0292C456.869 63.0292 454.421 62.4598 452.086 61.3211C449.809 60.1254 447.901 58.4173 446.364 56.1968V79H433.212ZM456.271 52.1827C458.89 52.1827 461.054 51.1294 462.762 49.0227C464.527 46.8591 465.409 43.756 465.409 39.7135V38.0054C465.409 34.0768 464.555 31.173 462.847 29.2941C461.196 27.3582 459.004 26.3903 456.271 26.3903C454.449 26.3903 452.769 26.7888 451.232 27.5859C449.752 28.3261 448.556 29.4649 447.645 31.0022C446.791 32.5395 446.364 34.4468 446.364 36.7243V40.9946C446.364 43.329 446.791 45.3503 447.645 47.0584C448.556 48.7096 449.752 49.9906 451.232 50.9016C452.769 51.7557 454.449 52.1827 456.271 52.1827Z" fill="black"/>
<path d="M507.107 63.0292C502.894 63.0292 499.022 62.2036 495.492 60.5524C492.019 58.9013 489.229 56.3391 487.122 52.8659C485.073 49.3359 484.048 44.9517 484.048 39.7135V38.0054C484.048 33.1088 485.073 29.0094 487.122 25.707C489.229 22.3477 492.019 19.8141 495.492 18.1059C499.022 16.3978 502.894 15.5438 507.107 15.5438C511.378 15.5438 515.249 16.3978 518.722 18.1059C522.196 19.8141 524.957 22.3477 527.007 25.707C529.113 29.0094 530.167 33.1088 530.167 38.0054V39.7135C530.167 44.8948 529.113 49.222 527.007 52.6951C524.957 56.1114 522.196 58.702 518.722 60.467C515.249 62.1751 511.378 63.0292 507.107 63.0292ZM507.107 52.0973C509.157 52.0973 510.894 51.6133 512.317 50.6454C513.74 49.6205 514.822 48.1687 515.562 46.2897C516.303 44.4108 516.673 42.2187 516.673 39.7135V38.0054C516.673 35.7279 516.303 33.7351 515.562 32.027C514.822 30.3189 513.74 28.9809 512.317 28.013C510.894 26.9881 509.157 26.4757 507.107 26.4757C505.058 26.4757 503.321 26.9881 501.898 28.013C500.474 28.9809 499.392 30.3189 498.652 32.027C497.912 33.7351 497.542 35.7279 497.542 38.0054V39.7135C497.542 42.3326 497.912 44.5816 498.652 46.4605C499.392 48.2825 500.474 49.6775 501.898 50.6454C503.321 51.6133 505.058 52.0973 507.107 52.0973Z" fill="black"/>
<path d="M547.491 61.9189V27.4151H533.57V16.6541H574.564V27.4151H560.643V61.9189H547.491Z" fill="black"/>
<path d="M581.357 61.9189V16.6541H594.509V31.3438H625.908C631.83 31.3438 636.299 32.5964 639.317 35.1016C642.335 37.6068 643.844 41.4501 643.844 46.6314C643.844 49.5921 643.246 52.2396 642.05 54.5741C640.854 56.9085 638.947 58.7304 636.328 60.04C633.709 61.2926 630.236 61.9189 625.908 61.9189H581.357ZM594.509 52.0119H624.2C626.535 52.0119 628.186 51.5849 629.154 50.7308C630.179 49.8198 630.691 48.4533 630.691 46.6314C630.691 44.7524 630.179 43.3859 629.154 42.5319C628.186 41.6778 626.535 41.2508 624.2 41.2508H594.509V52.0119Z" fill="black"/>
<path d="M692.508 63.0292C688.067 63.0292 684.11 62.1751 680.637 60.467C677.164 58.7589 674.43 56.1683 672.438 52.6951C670.445 49.222 669.449 44.8948 669.449 39.7135V38.0054C669.449 33.2227 670.473 29.1517 672.523 25.7924C674.63 22.4332 677.42 19.8995 680.893 18.1914C684.423 16.4263 688.295 15.5438 692.508 15.5438C697.063 15.5438 700.878 16.3409 703.952 17.9351C707.027 19.4724 709.39 21.5506 711.041 24.1697C712.692 26.7888 713.632 29.6926 713.859 32.8811H700.28C699.881 30.8314 699.056 29.2656 697.803 28.1838C696.607 27.045 694.842 26.4757 692.508 26.4757C690.686 26.4757 689.035 26.9027 687.554 27.7568C686.131 28.6108 684.992 29.8919 684.138 31.6C683.341 33.2512 682.943 35.3863 682.943 38.0054V39.7135C682.943 42.5034 683.341 44.8094 684.138 46.6314C684.935 48.4533 686.046 49.8198 687.469 50.7308C688.893 51.5849 690.572 52.0119 692.508 52.0119C694.501 52.0119 696.18 51.4995 697.547 50.4746C698.97 49.3928 699.881 47.7986 700.28 45.6919H713.859C713.632 49.222 712.607 52.2966 710.785 54.9157C708.963 57.5348 706.486 59.556 703.354 60.9795C700.28 62.3459 696.664 63.0292 692.508 63.0292Z" fill="black"/>
<path d="M744.055 61.9189V27.4151H717.719V16.6541H783.543V27.4151H757.207V61.9189H744.055Z" fill="black"/>
<path d="M789.482 79V16.6541H801.609V22.8032C802.805 20.9813 804.57 19.3301 806.904 17.8497C809.296 16.3124 812.228 15.5438 815.701 15.5438C822.078 15.5438 826.918 17.4227 830.22 21.1805C833.522 24.9384 835.173 30.5467 835.173 38.0054V39.7135C835.173 44.8378 834.376 49.1366 832.782 52.6097C831.188 56.0259 828.939 58.6166 826.035 60.3816C823.131 62.1467 819.687 63.0292 815.701 63.0292C813.139 63.0292 810.691 62.4598 808.356 61.3211C806.079 60.1254 804.171 58.4173 802.634 56.1968V79H789.482ZM812.541 52.1827C815.16 52.1827 817.324 51.1294 819.032 49.0227C820.797 46.8591 821.679 43.756 821.679 39.7135V38.0054C821.679 34.0768 820.825 31.173 819.117 29.2941C817.466 27.3582 815.274 26.3903 812.541 26.3903C810.719 26.3903 809.039 26.7888 807.502 27.5859C806.022 28.3261 804.826 29.4649 803.915 31.0022C803.061 32.5395 802.634 34.4468 802.634 36.7243V40.9946C802.634 43.329 803.061 45.3503 803.915 47.0584C804.826 48.7096 806.022 49.9906 807.502 50.9016C809.039 51.7557 810.719 52.1827 812.541 52.1827Z" fill="black"/>
<path d="M856.118 63.0292C852.872 63.0292 850.082 62.4029 847.748 61.1503C845.471 59.8977 843.734 58.1896 842.538 56.0259C841.343 53.8054 840.745 51.3571 840.745 48.6811C840.745 44.1831 842.111 40.7384 844.844 38.347C847.634 35.9557 851.819 34.76 857.399 34.76H870.21V32.8811C870.21 30.1481 869.555 28.2692 868.245 27.2443C866.993 26.2195 865.228 25.707 862.95 25.707C860.787 25.707 859.192 26.0486 858.167 26.7319C857.143 27.3582 856.573 28.4115 856.459 29.8919H843.307C843.478 27.1589 844.332 24.7106 845.869 22.547C847.463 20.3834 849.712 18.6753 852.616 17.4227C855.577 16.1701 859.164 15.5438 863.377 15.5438C867.363 15.5438 870.864 16.1416 873.882 17.3373C876.9 18.533 879.234 20.4688 880.885 23.1449C882.593 25.764 883.447 29.2941 883.447 33.7351V50.3892C883.447 52.7805 883.504 54.8872 883.618 56.7092C883.732 58.4742 883.903 60.2108 884.131 61.9189H871.576C871.519 60.951 871.434 60.0969 871.32 59.3568C871.263 58.6166 871.234 57.7056 871.234 56.6238C869.868 58.4458 867.961 59.9831 865.512 61.2357C863.121 62.4314 859.989 63.0292 856.118 63.0292ZM860.388 53.72C862.267 53.72 863.947 53.3784 865.427 52.6951C866.907 52.0119 868.075 50.987 868.929 49.6205C869.783 48.1971 870.21 46.6029 870.21 44.8378V42.9589H859.961C858.025 42.9589 856.573 43.4714 855.605 44.4962C854.694 45.5211 854.239 46.6883 854.239 47.9978C854.239 49.7059 854.694 51.1009 855.605 52.1827C856.573 53.2076 858.167 53.72 860.388 53.72Z" fill="black"/>
<path d="M888.151 61.9189L902.585 38.347L889.005 16.6541H903.524L912.407 30.4043L920.947 16.6541H935.124L921.63 37.92L935.978 61.9189H921.374L911.894 45.7773L902.414 61.9189H888.151Z" fill="black"/>
<path d="M953.323 41.3362V38.0054C953.323 36.2973 953.636 34.7885 954.262 33.4789C954.945 32.1694 955.856 30.9452 956.995 29.8065C958.134 28.6677 959.443 27.5005 960.924 26.3049C962.802 24.7676 964.254 23.3726 965.279 22.12C966.304 20.8104 966.817 19.4155 966.817 17.9351C966.817 16.0562 966.247 14.6043 965.108 13.5795C964.027 12.4977 962.29 11.9568 959.899 11.9568C957.564 11.9568 955.799 12.5546 954.604 13.7503C953.465 14.9459 952.895 16.6256 952.895 18.7892H939.401C939.401 15.5438 940.227 12.5831 941.878 9.90703C943.586 7.17406 945.949 5.01045 948.967 3.41621C952.041 1.82198 955.685 1.02486 959.899 1.02486C964.34 1.02486 968.069 1.76504 971.087 3.2454C974.161 4.66883 976.467 6.63315 978.005 9.13838C979.599 11.6436 980.396 14.4335 980.396 17.5081C980.396 19.8425 980.026 21.8923 979.286 23.6573C978.546 25.3654 977.606 26.9312 976.467 28.3546C975.329 29.7211 974.133 30.9452 972.88 32.027C970.944 33.7351 969.521 35.1016 968.61 36.1265C967.699 37.0944 967.101 37.8631 966.817 38.4324C966.589 39.0018 966.475 39.5712 966.475 40.1405V41.3362H953.323ZM959.813 63.0292C958.39 63.0292 957.052 62.6591 955.799 61.9189C954.547 61.2357 953.55 60.2962 952.81 59.1005C952.127 57.8479 951.785 56.4245 951.785 54.8303C951.785 52.6097 952.554 50.7308 954.091 49.1935C955.685 47.5993 957.621 46.8022 959.899 46.8022C962.176 46.8022 964.084 47.5993 965.621 49.1935C967.215 50.7308 968.012 52.6097 968.012 54.8303C968.012 56.4245 967.642 57.8479 966.902 59.1005C966.219 60.2962 965.251 61.2357 963.998 61.9189C962.802 62.6591 961.408 63.0292 959.813 63.0292Z" fill="black"/>
</svg>
