<svg width="791" height="80" viewBox="0 0 791 80" fill="none" xmlns="http://www.w3.org/2000/svg">
<path d="M738.625 61.8439V17.2031H754.376L764.988 39.355L775.601 17.2031H790.846V61.8439H778.549V34.4698L768.947 53.4211H760.524L750.922 34.4698V61.8439H738.625Z" fill="black"/>
<path d="M709.179 62.9322C705.024 62.9322 701.205 62.118 697.724 60.4896C694.299 58.8612 691.547 56.3344 689.47 52.9091C687.448 49.4277 686.438 45.104 686.438 39.938V38.2535C686.438 33.4244 687.448 29.3815 689.47 26.1247C691.547 22.8117 694.299 20.313 697.724 18.6284C701.205 16.9438 705.024 16.1016 709.179 16.1016C713.39 16.1016 717.209 16.9438 720.634 18.6284C724.059 20.313 726.783 22.8117 728.804 26.1247C730.882 29.3815 731.921 33.4244 731.921 38.2535V39.938C731.921 45.0479 730.882 49.3154 728.804 52.7407C726.783 56.1098 724.059 58.6647 720.634 60.4054C717.209 62.09 713.39 62.9322 709.179 62.9322ZM709.179 52.1511C711.2 52.1511 712.913 51.6738 714.317 50.7192C715.721 49.7085 716.788 48.2766 717.518 46.4236C718.248 44.5706 718.613 42.4087 718.613 39.938V38.2535C718.613 36.0074 718.248 34.0421 717.518 32.3575C716.788 30.673 715.721 29.3534 714.317 28.3988C712.913 27.3881 711.2 26.8827 709.179 26.8827C707.158 26.8827 705.445 27.3881 704.041 28.3988C702.637 29.3534 701.57 30.673 700.84 32.3575C700.111 34.0421 699.746 36.0074 699.746 38.2535V39.938C699.746 42.521 700.111 44.739 700.84 46.592C701.57 48.3889 702.637 49.7646 704.041 50.7192C705.445 51.6738 707.158 52.1511 709.179 52.1511Z" fill="black"/>
<path d="M641.703 61.8439V27.8158H613.281V17.2031H683.095V27.8158H654.674V61.8439H641.703Z" fill="black"/>
<path d="M587.194 62.9322C582.814 62.9322 578.883 62.118 575.402 60.4896C571.921 58.8051 569.141 56.2502 567.063 52.8249C565.042 49.3996 564.031 45.104 564.031 39.938V38.2535C564.031 33.3121 565.014 29.213 566.979 25.9562C568.945 22.6994 571.612 20.2568 574.981 18.6284C578.406 16.9438 582.196 16.1016 586.352 16.1016C593.708 16.1016 599.267 18.0107 603.029 21.8291C606.791 25.5912 608.672 31.066 608.672 38.2535V42.9702H577.339C577.452 45.1602 577.957 46.9851 578.855 48.4451C579.81 49.905 581.017 50.9719 582.477 51.6457C583.937 52.2634 585.509 52.5722 587.194 52.5722C589.665 52.5722 591.602 52.2072 593.006 51.4773C594.466 50.6911 595.42 49.6523 595.869 48.3608H607.83C606.931 53.246 604.713 56.8959 601.176 59.3105C597.638 61.725 592.978 62.9322 587.194 62.9322ZM586.773 26.4616C585.201 26.4616 583.713 26.7143 582.309 27.2196C580.905 27.725 579.754 28.5673 578.855 29.7465C578.013 30.8695 577.536 32.4137 577.423 34.379H595.954C595.954 32.3014 595.532 30.7011 594.69 29.578C593.848 28.3988 592.725 27.5846 591.321 27.1354C589.973 26.6862 588.457 26.4616 586.773 26.4616Z" fill="black"/>
<path d="M516.89 62.9388C516.385 62.9388 515.711 62.9108 514.869 62.8546C514.083 62.8546 513.465 62.7985 513.016 62.6862V51.3154C513.184 51.3716 513.605 51.3996 514.279 51.3996C515.571 51.3996 516.637 50.8662 517.48 49.7993C518.378 48.7324 519.024 46.9356 519.417 44.4087C519.866 41.8819 520.091 38.4285 520.091 34.0487V17.2031H557.235V61.8439H544.264V27.8158H532.304V35.7332C532.304 41.2923 531.967 45.8687 531.293 49.4624C530.619 53.0561 529.637 55.8356 528.345 57.8009C527.054 59.7101 525.425 61.0578 523.46 61.8439C521.551 62.5739 519.361 62.9388 516.89 62.9388Z" fill="black"/>
<path d="M388.695 72.3724V51.2312H393.412C394.198 50.052 394.816 48.6201 395.265 46.9356C395.77 45.1948 396.135 43.0611 396.36 40.5342C396.585 38.0074 396.697 35.0033 396.697 31.5219V17.2031H460.272V51.2312H465.325V72.3724H454.376V61.8439H399.645V72.3724H388.695ZM406.13 51.2312H447.301V27.8158H408.657V33.2064C408.657 37.474 408.461 41.0677 408.068 43.9876C407.675 46.8513 407.029 49.2659 406.13 51.2312Z" fill="black"/>
<path d="M340.234 78.6829V17.1965H352.195V23.2609C353.374 21.4641 355.115 19.8357 357.417 18.3757C359.775 16.8596 362.667 16.1016 366.092 16.1016C372.381 16.1016 377.154 17.9546 380.411 21.6606C383.668 25.3666 385.296 30.8976 385.296 38.2535V39.938C385.296 44.9917 384.51 49.2312 382.938 52.6564C381.366 56.0256 379.148 58.5805 376.284 60.3212C373.42 62.0619 370.023 62.9322 366.092 62.9322C363.565 62.9322 361.151 62.3707 358.849 61.2477C356.603 60.0685 354.722 58.3839 353.205 56.194V78.6829H340.234ZM362.976 52.2353C365.559 52.2353 367.693 51.1965 369.377 49.1189C371.118 46.9851 371.988 43.9248 371.988 39.938V38.2535C371.988 34.379 371.146 31.5153 369.461 29.6622C367.833 27.7531 365.671 26.7985 362.976 26.7985C361.179 26.7985 359.523 27.1916 358.006 27.9777C356.547 28.7077 355.367 29.8307 354.469 31.3468C353.627 32.8629 353.205 34.744 353.205 36.9901V41.2015C353.205 43.5037 353.627 45.4971 354.469 47.1816C355.367 48.81 356.547 50.0735 358.006 50.9719C359.523 51.8142 361.179 52.2353 362.976 52.2353Z" fill="black"/>
<path d="M310.781 62.9322C306.625 62.9322 302.807 62.118 299.326 60.4896C295.9 58.8612 293.149 56.3344 291.071 52.9091C289.05 49.4277 288.039 45.104 288.039 39.938V38.2535C288.039 33.4244 289.05 29.3815 291.071 26.1247C293.149 22.8117 295.9 20.313 299.326 18.6284C302.807 16.9438 306.625 16.1016 310.781 16.1016C314.992 16.1016 318.81 16.9438 322.236 18.6284C325.661 20.313 328.384 22.8117 330.406 26.1247C332.483 29.3815 333.522 33.4244 333.522 38.2535V39.938C333.522 45.0479 332.483 49.3154 330.406 52.7407C328.384 56.1098 325.661 58.6647 322.236 60.4054C318.81 62.09 314.992 62.9322 310.781 62.9322ZM310.781 52.1511C312.802 52.1511 314.515 51.6738 315.918 50.7192C317.322 49.7085 318.389 48.2766 319.119 46.4236C319.849 44.5706 320.214 42.4087 320.214 39.938V38.2535C320.214 36.0074 319.849 34.0421 319.119 32.3575C318.389 30.673 317.322 29.3534 315.918 28.3988C314.515 27.3881 312.802 26.8827 310.781 26.8827C308.759 26.8827 307.046 27.3881 305.643 28.3988C304.239 29.3534 303.172 30.673 302.442 32.3575C301.712 34.0421 301.347 36.0074 301.347 38.2535V39.938C301.347 42.521 301.712 44.739 302.442 46.592C303.172 48.3889 304.239 49.7646 305.643 50.7192C307.046 51.6738 308.759 52.1511 310.781 52.1511Z" fill="black"/>
<path d="M260.21 62.9414C255.887 62.9414 251.984 61.9868 248.503 60.0777C245.077 58.1123 242.382 55.2205 240.417 51.4022C238.451 47.5277 237.469 42.7267 237.469 36.9992V35.3147C237.469 28.6326 238.227 22.9332 239.743 18.2164C241.259 13.4435 243.758 9.73748 247.239 7.09834C250.721 4.4592 255.437 2.99925 261.389 2.71849C263.748 2.60618 266.078 2.52196 268.38 2.4658C270.683 2.40965 272.816 2.26927 274.782 2.04467C276.747 1.76391 278.347 1.34277 279.583 0.78125V11.8993C279.021 12.2362 278.067 12.5451 276.719 12.8258C275.427 13.1066 273.631 13.3312 271.328 13.4997C269.082 13.612 266.19 13.7243 262.653 13.8366C259.396 13.8366 256.701 14.3139 254.567 15.2684C252.489 16.1669 250.889 17.5987 249.766 19.5641C248.699 21.5294 247.969 24.1404 247.576 27.3972C248.418 25.8811 249.541 24.5335 250.945 23.3543C252.405 22.1751 254.202 21.2486 256.336 20.5748C258.526 19.8448 261.081 19.4798 264.001 19.4798C267.707 19.4798 270.991 20.2098 273.855 21.6698C276.719 23.0736 278.937 25.2073 280.509 28.0711C282.138 30.9348 282.952 34.5566 282.952 38.9365V40.4526C282.952 45.1693 281.941 49.2123 279.92 52.5814C277.898 55.9505 275.175 58.5335 271.749 60.3303C268.324 62.071 264.478 62.9414 260.21 62.9414ZM260.21 52.1602C263.242 52.1602 265.573 51.2057 267.201 49.2965C268.83 47.3312 269.644 44.7763 269.644 41.6318V39.9472C269.644 36.5781 268.802 33.9951 267.117 32.1982C265.432 30.3452 263.13 29.4187 260.21 29.4187C257.347 29.4187 255.044 30.3452 253.304 32.1982C251.619 33.9951 250.777 36.5781 250.777 39.9472V41.2948C250.777 43.4286 251.17 45.3378 251.956 47.0223C252.798 48.6507 253.921 49.9142 255.325 50.8126C256.785 51.711 258.413 52.1602 260.21 52.1602Z" fill="black"/>
<path d="M197.494 79.7844C196.652 79.7844 195.81 79.7002 194.967 79.5317V68.7506C195.81 68.919 196.652 69.0033 197.494 69.0033C198.617 69.0033 199.544 68.7506 200.274 68.2452C201.004 67.796 201.65 67.0379 202.211 65.971C202.829 64.9042 203.474 63.5004 204.148 61.7597L185.281 17.2031H199.6L210.718 46.9356L221.247 17.2031H234.133L217.119 61.8439C215.435 66.0553 213.834 69.4805 212.318 72.1197C210.802 74.815 208.893 76.7522 206.591 77.9314C204.345 79.1667 201.313 79.7844 197.494 79.7844Z" fill="black"/>
<path d="M160.851 62.9322C156.696 62.9322 152.877 62.118 149.396 60.4896C145.971 58.8612 143.219 56.3344 141.142 52.9091C139.12 49.4277 138.109 45.104 138.109 39.938V38.2535C138.109 33.4244 139.12 29.3815 141.142 26.1247C143.219 22.8117 145.971 20.313 149.396 18.6284C152.877 16.9438 156.696 16.1016 160.851 16.1016C165.062 16.1016 168.881 16.9438 172.306 18.6284C175.731 20.313 178.455 22.8117 180.476 26.1247C182.554 29.3815 183.592 33.4244 183.592 38.2535V39.938C183.592 45.0479 182.554 49.3154 180.476 52.7407C178.455 56.1098 175.731 58.6647 172.306 60.4054C168.881 62.09 165.062 62.9322 160.851 62.9322ZM160.851 52.1511C162.872 52.1511 164.585 51.6738 165.989 50.7192C167.393 49.7085 168.459 48.2766 169.189 46.4236C169.919 44.5706 170.284 42.4087 170.284 39.938V38.2535C170.284 36.0074 169.919 34.0421 169.189 32.3575C168.459 30.673 167.393 29.3534 165.989 28.3988C164.585 27.3881 162.872 26.8827 160.851 26.8827C158.829 26.8827 157.117 27.3881 155.713 28.3988C154.309 29.3534 153.242 30.673 152.512 32.3575C151.782 34.0421 151.417 36.0074 151.417 38.2535V39.938C151.417 42.521 151.782 44.739 152.512 46.592C153.242 48.3889 154.309 49.7646 155.713 50.7192C157.117 51.6738 158.829 52.1511 160.851 52.1511Z" fill="black"/>
<path d="M60.2188 61.8439V17.2031H73.1898V33.796H117.14V17.2031H130.111V61.8439H117.14V44.4087H73.1898V61.8439H60.2188Z" fill="black"/>
<path d="M27.374 62.9463C21.9835 62.9463 17.2106 61.9636 13.0553 59.9983C8.95623 57.9769 5.75557 54.7481 3.45334 50.3121C1.15111 45.8761 0 40.0082 0 32.7085V31.1082C0 25.9422 0.701899 21.5062 2.1057 17.8002C3.50949 14.0941 5.44673 11.0619 7.91742 8.70356C10.4443 6.34518 13.3642 4.60447 16.6771 3.48143C19.9901 2.35839 23.5557 1.79688 27.374 1.79688C30.7993 1.79688 34.028 2.18994 37.0603 2.97606C40.0925 3.76219 42.7316 4.99753 44.9777 6.68209C47.2799 8.36665 49.1329 10.5566 50.5367 13.2519C51.9405 15.9472 52.7828 19.232 53.0635 23.1065H37.3129C36.8076 20.0182 35.6284 17.8002 33.7754 16.4525C31.9224 15.1049 29.7886 14.4311 27.374 14.4311C25.128 14.4311 23.1065 14.9926 21.3096 16.1156C19.5689 17.1825 18.1932 18.9232 17.1825 21.3377C16.1717 23.7523 15.6664 27.0091 15.6664 31.1082V32.877C15.6664 36.1338 15.9752 38.8852 16.5929 41.1313C17.2106 43.3774 18.0528 45.1742 19.1197 46.5219C20.2428 47.8695 21.5062 48.8522 22.91 49.4698C24.3138 50.0314 25.8018 50.3121 27.374 50.3121C30.2378 50.3121 32.5119 49.6383 34.1965 48.2906C35.9372 46.8869 36.976 44.6689 37.3129 41.6367H53.0635C52.8389 45.5673 52.0247 48.9083 50.6209 51.6598C49.2733 54.3551 47.4484 56.545 45.1461 58.2295C42.9001 59.8579 40.2609 61.0652 37.2287 61.8513C34.1965 62.5813 30.9116 62.9463 27.374 62.9463Z" fill="black"/>
</svg>
