<svg width="839" height="79" viewBox="0 0 839 79" fill="none" xmlns="http://www.w3.org/2000/svg">
<path d="M794.422 61.0321V15.6641H807.262V43.0561L826.522 15.6641H838.078V61.0321H825.238V33.6401L805.978 61.0321H794.422Z" fill="black"/>
<path d="M742.18 61.0321V15.6641H755.02V43.0561L774.28 15.6641H785.836V61.0321H772.996V33.6401L753.736 61.0321H742.18Z" fill="black"/>
<path d="M714.339 62.1483C709.887 62.1483 705.921 61.2923 702.44 59.5803C698.959 57.8683 696.22 55.2718 694.223 51.7907C692.225 48.3096 691.227 43.9726 691.227 38.7795V37.0675C691.227 32.2739 692.254 28.1936 694.308 24.8267C696.42 21.4598 699.216 18.9203 702.697 17.2083C706.235 15.4392 710.116 14.5547 714.339 14.5547C718.904 14.5547 722.727 15.3536 725.809 16.9515C728.891 18.4923 731.259 20.5752 732.914 23.2003C734.569 25.8254 735.51 28.7358 735.739 31.9315H722.128C721.729 29.8771 720.901 28.3078 719.646 27.2235C718.447 26.0822 716.678 25.5115 714.339 25.5115C712.512 25.5115 710.858 25.9395 709.374 26.7955C707.947 27.6515 706.806 28.9355 705.95 30.6475C705.151 32.3024 704.751 34.4424 704.751 37.0675V38.7795C704.751 41.5758 705.151 43.887 705.95 45.7131C706.749 47.5392 707.862 48.9088 709.288 49.8219C710.715 50.6779 712.398 51.1059 714.339 51.1059C716.336 51.1059 718.019 50.5923 719.389 49.5651C720.816 48.4808 721.729 46.883 722.128 44.7715H735.739C735.51 48.3096 734.483 51.3912 732.657 54.0163C730.831 56.6414 728.348 58.6672 725.21 60.0939C722.128 61.4635 718.504 62.1483 714.339 62.1483Z" fill="black"/>
<path d="M665.104 62.1483C660.653 62.1483 656.687 61.2923 653.206 59.5803C649.725 57.8683 646.986 55.2718 644.988 51.7907C642.991 48.3096 641.992 43.9726 641.992 38.7795V37.0675C641.992 32.2739 643.019 28.1936 645.074 24.8267C647.185 21.4598 649.982 18.9203 653.463 17.2083C657.001 15.4392 660.881 14.5547 665.104 14.5547C669.67 14.5547 673.493 15.3536 676.575 16.9515C679.656 18.4923 682.024 20.5752 683.679 23.2003C685.334 25.8254 686.276 28.7358 686.504 31.9315H672.894C672.494 29.8771 671.667 28.3078 670.411 27.2235C669.213 26.0822 667.444 25.5115 665.104 25.5115C663.278 25.5115 661.623 25.9395 660.139 26.7955C658.713 27.6515 657.571 28.9355 656.715 30.6475C655.916 32.3024 655.517 34.4424 655.517 37.0675V38.7795C655.517 41.5758 655.916 43.887 656.715 45.7131C657.514 47.5392 658.627 48.9088 660.054 49.8219C661.48 50.6779 663.164 51.1059 665.104 51.1059C667.102 51.1059 668.785 50.5923 670.155 49.5651C671.581 48.4808 672.494 46.883 672.894 44.7715H686.504C686.276 48.3096 685.249 51.3912 683.423 54.0163C681.596 56.6414 679.114 58.6672 675.975 60.0939C672.894 61.4635 669.27 62.1483 665.104 62.1483Z" fill="black"/>
<path d="M613.776 62.1483C609.553 62.1483 605.673 61.3208 602.134 59.6659C598.653 58.011 595.857 55.443 593.746 51.9619C591.691 48.4238 590.664 44.0296 590.664 38.7795V37.0675C590.664 32.1598 591.691 28.051 593.746 24.7411C595.857 21.3742 598.653 18.8347 602.134 17.1227C605.673 15.4107 609.553 14.5547 613.776 14.5547C618.056 14.5547 621.937 15.4107 625.418 17.1227C628.899 18.8347 631.666 21.3742 633.721 24.7411C635.832 28.051 636.888 32.1598 636.888 37.0675V38.7795C636.888 43.9726 635.832 48.3096 633.721 51.7907C631.666 55.2147 628.899 57.8112 625.418 59.5803C621.937 61.2923 618.056 62.1483 613.776 62.1483ZM613.776 51.1915C615.83 51.1915 617.571 50.7064 618.998 49.7363C620.424 48.7091 621.509 47.2539 622.25 45.3707C622.992 43.4875 623.363 41.2904 623.363 38.7795V37.0675C623.363 34.7848 622.992 32.7875 622.25 31.0755C621.509 29.3635 620.424 28.0224 618.998 27.0523C617.571 26.0251 615.83 25.5115 613.776 25.5115C611.722 25.5115 609.981 26.0251 608.554 27.0523C607.128 28.0224 606.044 29.3635 605.302 31.0755C604.56 32.7875 604.189 34.7848 604.189 37.0675V38.7795C604.189 41.4046 604.56 43.6587 605.302 45.5419C606.044 47.368 607.128 48.7662 608.554 49.7363C609.981 50.7064 611.722 51.1915 613.776 51.1915Z" fill="black"/>
<path d="M508.961 61.0294V1.10938H561.976C567.568 1.10938 572.162 1.93684 575.757 3.59178C579.353 5.18964 582.006 7.52938 583.718 10.611C585.487 13.6355 586.372 17.2878 586.372 21.5678C586.372 25.7907 585.487 29.443 583.718 32.5246C582.006 35.6062 579.353 37.9745 575.757 39.6294C572.162 41.2273 567.568 42.0262 561.976 42.0262H524.369V61.0294H508.961ZM524.369 29.3574H560.264C564.201 29.3574 566.969 28.7011 568.567 27.3886C570.165 26.0761 570.964 24.1358 570.964 21.5678C570.964 18.9998 570.165 17.0595 568.567 15.747C566.969 14.4344 564.201 13.7782 560.264 13.7782H524.369V29.3574Z" fill="black"/>
<path d="M436.195 61.0321V15.6641H460.506C464.5 15.6641 467.725 16.2062 470.179 17.2905C472.632 18.3177 474.43 19.7443 475.571 21.5705C476.713 23.3395 477.283 25.3654 477.283 27.6481C477.283 29.7595 476.656 31.7854 475.4 33.7257C474.145 35.6089 472.347 36.8358 470.007 37.4065C472.804 38.0913 475.001 39.4038 476.599 41.3441C478.196 43.2843 478.995 45.5385 478.995 48.1065C478.995 52.0441 477.597 55.1827 474.801 57.5225C472.005 59.8622 467.81 61.0321 462.218 61.0321H436.195ZM449.378 51.1025H458.879C461.219 51.1025 462.96 50.7601 464.101 50.0753C465.242 49.3905 465.813 48.3347 465.813 46.9081C465.813 45.4814 465.242 44.4257 464.101 43.7409C462.96 42.999 461.219 42.6281 458.879 42.6281H449.378V51.1025ZM449.378 33.3833H458.195C460.534 33.3833 462.104 33.0409 462.903 32.3561C463.701 31.6142 464.101 30.6441 464.101 29.4457C464.101 28.2473 463.673 27.3057 462.817 26.6209C461.961 25.9361 460.42 25.5937 458.195 25.5937H449.378V33.3833Z" fill="black"/>
<path d="M362.086 61.0321V15.6641H395.47V26.4497H375.268V61.0321H362.086Z" fill="black"/>
<path d="M282.477 61.0321V15.6641H295.659V32.5273H340.325V15.6641H353.507V61.0321H340.325V43.3129H295.659V61.0321H282.477Z" fill="black"/>
<path d="M230.227 61.0321V15.6641H243.067V43.0561L262.327 15.6641H273.883V61.0321H261.043V33.6401L241.783 61.0321H230.227Z" fill="black"/>
<path d="M186.437 78.1494V62.1422C178.79 62.1422 172.913 60.1734 168.804 56.2358C164.695 52.2411 162.641 46.4489 162.641 38.859V37.0614C162.641 29.7568 164.695 24.1928 168.804 20.3694C172.913 16.4888 178.79 14.5486 186.437 14.5486V1.10938H199.62V14.5486C207.267 14.5486 213.145 16.4888 217.253 20.3694C221.362 24.1928 223.417 29.7568 223.417 37.0614V38.859C223.417 46.4489 221.362 52.2411 217.253 56.2358C213.145 60.1734 207.267 62.1422 199.62 62.1422V78.1494H186.437ZM209.977 38.7734V37.0614C209.977 33.2379 209.093 30.356 207.324 28.4158C205.612 26.4755 202.901 25.5054 199.192 25.5054V51.1854C202.901 51.1854 205.612 50.1297 207.324 48.0182C209.093 45.8497 209.977 42.7681 209.977 38.7734ZM175.994 37.0614V38.7734C175.994 42.8251 176.879 45.9067 178.648 48.0182C180.474 50.1297 183.242 51.1854 186.951 51.1854V25.5054C183.071 25.5054 180.274 26.504 178.562 28.5014C176.85 30.4987 175.994 33.352 175.994 37.0614Z" fill="black"/>
<path d="M111.695 78.1555V15.6675H123.851V21.8307C125.049 20.0046 126.818 18.3496 129.158 16.8659C131.555 15.3251 134.493 14.5547 137.975 14.5547C144.366 14.5547 149.217 16.4379 152.527 20.2043C155.836 23.9707 157.491 29.5918 157.491 37.0675V38.7795C157.491 43.9155 156.692 48.224 155.095 51.7051C153.497 55.1291 151.243 57.7256 148.332 59.4947C145.422 61.2638 141.969 62.1483 137.975 62.1483C135.407 62.1483 132.953 61.5776 130.613 60.4363C128.33 59.2379 126.419 57.5259 124.878 55.3003V78.1555H111.695ZM134.807 51.2771C137.432 51.2771 139.601 50.2214 141.313 48.1099C143.082 45.9414 143.967 42.8312 143.967 38.7795V37.0675C143.967 33.1299 143.111 30.2195 141.399 28.3363C139.744 26.396 137.547 25.4259 134.807 25.4259C132.981 25.4259 131.298 25.8254 129.757 26.6243C128.273 27.3662 127.075 28.5075 126.162 30.0483C125.306 31.5891 124.878 33.5008 124.878 35.7835V40.0635C124.878 42.4032 125.306 44.4291 126.162 46.1411C127.075 47.796 128.273 49.08 129.757 49.9931C131.298 50.8491 132.981 51.2771 134.807 51.2771Z" fill="black"/>
<path d="M83.0322 62.1483C78.581 62.1483 74.5863 61.3208 71.0482 59.6659C67.5101 57.9539 64.6853 55.3574 62.5738 51.8763C60.5194 48.3952 59.4922 44.0296 59.4922 38.7795V37.0675C59.4922 32.0456 60.4909 27.8798 62.4882 24.5699C64.4855 21.26 67.1962 18.7776 70.6202 17.1227C74.1013 15.4107 77.9533 14.5547 82.1762 14.5547C89.6519 14.5547 95.3015 16.495 99.125 20.3755C102.948 24.199 104.86 29.763 104.86 37.0675V41.8611H73.017C73.1311 44.0867 73.6447 45.9414 74.5578 47.4251C75.5279 48.9088 76.7549 49.9931 78.2386 50.6779C79.7223 51.3056 81.3202 51.6195 83.0322 51.6195C85.5431 51.6195 87.5119 51.2486 88.9386 50.5067C90.4223 49.7078 91.3925 48.652 91.849 47.3395H104.004C103.091 52.3043 100.837 56.0136 97.2418 58.4675C93.6466 60.9214 88.9101 62.1483 83.0322 62.1483ZM82.6042 25.0835C81.0063 25.0835 79.4941 25.3403 78.0674 25.8539C76.6407 26.3675 75.4709 27.2235 74.5578 28.4219C73.7018 29.5632 73.2167 31.1326 73.1026 33.1299H91.9346C91.9346 31.0184 91.5066 29.392 90.6506 28.2507C89.7946 27.0523 88.6533 26.2248 87.2266 25.7683C85.857 25.3118 84.3162 25.0835 82.6042 25.0835Z" fill="black"/>
<path d="M27.82 62.1456C22.3416 62.1456 17.4909 61.1469 13.268 59.1496C9.10214 57.0952 5.84933 53.8139 3.5096 49.3056C1.16987 44.7973 0 38.8339 0 31.4152V29.7888C0 24.5387 0.713333 20.0304 2.14 16.264C3.56667 12.4976 5.53547 9.416 8.0464 7.0192C10.6144 4.6224 13.5819 2.85334 16.9488 1.712C20.3157 0.570667 23.9395 0 27.82 0C31.3011 0 34.5824 0.399467 37.664 1.1984C40.7456 1.99733 43.4277 3.2528 45.7104 4.9648C48.0501 6.67681 49.9333 8.90241 51.36 11.6416C52.7867 14.3808 53.6427 17.7192 53.928 21.6568H37.9208C37.4072 18.5181 36.2088 16.264 34.3256 14.8944C32.4424 13.5248 30.2739 12.84 27.82 12.84C25.5373 12.84 23.4829 13.4107 21.6568 14.552C19.8877 15.6363 18.4896 17.4053 17.4624 19.8592C16.4352 22.3131 15.9216 25.6229 15.9216 29.7888V31.5864C15.9216 34.8963 16.2355 37.6925 16.8632 39.9752C17.4909 42.2579 18.3469 44.084 19.4312 45.4536C20.5725 46.8232 21.8565 47.8219 23.2832 48.4496C24.7099 49.0203 26.2221 49.3056 27.82 49.3056C30.7304 49.3056 33.0416 48.6208 34.7536 47.2512C36.5227 45.8245 37.5784 43.5704 37.9208 40.4888H53.928C53.6997 44.4835 52.8723 47.8789 51.4456 50.6752C50.076 53.4144 48.2213 55.64 45.8816 57.352C43.5989 59.0069 40.9168 60.2339 37.8352 61.0328C34.7536 61.7747 31.4152 62.1456 27.82 62.1456Z" fill="black"/>
</svg>
