<svg width="99" height="30" viewBox="0 0 99 30" fill="none" xmlns="http://www.w3.org/2000/svg">
<path d="M93.0225 23.3149V17.117C92.4996 17.4058 91.8973 17.6724 91.2153 17.9167C90.5334 18.1611 89.6355 18.2833 88.5217 18.2833C86.2486 18.2833 84.5664 17.7501 83.4753 16.6838C82.407 15.6175 81.8728 13.9959 81.8728 11.8188V5.6543H87.1919V11.319C87.1919 12.2964 87.3965 12.9962 87.8056 13.4183C88.2375 13.8181 89.0104 14.0181 90.1242 14.0181C90.8744 14.0181 91.4995 13.9292 91.9996 13.7515C92.4996 13.5516 92.8406 13.3627 93.0225 13.185V5.6543H98.2734V23.3149H93.0225Z" fill="#F1B8FF"/>
<path d="M61.4402 29.9998V5.67488H66.2819V8.07405C66.7593 7.36319 67.464 6.71897 68.3959 6.14139C69.3506 5.5416 70.5213 5.2417 71.9079 5.2417C74.4538 5.2417 76.3859 5.97478 77.7044 7.44094C79.0228 8.9071 79.682 11.0952 79.682 14.0053V14.6718C79.682 16.6711 79.3637 18.3483 78.7273 19.7034C78.0908 21.0362 77.1929 22.047 76.0336 22.7357C74.8743 23.4243 73.4991 23.7686 71.9079 23.7686C70.885 23.7686 69.9076 23.5465 68.9756 23.1022C68.0663 22.6357 67.3048 21.9693 66.6911 21.1029V29.9998H61.4402ZM70.6463 19.5368C71.692 19.5368 72.5557 19.1258 73.2377 18.3039C73.9423 17.4597 74.2947 16.249 74.2947 14.6718V14.0053C74.2947 12.4725 73.9537 11.3396 73.2718 10.6065C72.6126 9.85122 71.7374 9.47357 70.6463 9.47357C69.9189 9.47357 69.2483 9.62907 68.6346 9.94008C68.0436 10.2289 67.5662 10.6732 67.2025 11.2729C66.8616 11.8727 66.6911 12.6169 66.6911 13.5055V15.1716C66.6911 16.0824 66.8616 16.871 67.2025 17.5375C67.5662 18.1817 68.0436 18.6815 68.6346 19.0369C69.2483 19.3702 69.9189 19.5368 70.6463 19.5368Z" fill="#F1B8FF"/>
<path d="M50.0199 23.7686C48.2469 23.7686 46.6557 23.4465 45.2464 22.8023C43.837 22.1359 42.7118 21.1251 41.8708 19.77C41.0525 18.4149 40.6433 16.7155 40.6433 14.6718V14.0053C40.6433 12.0505 41.0411 10.4288 41.8367 9.14035C42.6323 7.85191 43.712 6.88558 45.0759 6.24135C46.4625 5.57492 47.9968 5.2417 49.679 5.2417C52.6567 5.2417 54.9071 5.99699 56.4301 7.50758C57.9531 8.99596 58.7146 11.1619 58.7146 14.0053V15.8714H46.0306C46.0761 16.7377 46.2806 17.4597 46.6443 18.0373C47.0308 18.6149 47.5195 19.0369 48.1105 19.3035C48.7015 19.5479 49.338 19.67 50.0199 19.67C51.0201 19.67 51.8043 19.5257 52.3726 19.2369C52.9636 18.9259 53.35 18.5149 53.5319 18.004H58.3736C58.0099 19.9366 57.1121 21.3806 55.68 22.3358C54.2479 23.291 52.3612 23.7686 50.0199 23.7686ZM49.8494 9.34028C49.213 9.34028 48.6106 9.44025 48.0423 9.64018C47.474 9.84011 47.008 10.1733 46.6443 10.6398C46.3034 11.0841 46.1102 11.695 46.0647 12.4725H53.566C53.566 11.6506 53.3955 11.0175 53.0545 10.5732C52.7136 10.1067 52.2589 9.78457 51.6907 9.60686C51.1451 9.42914 50.5314 9.34028 49.8494 9.34028Z" fill="#F1B8FF"/>
<path d="M0.273438 23.3253V0H6.54725L18.614 11.8292L31.1083 0H37.2457V23.3253H31.1083V8.72203L20.2166 18.8268H16.8069L6.41086 8.72203V23.3253H0.273438Z" fill="#F1B8FF"/>
</svg>
