<svg width="199" height="28" viewBox="0 0 199 28" fill="none" xmlns="http://www.w3.org/2000/svg">
<path d="M166.232 23.7558V5.76123H171.512V11.601H184.428C186.805 11.601 188.599 12.099 189.81 13.0949C191.022 14.0908 191.627 15.6187 191.627 17.6784C191.627 18.8554 191.387 19.9079 190.907 20.836C190.427 21.764 189.662 22.4883 188.61 23.0089C187.559 23.5069 186.165 23.7558 184.428 23.7558H166.232ZM171.512 19.8174H173.775C174.689 19.8174 185.319 19.6476 185.731 19.3081C186.142 18.946 186.348 18.4027 186.348 17.6784C186.348 16.9315 186.142 16.3882 185.731 16.0487C185.342 15.7092 174.712 15.5394 173.775 15.5394H171.512V19.8174ZM193.205 23.7558V5.76123H198.484V23.7558H193.205Z" fill="#FF5C00"/>
<path d="M152.997 23.7558V10.0392H147.408V5.76123H163.865V10.0392H158.276V23.7558H152.997Z" fill="#FF5C00"/>
<path d="M137.28 24.2182C135.497 24.2182 133.909 23.8787 132.515 23.1996C131.12 22.5206 130.023 21.4907 129.223 20.11C128.423 18.7293 128.023 17.009 128.023 14.9493V14.2702C128.023 12.3689 128.435 10.7505 129.258 9.41507C130.103 8.07962 131.223 7.07238 132.618 6.39334C134.035 5.69166 135.589 5.34082 137.28 5.34082C139.109 5.34082 140.64 5.65771 141.874 6.29148C143.109 6.90262 144.057 7.72878 144.72 8.76998C145.383 9.81118 145.76 10.9656 145.851 12.2331H140.4C140.24 11.4182 139.909 10.7958 139.406 10.3657C138.926 9.91304 138.217 9.68669 137.28 9.68669C136.549 9.68669 135.886 9.85645 135.292 10.196C134.72 10.5355 134.263 11.0448 133.92 11.7238C133.6 12.3802 133.44 13.229 133.44 14.2702V14.9493C133.44 16.0584 133.6 16.9751 133.92 17.6994C134.24 18.4237 134.686 18.9669 135.257 19.3291C135.829 19.6686 136.503 19.8384 137.28 19.8384C138.08 19.8384 138.754 19.6347 139.303 19.2272C139.874 18.7972 140.24 18.1634 140.4 17.3259H145.851C145.76 18.7293 145.348 19.9515 144.617 20.9927C143.886 22.0339 142.891 22.8375 141.634 23.4033C140.4 23.9466 138.949 24.2182 137.28 24.2182Z" fill="#FF5C00"/>
<path d="M114.46 24.2182C113.157 24.2182 112.037 23.9692 111.1 23.4712C110.185 22.9733 109.488 22.2942 109.008 21.4341C108.528 20.5514 108.288 19.5781 108.288 18.5142C108.288 16.7261 108.837 15.3567 109.934 14.406C111.054 13.4554 112.734 12.98 114.974 12.98H120.116V12.2331C120.116 11.1466 119.854 10.3997 119.328 9.99226C118.825 9.58483 118.117 9.38112 117.202 9.38112C116.334 9.38112 115.694 9.51693 115.282 9.78854C114.871 10.0375 114.642 10.4563 114.597 11.0448H109.317C109.385 9.95831 109.728 8.98501 110.345 8.12489C110.985 7.26477 111.888 6.58573 113.054 6.08777C114.242 5.5898 115.682 5.34082 117.374 5.34082C118.974 5.34082 120.379 5.57849 121.591 6.05382C122.802 6.52914 123.739 7.29873 124.402 8.36256C125.088 9.40376 125.431 10.8071 125.431 12.5726V19.1933C125.431 20.1439 125.453 20.9814 125.499 21.7057C125.545 22.4074 125.613 23.0978 125.705 23.7768H120.665C120.642 23.392 120.608 23.0525 120.562 22.7582C120.539 22.464 120.528 22.1018 120.528 21.6718C119.979 22.3961 119.214 23.0072 118.231 23.5052C117.271 23.9805 116.014 24.2182 114.46 24.2182ZM116.174 20.5174C116.928 20.5174 117.602 20.3816 118.197 20.11C118.791 19.8384 119.259 19.4309 119.602 18.8877C119.945 18.3218 120.116 17.6881 120.116 16.9864V16.2394H116.002C115.225 16.2394 114.642 16.4432 114.254 16.8506C113.888 17.258 113.705 17.722 113.705 18.2426C113.705 18.9217 113.888 19.4762 114.254 19.9063C114.642 20.3137 115.282 20.5174 116.174 20.5174Z" fill="#FF5C00"/>
<path d="M89.2617 23.7558V5.76123H94.5415V12.5516H95.9129L100.987 5.76123H106.747L100.061 14.2153L107.09 23.7558H100.85L95.9129 16.6259H94.5415V23.7558H89.2617Z" fill="#FF5C00"/>
<path d="M56.1465 27.9999V19.4779H58.0664C58.3864 19.0025 58.6378 18.4254 58.8207 17.7463C59.0264 17.0446 59.1749 16.1845 59.2664 15.166C59.3578 14.1474 59.4035 12.9364 59.4035 11.5331V5.76123H84.2845V19.4779H86.3416V27.9999H81.8846V23.7558H60.6035V27.9999H56.1465ZM63.2434 19.4779H79.0047V10.0392H64.2719V12.2121C64.2719 13.9324 64.1919 15.381 64.0319 16.558C63.8719 17.7124 63.6091 18.6857 63.2434 19.4779Z" fill="#FF5C00"/>
<path d="M45.5278 24.2182C43.8364 24.2182 42.2822 23.89 40.8651 23.2336C39.4709 22.5772 38.3509 21.5586 37.5052 20.1779C36.6824 18.7745 36.271 17.0317 36.271 14.9493V14.2702C36.271 12.3236 36.6824 10.6939 37.5052 9.38112C38.3509 8.04567 39.4709 7.03843 40.8651 6.35938C42.2822 5.68034 43.8364 5.34082 45.5278 5.34082C47.242 5.34082 48.7962 5.68034 50.1905 6.35938C51.5847 7.03843 52.6932 8.04567 53.516 9.38112C54.3617 10.6939 54.7846 12.3236 54.7846 14.2702V14.9493C54.7846 17.009 54.3617 18.7293 53.516 20.11C52.6932 21.4681 51.5847 22.4979 50.1905 23.1996C48.7962 23.8787 47.242 24.2182 45.5278 24.2182ZM45.5278 19.8723C46.3506 19.8723 47.0477 19.6799 47.6191 19.2951C48.1905 18.8877 48.6248 18.3105 48.9219 17.5636C49.2191 16.8166 49.3676 15.9452 49.3676 14.9493V14.2702C49.3676 13.3648 49.2191 12.5726 48.9219 11.8936C48.6248 11.2145 48.1905 10.6826 47.6191 10.2978C47.0477 9.8904 46.3506 9.68669 45.5278 9.68669C44.705 9.68669 44.0078 9.8904 43.4364 10.2978C42.865 10.6826 42.4308 11.2145 42.1336 11.8936C41.8365 12.5726 41.6879 13.3648 41.6879 14.2702V14.9493C41.6879 15.9905 41.8365 16.8845 42.1336 17.6315C42.4308 18.3558 42.865 18.9103 43.4364 19.2951C44.0078 19.6799 44.705 19.8723 45.5278 19.8723Z" fill="#FF5C00"/>
<path d="M0.484375 23.7665V0H32.8602V23.7665H26.689V5.02491H6.65557V23.7665H0.484375Z" fill="#FF5C00"/>
</svg>
