<svg width="185" height="31" viewBox="0 0 185 31" fill="none" xmlns="http://www.w3.org/2000/svg">
<path d="M156.7 23.6147V5.9541H161.845V16.6171L179.534 5.9541H184.164V23.6147H179.019V12.9517L161.331 23.6147H156.7Z" fill="#191919"/>
<path d="M135.305 23.6147V5.9541H140.587V12.6185H141.959L147.035 5.9541H152.798L146.109 14.2512L153.141 23.6147H146.898L141.959 16.6171H140.587V23.6147H135.305Z" fill="#191919"/>
<path d="M126.193 23.6147V17.4168C125.667 17.7056 125.062 17.9722 124.376 18.2165C123.69 18.4609 122.786 18.5831 121.666 18.5831C119.379 18.5831 117.687 18.0499 116.59 16.9836C115.515 15.9173 114.978 14.2957 114.978 12.1186V5.9541H120.328V11.6188C120.328 12.5963 120.534 13.296 120.946 13.7181C121.38 14.1179 122.158 14.3179 123.278 14.3179C124.033 14.3179 124.661 14.229 125.164 14.0513C125.667 13.8514 126.01 13.6625 126.193 13.4848V5.9541H131.475V23.6147H126.193Z" fill="#191919"/>
<path d="M103.552 24.0684C101.86 24.0684 100.305 23.7463 98.8875 23.1021C97.4927 22.4579 96.3723 21.4582 95.5262 20.1031C94.7031 18.7258 94.2915 17.0153 94.2915 14.9716V14.3051C94.2915 12.3947 94.7031 10.7952 95.5262 9.5068C96.3723 8.19614 97.4927 7.2076 98.8875 6.54116C100.305 5.87472 101.86 5.5415 103.552 5.5415C105.267 5.5415 106.822 5.87472 108.217 6.54116C109.611 7.2076 110.72 8.19614 111.544 9.5068C112.39 10.7952 112.813 12.3947 112.813 14.3051V14.9716C112.813 16.9931 112.39 18.6814 111.544 20.0365C110.72 21.3694 109.611 22.3801 108.217 23.0688C106.822 23.7352 105.267 24.0684 103.552 24.0684ZM103.552 19.8032C104.375 19.8032 105.073 19.6144 105.644 19.2368C106.216 18.8369 106.65 18.2704 106.948 17.5374C107.245 16.8043 107.394 15.949 107.394 14.9716V14.3051C107.394 13.4166 107.245 12.6391 106.948 11.9726C106.65 11.3062 106.216 10.7841 105.644 10.4065C105.073 10.0066 104.375 9.8067 103.552 9.8067C102.729 9.8067 102.032 10.0066 101.46 10.4065C100.888 10.7841 100.454 11.3062 100.157 11.9726C99.8593 12.6391 99.7107 13.4166 99.7107 14.3051V14.9716C99.7107 15.9934 99.8593 16.8709 100.157 17.604C100.454 18.3149 100.888 18.8591 101.46 19.2368C102.032 19.6144 102.729 19.8032 103.552 19.8032Z" fill="#191919"/>
<path d="M75.6347 23.8456V10.3836H65.0583V6.18506H91.493V10.3836H80.9167V23.8456H75.6347Z" fill="#191919"/>
<path d="M44.271 30.2996V5.97469H49.1414V8.37386C49.6216 7.66299 50.3304 7.01877 51.2679 6.44119C52.2282 5.8414 53.4058 5.5415 54.8006 5.5415C57.3616 5.5415 59.3052 6.27458 60.6314 7.74074C61.9576 9.20691 62.6207 11.395 62.6207 14.3051V14.9716C62.6207 16.9709 62.3006 18.6481 61.6603 20.0032C61.0201 21.336 60.1169 22.3468 58.9507 23.0355C57.7846 23.7241 56.4012 24.0684 54.8006 24.0684C53.7717 24.0684 52.7884 23.8463 51.851 23.402C50.9363 22.9355 50.1703 22.2691 49.553 21.4027V30.2996H44.271ZM53.5316 19.8366C54.5834 19.8366 55.4523 19.4256 56.1383 18.6037C56.8471 17.7595 57.2015 16.5488 57.2015 14.9716V14.3051C57.2015 12.7723 56.8585 11.6394 56.1726 10.9063C55.5095 10.151 54.6291 9.77338 53.5316 9.77338C52.7999 9.77338 52.1253 9.92888 51.508 10.2399C50.9135 10.5287 50.4333 10.973 50.0674 11.5728C49.7245 12.1725 49.553 12.9167 49.553 13.8053V15.4714C49.553 16.3822 49.7245 17.1708 50.0674 17.8373C50.4333 18.4815 50.9135 18.9813 51.508 19.3367C52.1253 19.67 52.7999 19.8366 53.5316 19.8366Z" fill="#191919"/>
<path d="M30.0314 24.0684C28.728 24.0684 27.6076 23.8241 26.6701 23.3354C25.7555 22.8466 25.0581 22.1802 24.5779 21.336C24.0978 20.4697 23.8577 19.5145 23.8577 18.4704C23.8577 16.7154 24.4064 15.3714 25.504 14.4384C26.6244 13.5054 28.305 13.0389 30.5459 13.0389H35.6906V12.3058C35.6906 11.2395 35.4277 10.5065 34.9018 10.1066C34.3987 9.70673 33.6899 9.5068 32.7753 9.5068C31.9064 9.5068 31.2661 9.64009 30.8546 9.90666C30.443 10.151 30.2143 10.562 30.1686 11.1396H24.8866C24.9552 10.0733 25.2982 9.11805 25.9156 8.27389C26.5558 7.42974 27.459 6.76331 28.6252 6.27459C29.8142 5.78587 31.2547 5.5415 32.9468 5.5415C34.5474 5.5415 35.9536 5.77476 37.1655 6.24126C38.3774 6.70777 39.3148 7.46306 39.9779 8.50715C40.6639 9.52902 41.0069 10.9063 41.0069 12.6391V19.1368C41.0069 20.0698 41.0298 20.8918 41.0755 21.6026C41.1212 22.2913 41.1898 22.9688 41.2813 23.6353H36.2394C36.2165 23.2576 36.1822 22.9244 36.1365 22.6356C36.1137 22.3468 36.1022 21.9914 36.1022 21.5693C35.5534 22.2802 34.7874 22.88 33.8042 23.3687C32.8439 23.8352 31.5863 24.0684 30.0314 24.0684ZM31.7463 20.4364C32.5009 20.4364 33.1754 20.3031 33.7699 20.0365C34.3644 19.7699 34.8332 19.3701 35.1762 18.8369C35.5191 18.2815 35.6906 17.6595 35.6906 16.9709V16.2378H31.5748C30.7974 16.2378 30.2143 16.4377 29.8256 16.8376C29.4598 17.2375 29.2768 17.6929 29.2768 18.2038C29.2768 18.8702 29.4598 19.4145 29.8256 19.8366C30.2143 20.2364 30.8546 20.4364 31.7463 20.4364Z" fill="#191919"/>
<path d="M0.164062 23.6251V0.299805H6.33779V9.52995H8.05271L15.3926 0.299805H22.1151L12.8545 11.196L22.4581 23.6251H15.2554L8.05271 13.7285H6.33779V23.6251H0.164062Z" fill="#191919"/>
</svg>
