<svg width="138" height="26" viewBox="0 0 138 26" fill="none" xmlns="http://www.w3.org/2000/svg">
<path d="M120.459 24.8195V6.56885H125.618V17.5881L133.356 6.56885H137.999V24.8195H132.84V13.8003L125.102 24.8195H120.459Z" fill="#F1B8FF"/>
<path d="M91.4111 24.8195V6.56885H96.7077V12.4917H110.352C112.737 12.4917 114.537 12.9968 115.752 14.0069C116.967 15.017 117.575 16.5666 117.575 18.6556C117.575 19.8494 117.334 20.9169 116.853 21.8581C116.371 22.7993 115.603 23.534 114.548 24.062C113.494 24.567 112.095 24.8195 110.352 24.8195H91.4111ZM96.7077 20.825H109.664C110.605 20.825 111.269 20.6529 111.659 20.3085C112.072 19.9412 112.278 19.3902 112.278 18.6556C112.278 17.898 112.072 17.3471 111.659 17.0027C111.269 16.6584 110.605 16.4862 109.664 16.4862H96.7077V20.825Z" fill="#F1B8FF"/>
<path d="M77.7738 24.8195V10.9077H72.168V6.56885H88.6759V10.9077H83.0701V24.8195H77.7738Z" fill="#F1B8FF"/>
<path d="M59.2713 25.2573C57.9644 25.2573 56.8409 25.0048 55.9009 24.4998C54.9838 23.9947 54.2845 23.306 53.803 22.4336C53.3216 21.5383 53.0808 20.5512 53.0808 19.4722C53.0808 17.6586 53.6311 16.2697 54.7316 15.3055C55.8551 14.3414 57.5402 13.8593 59.7872 13.8593H64.9459V13.1017C64.9459 11.9998 64.6822 11.2422 64.1549 10.829C63.6505 10.4157 62.9397 10.2091 62.0226 10.2091C61.1513 10.2091 60.5094 10.3469 60.0967 10.6223C59.684 10.8749 59.4547 11.2996 59.4088 11.8965H54.1126C54.1813 10.7945 54.5253 9.80738 55.1443 8.93502C55.7863 8.06266 56.6919 7.37396 57.8612 6.86891C59.0535 6.36385 60.4979 6.11133 62.1946 6.11133C63.7995 6.11133 65.2095 6.35238 66.4247 6.83447C67.6399 7.31656 68.5799 8.0971 69.2448 9.17607C69.9326 10.2321 70.2766 11.6554 70.2766 13.446V20.1609C70.2766 21.1251 70.2995 21.9745 70.3453 22.7091C70.3912 23.4208 70.46 24.121 70.5517 24.8097H65.4961C65.4732 24.4194 65.4388 24.0751 65.393 23.7766C65.37 23.4782 65.3586 23.1109 65.3586 22.6747C64.8083 23.4093 64.0402 24.0291 63.0543 24.5342C62.0914 25.0163 60.8304 25.2573 59.2713 25.2573ZM60.9909 21.5039C61.7475 21.5039 62.4238 21.3662 63.0199 21.0907C63.6161 20.8152 64.0861 20.402 64.43 19.851C64.7739 19.2771 64.9459 18.6343 64.9459 17.9226V17.165H60.8189C60.0394 17.165 59.4547 17.3717 59.0649 17.7849C58.6981 18.1981 58.5147 18.6687 58.5147 19.1967C58.5147 19.8854 58.6981 20.4479 59.0649 20.8841C59.4547 21.2973 60.0967 21.5039 60.9909 21.5039Z" fill="#F1B8FF"/>
<path d="M35.6615 24.8195V10.9077H25.0559V6.56885H51.5636V10.9077H40.9581V24.8195H35.6615Z" fill="#F1B8FF"/>
<path d="M11.1778 25.2681C8.97665 25.2681 7.0277 24.8663 5.33096 24.0628C3.65715 23.2364 2.35021 21.9164 1.41012 20.1028C0.470042 18.2892 0 15.8902 0 12.9058V12.2515C0 10.1395 0.286611 8.32592 0.859832 6.81077C1.43305 5.29562 2.2241 4.05595 3.23297 3.09176C4.26477 2.12757 5.45707 1.41591 6.80987 0.956773C8.16267 0.497635 9.61866 0.268066 11.1778 0.268066C12.5765 0.268066 13.8949 0.428764 15.133 0.75016C16.3712 1.07156 17.4489 1.57661 18.366 2.26531C19.3061 2.95402 20.0628 3.84934 20.636 4.95126C21.2092 6.05319 21.5531 7.39617 21.6678 8.98019H15.2362C15.0299 7.71756 14.5484 6.81077 13.7917 6.2598C13.0351 5.70884 12.1638 5.43336 11.1778 5.43336C10.2607 5.43336 9.43523 5.66292 8.7015 6.12206C7.99071 6.55824 7.42895 7.2699 7.01623 8.25705C6.60351 9.24419 6.39715 10.5757 6.39715 12.2515V12.9747C6.39715 14.3062 6.52326 15.4311 6.77548 16.3493C7.0277 17.2676 7.37163 18.0022 7.80728 18.5532C8.26585 19.1042 8.78175 19.5059 9.35497 19.7584C9.9282 19.988 10.5358 20.1028 11.1778 20.1028C12.3472 20.1028 13.2758 19.8273 13.9637 19.2763C14.6745 18.7024 15.0987 17.7956 15.2362 16.5559H21.6678C21.5761 18.1629 21.2436 19.5289 20.6704 20.6537C20.1201 21.7557 19.3749 22.651 18.4348 23.3397C17.5176 24.0054 16.44 24.499 15.2018 24.8204C13.9637 25.1188 12.6223 25.2681 11.1778 25.2681Z" fill="#F1B8FF"/>
</svg>
