<svg width="184" height="30" viewBox="0 0 184 30" fill="none" xmlns="http://www.w3.org/2000/svg">
<path d="M156.536 23.3149V5.6543H161.681V16.3173L179.37 5.6543H184V23.3149H178.855V12.6519L161.167 23.3149H156.536Z" fill="#F1B8FF"/>
<path d="M135.141 23.3149V5.6543H140.423V12.3187H141.795L146.871 5.6543H152.634L145.945 13.9514L152.977 23.3149H146.734L141.795 16.3173H140.423V23.3149H135.141Z" fill="#F1B8FF"/>
<path d="M126.029 23.3149V17.117C125.503 17.4058 124.897 17.6724 124.212 17.9167C123.526 18.1611 122.622 18.2833 121.502 18.2833C119.215 18.2833 117.523 17.7501 116.426 16.6838C115.351 15.6175 114.814 13.9959 114.814 11.8188V5.6543H120.164V11.319C120.164 12.2964 120.37 12.9962 120.782 13.4183C121.216 13.8181 121.994 14.0181 123.114 14.0181C123.869 14.0181 124.497 13.9292 125 13.7515C125.503 13.5516 125.846 13.3627 126.029 13.185V5.6543H131.311V23.3149H126.029Z" fill="#F1B8FF"/>
<path d="M103.388 23.7686C101.696 23.7686 100.141 23.4465 98.7234 22.8023C97.3286 22.1581 96.2082 21.1584 95.3622 19.8033C94.539 18.426 94.1274 16.7155 94.1274 14.6718V14.0053C94.1274 12.0949 94.539 10.4954 95.3622 9.207C96.2082 7.89634 97.3286 6.90779 98.7234 6.24135C100.141 5.57492 101.696 5.2417 103.388 5.2417C105.103 5.2417 106.658 5.57492 108.053 6.24135C109.447 6.90779 110.556 7.89634 111.38 9.207C112.226 10.4954 112.649 12.0949 112.649 14.0053V14.6718C112.649 16.6933 112.226 18.3816 111.38 19.7367C110.556 21.0696 109.447 22.0803 108.053 22.769C106.658 23.4354 105.103 23.7686 103.388 23.7686ZM103.388 19.5034C104.211 19.5034 104.909 19.3146 105.48 18.937C106.052 18.5371 106.486 17.9706 106.784 17.2376C107.081 16.5045 107.229 15.6492 107.229 14.6718V14.0053C107.229 13.1168 107.081 12.3392 106.784 11.6728C106.486 11.0064 106.052 10.4843 105.48 10.1067C104.909 9.70682 104.211 9.50689 103.388 9.50689C102.565 9.50689 101.867 9.70682 101.296 10.1067C100.724 10.4843 100.29 11.0064 99.9925 11.6728C99.6952 12.3392 99.5466 13.1168 99.5466 14.0053V14.6718C99.5466 15.6936 99.6952 16.5711 99.9925 17.3042C100.29 18.0151 100.724 18.5593 101.296 18.937C101.867 19.3146 102.565 19.5034 103.388 19.5034Z" fill="#F1B8FF"/>
<path d="M75.4706 23.5458V10.0838H64.8943V5.88525H91.3289V10.0838H80.7526V23.5458H75.4706Z" fill="#F1B8FF"/>
<path d="M44.1069 29.9998V5.67488H48.9773V8.07405C49.4575 7.36319 50.1663 6.71897 51.1038 6.14139C52.0642 5.5416 53.2418 5.2417 54.6366 5.2417C57.1975 5.2417 59.1411 5.97478 60.4673 7.44094C61.7935 8.9071 62.4566 11.0952 62.4566 14.0053V14.6718C62.4566 16.6711 62.1365 18.3483 61.4963 19.7034C60.856 21.0362 59.9528 22.047 58.7867 22.7357C57.6205 23.4243 56.2372 23.7686 54.6366 23.7686C53.6076 23.7686 52.6244 23.5465 51.6869 23.1022C50.7723 22.6357 50.0063 21.9693 49.3889 21.1029V29.9998H44.1069ZM53.3675 19.5368C54.4193 19.5368 55.2882 19.1258 55.9742 18.3039C56.683 17.4597 57.0375 16.249 57.0375 14.6718V14.0053C57.0375 12.4725 56.6945 11.3396 56.0085 10.6065C55.3454 9.85122 54.4651 9.47357 53.3675 9.47357C52.6358 9.47357 51.9613 9.62907 51.3439 9.94008C50.7494 10.2289 50.2692 10.6732 49.9034 11.2729C49.5604 11.8727 49.3889 12.6169 49.3889 13.5055V15.1716C49.3889 16.0824 49.5604 16.871 49.9034 17.5375C50.2692 18.1817 50.7494 18.6815 51.3439 19.0369C51.9613 19.3702 52.6358 19.5368 53.3675 19.5368Z" fill="#F1B8FF"/>
<path d="M29.8673 23.7686C28.564 23.7686 27.4436 23.5243 26.5061 23.0356C25.5915 22.5468 24.8941 21.8804 24.4139 21.0362C23.9337 20.1699 23.6936 19.2147 23.6936 18.1706C23.6936 16.4156 24.2424 15.0716 25.3399 14.1386C26.4603 13.2056 28.141 12.7391 30.3818 12.7391H35.5266V12.006C35.5266 10.9397 35.2636 10.2067 34.7377 9.80679C34.2347 9.40693 33.5258 9.207 32.6112 9.207C31.7423 9.207 31.1021 9.34028 30.6905 9.60686C30.2789 9.85122 30.0503 10.2622 30.0045 10.8398H24.7226C24.7912 9.77347 25.1341 8.81824 25.7515 7.97409C26.3918 7.12994 27.2949 6.4635 28.4611 5.97478C29.6501 5.48606 31.0906 5.2417 32.7827 5.2417C34.3833 5.2417 35.7895 5.47495 37.0014 5.94146C38.2133 6.40796 39.1508 7.16326 39.8139 8.20734C40.4999 9.22921 40.8428 10.6065 40.8428 12.3392V18.837C40.8428 19.77 40.8657 20.592 40.9114 21.3028C40.9572 21.9915 41.0258 22.669 41.1172 23.3354H36.0754C36.0525 22.9578 36.0182 22.6246 35.9725 22.3358C35.9496 22.047 35.9382 21.6916 35.9382 21.2695C35.3894 21.9804 34.6234 22.5802 33.6402 23.0689C32.6798 23.5354 31.4222 23.7686 29.8673 23.7686ZM31.5823 20.1366C32.3368 20.1366 33.0114 20.0033 33.6059 19.7367C34.2004 19.4701 34.6691 19.0703 35.0121 18.5371C35.3551 17.9817 35.5266 17.3597 35.5266 16.6711V15.938H31.4108C30.6333 15.938 30.0503 16.1379 29.6615 16.5378C29.2957 16.9377 29.1128 17.3931 29.1128 17.904C29.1128 18.5704 29.2957 19.1147 29.6615 19.5368C30.0503 19.9366 30.6905 20.1366 31.5823 20.1366Z" fill="#F1B8FF"/>
<path d="M0 23.3253V0H6.17372V9.23015H7.88865L15.2285 0H21.951L12.6904 10.8962L22.294 23.3253H15.0913L7.88865 13.4287H6.17372V23.3253H0Z" fill="#F1B8FF"/>
</svg>
