<svg width="138" height="26" viewBox="0 0 138 26" fill="none" xmlns="http://www.w3.org/2000/svg">
<path d="M120.459 24.8513V6.60059H125.618V17.6199L133.356 6.60059H137.999V24.8513H132.84V13.832L125.102 24.8513H120.459Z" fill="#191919"/>
<path d="M91.4111 24.8513V6.60059H96.7077V12.5235H110.352C112.737 12.5235 114.537 13.0285 115.752 14.0386C116.967 15.0487 117.575 16.5983 117.575 18.6874C117.575 19.8811 117.334 20.9486 116.853 21.8898C116.371 22.8311 115.603 23.5657 114.548 24.0937C113.494 24.5987 112.095 24.8513 110.352 24.8513H91.4111ZM96.7077 20.8568H109.664C110.605 20.8568 111.269 20.6846 111.659 20.3403C112.072 19.9729 112.278 19.422 112.278 18.6874C112.278 17.9298 112.072 17.3788 111.659 17.0345C111.269 16.6901 110.605 16.5179 109.664 16.5179H96.7077V20.8568Z" fill="#191919"/>
<path d="M77.7738 24.8513V10.9394H72.168V6.60059H88.6759V10.9394H83.0701V24.8513H77.7738Z" fill="#191919"/>
<path d="M59.2713 25.2891C57.9644 25.2891 56.8409 25.0365 55.9009 24.5315C54.9838 24.0264 54.2845 23.3377 53.803 22.4654C53.3216 21.5701 53.0808 20.5829 53.0808 19.5039C53.0808 17.6904 53.6311 16.3015 54.7316 15.3373C55.8551 14.3731 57.5402 13.891 59.7872 13.891H64.9459V13.1334C64.9459 12.0315 64.6822 11.2739 64.1549 10.8607C63.6505 10.4475 62.9397 10.2409 62.0226 10.2409C61.1513 10.2409 60.5094 10.3786 60.0967 10.6541C59.684 10.9066 59.4547 11.3313 59.4088 11.9282H54.1126C54.1813 10.8263 54.5253 9.83912 55.1443 8.96676C55.7863 8.0944 56.6919 7.40569 57.8612 6.90064C59.0535 6.39559 60.4979 6.14307 62.1946 6.14307C63.7995 6.14307 65.2095 6.38411 66.4247 6.86621C67.6399 7.3483 68.5799 8.12883 69.2448 9.20781C69.9326 10.2638 70.2766 11.6871 70.2766 13.4778V20.1927C70.2766 21.1568 70.2995 22.0062 70.3453 22.7409C70.3912 23.4525 70.46 24.1527 70.5517 24.8414H65.4961C65.4732 24.4511 65.4388 24.1068 65.393 23.8084C65.37 23.5099 65.3586 23.1426 65.3586 22.7064C64.8083 23.441 64.0402 24.0609 63.0543 24.5659C62.0914 25.048 60.8304 25.2891 59.2713 25.2891ZM60.9909 21.5356C61.7475 21.5356 62.4238 21.3979 63.0199 21.1224C63.6161 20.8469 64.0861 20.4337 64.43 19.8827C64.7739 19.3088 64.9459 18.666 64.9459 17.9544V17.1968H60.8189C60.0394 17.1968 59.4547 17.4034 59.0649 17.8166C58.6981 18.2298 58.5147 18.7005 58.5147 19.2285C58.5147 19.9172 58.6981 20.4796 59.0649 20.9158C59.4547 21.329 60.0967 21.5356 60.9909 21.5356Z" fill="#191919"/>
<path d="M35.6615 24.8513V10.9394H25.0559V6.60059H51.5636V10.9394H40.9581V24.8513H35.6615Z" fill="#191919"/>
<path d="M11.1778 25.2998C8.97665 25.2998 7.0277 24.8981 5.33096 24.0946C3.65715 23.2681 2.35021 21.9481 1.41012 20.1345C0.470042 18.3209 0 15.9219 0 12.9375V12.2833C0 10.1712 0.286611 8.35766 0.859832 6.84251C1.43305 5.32735 2.2241 4.08768 3.23297 3.1235C4.26477 2.15931 5.45707 1.44765 6.80987 0.988511C8.16267 0.529373 9.61866 0.299805 11.1778 0.299805C12.5765 0.299805 13.8949 0.460503 15.133 0.781898C16.3712 1.10329 17.4489 1.60834 18.366 2.29705C19.3061 2.98576 20.0628 3.88107 20.636 4.983C21.2092 6.08493 21.5531 7.42791 21.6678 9.01193H15.2362C15.0299 7.7493 14.5484 6.84251 13.7917 6.29154C13.0351 5.74058 12.1638 5.4651 11.1778 5.4651C10.2607 5.4651 9.43523 5.69466 8.7015 6.1538C7.99071 6.58998 7.42895 7.30164 7.01623 8.28879C6.60351 9.27593 6.39715 10.6074 6.39715 12.2833V13.0064C6.39715 14.3379 6.52326 15.4628 6.77548 16.3811C7.0277 17.2993 7.37163 18.034 7.80728 18.5849C8.26585 19.1359 8.78175 19.5376 9.35497 19.7902C9.9282 20.0197 10.5358 20.1345 11.1778 20.1345C12.3472 20.1345 13.2758 19.859 13.9637 19.3081C14.6745 18.7342 15.0987 17.8274 15.2362 16.5877H21.6678C21.5761 18.1947 21.2436 19.5606 20.6704 20.6855C20.1201 21.7874 19.3749 22.6827 18.4348 23.3714C17.5176 24.0372 16.44 24.5308 15.2018 24.8521C13.9637 25.1506 12.6223 25.2998 11.1778 25.2998Z" fill="#191919"/>
</svg>
