<svg width="138" height="25" viewBox="0 0 138 25" fill="none" xmlns="http://www.w3.org/2000/svg">
<path d="M120.459 24.5515V6.30078H125.618V17.3201L133.356 6.30078H137.999V24.5515H132.84V13.5322L125.102 24.5515H120.459Z" fill="white"/>
<path d="M91.4111 24.5515V6.30078H96.7077V12.2236H110.352C112.737 12.2236 114.537 12.7287 115.752 13.7388C116.967 14.7489 117.575 16.2985 117.575 18.3876C117.575 19.5813 117.334 20.6488 116.853 21.59C116.371 22.5313 115.603 23.2659 114.548 23.7939C113.494 24.2989 112.095 24.5515 110.352 24.5515H91.4111ZM96.7077 20.557H109.664C110.605 20.557 111.269 20.3848 111.659 20.0404C112.072 19.6731 112.278 19.1222 112.278 18.3876C112.278 17.63 112.072 17.079 111.659 16.7347C111.269 16.3903 110.605 16.2181 109.664 16.2181H96.7077V20.557Z" fill="white"/>
<path d="M77.7738 24.5515V10.6396H72.168V6.30078H88.6759V10.6396H83.0701V24.5515H77.7738Z" fill="white"/>
<path d="M59.2713 24.9893C57.9644 24.9893 56.8409 24.7367 55.9009 24.2317C54.9838 23.7266 54.2845 23.0379 53.803 22.1656C53.3216 21.2703 53.0808 20.2831 53.0808 19.2041C53.0808 17.3906 53.6311 16.0017 54.7316 15.0375C55.8551 14.0733 57.5402 13.5912 59.7872 13.5912H64.9459V12.8336C64.9459 11.7317 64.6822 10.9741 64.1549 10.5609C63.6505 10.1477 62.9397 9.94106 62.0226 9.94106C61.1513 9.94106 60.5094 10.0788 60.0967 10.3543C59.684 10.6068 59.4547 11.0315 59.4088 11.6284H54.1126C54.1813 10.5265 54.5253 9.53931 55.1443 8.66695C55.7863 7.79459 56.6919 7.10589 57.8612 6.60084C59.0535 6.09579 60.4979 5.84326 62.1946 5.84326C63.7995 5.84326 65.2095 6.08431 66.4247 6.5664C67.6399 7.0485 68.5799 7.82903 69.2448 8.908C69.9326 9.96402 70.2766 11.3873 70.2766 13.178V19.8929C70.2766 20.857 70.2995 21.7064 70.3453 22.4411C70.3912 23.1527 70.46 23.8529 70.5517 24.5416H65.4961C65.4732 24.1513 65.4388 23.807 65.393 23.5086C65.37 23.2101 65.3586 22.8428 65.3586 22.4066C64.8083 23.1412 64.0402 23.7611 63.0543 24.2661C62.0914 24.7482 60.8304 24.9893 59.2713 24.9893ZM60.9909 21.2358C61.7475 21.2358 62.4238 21.0981 63.0199 20.8226C63.6161 20.5471 64.0861 20.1339 64.43 19.5829C64.7739 19.009 64.9459 18.3662 64.9459 17.6546V16.897H60.8189C60.0394 16.897 59.4547 17.1036 59.0649 17.5168C58.6981 17.93 58.5147 18.4007 58.5147 18.9287C58.5147 19.6174 58.6981 20.1798 59.0649 20.616C59.4547 21.0292 60.0967 21.2358 60.9909 21.2358Z" fill="white"/>
<path d="M35.6615 24.5515V10.6396H25.0559V6.30078H51.5636V10.6396H40.9581V24.5515H35.6615Z" fill="white"/>
<path d="M11.1778 25C8.97665 25 7.0277 24.5983 5.33096 23.7948C3.65715 22.9683 2.35021 21.6483 1.41012 19.8347C0.470042 18.0211 0 15.6221 0 12.6377V11.9835C0 9.87144 0.286611 8.05785 0.859832 6.5427C1.43305 5.02755 2.2241 3.78788 3.23297 2.82369C4.26477 1.85951 5.45707 1.14784 6.80987 0.688706C8.16267 0.229569 9.61866 0 11.1778 0C12.5765 0 13.8949 0.160698 15.133 0.482094C16.3712 0.803489 17.4489 1.30854 18.366 1.99725C19.3061 2.68595 20.0628 3.58127 20.636 4.6832C21.2092 5.78512 21.5531 7.1281 21.6678 8.71212H15.2362C15.0299 7.4495 14.5484 6.5427 13.7917 5.99174C13.0351 5.44077 12.1638 5.16529 11.1778 5.16529C10.2607 5.16529 9.43523 5.39486 8.7015 5.85399C7.99071 6.29017 7.42895 7.00184 7.01623 7.98898C6.60351 8.97613 6.39715 10.3076 6.39715 11.9835V12.7066C6.39715 14.0381 6.52326 15.163 6.77548 16.0813C7.0277 16.9995 7.37163 17.7342 7.80728 18.2851C8.26585 18.8361 8.78175 19.2378 9.35497 19.4904C9.9282 19.7199 10.5358 19.8347 11.1778 19.8347C12.3472 19.8347 13.2758 19.5592 13.9637 19.0083C14.6745 18.4343 15.0987 17.5276 15.2362 16.2879H21.6678C21.5761 17.8949 21.2436 19.2608 20.6704 20.3857C20.1201 21.4876 19.3749 22.3829 18.4348 23.0716C17.5176 23.7374 16.44 24.2309 15.2018 24.5523C13.9637 24.8508 12.6223 25 11.1778 25Z" fill="white"/>
</svg>
