<svg width="99" height="31" viewBox="0 0 99 31" fill="none" xmlns="http://www.w3.org/2000/svg">
<path d="M93.1865 23.6147V17.4168C92.6637 17.7056 92.0613 17.9722 91.3794 18.2165C90.6975 18.4609 89.7996 18.5831 88.6857 18.5831C86.4126 18.5831 84.7305 18.0499 83.6394 16.9836C82.571 15.9173 82.0369 14.2957 82.0369 12.1186V5.9541H87.356V11.6188C87.356 12.5963 87.5605 13.296 87.9697 13.7181C88.4016 14.1179 89.1745 14.3179 90.2883 14.3179C91.0384 14.3179 91.6635 14.229 92.1636 14.0513C92.6637 13.8514 93.0047 13.6625 93.1865 13.4848V5.9541H98.4374V23.6147H93.1865Z" fill="#191919"/>
<path d="M61.6042 30.2996V5.97469H66.446V8.37386C66.9233 7.66299 67.628 7.01877 68.56 6.44119C69.5147 5.8414 70.6854 5.5415 72.072 5.5415C74.6179 5.5415 76.55 6.27458 77.8684 7.74074C79.1868 9.20691 79.846 11.395 79.846 14.3051V14.9716C79.846 16.9709 79.5278 18.6481 78.8913 20.0032C78.2548 21.336 77.357 22.3468 76.1977 23.0355C75.0384 23.7241 73.6631 24.0684 72.072 24.0684C71.0491 24.0684 70.0716 23.8463 69.1396 23.402C68.2304 22.9355 67.4689 22.2691 66.8552 21.4027V30.2996H61.6042ZM70.8104 19.8366C71.856 19.8366 72.7198 19.4256 73.4017 18.6037C74.1064 17.7595 74.4587 16.5488 74.4587 14.9716V14.3051C74.4587 12.7723 74.1178 11.6394 73.4358 10.9063C72.7766 10.151 71.9015 9.77338 70.8104 9.77338C70.083 9.77338 69.4124 9.92888 68.7987 10.2399C68.2077 10.5287 67.7303 10.973 67.3666 11.5728C67.0256 12.1725 66.8552 12.9167 66.8552 13.8053V15.4714C66.8552 16.3822 67.0256 17.1708 67.3666 17.8373C67.7303 18.4815 68.2077 18.9813 68.7987 19.3367C69.4124 19.67 70.083 19.8366 70.8104 19.8366Z" fill="#191919"/>
<path d="M50.184 24.0684C48.411 24.0684 46.8198 23.7463 45.4104 23.1021C44.0011 22.4357 42.8759 21.4249 42.0349 20.0698C41.2165 18.7147 40.8074 17.0153 40.8074 14.9716V14.3051C40.8074 12.3503 41.2052 10.7286 42.0008 9.44016C42.7964 8.15171 43.8761 7.18538 45.24 6.54116C46.6266 5.87472 48.1609 5.5415 49.843 5.5415C52.8208 5.5415 55.0712 6.2968 56.5942 7.80739C58.1172 9.29576 58.8787 11.4617 58.8787 14.3051V16.1712H46.1947C46.2401 17.0375 46.4447 17.7595 46.8084 18.3371C47.1948 18.9147 47.6836 19.3367 48.2746 19.6033C48.8656 19.8477 49.5021 19.9699 50.184 19.9699C51.1842 19.9699 51.9684 19.8255 52.5367 19.5367C53.1277 19.2257 53.5141 18.8147 53.696 18.3038H58.5377C58.174 20.2364 57.2761 21.6804 55.8441 22.6356C54.412 23.5908 52.5253 24.0684 50.184 24.0684ZM50.0135 9.64009C49.377 9.64009 48.7747 9.74006 48.2064 9.93999C47.6381 10.1399 47.1721 10.4731 46.8084 10.9396C46.4674 11.3839 46.2742 11.9948 46.2288 12.7723H53.7301C53.7301 11.9504 53.5596 11.3173 53.2186 10.873C52.8776 10.4065 52.423 10.0844 51.8547 9.90666C51.3092 9.72895 50.6954 9.64009 50.0135 9.64009Z" fill="#191919"/>
<path d="M0.4375 23.6251V0.299805H6.71131L18.7781 12.1291L31.2723 0.299805H37.4098V23.6251H31.2723V9.02184L20.3806 19.1266H16.971L6.57492 9.02184V23.6251H0.4375Z" fill="#191919"/>
</svg>
