<svg width="138" height="26" viewBox="0 0 138 26" fill="none" xmlns="http://www.w3.org/2000/svg">
<path d="M120.459 24.7878V6.53711H125.618V17.5564L133.356 6.53711H137.999V24.7878H132.84V13.7685L125.102 24.7878H120.459Z" fill="#FF5C00"/>
<path d="M91.4111 24.7878V6.53711H96.7077V12.46H110.352C112.737 12.46 114.537 12.965 115.752 13.9751C116.967 14.9852 117.575 16.5348 117.575 18.6239C117.575 19.8176 117.334 20.8851 116.853 21.8264C116.371 22.7676 115.603 23.5022 114.548 24.0302C113.494 24.5353 112.095 24.7878 110.352 24.7878H91.4111ZM96.7077 20.7933H109.664C110.605 20.7933 111.269 20.6211 111.659 20.2768C112.072 19.9095 112.278 19.3585 112.278 18.6239C112.278 17.8663 112.072 17.3153 111.659 16.971C111.269 16.6266 110.605 16.4545 109.664 16.4545H96.7077V20.7933Z" fill="#FF5C00"/>
<path d="M77.7738 24.7878V10.876H72.168V6.53711H88.6759V10.876H83.0701V24.7878H77.7738Z" fill="#FF5C00"/>
<path d="M59.2713 25.2256C57.9644 25.2256 56.8409 24.9731 55.9009 24.468C54.9838 23.963 54.2845 23.2743 53.803 22.4019C53.3216 21.5066 53.0808 20.5194 53.0808 19.4405C53.0808 17.6269 53.6311 16.238 54.7316 15.2738C55.8551 14.3096 57.5402 13.8275 59.7872 13.8275H64.9459V13.0699C64.9459 11.968 64.6822 11.2104 64.1549 10.7972C63.6505 10.384 62.9397 10.1774 62.0226 10.1774C61.1513 10.1774 60.5094 10.3151 60.0967 10.5906C59.684 10.8431 59.4547 11.2678 59.4088 11.8647H54.1126C54.1813 10.7628 54.5253 9.77564 55.1443 8.90328C55.7863 8.03092 56.6919 7.34222 57.8612 6.83717C59.0535 6.33212 60.4979 6.07959 62.1946 6.07959C63.7995 6.07959 65.2095 6.32064 66.4247 6.80273C67.6399 7.28482 68.5799 8.06536 69.2448 9.14433C69.9326 10.2003 70.2766 11.6237 70.2766 13.4143V20.1292C70.2766 21.0934 70.2995 21.9428 70.3453 22.6774C70.3912 23.389 70.46 24.0892 70.5517 24.7779H65.4961C65.4732 24.3877 65.4388 24.0433 65.393 23.7449C65.37 23.4464 65.3586 23.0791 65.3586 22.643C64.8083 23.3776 64.0402 23.9974 63.0543 24.5025C62.0914 24.9845 60.8304 25.2256 59.2713 25.2256ZM60.9909 21.4722C61.7475 21.4722 62.4238 21.3344 63.0199 21.0589C63.6161 20.7834 64.0861 20.3702 64.43 19.8193C64.7739 19.2453 64.9459 18.6025 64.9459 17.8909V17.1333H60.8189C60.0394 17.1333 59.4547 17.3399 59.0649 17.7531C58.6981 18.1664 58.5147 18.637 58.5147 19.165C58.5147 19.8537 58.6981 20.4161 59.0649 20.8523C59.4547 21.2655 60.0967 21.4722 60.9909 21.4722Z" fill="#FF5C00"/>
<path d="M35.6615 24.7878V10.876H25.0559V6.53711H51.5636V10.876H40.9581V24.7878H35.6615Z" fill="#FF5C00"/>
<path d="M11.1778 25.2363C8.97665 25.2363 7.0277 24.8346 5.33096 24.0311C3.65715 23.2046 2.35021 21.8846 1.41012 20.071C0.470042 18.2575 0 15.8585 0 12.8741V12.2198C0 10.1078 0.286611 8.29418 0.859832 6.77903C1.43305 5.26388 2.2241 4.02421 3.23297 3.06002C4.26477 2.09583 5.45707 1.38417 6.80987 0.925034C8.16267 0.465897 9.61866 0.236328 11.1778 0.236328C12.5765 0.236328 13.8949 0.397026 15.133 0.718422C16.3712 1.03982 17.4489 1.54487 18.366 2.23357C19.3061 2.92228 20.0628 3.8176 20.636 4.91952C21.2092 6.02145 21.5531 7.36443 21.6678 8.94845H15.2362C15.0299 7.68582 14.5484 6.77903 13.7917 6.22806C13.0351 5.6771 12.1638 5.40162 11.1778 5.40162C10.2607 5.40162 9.43523 5.63119 8.7015 6.09032C7.99071 6.5265 7.42895 7.23816 7.01623 8.22531C6.60351 9.21245 6.39715 10.544 6.39715 12.2198V12.9429C6.39715 14.2744 6.52326 15.3993 6.77548 16.3176C7.0277 17.2359 7.37163 17.9705 7.80728 18.5215C8.26585 19.0724 8.78175 19.4742 9.35497 19.7267C9.9282 19.9563 10.5358 20.071 11.1778 20.071C12.3472 20.071 13.2758 19.7956 13.9637 19.2446C14.6745 18.6707 15.0987 17.7639 15.2362 16.5242H21.6678C21.5761 18.1312 21.2436 19.4971 20.6704 20.622C20.1201 21.7239 19.3749 22.6192 18.4348 23.308C17.5176 23.9737 16.44 24.4673 15.2018 24.7887C13.9637 25.0871 12.6223 25.2363 11.1778 25.2363Z" fill="#FF5C00"/>
</svg>
