<svg width="72" height="73" viewBox="0 0 72 73" fill="none" xmlns="http://www.w3.org/2000/svg">
<rect y="0.71582" width="72" height="72" rx="36" fill="#F1B8FF"/>
<path fill-rule="evenodd" clip-rule="evenodd" d="M13.7022 35.0899C25.0767 29.7723 32.649 26.2388 36.4513 24.5246C47.2734 19.6617 49.5483 18.8221 51.0108 18.7871C51.3358 18.7871 52.0508 18.8571 52.5382 19.2769C52.9282 19.6267 53.0257 20.0815 53.0907 20.4314C53.1557 20.7812 53.2207 21.5159 53.1557 22.0757C52.5707 28.7227 50.0358 44.8506 48.7359 52.2674C48.1834 55.416 47.1109 56.4655 46.071 56.5705C43.7961 56.7804 42.0736 54.9612 39.8962 53.4219C36.4513 51.0079 34.5339 49.5036 31.1865 47.1246C27.3192 44.3958 29.8216 42.8915 32.0315 40.4426C32.6165 39.8129 42.5936 30.0172 42.7886 29.1426C42.8211 29.0376 42.8211 28.6178 42.5936 28.4079C42.3661 28.198 42.0411 28.2679 41.7811 28.3379C41.4236 28.4079 35.9638 32.3262 25.3367 40.0578C23.7768 41.2122 22.3793 41.772 21.1119 41.737C19.7144 41.702 17.0495 40.8974 15.0346 40.1977C12.5972 39.3581 10.6473 38.9033 10.8098 37.4339C10.9073 36.6642 11.8822 35.8946 13.7022 35.0899Z" fill="#FF5C00"/>
</svg>
