<svg width="1023" height="80" viewBox="0 0 1023 80" fill="none" xmlns="http://www.w3.org/2000/svg">
<path d="M0 61.3363V0H15.7722V23.3078H64.0284V0H79.8005V61.3363H64.0284V36.276H15.7722V61.3363H0Z" fill="black"/>
<path d="M104.753 62.4754C101.423 62.4754 98.5606 61.8328 96.1655 60.5476C93.8289 59.2625 92.0473 57.51 90.8205 55.2903C89.5938 53.012 88.9804 50.5002 88.9804 47.7547C88.9804 43.1398 90.3824 39.6057 93.1864 37.1522C96.0487 34.6988 100.342 33.4721 106.067 33.4721H119.21V31.5444C119.21 28.7404 118.539 26.8127 117.195 25.7612C115.91 24.7097 114.099 24.184 111.762 24.184C109.543 24.184 107.907 24.5345 106.856 25.2355C105.804 25.8781 105.22 26.9587 105.103 28.4775H91.6091C91.7844 25.6736 92.6606 23.1617 94.2378 20.9419C95.8735 18.7222 98.1809 16.9697 101.16 15.6846C104.198 14.3994 107.878 13.7568 112.201 13.7568C116.29 13.7568 119.882 14.3702 122.978 15.5969C126.074 16.8237 128.469 18.8098 130.163 21.5553C131.916 24.2424 132.792 27.8642 132.792 32.4206V49.5071C132.792 51.9606 132.85 54.1219 132.967 55.9912C133.084 57.8021 133.259 59.5838 133.493 61.3363H120.612C120.554 60.3432 120.466 59.467 120.35 58.7076C120.291 57.9482 120.262 57.0135 120.262 55.9036C118.86 57.7729 116.903 59.3501 114.391 60.6353C111.938 61.862 108.725 62.4754 104.753 62.4754ZM109.134 52.9244C111.061 52.9244 112.785 52.5739 114.304 51.8729C115.822 51.172 117.02 50.1205 117.896 48.7185C118.772 47.2581 119.21 45.6225 119.21 43.8116V41.8839H108.696C106.71 41.8839 105.22 42.4096 104.227 43.4611C103.292 44.5126 102.825 45.7101 102.825 47.0537C102.825 48.8061 103.292 50.2373 104.227 51.3472C105.22 52.3987 106.856 52.9244 109.134 52.9244Z" fill="black"/>
<path d="M141.123 61.3363V14.8959H154.617V50.2957H166.797V14.8959H180.291V50.2957H192.47V14.8959H205.964V61.3363H141.123Z" fill="black"/>
<path d="M214.713 61.3363V14.8959H227.856V42.9354L247.572 14.8959H259.401V61.3363H246.257V33.2968L226.542 61.3363H214.713Z" fill="black"/>
<path d="M290.1 61.3363V14.8959H356.838V61.3363H343.344V25.9365H303.594V61.3363H290.1Z" fill="black"/>
<path d="M365.566 78.8609V14.8959H378.009V21.2048C379.235 19.3355 381.046 17.6415 383.441 16.1227C385.895 14.5455 388.903 13.7568 392.466 13.7568C399.009 13.7568 403.974 15.6846 407.362 19.54C410.75 23.3954 412.445 29.1493 412.445 36.8018V38.5542C412.445 43.8116 411.627 48.222 409.991 51.7853C408.355 55.2903 406.048 57.9482 403.069 59.759C400.09 61.5699 396.556 62.4754 392.466 62.4754C389.838 62.4754 387.326 61.8912 384.931 60.7229C382.594 59.4962 380.637 57.7437 379.06 55.4655V78.8609H365.566ZM389.224 51.3472C391.911 51.3472 394.131 50.2665 395.884 48.1052C397.695 45.8854 398.6 42.7017 398.6 38.5542V36.8018C398.6 32.7711 397.724 29.7919 395.971 27.8642C394.277 25.8781 392.028 24.885 389.224 24.885C387.355 24.885 385.632 25.2939 384.055 26.1117C382.536 26.8711 381.309 28.0394 380.374 29.6166C379.498 31.1939 379.06 33.1508 379.06 35.4874V39.8686C379.06 42.2636 379.498 44.3373 380.374 46.0898C381.309 47.7839 382.536 49.0982 384.055 50.0329C385.632 50.9091 387.355 51.3472 389.224 51.3472Z" fill="black"/>
<path d="M441.819 62.4754C437.262 62.4754 433.173 61.6283 429.552 59.9343C425.93 58.1818 423.038 55.5239 420.877 51.9606C418.774 48.3972 417.722 43.9284 417.722 38.5542V36.8018C417.722 31.6612 418.745 27.3969 420.789 24.0088C422.834 20.6207 425.609 18.0796 429.113 16.3855C432.677 14.6331 436.62 13.7568 440.943 13.7568C448.595 13.7568 454.378 15.743 458.292 19.7152C462.206 23.6291 464.163 29.3246 464.163 36.8018V41.7087H431.567C431.684 43.9869 432.209 45.8854 433.144 47.4042C434.137 48.923 435.393 50.0329 436.912 50.7338C438.431 51.3764 440.066 51.6977 441.819 51.6977C444.389 51.6977 446.404 51.318 447.865 50.5586C449.384 49.7408 450.377 48.6601 450.844 47.3165H463.287C462.352 52.3987 460.044 56.1957 456.364 58.7076C452.684 61.2194 447.836 62.4754 441.819 62.4754ZM441.381 24.5345C439.745 24.5345 438.197 24.7974 436.737 25.3231C435.276 25.8489 434.079 26.7251 433.144 27.9518C432.268 29.1201 431.771 30.7265 431.655 32.7711H450.932C450.932 30.6097 450.494 28.9449 449.617 27.7766C448.741 26.5498 447.573 25.7028 446.112 25.2355C444.71 24.7682 443.133 24.5345 441.381 24.5345Z" fill="black"/>
<path d="M471.159 61.3363V14.8959H484.302V44.2091L526.944 14.8959H538.773V61.3363H525.63V32.0231L482.988 61.3363H471.159Z" fill="black"/>
<path d="M547.567 61.3363V14.8959H563.952L574.993 37.9409L586.033 14.8959H601.893V61.3363H589.1V32.8587L579.111 52.5739H570.349L560.36 32.8587V61.3363H547.567Z" fill="black"/>
<path d="M619.832 80C618.956 80 618.079 79.9124 617.203 79.7371V68.5214C618.079 68.6966 618.956 68.7842 619.832 68.7842C621 68.7842 621.964 68.5214 622.723 67.9956C623.483 67.5283 624.155 66.7397 624.739 65.6298C625.381 64.5199 626.053 63.0595 626.754 61.2486L607.126 14.8959H622.022L633.589 45.8269L644.542 14.8959H657.948L640.248 61.3363C638.496 65.7174 636.831 69.2808 635.253 72.0263C633.676 74.8302 631.69 76.8456 629.295 78.0723C626.958 79.3574 623.804 80 619.832 80Z" fill="black"/>
<path d="M740.499 72.2892V61.3363H663.171V14.8959H676.665V50.2957H697.761V14.8959H711.255V50.2957H732.35V14.8959H745.844V50.2957H751.978V72.2892H740.499Z" fill="black"/>
<path d="M780.017 62.4754C775.461 62.4754 771.372 61.6283 767.75 59.9343C764.128 58.1818 761.237 55.5239 759.075 51.9606C756.972 48.3972 755.921 43.9284 755.921 38.5542V36.8018C755.921 31.6612 756.943 27.3969 758.988 24.0088C761.032 20.6207 763.807 18.0796 767.312 16.3855C770.875 14.6331 774.818 13.7568 779.141 13.7568C786.793 13.7568 792.577 15.743 796.49 19.7152C800.404 23.6291 802.361 29.3246 802.361 36.8018V41.7087H769.765C769.882 43.9869 770.408 45.8854 771.342 47.4042C772.336 48.923 773.591 50.0329 775.11 50.7338C776.629 51.3764 778.265 51.6977 780.017 51.6977C782.587 51.6977 784.603 51.318 786.063 50.5586C787.582 49.7408 788.575 48.6601 789.042 47.3165H801.485C800.55 52.3987 798.243 56.1957 794.563 58.7076C790.883 61.2194 786.034 62.4754 780.017 62.4754ZM779.579 24.5345C777.943 24.5345 776.395 24.7974 774.935 25.3231C773.475 25.8489 772.277 26.7251 771.342 27.9518C770.466 29.1201 769.97 30.7265 769.853 32.7711H789.13C789.13 30.6097 788.692 28.9449 787.816 27.7766C786.939 26.5498 785.771 25.7028 784.311 25.2355C782.909 24.7682 781.332 24.5345 779.579 24.5345Z" fill="black"/>
<path d="M831.263 62.4754C826.707 62.4754 822.647 61.5991 819.083 59.8467C815.52 58.0942 812.716 55.4363 810.672 51.8729C808.627 48.3096 807.605 43.87 807.605 38.5542V36.8018C807.605 31.8949 808.656 27.7181 810.759 24.2716C812.921 20.8251 815.783 18.2256 819.346 16.4732C822.968 14.6623 826.94 13.7568 831.263 13.7568C835.936 13.7568 839.85 14.5747 843.005 16.2103C846.159 17.7875 848.583 19.9197 850.277 22.6068C851.971 25.2939 852.935 28.2731 853.169 31.5444H839.237C838.828 29.4414 837.981 27.835 836.696 26.7251C835.469 25.5568 833.658 24.9726 831.263 24.9726C829.394 24.9726 827.7 25.4107 826.181 26.287C824.721 27.1632 823.552 28.4775 822.676 30.23C821.858 31.9241 821.449 34.1146 821.449 36.8018V38.5542C821.449 41.4166 821.858 43.7824 822.676 45.6517C823.494 47.521 824.633 48.923 826.093 49.8576C827.554 50.7338 829.277 51.172 831.263 51.172C833.308 51.172 835.031 50.6462 836.433 49.5947C837.893 48.4849 838.828 46.8492 839.237 44.6878H853.169C852.935 48.3096 851.884 51.464 850.015 54.1512C848.145 56.8383 845.604 58.912 842.391 60.3724C839.237 61.7744 835.527 62.4754 831.263 62.4754Z" fill="black"/>
<path d="M871.412 61.3363V25.9365H857.129V14.8959H899.188V25.9365H884.906V61.3363H871.412Z" fill="black"/>
<path d="M905.281 61.3363V14.8959H953.092C957.182 14.8959 960.482 15.4509 962.994 16.5608C965.506 17.6123 967.346 19.0727 968.514 20.9419C969.682 22.7528 970.267 24.8266 970.267 27.1632C970.267 29.3246 969.624 31.3983 968.339 33.3844C967.054 35.3122 965.214 36.5681 962.819 37.1522C965.681 37.8532 967.93 39.1968 969.566 41.1829C971.201 43.169 972.019 45.4765 972.019 48.1052C972.019 52.1358 970.588 55.3487 967.726 57.7437C964.863 60.1387 960.57 61.3363 954.845 61.3363H905.281ZM918.775 51.172H951.428C953.823 51.172 955.604 50.8215 956.773 50.1205C957.941 49.4195 958.525 48.3388 958.525 46.8784C958.525 45.418 957.941 44.3373 956.773 43.6364C955.604 42.877 953.823 42.4973 951.428 42.4973H918.775V51.172ZM918.775 33.034H950.727C953.122 33.034 954.728 32.6835 955.546 31.9825C956.364 31.2231 956.773 30.23 956.773 29.0033C956.773 27.7766 956.335 26.8127 955.458 26.1117C954.582 25.4107 953.005 25.0602 950.727 25.0602H918.775V33.034Z" fill="black"/>
<path d="M993.494 62.4754C990.164 62.4754 987.302 61.8328 984.907 60.5476C982.57 59.2625 980.788 57.51 979.561 55.2903C978.335 53.012 977.721 50.5002 977.721 47.7547C977.721 43.1398 979.123 39.6057 981.927 37.1522C984.79 34.6988 989.083 33.4721 994.808 33.4721H1007.95V31.5444C1007.95 28.7404 1007.28 26.8127 1005.94 25.7612C1004.65 24.7097 1002.84 24.184 1000.5 24.184C998.284 24.184 996.648 24.5345 995.597 25.2355C994.545 25.8781 993.961 26.9587 993.844 28.4775H980.35C980.525 25.6736 981.402 23.1617 982.979 20.9419C984.614 18.7222 986.922 16.9697 989.901 15.6846C992.939 14.3994 996.619 13.7568 1000.94 13.7568C1005.03 13.7568 1008.62 14.3702 1011.72 15.5969C1014.82 16.8237 1017.21 18.8098 1018.9 21.5553C1020.66 24.2424 1021.53 27.8642 1021.53 32.4206V49.5071C1021.53 51.9606 1021.59 54.1219 1021.71 55.9912C1021.83 57.8021 1022 59.5838 1022.23 61.3363H1009.35C1009.3 60.3432 1009.21 59.467 1009.09 58.7076C1009.03 57.9482 1009 57.0135 1009 55.9036C1007.6 57.7729 1005.64 59.3501 1003.13 60.6353C1000.68 61.862 997.466 62.4754 993.494 62.4754ZM997.875 52.9244C999.802 52.9244 1001.53 52.5739 1003.04 51.8729C1004.56 51.172 1005.76 50.1205 1006.64 48.7185C1007.51 47.2581 1007.95 45.6225 1007.95 43.8116V41.8839H997.437C995.451 41.8839 993.961 42.4096 992.968 43.4611C992.033 44.5126 991.566 45.7101 991.566 47.0537C991.566 48.8061 992.033 50.2373 992.968 51.3472C993.961 52.3987 995.597 52.9244 997.875 52.9244Z" fill="black"/>
</svg>
