<svg width="105" height="25" viewBox="0 0 105 25" fill="none" xmlns="http://www.w3.org/2000/svg">
<path d="M95.6379 24.9893C93.8384 24.9893 92.2351 24.6449 90.8279 23.9562C89.4206 23.2675 88.3133 22.223 87.5058 20.8226C86.6984 19.4222 86.2947 17.6775 86.2947 15.5884V14.8997C86.2947 12.9714 86.7099 11.3299 87.5404 9.9755C88.394 8.62104 89.5244 7.59946 90.9317 6.91076C92.362 6.19909 93.9307 5.84326 95.6379 5.84326C97.4834 5.84326 99.0291 6.16466 100.275 6.80745C101.521 7.42728 102.478 8.26521 103.147 9.32122C103.816 10.3772 104.197 11.548 104.289 12.8336H98.7869C98.6254 12.0072 98.2909 11.3759 97.7833 10.9397C97.2989 10.4805 96.5837 10.251 95.6379 10.251C94.8996 10.251 94.2306 10.4232 93.6308 10.7675C93.0541 11.1119 92.5927 11.6284 92.2466 12.3171C91.9237 12.9828 91.7622 13.8437 91.7622 14.8997V15.5884C91.7622 16.7133 91.9237 17.6431 92.2466 18.3777C92.5696 19.1123 93.0195 19.6633 93.5962 20.0306C94.1729 20.3749 94.8535 20.5471 95.6379 20.5471C96.4453 20.5471 97.1259 20.3405 97.6795 19.9273C98.2563 19.4911 98.6254 18.8483 98.7869 17.9989H104.289C104.197 19.4222 103.781 20.6619 103.043 21.7179C102.305 22.7739 101.301 23.5889 100.033 24.1628C98.7869 24.7138 97.3219 24.9893 95.6379 24.9893Z" fill="white"/>
<path d="M72.6277 24.9893C71.3128 24.9893 70.1823 24.7367 69.2365 24.2317C68.3137 23.7266 67.6101 23.0379 67.1256 22.1656C66.6412 21.2703 66.3989 20.2831 66.3989 19.2041C66.3989 17.3906 66.9526 16.0017 68.0599 15.0375C69.1903 14.0733 70.886 13.5912 73.1468 13.5912H78.3374V12.8336C78.3374 11.7317 78.0721 10.9741 77.5415 10.5609C77.034 10.1477 76.3188 9.94106 75.3961 9.94106C74.5194 9.94106 73.8735 10.0788 73.4582 10.3543C73.043 10.6068 72.8123 11.0315 72.7661 11.6284H67.4371C67.5063 10.5265 67.8523 9.53931 68.4752 8.66695C69.1211 7.79459 70.0324 7.10589 71.2089 6.60084C72.4086 6.09579 73.8619 5.84326 75.5691 5.84326C77.184 5.84326 78.6027 6.08431 79.8254 6.5664C81.0481 7.0485 81.994 7.82903 82.663 8.908C83.3551 9.96402 83.7011 11.3873 83.7011 13.178V19.8929C83.7011 20.857 83.7242 21.7064 83.7703 22.4411C83.8165 23.1527 83.8857 23.8529 83.978 24.5416H78.8911C78.868 24.1513 78.8334 23.807 78.7873 23.5086C78.7642 23.2101 78.7527 22.8428 78.7527 22.4066C78.199 23.1412 77.4262 23.7611 76.4342 24.2661C75.4653 24.7482 74.1964 24.9893 72.6277 24.9893ZM74.3579 21.2358C75.1192 21.2358 75.7998 21.0981 76.3996 20.8226C76.9994 20.5471 77.4723 20.1339 77.8184 19.5829C78.1644 19.009 78.3374 18.3662 78.3374 17.6546V16.897H74.1849C73.4005 16.897 72.8123 17.1036 72.4201 17.5168C72.051 17.93 71.8664 18.4007 71.8664 18.9287C71.8664 19.6174 72.051 20.1798 72.4201 20.616C72.8123 21.0292 73.4582 21.2358 74.3579 21.2358Z" fill="white"/>
<path d="M35.7258 24.5515V6.30078H41.0549V13.0845H58.1053V6.30078H63.4344V24.5515H58.1053V17.4234H41.0549V24.5515H35.7258Z" fill="white"/>
<path d="M12.0546 25C10.4858 25 8.9863 24.7704 7.55598 24.3113C6.12567 23.8522 4.86838 23.129 3.78411 22.1419C2.69983 21.1547 1.84626 19.8806 1.22338 18.3196C0.600502 16.7355 0.289062 14.8531 0.289062 12.6722V11.9835C0.289062 9.87144 0.600502 8.05785 1.22338 6.5427C1.84626 5.02755 2.69983 3.78788 3.78411 2.82369C4.86838 1.85951 6.12567 1.14784 7.55598 0.688706C8.9863 0.229569 10.4858 0 12.0546 0C13.6694 0 15.1805 0.229569 16.5877 0.688706C17.995 1.14784 19.2407 1.85951 20.325 2.82369C21.4093 3.78788 22.2628 5.02755 22.8857 6.5427C23.5086 8.05785 23.82 9.87144 23.82 11.9835V12.6722C23.82 14.8531 23.5086 16.7355 22.8857 18.3196C22.2628 19.8806 21.4093 21.1547 20.325 22.1419C19.2407 23.129 17.995 23.8522 16.5877 24.3113C15.1805 24.7704 13.6694 25 12.0546 25ZM12.0199 19.8347C12.9658 19.8347 13.8424 19.6281 14.6499 19.2149C15.4573 18.7787 16.1033 18.0556 16.5877 17.0455C17.0953 16.0124 17.349 14.5546 17.349 12.6722V11.9835C17.349 10.1928 17.0953 8.80395 16.5877 7.81681C16.1033 6.82966 15.4573 6.14096 14.6499 5.75069C13.8424 5.36042 12.9658 5.16529 12.0199 5.16529C11.1202 5.16529 10.2667 5.36042 9.45922 5.75069C8.65179 6.14096 7.9943 6.82966 7.48677 7.81681C6.97924 8.80395 6.72548 10.1928 6.72548 11.9835V12.6722C6.72548 14.5546 6.97924 16.0124 7.48677 17.0455C7.9943 18.0556 8.65179 18.7787 9.45922 19.2149C10.2667 19.6281 11.1202 19.8347 12.0199 19.8347Z" fill="white"/>
</svg>
