<svg width="821" height="70" viewBox="0 0 821 70" fill="none" xmlns="http://www.w3.org/2000/svg">
<path d="M782.367 54.4448V15.2386H793.463V38.9103L810.107 15.2386H820.094V54.4448H808.998V30.7732L792.354 54.4448H782.367ZM801.231 11.244C796.398 11.244 792.97 10.307 790.948 8.43303C788.926 6.55902 787.915 3.74801 787.915 0H797.976C797.976 1.72606 798.247 2.90964 798.789 3.55075C799.332 4.19186 800.146 4.51241 801.231 4.51241C802.315 4.51241 803.129 4.19186 803.672 3.55075C804.214 2.90964 804.485 1.72606 804.485 0H814.546C814.546 3.74801 813.535 6.55902 811.513 8.43303C809.491 10.307 806.063 11.244 801.231 11.244Z" fill="black"/>
<path d="M757.601 55.4107C753.754 55.4107 750.302 54.6957 747.244 53.2655C744.187 51.786 741.746 49.5422 739.921 46.5339C738.145 43.5256 737.258 39.7529 737.258 35.2159V33.7364C737.258 29.3966 738.121 25.7965 739.847 22.9362C741.573 20.0759 743.915 17.9306 746.874 16.5005C749.883 15.021 753.211 14.2812 756.861 14.2812C763.321 14.2812 768.204 15.958 771.508 19.3115C774.812 22.6156 776.464 27.424 776.464 33.7364V37.8789H748.946C749.044 39.8023 749.488 41.405 750.277 42.6872C751.116 43.9694 752.176 44.9065 753.458 45.4982C754.74 46.0407 756.121 46.312 757.601 46.312C759.771 46.312 761.472 45.9914 762.705 45.3503C763.987 44.6599 764.825 43.7475 765.22 42.6133H775.724C774.935 46.9037 772.987 50.1093 769.88 52.2299C766.773 54.3505 762.68 55.4107 757.601 55.4107ZM757.231 23.38C755.85 23.38 754.543 23.602 753.31 24.0458C752.077 24.4897 751.066 25.2294 750.277 26.265C749.537 27.2513 749.118 28.6075 749.02 30.3336H765.294C765.294 28.5089 764.924 27.1034 764.184 26.1171C763.445 25.0814 762.458 24.3664 761.225 23.9718C760.042 23.5773 758.71 23.38 757.231 23.38Z" fill="black"/>
<path d="M671.203 54.4484V15.2422H682.595V27.9657H716.244C721.372 27.9657 725.244 29.0507 727.857 31.2206C730.471 33.3905 731.778 36.7193 731.778 41.207C731.778 43.7715 731.26 46.0647 730.225 48.0866C729.189 50.1086 727.537 51.6867 725.268 52.8209C723 53.9059 719.992 54.4484 716.244 54.4484H671.203ZM682.595 45.8674H714.764C716.786 45.8674 718.216 45.4975 719.054 44.7578C719.942 43.9687 720.386 42.7851 720.386 41.207C720.386 39.5796 719.942 38.396 719.054 37.6563C718.216 36.9165 716.786 36.5467 714.764 36.5467H682.595V45.8674Z" fill="black"/>
<path d="M617.219 54.4484V15.2422H631.052L640.373 34.6973L649.693 15.2422H663.083V54.4484H652.282V30.4068L643.849 47.051H636.452L628.019 30.4068V54.4484H617.219Z" fill="black"/>
<path d="M592.452 55.4107C588.606 55.4107 585.153 54.6957 582.096 53.2655C579.038 51.786 576.597 49.5422 574.772 46.5339C572.997 43.5256 572.109 39.7529 572.109 35.2159V33.7364C572.109 29.3966 572.972 25.7965 574.698 22.9362C576.425 20.0759 578.767 17.9306 581.726 16.5005C584.734 15.021 588.063 14.2812 591.712 14.2812C598.173 14.2812 603.055 15.958 606.359 19.3115C609.663 22.6156 611.316 27.424 611.316 33.7364V37.8789H583.797C583.896 39.8023 584.34 41.405 585.129 42.6872C585.967 43.9694 587.027 44.9065 588.31 45.4982C589.592 46.0407 590.973 46.312 592.452 46.312C594.622 46.312 596.323 45.9914 597.556 45.3503C598.839 44.6599 599.677 43.7475 600.071 42.6133H610.576C609.787 46.9037 607.839 50.1093 604.732 52.2299C601.625 54.3505 597.532 55.4107 592.452 55.4107ZM592.082 23.38C590.701 23.38 589.395 23.602 588.162 24.0458C586.929 24.4897 585.918 25.2294 585.129 26.265C584.389 27.2513 583.97 28.6075 583.871 30.3336H600.145C600.145 28.5089 599.776 27.1034 599.036 26.1171C598.296 25.0814 597.31 24.3664 596.077 23.9718C594.893 23.5773 593.562 23.38 592.082 23.38Z" fill="black"/>
<path d="M549.535 55.4107C545.689 55.4107 542.261 54.671 539.253 53.1915C536.245 51.7121 533.878 49.4682 532.152 46.4599C530.426 43.4516 529.562 39.7036 529.562 35.2159V33.7364C529.562 29.5939 530.45 26.0678 532.226 23.1581C534.05 20.2485 536.467 18.0539 539.475 16.5744C542.533 15.0456 545.886 14.2812 549.535 14.2812C553.481 14.2812 556.785 14.9717 559.448 16.3525C562.111 17.6841 564.158 19.4841 565.588 21.7526C567.018 24.0211 567.832 26.5363 568.029 29.298H556.267C555.922 27.5226 555.207 26.1664 554.122 25.2294C553.086 24.2431 551.557 23.7499 549.535 23.7499C547.957 23.7499 546.527 24.1198 545.245 24.8595C544.012 25.5993 543.026 26.7089 542.286 28.1884C541.596 29.6185 541.25 31.4679 541.25 33.7364V35.2159C541.25 37.6324 541.596 39.6297 542.286 41.2078C542.976 42.7859 543.938 43.9694 545.171 44.7585C546.404 45.4982 547.859 45.8681 549.535 45.8681C551.262 45.8681 552.716 45.4243 553.9 44.5366C555.133 43.5996 555.922 42.2187 556.267 40.394H568.029C567.832 43.4516 566.944 46.1147 565.366 48.3832C563.788 50.6518 561.643 52.4025 558.93 53.6354C556.267 54.819 553.136 55.4107 549.535 55.4107Z" fill="black"/>
<path d="M488.481 55.4107C484.634 55.4107 481.207 54.671 478.198 53.1915C475.19 51.7121 472.823 49.4682 471.097 46.4599C469.371 43.4516 468.508 39.7036 468.508 35.2159V33.7364C468.508 29.5939 469.396 26.0678 471.171 23.1581C472.996 20.2485 475.412 18.0539 478.42 16.5744C481.478 15.0456 484.831 14.2812 488.481 14.2812C492.426 14.2812 495.73 14.9717 498.393 16.3525C501.056 17.6841 503.103 19.4841 504.533 21.7526C505.963 24.0211 506.777 26.5363 506.974 29.298H495.212C494.867 27.5226 494.152 26.1664 493.067 25.2294C492.032 24.2431 490.503 23.7499 488.481 23.7499C486.903 23.7499 485.472 24.1198 484.19 24.8595C482.957 25.5993 481.971 26.7089 481.231 28.1884C480.541 29.6185 480.196 31.4679 480.196 33.7364V35.2159C480.196 37.6324 480.541 39.6297 481.231 41.2078C481.922 42.7859 482.883 43.9694 484.116 44.7585C485.349 45.4982 486.804 45.8681 488.481 45.8681C490.207 45.8681 491.662 45.4243 492.845 44.5366C494.078 43.5996 494.867 42.2187 495.212 40.394H506.974C506.777 43.4516 505.889 46.1147 504.311 48.3832C502.733 50.6518 500.588 52.4025 497.875 53.6354C495.212 54.819 492.081 55.4107 488.481 55.4107Z" fill="black"/>
<path d="M427.434 55.4107C423.587 55.4107 420.16 54.671 417.152 53.1915C414.143 51.7121 411.776 49.4682 410.05 46.4599C408.324 43.4516 407.461 39.7036 407.461 35.2159V33.7364C407.461 29.5939 408.349 26.0678 410.124 23.1581C411.949 20.2485 414.365 18.0539 417.373 16.5744C420.431 15.0456 423.785 14.2812 427.434 14.2812C431.379 14.2812 434.683 14.9717 437.346 16.3525C440.009 17.6841 442.056 19.4841 443.486 21.7526C444.916 24.0211 445.73 26.5363 445.927 29.298H434.166C433.82 27.5226 433.105 26.1664 432.02 25.2294C430.985 24.2431 429.456 23.7499 427.434 23.7499C425.856 23.7499 424.426 24.1198 423.143 24.8595C421.911 25.5993 420.924 26.7089 420.184 28.1884C419.494 29.6185 419.149 31.4679 419.149 33.7364V35.2159C419.149 37.6324 419.494 39.6297 420.184 41.2078C420.875 42.7859 421.837 43.9694 423.069 44.7585C424.302 45.4982 425.757 45.8681 427.434 45.8681C429.16 45.8681 430.615 45.4243 431.798 44.5366C433.031 43.5996 433.82 42.2187 434.166 40.394H445.927C445.73 43.4516 444.842 46.1147 443.264 48.3832C441.686 50.6518 439.541 52.4025 436.829 53.6354C434.166 54.819 431.034 55.4107 427.434 55.4107Z" fill="black"/>
<path d="M384.879 55.4107C381.033 55.4107 377.605 54.671 374.597 53.1915C371.589 51.7121 369.221 49.4682 367.495 46.4599C365.769 43.4516 364.906 39.7036 364.906 35.2159V33.7364C364.906 29.5939 365.794 26.0678 367.569 23.1581C369.394 20.2485 371.81 18.0539 374.819 16.5744C377.876 15.0456 381.23 14.2812 384.879 14.2812C388.824 14.2812 392.129 14.9717 394.792 16.3525C397.455 17.6841 399.501 19.4841 400.932 21.7526C402.362 24.0211 403.175 26.5363 403.373 29.298H391.611C391.266 27.5226 390.551 26.1664 389.466 25.2294C388.43 24.2431 386.901 23.7499 384.879 23.7499C383.301 23.7499 381.871 24.1198 380.589 24.8595C379.356 25.5993 378.37 26.7089 377.63 28.1884C376.939 29.6185 376.594 31.4679 376.594 33.7364V35.2159C376.594 37.6324 376.939 39.6297 377.63 41.2078C378.32 42.7859 379.282 43.9694 380.515 44.7585C381.748 45.4982 383.202 45.8681 384.879 45.8681C386.605 45.8681 388.06 45.4243 389.244 44.5366C390.477 43.5996 391.266 42.2187 391.611 40.394H403.373C403.175 43.4516 402.288 46.1147 400.71 48.3832C399.132 50.6518 396.986 52.4025 394.274 53.6354C391.611 54.819 388.479 55.4107 384.879 55.4107Z" fill="black"/>
<path d="M340.543 55.4107C336.894 55.4107 333.54 54.6957 330.483 53.2655C327.475 51.8353 325.058 49.6161 323.233 46.6079C321.458 43.5503 320.57 39.7529 320.57 35.2159V33.7364C320.57 29.4952 321.458 25.9445 323.233 23.0841C325.058 20.1745 327.475 17.9799 330.483 16.5005C333.54 15.021 336.894 14.2812 340.543 14.2812C344.242 14.2812 347.595 15.021 350.604 16.5005C353.612 17.9799 356.004 20.1745 357.779 23.0841C359.604 25.9445 360.516 29.4952 360.516 33.7364V35.2159C360.516 39.7036 359.604 43.4516 357.779 46.4599C356.004 49.4189 353.612 51.6627 350.604 53.1915C347.595 54.671 344.242 55.4107 340.543 55.4107ZM340.543 45.9421C342.319 45.9421 343.823 45.5229 345.056 44.6845C346.289 43.7968 347.226 42.5393 347.867 40.9119C348.508 39.2844 348.828 37.3858 348.828 35.2159V33.7364C348.828 31.7638 348.508 30.0377 347.867 28.5582C347.226 27.0787 346.289 25.9198 345.056 25.0814C343.823 24.1938 342.319 23.7499 340.543 23.7499C338.768 23.7499 337.264 24.1938 336.031 25.0814C334.798 25.9198 333.861 27.0787 333.22 28.5582C332.579 30.0377 332.258 31.7638 332.258 33.7364V35.2159C332.258 37.4844 332.579 39.4324 333.22 41.0598C333.861 42.6379 334.798 43.8462 336.031 44.6845C337.264 45.5229 338.768 45.9421 340.543 45.9421Z" fill="black"/>
<path d="M276.539 69.2439V15.2429H287.043V20.569C288.079 18.9909 289.608 17.5608 291.63 16.2785C293.701 14.947 296.241 14.2812 299.249 14.2812C304.772 14.2812 308.964 15.9087 311.825 19.1635C314.685 22.4184 316.115 27.276 316.115 33.7364V35.2159C316.115 39.6543 315.425 43.3777 314.044 46.3859C312.663 49.3449 310.715 51.5888 308.2 53.1176C305.685 54.6464 302.701 55.4108 299.249 55.4108C297.03 55.4108 294.909 54.9176 292.887 53.9313C290.915 52.8956 289.263 51.4162 287.931 49.4928V69.2439H276.539ZM296.512 46.0161C298.781 46.0161 300.655 45.1037 302.134 43.279C303.663 41.405 304.427 38.7173 304.427 35.2159V33.7364C304.427 30.3336 303.687 27.8185 302.208 26.1911C300.778 24.5143 298.879 23.6759 296.512 23.6759C294.934 23.6759 293.479 24.0212 292.148 24.7116C290.865 25.3527 289.83 26.339 289.041 27.6705C288.301 29.0021 287.931 30.6541 287.931 32.6268V36.3255C287.931 38.3474 288.301 40.0982 289.041 41.5776C289.83 43.0078 290.865 44.1174 292.148 44.9065C293.479 45.6462 294.934 46.0161 296.512 46.0161Z" fill="black"/>
<path d="M233.617 54.4484V15.2422H245.009V30.037H247.968L258.916 15.2422H271.344L256.919 33.6617L272.084 54.4484H258.62L247.968 38.9138H245.009V54.4484H233.617Z" fill="black"/>
<path d="M207.77 55.4107C204.12 55.4107 200.767 54.6957 197.709 53.2655C194.701 51.8353 192.285 49.6161 190.46 46.6079C188.685 43.5503 187.797 39.7529 187.797 35.2159V33.7364C187.797 29.4952 188.685 25.9445 190.46 23.0841C192.285 20.1745 194.701 17.9799 197.709 16.5005C200.767 15.021 204.12 14.2812 207.77 14.2812C211.469 14.2812 214.822 15.021 217.83 16.5005C220.839 17.9799 223.23 20.1745 225.006 23.0841C226.83 25.9445 227.743 29.4952 227.743 33.7364V35.2159C227.743 39.7036 226.83 43.4516 225.006 46.4599C223.23 49.4189 220.839 51.6627 217.83 53.1915C214.822 54.671 211.469 55.4107 207.77 55.4107ZM207.77 45.9421C209.545 45.9421 211.049 45.5229 212.282 44.6845C213.515 43.7968 214.452 42.5393 215.093 40.9119C215.734 39.2844 216.055 37.3858 216.055 35.2159V33.7364C216.055 31.7638 215.734 30.0377 215.093 28.5582C214.452 27.0787 213.515 25.9198 212.282 25.0814C211.049 24.1938 209.545 23.7499 207.77 23.7499C205.994 23.7499 204.49 24.1938 203.257 25.0814C202.025 25.9198 201.088 27.0787 200.446 28.5582C199.805 30.0377 199.485 31.7638 199.485 33.7364V35.2159C199.485 37.4844 199.805 39.4324 200.446 41.0598C201.088 42.6379 202.025 43.8462 203.257 44.6845C204.49 45.5229 205.994 45.9421 207.77 45.9421Z" fill="black"/>
<path d="M119.504 55.41C119.061 55.41 118.469 55.3854 117.729 55.3361C117.039 55.3361 116.496 55.2867 116.102 55.1881V45.2016C116.25 45.2509 116.619 45.2756 117.211 45.2756C118.345 45.2756 119.282 44.8071 120.022 43.8701C120.811 42.9331 121.378 41.355 121.724 39.1358C122.118 36.9165 122.315 33.8836 122.315 30.037V15.2422H179.67V54.4484H168.278V24.5629H133.042V31.5165C133.042 36.3987 132.746 40.418 132.154 43.5742C131.562 46.7304 130.699 49.1716 129.565 50.8976C128.431 52.5744 127 53.7579 125.274 54.4484C123.598 55.0895 121.674 55.41 119.504 55.41Z" fill="black"/>
<path d="M94.2647 55.4107C90.4181 55.4107 86.9659 54.6957 83.9084 53.2655C80.8508 51.786 78.4096 49.5422 76.5849 46.5339C74.8096 43.5256 73.9219 39.7529 73.9219 35.2159V33.7364C73.9219 29.3966 74.7849 25.7965 76.511 22.9362C78.237 20.0759 80.5795 17.9306 83.5385 16.5005C86.5468 15.021 89.8756 14.2812 93.525 14.2812C99.9854 14.2812 104.868 15.958 108.172 19.3115C111.476 22.6156 113.128 27.424 113.128 33.7364V37.8789H85.6098C85.7084 39.8023 86.1522 41.405 86.9413 42.6872C87.7797 43.9694 88.8399 44.9065 90.1222 45.4982C91.4044 46.0407 92.7852 46.312 94.2647 46.312C96.4346 46.312 98.136 45.9914 99.3689 45.3503C100.651 44.6599 101.489 43.7475 101.884 42.6133H112.388C111.599 46.9037 109.651 50.1093 106.544 52.2299C103.437 54.3505 99.3442 55.4107 94.2647 55.4107ZM93.8948 23.38C92.514 23.38 91.2071 23.602 89.9742 24.0458C88.7413 24.4897 87.7303 25.2294 86.9413 26.265C86.2015 27.2513 85.7824 28.6075 85.6837 30.3336H101.958C101.958 28.5089 101.588 27.1034 100.848 26.1171C100.109 25.0814 99.1223 24.3664 97.8894 23.9718C96.7058 23.5773 95.3743 23.38 93.8948 23.38Z" fill="black"/>
<path d="M0 54.4458V2.66406H49.5131C55.579 2.66406 59.9928 3.8723 62.7545 6.28879C65.5162 8.65595 66.897 12.0588 66.897 16.4972C66.897 19.1602 66.2066 21.4534 64.8257 23.3768C63.4449 25.2508 61.5955 26.607 59.2777 27.4453C62.286 28.1357 64.6778 29.5413 66.4532 31.6618C68.2285 33.7331 69.1162 36.4455 69.1162 39.799C69.1162 42.8072 68.4505 45.421 67.1189 47.6402C65.8367 49.8101 63.8148 51.4868 61.0531 52.6704C58.2914 53.854 54.6913 54.4458 50.2529 54.4458H0ZM13.3153 44.2374H47.2939C50.4995 44.2374 52.7187 43.7689 53.9516 42.8319C55.1845 41.8456 55.8009 40.3414 55.8009 38.3195C55.8009 36.2975 55.1598 34.7934 53.8776 33.8071C52.6447 32.8208 50.3762 32.3276 47.072 32.3276H13.3153V44.2374ZM13.3153 23.3028H46.2583C49.1186 23.3028 51.0419 22.8589 52.0282 21.9713C53.0639 21.0343 53.5817 19.7274 53.5817 18.0506C53.5817 16.3246 53.0639 15.0424 52.0282 14.204C51.0419 13.3163 49.1433 12.8725 46.3323 12.8725H13.3153V23.3028Z" fill="black"/>
</svg>
