<svg width="706" height="70" viewBox="0 0 706 70" fill="none" xmlns="http://www.w3.org/2000/svg">
<path d="M676.363 54.4464V15.2402H705.213V24.561H687.755V54.4464H676.363Z" fill="black"/>
<path d="M631.211 54.4464V15.2402H642.603V29.8131H657.546V15.2402H668.938V54.4464H657.546V39.1338H642.603V54.4464H631.211Z" fill="black"/>
<path d="M517.348 54.4464V15.2402H538.356C541.808 15.2402 544.595 15.7087 546.715 16.6457C548.836 17.5334 550.389 18.7663 551.376 20.3444C552.362 21.8732 552.855 23.6239 552.855 25.5966C552.855 27.4213 552.313 29.172 551.228 30.8487C550.143 32.4762 548.589 33.5365 546.567 34.0296C548.984 34.6214 550.883 35.7557 552.263 37.4324C553.644 39.1092 554.335 41.0571 554.335 43.2764C554.335 46.6792 553.126 49.3915 550.71 51.4135C548.293 53.4354 544.669 54.4464 539.836 54.4464H517.348ZM528.74 45.8654H536.951C538.973 45.8654 540.477 45.5695 541.463 44.9778C542.449 44.386 542.943 43.4736 542.943 42.2407C542.943 41.0078 542.449 40.0955 541.463 39.5037C540.477 38.8626 538.973 38.542 536.951 38.542H528.74V45.8654ZM528.74 30.5528H536.359C538.381 30.5528 539.737 30.2569 540.428 29.6652C541.118 29.024 541.463 28.1857 541.463 27.15C541.463 26.1144 541.093 25.3007 540.354 24.7089C539.614 24.1171 538.282 23.8212 536.359 23.8212H528.74V30.5528Z" fill="black"/>
<path d="M472.195 54.4448V15.2386H483.291V38.9103L499.936 15.2386H509.922V54.4448H498.826V30.7732L482.182 54.4448H472.195ZM491.059 11.244C486.226 11.244 482.798 10.307 480.776 8.43303C478.754 6.55902 477.743 3.74801 477.743 0H487.804C487.804 1.72606 488.075 2.90964 488.618 3.55075C489.16 4.19186 489.974 4.51241 491.059 4.51241C492.144 4.51241 492.957 4.19186 493.5 3.55075C494.042 2.90964 494.314 1.72606 494.314 0H504.374C504.374 3.74801 503.363 6.55902 501.341 8.43303C499.319 10.307 495.892 11.244 491.059 11.244Z" fill="black"/>
<path d="M441.483 55.4107C438.672 55.4107 436.256 54.8683 434.234 53.7833C432.261 52.6984 430.757 51.2189 429.721 49.3449C428.686 47.4216 428.168 45.301 428.168 42.9831C428.168 39.0872 429.352 36.1036 431.719 34.0323C434.135 31.961 437.76 30.9254 442.593 30.9254H453.689V29.298C453.689 26.9308 453.122 25.3034 451.988 24.4157C450.903 23.528 449.374 23.0841 447.401 23.0841C445.527 23.0841 444.146 23.38 443.259 23.9718C442.371 24.5143 441.878 25.4267 441.779 26.7089H430.387C430.535 24.3417 431.275 22.2211 432.606 20.3471C433.987 18.4731 435.935 16.9936 438.45 15.9087C441.015 14.8237 444.122 14.2812 447.771 14.2812C451.223 14.2812 454.256 14.7991 456.87 15.8347C459.484 16.8703 461.506 18.5471 462.936 20.8649C464.415 23.1335 465.155 26.1911 465.155 30.0377V44.4626C465.155 46.5339 465.204 48.3586 465.303 49.9367C465.402 51.4655 465.549 52.9696 465.747 54.4491H454.873C454.823 53.6107 454.749 52.871 454.651 52.2299C454.601 51.5888 454.577 50.7997 454.577 49.8627C453.393 51.4408 451.741 52.7723 449.62 53.8573C447.549 54.8929 444.837 55.4107 441.483 55.4107ZM445.182 47.3476C446.809 47.3476 448.264 47.0517 449.546 46.4599C450.829 45.8681 451.84 44.9804 452.579 43.7968C453.319 42.5639 453.689 41.1831 453.689 39.6543V38.0269H444.812C443.135 38.0269 441.878 38.4707 441.039 39.3584C440.25 40.2461 439.856 41.2571 439.856 42.3913C439.856 43.8708 440.25 45.0791 441.039 46.0161C441.878 46.9038 443.259 47.3476 445.182 47.3476Z" fill="black"/>
<path d="M354.297 63.6932V45.1257H358.439C359.13 44.0901 359.672 42.8325 360.067 41.353C360.511 39.8242 360.831 37.9502 361.028 35.731C361.226 33.5118 361.324 30.8734 361.324 27.8158V15.2402H418.235V45.1257H422.673V63.6932H413.057V54.4464H363.913V63.6932H354.297ZM369.609 45.1257H406.843V24.561H371.829V29.2953C371.829 33.0433 371.656 36.1995 371.311 38.7639C370.966 41.2791 370.399 43.3996 369.609 45.1257Z" fill="black"/>
<path d="M293.23 54.4448V15.2386H304.327V38.9103L320.971 15.2386H330.957V54.4448H319.861V30.7732L303.217 54.4448H293.23ZM312.094 11.244C307.261 11.244 303.833 10.307 301.811 8.43303C299.789 6.55902 298.779 3.74801 298.779 0H308.839C308.839 1.72606 309.11 2.90964 309.653 3.55075C310.195 4.19186 311.009 4.51241 312.094 4.51241C313.179 4.51241 313.992 4.19186 314.535 3.55075C315.077 2.90964 315.349 1.72606 315.349 0H325.409C325.409 3.74801 324.398 6.55902 322.376 8.43303C320.354 10.307 316.927 11.244 312.094 11.244Z" fill="black"/>
<path d="M237.039 54.4464V15.2402H248.431V27.9638H254.793C259.922 27.9638 263.793 29.0487 266.407 31.2186C269.02 33.3885 270.327 36.7173 270.327 41.2051C270.327 43.7695 269.809 46.0627 268.774 48.0847C267.738 50.1066 266.086 51.6847 263.818 52.819C261.549 53.9039 258.541 54.4464 254.793 54.4464H237.039ZM248.431 45.8654H253.313C255.286 45.8654 256.716 45.4956 257.604 44.7558C258.492 43.9668 258.935 42.7832 258.935 41.2051C258.935 39.5777 258.492 38.3941 257.604 37.6543C256.765 36.9146 255.335 36.5447 253.313 36.5447H248.431V45.8654ZM273.73 54.4464V15.2402H285.122V54.4464H273.73Z" fill="black"/>
<path d="M167.164 54.4464V15.2402H178.556V29.8131H217.155V15.2402H228.547V54.4464H217.155V39.1338H178.556V54.4464H167.164Z" fill="black"/>
<path d="M121.641 69.2439V15.2429H132.145V20.569C133.181 18.9909 134.709 17.5608 136.731 16.2785C138.803 14.947 141.342 14.2812 144.351 14.2812C149.874 14.2812 154.066 15.9087 156.926 19.1635C159.787 22.4184 161.217 27.276 161.217 33.7364V35.2159C161.217 39.6543 160.526 43.3777 159.145 46.3859C157.765 49.3449 155.817 51.5888 153.301 53.1176C150.786 54.6464 147.803 55.4108 144.351 55.4108C142.131 55.4108 140.011 54.9176 137.989 53.9313C136.016 52.8956 134.364 51.4162 133.033 49.4928V69.2439H121.641ZM141.614 46.0161C143.882 46.0161 145.756 45.1037 147.236 43.279C148.764 41.405 149.529 38.7173 149.529 35.2159V33.7364C149.529 30.3336 148.789 27.8185 147.31 26.1911C145.879 24.5143 143.981 23.6759 141.614 23.6759C140.035 23.6759 138.581 24.0212 137.249 24.7116C135.967 25.3527 134.931 26.339 134.142 27.6705C133.402 29.0021 133.033 30.6541 133.033 32.6268V36.3255C133.033 38.3474 133.402 40.0982 134.142 41.5776C134.931 43.0078 135.967 44.1174 137.249 44.9065C138.581 45.6462 140.035 46.0161 141.614 46.0161Z" fill="black"/>
<path d="M90.9403 55.4107C88.1293 55.4107 85.7128 54.8683 83.6909 53.7833C81.7182 52.6984 80.2141 51.2189 79.1785 49.3449C78.1428 47.4216 77.625 45.301 77.625 42.9831C77.625 39.0872 78.8086 36.1036 81.1757 34.0323C83.5922 31.961 87.217 30.9254 92.0499 30.9254H103.146V29.298C103.146 26.9308 102.579 25.3034 101.445 24.4157C100.36 23.528 98.8309 23.0841 96.8582 23.0841C94.9842 23.0841 93.6034 23.38 92.7157 23.9718C91.828 24.5143 91.3348 25.4267 91.2362 26.7089H79.8442C79.9922 24.3417 80.7319 22.2211 82.0634 20.3471C83.4443 18.4731 85.3923 16.9936 87.9074 15.9087C90.4718 14.8237 93.5787 14.2812 97.2281 14.2812C100.68 14.2812 103.713 14.7991 106.327 15.8347C108.941 16.8703 110.963 18.5471 112.393 20.8649C113.872 23.1335 114.612 26.1911 114.612 30.0377V44.4626C114.612 46.5339 114.661 48.3586 114.76 49.9367C114.859 51.4655 115.006 52.9696 115.204 54.4491H104.33C104.28 53.6107 104.206 52.871 104.108 52.2299C104.058 51.5888 104.034 50.7997 104.034 49.8627C102.85 51.4408 101.198 52.7723 99.0774 53.8573C97.0062 54.8929 94.2938 55.4107 90.9403 55.4107ZM94.639 47.3476C96.2664 47.3476 97.7212 47.0517 99.0035 46.4599C100.286 45.8681 101.297 44.9804 102.036 43.7968C102.776 42.5639 103.146 41.1831 103.146 39.6543V38.0269H94.2691C92.5924 38.0269 91.3348 38.4707 90.4965 39.3584C89.7074 40.2461 89.3129 41.2571 89.3129 42.3913C89.3129 43.8708 89.7074 45.0791 90.4965 46.0161C91.3348 46.9038 92.7157 47.3476 94.639 47.3476Z" fill="black"/>
<path d="M0 54.4429V2.66113H69.8559V54.4429H56.5406V13.6093H13.3153V54.4429H0Z" fill="black"/>
<path d="M561.516 54.9464V15.7402H572.612V41.5625L612.912 15.7402H622.899V54.9464H611.803V29.1242L571.502 54.9464H561.516Z" fill="black"/>
</svg>
