<svg width="549" height="98" viewBox="0 0 549 98" fill="none" xmlns="http://www.w3.org/2000/svg">
<rect x="3.23438" y="3.28906" width="543" height="92" rx="46" stroke="#191919" stroke-width="5"/>
<path d="M118.481 59.5182C116.564 59.5182 115.046 58.9125 113.927 57.7012C112.823 56.4899 112.271 54.9795 112.271 53.1702V48.0642C112.271 46.2549 112.831 44.7445 113.95 43.5332C115.085 42.3219 116.595 41.7162 118.481 41.7162C120.398 41.7162 121.916 42.3219 123.035 43.5332C124.154 44.7292 124.714 46.2395 124.714 48.0642V53.1702C124.714 54.9795 124.147 56.4899 123.012 57.7012C121.877 58.9125 120.367 59.5182 118.481 59.5182ZM116.112 55.9072C116.679 56.6125 117.469 56.9652 118.481 56.9652C119.493 56.9652 120.275 56.6049 120.827 55.8842C121.394 55.1635 121.678 54.2589 121.678 53.1702V48.0642C121.678 47.0369 121.41 46.1399 120.873 45.3732C120.336 44.6372 119.539 44.2692 118.481 44.2692C117.469 44.2692 116.687 44.6372 116.135 45.3732C115.568 46.1245 115.284 47.0215 115.284 48.0642V53.1702C115.284 54.2742 115.56 55.1865 116.112 55.9072ZM133.297 59.5182C131.381 59.5182 129.863 58.9125 128.743 57.7012C127.639 56.4899 127.087 54.9795 127.087 53.1702V48.0642C127.087 46.2549 127.647 44.7445 128.766 43.5332C129.901 42.3219 131.411 41.7162 133.297 41.7162C135.214 41.7162 136.732 42.3219 137.851 43.5332C138.971 44.7292 139.53 46.2395 139.53 48.0642V53.1702C139.53 54.9795 138.963 56.4899 137.828 57.7012C136.694 58.9125 135.183 59.5182 133.297 59.5182ZM130.928 55.9072C131.496 56.6125 132.285 56.9652 133.297 56.9652C134.309 56.9652 135.091 56.6049 135.643 55.8842C136.211 55.1635 136.494 54.2589 136.494 53.1702V48.0642C136.494 47.0369 136.226 46.1399 135.689 45.3732C135.153 44.6372 134.355 44.2692 133.297 44.2692C132.285 44.2692 131.503 44.6372 130.951 45.3732C130.384 46.1245 130.1 47.0215 130.1 48.0642V53.1702C130.1 54.2742 130.376 55.1865 130.928 55.9072ZM145.169 50.8472H142.018V47.6962H145.169V50.8472ZM145.169 59.2422H142.018V56.0912H145.169V59.2422ZM153.855 59.5182C151.939 59.5182 150.421 58.9125 149.301 57.7012C148.197 56.4899 147.645 54.9795 147.645 53.1702V48.0642C147.645 46.2549 148.205 44.7445 149.324 43.5332C150.459 42.3219 151.969 41.7162 153.855 41.7162C155.772 41.7162 157.29 42.3219 158.409 43.5332C159.529 44.7292 160.088 46.2395 160.088 48.0642V53.1702C160.088 54.9795 159.521 56.4899 158.386 57.7012C157.252 58.9125 155.741 59.5182 153.855 59.5182ZM151.486 55.9072C152.054 56.6125 152.843 56.9652 153.855 56.9652C154.867 56.9652 155.649 56.6049 156.201 55.8842C156.769 55.1635 157.052 54.2589 157.052 53.1702V48.0642C157.052 47.0369 156.784 46.1399 156.247 45.3732C155.711 44.6372 154.913 44.2692 153.855 44.2692C152.843 44.2692 152.061 44.6372 151.509 45.3732C150.942 46.1245 150.658 47.0215 150.658 48.0642V53.1702C150.658 54.2742 150.934 55.1865 151.486 55.9072ZM168.671 59.5182C166.755 59.5182 165.237 58.9125 164.117 57.7012C163.013 56.4899 162.461 54.9795 162.461 53.1702V48.0642C162.461 46.2549 163.021 44.7445 164.14 43.5332C165.275 42.3219 166.785 41.7162 168.671 41.7162C170.588 41.7162 172.106 42.3219 173.225 43.5332C174.345 44.7292 174.904 46.2395 174.904 48.0642V53.1702C174.904 54.9795 174.337 56.4899 173.202 57.7012C172.068 58.9125 170.557 59.5182 168.671 59.5182ZM166.302 55.9072C166.87 56.6125 167.659 56.9652 168.671 56.9652C169.683 56.9652 170.465 56.6049 171.017 55.8842C171.585 55.1635 171.868 54.2589 171.868 53.1702V48.0642C171.868 47.0369 171.6 46.1399 171.063 45.3732C170.527 44.6372 169.729 44.2692 168.671 44.2692C167.659 44.2692 166.877 44.6372 166.325 45.3732C165.758 46.1245 165.474 47.0215 165.474 48.0642V53.1702C165.474 54.2742 165.75 55.1865 166.302 55.9072ZM184.247 42.8202L178.129 59.2422H176.151L182.269 42.8202H184.247ZM191.332 59.2422H188.25V45.3962L186.64 46.7532H184.57V45.0972L188.687 41.9922H191.332V59.2422ZM197.845 50.8472H194.694V47.6962H197.845V50.8472ZM197.845 59.2422H194.694V56.0912H197.845V59.2422ZM205.657 59.4492C204.691 59.4492 203.824 59.2882 203.058 58.9662C202.291 58.6442 201.701 58.2532 201.287 57.7932C200.873 57.3332 200.566 56.9345 200.367 56.5972C200.167 56.2445 200.045 55.9609 199.999 55.7462V54.0672H202.322C202.828 55.9225 203.932 56.8502 205.634 56.8502C206.492 56.8502 207.182 56.5895 207.704 56.0682C208.225 55.5469 208.486 54.9105 208.486 54.1592C208.486 52.4265 207.405 51.5602 205.243 51.5602H203.403V49.1222H205.036C205.925 49.1222 206.607 48.8922 207.083 48.4322C207.558 47.9722 207.796 47.3589 207.796 46.5922C207.796 45.8869 207.566 45.3272 207.106 44.9132C206.661 44.4839 206.078 44.2692 205.358 44.2692C203.932 44.2692 203.035 45.0512 202.667 46.6152C202.651 46.6305 202.644 46.6459 202.644 46.6612V46.6842H200.413V45.0282C200.443 44.8595 200.543 44.6219 200.712 44.3152C200.896 43.9932 201.164 43.6252 201.517 43.2112C201.885 42.7972 202.414 42.4445 203.104 42.1532C203.794 41.8619 204.576 41.7162 205.45 41.7162C207.044 41.7162 208.348 42.1302 209.36 42.9582C210.372 43.7862 210.878 44.8672 210.878 46.2012C210.878 47.1212 210.64 47.9262 210.165 48.6162C209.705 49.3062 209.068 49.8045 208.256 50.1112C209.268 50.3412 210.073 50.8242 210.671 51.5602C211.269 52.2809 211.568 53.1702 211.568 54.2282C211.568 55.7769 211.023 57.0342 209.935 58.0002C208.846 58.9662 207.42 59.4492 205.657 59.4492ZM219.358 59.5182C217.534 59.5182 216.085 59.0199 215.011 58.0232C213.938 57.0112 213.401 55.7539 213.401 54.2512C213.401 53.3925 213.616 52.5799 214.045 51.8132C214.49 51.0312 215.142 50.4255 216 49.9962C214.697 49.1222 214.045 47.9032 214.045 46.3392C214.045 45.0205 214.521 43.9165 215.471 43.0272C216.422 42.1379 217.718 41.6932 219.358 41.6932C220.968 41.6932 222.249 42.1379 223.199 43.0272C224.15 43.9165 224.625 45.0205 224.625 46.3392C224.625 47.9339 223.981 49.1529 222.693 49.9962C223.644 50.4409 224.326 51.0619 224.74 51.8592C225.154 52.6565 225.361 53.4539 225.361 54.2512C225.361 55.7539 224.817 57.0112 223.728 58.0232C222.655 59.0199 221.198 59.5182 219.358 59.5182ZM217.587 48.2022C218.017 48.6622 218.607 48.8922 219.358 48.8922C220.11 48.8922 220.692 48.6622 221.106 48.2022C221.536 47.7269 221.75 47.1442 221.75 46.4542C221.75 45.8102 221.536 45.2659 221.106 44.8212C220.692 44.3765 220.11 44.1542 219.358 44.1542C218.607 44.1542 218.017 44.3765 217.587 44.8212C217.173 45.2659 216.966 45.8102 216.966 46.4542C216.966 47.1442 217.173 47.7269 217.587 48.2022ZM217.288 56.1602C217.779 56.6815 218.469 56.9422 219.358 56.9422C220.248 56.9422 220.938 56.6815 221.428 56.1602C221.934 55.6235 222.187 54.9642 222.187 54.1822C222.187 53.3695 221.934 52.7025 221.428 52.1812C220.938 51.6445 220.248 51.3762 219.358 51.3762C218.469 51.3762 217.779 51.6445 217.288 52.1812C216.798 52.7025 216.552 53.3695 216.552 54.1822C216.552 54.9642 216.798 55.6235 217.288 56.1602ZM230.726 50.8472H227.575V47.6962H230.726V50.8472ZM230.726 59.2422H227.575V56.0912H230.726V59.2422ZM239.044 59.2422H235.962V45.3962L234.352 46.7532H232.282V45.0972L236.399 41.9922H239.044V59.2422ZM246.959 59.4722H244.636V57.9082C244.928 57.5402 245.403 56.9575 246.062 56.1602C246.722 55.3629 247.159 54.8262 247.373 54.5502C248.125 53.5995 248.592 53.0015 248.776 52.7562C248.393 52.9249 247.964 53.0092 247.488 53.0092C245.633 52.9785 244.176 52.4419 243.118 51.3992C242.076 50.3565 241.554 49.0225 241.554 47.3972C241.554 45.7872 242.106 44.4379 243.21 43.3492C244.33 42.2605 245.809 41.7162 247.649 41.7162C249.535 41.7162 251.023 42.2605 252.111 43.3492C253.215 44.4225 253.767 45.7642 253.767 47.3742C253.767 48.6622 253.537 49.8505 253.077 50.9392C252.617 52.0125 251.766 53.3695 250.524 55.0102C250.233 55.3935 249.612 56.1755 248.661 57.3562C247.726 58.5215 247.159 59.2269 246.959 59.4722ZM247.649 50.5252C248.615 50.5252 249.367 50.2339 249.903 49.6512C250.455 49.0685 250.731 48.3249 250.731 47.4202C250.731 46.5002 250.463 45.7489 249.926 45.1662C249.39 44.5682 248.631 44.2692 247.649 44.2692C246.699 44.2692 245.947 44.5682 245.395 45.1662C244.843 45.7642 244.567 46.5079 244.567 47.3972C244.567 48.3019 244.836 49.0532 245.372 49.6512C245.909 50.2339 246.668 50.5252 247.649 50.5252Z" fill="#191919"/>
<path d="M461.641 46.243C461.641 43.7875 463.631 41.7969 466.087 41.7969H472.335V58.4641H466.087C463.631 58.4641 461.641 56.4734 461.641 54.0179V46.243Z" fill="#FF5C00"/>
<path d="M470.797 41.7888L481.488 34.7911C483.459 33.5008 486.075 34.9151 486.075 37.2712V51.7891L470.797 41.7888Z" fill="#FF5C00"/>
<path d="M470.797 58.4528L486.075 48.4525V62.9704C486.075 65.3265 483.459 66.7408 481.488 65.4504L470.797 58.4528Z" fill="#FF5C00"/>
<path d="M484.547 50.1175L471.942 58.778V41.457L484.547 50.1175Z" fill="#FF5C00"/>
<path fill-rule="evenodd" clip-rule="evenodd" d="M489.916 53.6524C492.186 52.1762 491.911 48.7681 489.432 47.6755L488.187 47.1267L489.562 44.0078L490.807 44.5566C495.764 46.7415 496.316 53.557 491.774 56.51L489.803 57.791L487.945 54.9334L489.916 53.6524Z" fill="#FF5C00"/>
<path fill-rule="evenodd" clip-rule="evenodd" d="M495.863 57.9813C501.54 54.2903 500.851 45.7714 494.655 43.0402L494.142 42.8142L495.517 39.6953L496.03 39.9213C504.705 43.745 505.669 55.6714 497.72 60.8389L495.758 62.1145L493.901 59.2569L495.863 57.9813Z" fill="#FF5C00"/>
<rect x="281.227" y="48.0938" width="149.82" height="4.44617" rx="2.22309" fill="#F1B8FF"/>
<rect x="279.867" y="48.0938" width="5.39892" height="4.44617" rx="2.22309" fill="#FF5C00"/>
<path d="M81.8654 45.683L59.2561 33.8448C55.8691 32.1763 51.7344 34.3612 51.7344 37.8174V61.3348C51.7344 64.7909 55.8691 66.9758 59.2561 65.3073L81.8654 53.4692C85.1644 51.7212 85.1644 47.4309 81.8654 45.683Z" fill="#FF5C00"/>
</svg>
