<svg width="425" height="71" viewBox="0 0 425 71" fill="none" xmlns="http://www.w3.org/2000/svg">
<path d="M386.095 60.0348V25.3848H360.68V14.5781H424.719V25.3848H399.304V60.0348H386.095Z" fill="black"/>
<path d="M335.352 61.1476C330.893 61.1476 326.919 60.2899 323.431 58.5746C319.943 56.8592 317.198 54.2576 315.197 50.7697C313.196 47.2819 312.195 42.9363 312.195 37.7331V36.0178C312.195 31.2148 313.225 27.1265 315.283 23.753C317.399 20.3795 320.2 17.8351 323.688 16.1197C327.233 14.3472 331.121 13.4609 335.352 13.4609C339.927 13.4609 343.758 14.2614 346.845 15.8624C349.933 17.4062 352.306 19.4932 353.964 22.1234C355.622 24.7536 356.566 27.6697 356.794 30.8717H343.157C342.757 28.8133 341.928 27.2409 340.67 26.1545C339.469 25.0109 337.697 24.4392 335.352 24.4392C333.523 24.4392 331.865 24.868 330.378 25.7257C328.949 26.5833 327.805 27.8699 326.947 29.5852C326.147 31.2434 325.747 33.3876 325.747 36.0178V37.7331C325.747 40.5348 326.147 42.8506 326.947 44.6803C327.748 46.51 328.863 47.8822 330.292 48.7971C331.722 49.6548 333.408 50.0836 335.352 50.0836C337.354 50.0836 339.04 49.569 340.413 48.5398C341.842 47.4534 342.757 45.8524 343.157 43.7368H356.794C356.566 47.2819 355.536 50.3695 353.707 52.9997C351.877 55.6299 349.39 57.6597 346.245 59.0892C343.157 60.4614 339.527 61.1476 335.352 61.1476Z" fill="black"/>
<path d="M278.313 61.1476C275.054 61.1476 272.252 60.5186 269.908 59.2607C267.621 58.0028 265.877 56.2874 264.676 54.1147C263.475 51.8847 262.875 49.426 262.875 46.7387C262.875 42.2216 264.247 38.7623 266.992 36.3608C269.794 33.9593 273.996 32.7586 279.6 32.7586H292.465V30.8717C292.465 28.1272 291.807 26.2403 290.492 25.2111C289.234 24.1819 287.462 23.6673 285.175 23.6673C283.002 23.6673 281.401 24.0103 280.372 24.6965C279.342 25.3254 278.771 26.3832 278.656 27.8698H265.448C265.62 25.1253 266.477 22.6666 268.021 20.4939C269.622 18.3211 271.881 16.6057 274.797 15.3478C277.77 14.0899 281.372 13.4609 285.603 13.4609C289.606 13.4609 293.122 14.0613 296.153 15.2621C299.183 16.4628 301.527 18.4069 303.186 21.0942C304.901 23.7244 305.759 27.2695 305.759 31.7294V48.454C305.759 50.8555 305.816 52.9711 305.93 54.8008C306.045 56.5733 306.216 58.3173 306.445 60.0326H293.837C293.78 59.0606 293.694 58.2029 293.58 57.4596C293.523 56.7163 293.494 55.8014 293.494 54.715C292.122 56.5447 290.206 58.0885 287.748 59.3465C285.346 60.5472 282.201 61.1476 278.313 61.1476ZM282.601 51.7989C284.488 51.7989 286.175 51.4559 287.662 50.7697C289.148 50.0836 290.321 49.0544 291.178 47.6821C292.036 46.2527 292.465 44.6517 292.465 42.8791V40.9923H282.173C280.229 40.9923 278.771 41.5069 277.799 42.5361C276.884 43.5653 276.426 44.7374 276.426 46.0525C276.426 47.7679 276.884 49.1687 277.799 50.2551C278.771 51.2843 280.372 51.7989 282.601 51.7989Z" fill="black"/>
<path d="M215.25 60.0348V14.5781H228.458V31.7316H231.889L244.582 14.5781H258.991L242.267 35.9342L259.849 60.0348H244.239L231.889 42.0237H228.458V60.0348H215.25Z" fill="black"/>
<path d="M135.773 70.7557V49.2281H140.576C141.377 48.0274 142.006 46.5694 142.463 44.854C142.978 43.0815 143.35 40.9087 143.578 38.3357C143.807 35.7627 143.921 32.7036 143.921 29.1586V14.5781H204.101V49.2281H209.247V70.7557H198.098V60.0348H146.923V70.7557H135.773ZM153.527 49.2281H190.893V25.3848H156.1V30.8739C156.1 35.2195 155.9 38.8789 155.5 41.8521C155.1 44.7682 154.442 47.2269 153.527 49.2281Z" fill="black"/>
<path d="M109.212 61.1476C104.981 61.1476 101.093 60.3185 97.5475 58.6603C94.0596 57.0022 91.2579 54.4291 89.1423 50.9413C87.0839 47.3962 86.0547 42.9935 86.0547 37.7331V36.0178C86.0547 31.1004 87.0839 26.9836 89.1423 23.6673C91.2579 20.2937 94.0596 17.7493 97.5475 16.034C101.093 14.3186 104.981 13.4609 109.212 13.4609C113.5 13.4609 117.388 14.3186 120.876 16.034C124.364 17.7493 127.137 20.2937 129.196 23.6673C131.311 26.9836 132.369 31.1004 132.369 36.0178V37.7331C132.369 42.9363 131.311 47.2819 129.196 50.7697C127.137 54.2004 124.364 56.802 120.876 58.5746C117.388 60.2899 113.5 61.1476 109.212 61.1476ZM109.212 50.1694C111.27 50.1694 113.014 49.6833 114.444 48.7113C115.873 47.6821 116.96 46.2241 117.703 44.3372C118.446 42.4503 118.818 40.2489 118.818 37.7331V36.0178C118.818 33.7306 118.446 31.7294 117.703 30.014C116.96 28.2987 115.873 26.955 114.444 25.983C113.014 24.9538 111.27 24.4392 109.212 24.4392C107.153 24.4392 105.41 24.9538 103.98 25.983C102.551 26.955 101.464 28.2987 100.721 30.014C99.9776 31.7294 99.6059 33.7306 99.6059 36.0178V37.7331C99.6059 40.3633 99.9776 42.6218 100.721 44.5087C101.464 46.3384 102.551 47.7393 103.98 48.7113C105.41 49.6833 107.153 50.1694 109.212 50.1694Z" fill="black"/>
<path d="M0 60.0371V0H77.4765V60.0371H62.0384V12.6936H15.4381V60.0371H0Z" fill="black"/>
</svg>
