<svg width="199" height="29" viewBox="0 0 199 29" fill="none" xmlns="http://www.w3.org/2000/svg">
<path d="M166.396 24.0556V6.06104H171.676V11.9008H184.592C186.969 11.9008 188.763 12.3988 189.974 13.3947C191.186 14.3906 191.792 15.9185 191.792 17.9782C191.792 19.1552 191.552 20.2077 191.072 21.1358C190.592 22.0638 189.826 22.7881 188.774 23.3087C187.723 23.8067 186.329 24.0556 184.592 24.0556H166.396ZM171.676 20.1172H173.939C174.853 20.1172 185.483 19.9474 185.895 19.6079C186.306 19.2458 186.512 18.7025 186.512 17.9782C186.512 17.2313 186.306 16.688 185.895 16.3485C185.506 16.009 174.876 15.8392 173.939 15.8392H171.676V20.1172ZM193.369 24.0556V6.06104H198.648V24.0556H193.369Z" fill="#191919"/>
<path d="M153.161 24.0556V10.339H147.572V6.06104H164.029V10.339H158.44V24.0556H153.161Z" fill="#191919"/>
<path d="M137.444 24.518C135.661 24.518 134.073 24.1785 132.679 23.4994C131.285 22.8204 130.187 21.7905 129.387 20.4098C128.587 19.0291 128.188 17.3088 128.188 15.2491V14.57C128.188 12.6687 128.599 11.0503 129.422 9.71488C130.267 8.37943 131.387 7.37218 132.782 6.69314C134.199 5.99146 135.753 5.64062 137.444 5.64062C139.273 5.64062 140.804 5.95751 142.038 6.59128C143.273 7.20242 144.221 8.02859 144.884 9.06979C145.547 10.111 145.924 11.2654 146.015 12.5329H140.564C140.404 11.7181 140.073 11.0956 139.57 10.6655C139.09 10.2128 138.381 9.98649 137.444 9.98649C136.713 9.98649 136.05 10.1563 135.456 10.4958C134.884 10.8353 134.427 11.3446 134.084 12.0236C133.764 12.68 133.604 13.5288 133.604 14.57V15.2491C133.604 16.3582 133.764 17.2749 134.084 17.9992C134.404 18.7235 134.85 19.2667 135.422 19.6289C135.993 19.9684 136.667 20.1382 137.444 20.1382C138.244 20.1382 138.919 19.9345 139.467 19.527C140.038 19.097 140.404 18.4632 140.564 17.6257H146.015C145.924 19.0291 145.513 20.2513 144.781 21.2925C144.05 22.3337 143.055 23.1373 141.798 23.7031C140.564 24.2464 139.113 24.518 137.444 24.518Z" fill="#191919"/>
<path d="M114.624 24.518C113.321 24.518 112.201 24.269 111.264 23.771C110.349 23.2731 109.652 22.594 109.172 21.7339C108.692 20.8512 108.452 19.8779 108.452 18.814C108.452 17.0259 109.001 15.6565 110.098 14.7058C111.218 13.7552 112.898 13.2798 115.138 13.2798H120.281V12.5329C120.281 11.4464 120.018 10.6995 119.492 10.2921C118.989 9.88464 118.281 9.68093 117.366 9.68093C116.498 9.68093 115.858 9.81673 115.446 10.0883C115.035 10.3373 114.806 10.7561 114.761 11.3446H109.481C109.549 10.2581 109.892 9.28482 110.509 8.4247C111.149 7.56458 112.052 6.88554 113.218 6.38757C114.406 5.88961 115.846 5.64062 117.538 5.64062C119.138 5.64062 120.543 5.87829 121.755 6.35362C122.966 6.82895 123.903 7.59853 124.566 8.66236C125.252 9.70356 125.595 11.1069 125.595 12.8724V19.4931C125.595 20.4437 125.617 21.2812 125.663 22.0055C125.709 22.7072 125.777 23.3976 125.869 24.0766H120.829C120.806 23.6918 120.772 23.3523 120.726 23.0581C120.703 22.7638 120.692 22.4016 120.692 21.9716C120.143 22.6959 119.378 23.307 118.395 23.805C117.435 24.2803 116.178 24.518 114.624 24.518ZM116.338 20.8172C117.092 20.8172 117.766 20.6814 118.361 20.4098C118.955 20.1382 119.423 19.7307 119.766 19.1875C120.109 18.6216 120.281 17.9879 120.281 17.2862V16.5392H116.166C115.389 16.5392 114.806 16.743 114.418 17.1504C114.052 17.5578 113.869 18.0218 113.869 18.5424C113.869 19.2215 114.052 19.776 114.418 20.2061C114.806 20.6135 115.446 20.8172 116.338 20.8172Z" fill="#191919"/>
<path d="M89.4258 24.0556V6.06104H94.7056V12.8515H96.077L101.151 6.06104H106.911L100.225 14.5151L107.254 24.0556H101.014L96.077 16.9257H94.7056V24.0556H89.4258Z" fill="#191919"/>
<path d="M56.3105 28.2997V19.7777H58.2305C58.5505 19.3024 58.8019 18.7252 58.9847 18.0461C59.1904 17.3444 59.339 16.4843 59.4304 15.4658C59.5219 14.4472 59.5676 13.2362 59.5676 11.8329V6.06104H84.4486V19.7777H86.5056V28.2997H82.0487V24.0556H60.7675V28.2997H56.3105ZM63.4074 19.7777H79.1688V10.339H64.4359V12.5119C64.4359 14.2322 64.356 15.6808 64.196 16.8578C64.036 18.0122 63.7731 18.9855 63.4074 19.7777Z" fill="#191919"/>
<path d="M45.6918 24.518C44.0005 24.518 42.4463 24.1898 41.0292 23.5334C39.6349 22.877 38.515 21.8584 37.6693 20.4777C36.8465 19.0743 36.4351 17.3315 36.4351 15.2491V14.57C36.4351 12.6234 36.8465 10.9937 37.6693 9.68093C38.515 8.34548 39.6349 7.33823 41.0292 6.65919C42.4463 5.98015 44.0005 5.64062 45.6918 5.64062C47.4061 5.64062 48.9603 5.98015 50.3545 6.65919C51.7488 7.33823 52.8573 8.34548 53.6801 9.68093C54.5258 10.9937 54.9486 12.6234 54.9486 14.57V15.2491C54.9486 17.3088 54.5258 19.0291 53.6801 20.4098C52.8573 21.7679 51.7488 22.7978 50.3545 23.4994C48.9603 24.1785 47.4061 24.518 45.6918 24.518ZM45.6918 20.1721C46.5147 20.1721 47.2118 19.9797 47.7832 19.5949C48.3546 19.1875 48.7889 18.6103 49.086 17.8634C49.3831 17.1164 49.5317 16.245 49.5317 15.2491V14.57C49.5317 13.6646 49.3831 12.8724 49.086 12.1934C48.7889 11.5143 48.3546 10.9824 47.7832 10.5976C47.2118 10.1902 46.5147 9.98649 45.6918 9.98649C44.869 9.98649 44.1719 10.1902 43.6005 10.5976C43.0291 10.9824 42.5948 11.5143 42.2977 12.1934C42.0006 12.8724 41.852 13.6646 41.852 14.57V15.2491C41.852 16.2903 42.0006 17.1843 42.2977 17.9313C42.5948 18.6556 43.0291 19.2101 43.6005 19.5949C44.1719 19.9797 44.869 20.1721 45.6918 20.1721Z" fill="#191919"/>
<path d="M0.648438 24.0663V0.299805H33.0243V24.0663H26.8531V5.32471H6.81963V24.0663H0.648438Z" fill="#191919"/>
</svg>
