<svg width="1310" height="81" viewBox="0 0 1310 81" fill="none" xmlns="http://www.w3.org/2000/svg">
<path d="M0 62.103V0H54.1183V62.103H38.149V13.1303H15.9693V62.103H0Z" fill="black"/>
<path d="M86.9441 63.2563C82.5674 63.2563 78.5455 62.3987 74.8784 60.6835C71.2705 58.9682 68.3724 56.3067 66.184 52.6988C64.0548 49.0318 62.9901 44.4775 62.9901 39.0361V37.2618C62.9901 32.1752 64.0548 27.9168 66.184 24.4863C68.3724 20.9967 71.2705 18.3647 74.8784 16.5904C78.5455 14.816 82.5674 13.9288 86.9441 13.9288C91.3801 13.9288 95.402 14.816 99.0099 16.5904C102.618 18.3647 105.486 20.9967 107.616 24.4863C109.804 27.9168 110.898 32.1752 110.898 37.2618V39.0361C110.898 44.4184 109.804 48.9135 107.616 52.5214C105.486 56.0701 102.618 58.7612 99.0099 60.5947C95.402 62.3691 91.3801 63.2563 86.9441 63.2563ZM86.9441 51.9003C89.0734 51.9003 90.8773 51.3976 92.356 50.3921C93.8346 49.3275 94.9584 47.8193 95.7273 45.8675C96.4962 43.9157 96.8806 41.6386 96.8806 39.0361V37.2618C96.8806 34.8959 96.4962 32.8258 95.7273 31.0515C94.9584 29.2771 93.8346 27.8872 92.356 26.8817C90.8773 25.8171 89.0734 25.2848 86.9441 25.2848C84.8149 25.2848 83.011 25.8171 81.5323 26.8817C80.0537 27.8872 78.9299 29.2771 78.161 31.0515C77.3921 32.8258 77.0077 34.8959 77.0077 37.2618V39.0361C77.0077 41.7568 77.3921 44.0931 78.161 46.0449C78.9299 47.9376 80.0537 49.3866 81.5323 50.3921C83.011 51.3976 84.8149 51.9003 86.9441 51.9003Z" fill="black"/>
<path d="M118.514 63.2563C117.982 63.2563 117.272 63.2267 116.385 63.1676C115.557 63.1676 114.906 63.1084 114.433 62.9901V51.0131C114.61 51.0723 115.054 51.1019 115.764 51.1019C117.124 51.1019 118.248 50.54 119.135 49.4162C120.081 48.2924 120.762 46.3998 121.176 43.7382C121.649 41.0767 121.885 37.4392 121.885 32.8258V15.0821H184.224V62.103H170.561V26.2607H134.75V34.6002C134.75 40.4556 134.395 45.276 133.685 49.0613C132.975 52.8467 131.94 55.7744 130.58 57.8445C129.219 59.8554 127.504 61.2749 125.434 62.103C123.423 62.8719 121.116 63.2563 118.514 63.2563Z" fill="black"/>
<path d="M215.781 63.2563C211.168 63.2563 207.027 62.3987 203.36 60.6835C199.693 58.9091 196.766 56.218 194.577 52.6101C192.448 49.0022 191.383 44.4775 191.383 39.0361V37.2618C191.383 32.057 192.418 27.7393 194.489 24.3089C196.559 20.8784 199.368 18.3056 202.917 16.5904C206.525 14.816 210.517 13.9288 214.894 13.9288C222.642 13.9288 228.497 15.9398 232.46 19.9617C236.423 23.9244 238.404 29.6911 238.404 37.2618V42.23H205.401C205.519 44.5367 206.052 46.4589 206.998 47.9967C208.003 49.5345 209.275 50.6583 210.813 51.368C212.351 52.0186 214.007 52.3439 215.781 52.3439C218.383 52.3439 220.424 51.9595 221.903 51.1906C223.44 50.3625 224.446 49.2683 224.919 47.908H237.517C236.571 53.0537 234.234 56.8981 230.508 59.4414C226.782 61.9847 221.873 63.2563 215.781 63.2563ZM215.337 24.8412C213.681 24.8412 212.114 25.1073 210.635 25.6397C209.157 26.172 207.944 27.0591 206.998 28.3012C206.111 29.4841 205.608 31.1106 205.49 33.1807H225.008C225.008 30.9923 224.564 29.3067 223.677 28.1238C222.79 26.8817 221.607 26.0241 220.128 25.5509C218.709 25.0778 217.112 24.8412 215.337 24.8412Z" fill="black"/>
<path d="M256.421 62.103V26.2607H241.96V15.0821H284.545V26.2607H270.084V62.103H256.421Z" fill="black"/>
<path d="M312.893 62.103V15.0821H326.556V32.5597H367.69V15.0821H381.353V62.103H367.69V43.7382H326.556V62.103H312.893Z" fill="black"/>
<path d="M404.894 63.2563C401.523 63.2563 398.625 62.6057 396.2 61.3045C393.834 60.0033 392.03 58.2289 390.788 55.9814C389.546 53.6747 388.925 51.1314 388.925 48.3516C388.925 43.6791 390.345 40.1008 393.184 37.6166C396.082 35.1325 400.429 33.8905 406.225 33.8905H419.533V31.9387C419.533 29.0997 418.853 27.1479 417.492 26.0832C416.191 25.0186 414.358 24.4863 411.992 24.4863C409.744 24.4863 408.088 24.8412 407.024 25.5509C405.959 26.2015 405.368 27.2957 405.249 28.8335H391.587C391.764 25.9945 392.651 23.4513 394.248 21.2037C395.904 18.9562 398.241 17.1818 401.257 15.8806C404.333 14.5794 408.059 13.9288 412.436 13.9288C416.576 13.9288 420.213 14.5498 423.348 15.7919C426.483 17.034 428.908 19.0449 430.623 21.8248C432.397 24.5455 433.284 28.2125 433.284 32.8258V50.126C433.284 52.6101 433.344 54.7985 433.462 56.6911C433.58 58.5246 433.758 60.3286 433.994 62.103H420.952C420.893 61.0975 420.805 60.2103 420.686 59.4414C420.627 58.6725 420.598 57.7262 420.598 56.6024C419.178 58.4951 417.197 60.092 414.653 61.3932C412.169 62.6353 408.916 63.2563 404.894 63.2563ZM409.33 53.586C411.282 53.586 413.027 53.2311 414.565 52.5214C416.103 51.8116 417.315 50.747 418.202 49.3275C419.089 47.8489 419.533 46.1928 419.533 44.3593V42.4074H408.887C406.876 42.4074 405.368 42.9398 404.362 44.0044C403.416 45.069 402.943 46.2815 402.943 47.6418C402.943 49.4162 403.416 50.8653 404.362 51.989C405.368 53.0537 407.024 53.586 409.33 53.586Z" fill="black"/>
<path d="M463.899 62.103V15.0821H512.309C516.449 15.0821 519.79 15.644 522.334 16.7678C524.877 17.8324 526.74 19.3111 527.923 21.2037C529.106 23.0372 529.697 25.1369 529.697 27.5027C529.697 29.6911 529.047 31.7908 527.746 33.8018C526.444 35.7536 524.581 37.0252 522.156 37.6166C525.054 38.3264 527.332 39.6867 528.988 41.6977C530.644 43.7087 531.472 46.0449 531.472 48.7065C531.472 52.7875 530.023 56.0405 527.125 58.4655C524.226 60.8905 519.879 62.103 514.083 62.103H463.899ZM477.562 51.8116H510.623C513.048 51.8116 514.852 51.4567 516.035 50.747C517.218 50.0372 517.809 48.943 517.809 47.4644C517.809 45.9858 517.218 44.8916 516.035 44.1818C514.852 43.4129 513.048 43.0285 510.623 43.0285H477.562V51.8116ZM477.562 33.4469H509.913C512.338 33.4469 513.965 33.092 514.793 32.3823C515.621 31.6134 516.035 30.6079 516.035 29.3658C516.035 28.1238 515.591 27.1479 514.704 26.4381C513.817 25.7284 512.22 25.3735 509.913 25.3735H477.562V33.4469Z" fill="black"/>
<path d="M560.756 63.2563C556.379 63.2563 552.357 62.3987 548.69 60.6835C545.082 58.9682 542.184 56.3067 539.996 52.6988C537.866 49.0318 536.802 44.4775 536.802 39.0361V37.2618C536.802 32.1752 537.866 27.9168 539.996 24.4863C542.184 20.9967 545.082 18.3647 548.69 16.5904C552.357 14.816 556.379 13.9288 560.756 13.9288C565.192 13.9288 569.214 14.816 572.821 16.5904C576.429 18.3647 579.298 20.9967 581.427 24.4863C583.616 27.9168 584.71 32.1752 584.71 37.2618V39.0361C584.71 44.4184 583.616 48.9135 581.427 52.5214C579.298 56.0701 576.429 58.7612 572.821 60.5947C569.214 62.3691 565.192 63.2563 560.756 63.2563ZM560.756 51.9003C562.885 51.9003 564.689 51.3976 566.168 50.3921C567.646 49.3275 568.77 47.8193 569.539 45.8675C570.308 43.9157 570.692 41.6386 570.692 39.0361V37.2618C570.692 34.8959 570.308 32.8258 569.539 31.0515C568.77 29.2771 567.646 27.8872 566.168 26.8817C564.689 25.8171 562.885 25.2848 560.756 25.2848C558.627 25.2848 556.823 25.8171 555.344 26.8817C553.865 27.8872 552.742 29.2771 551.973 31.0515C551.204 32.8258 550.819 34.8959 550.819 37.2618V39.0361C550.819 41.7568 551.204 44.0931 551.973 46.0449C552.742 47.9376 553.865 49.3866 555.344 50.3921C556.823 51.3976 558.627 51.9003 560.756 51.9003Z" fill="black"/>
<path d="M611.912 63.2563C606.766 63.2563 602.567 62.6057 599.314 61.3045C596.12 59.9441 593.724 57.9923 592.127 55.4491C590.531 52.9058 589.673 49.8007 589.555 46.1336H603.572C603.75 47.3165 604.016 48.3516 604.371 49.2388C604.785 50.126 605.524 50.8061 606.589 51.2793C607.712 51.7525 609.398 51.989 611.646 51.989C614.603 51.989 616.702 51.5159 617.945 50.5696C619.246 49.5641 619.896 48.4699 619.896 47.287C619.896 45.7492 619.305 44.6254 618.122 43.9157C616.998 43.1468 615.106 42.7623 612.444 42.7623H606.322V33.713H611.734C613.982 33.713 615.667 33.3582 616.791 32.6484C617.915 31.9387 618.477 30.8445 618.477 29.3658C618.477 28.1829 617.915 27.1774 616.791 26.3494C615.727 25.5214 614.041 25.1073 611.734 25.1073C609.191 25.1073 607.387 25.5805 606.322 26.5268C605.258 27.4732 604.637 28.8335 604.459 30.6079H590.442C590.678 26.8817 591.625 23.8061 593.281 21.3812C594.996 18.897 597.391 17.034 600.467 15.7919C603.602 14.5498 607.358 13.9288 611.734 13.9288C618.359 13.9288 623.416 15.1709 626.905 17.655C630.395 20.08 632.14 23.4513 632.14 27.7689C632.14 30.0164 631.607 32.0274 630.543 33.8018C629.478 35.5761 627.704 36.8773 625.22 37.7054C628.65 38.4151 630.957 39.6867 632.14 41.5203C633.382 43.3538 634.003 45.5422 634.003 48.0854C634.003 50.9836 633.115 53.586 631.341 55.8927C629.567 58.1993 627.023 60.0033 623.711 61.3045C620.458 62.6057 616.525 63.2563 611.912 63.2563Z" fill="black"/>
<path d="M637.965 73.1928V50.9244H642.933C643.761 49.6824 644.412 48.1742 644.885 46.3998C645.418 44.5663 645.802 42.3187 646.039 39.6572C646.275 36.9956 646.393 33.8313 646.393 30.1643V15.0821H708.199V50.9244H713.522V73.1928H701.989V62.103H649.499V73.1928H637.965ZM656.33 50.9244H694.537V26.2607H658.991V31.9387C658.991 36.4337 658.784 40.2191 658.37 43.2946C657.956 46.3111 657.276 48.8543 656.33 50.9244Z" fill="black"/>
<path d="M727.749 81C726.861 81 725.974 80.9113 725.087 80.7338V69.3779C725.974 69.5553 726.861 69.644 727.749 69.644C728.931 69.644 729.907 69.3779 730.676 68.8456C731.445 68.3724 732.125 67.5739 732.717 66.4502C733.367 65.3264 734.048 63.8478 734.757 62.0142L714.884 15.0821H729.967L741.677 46.3998L752.767 15.0821H766.341L748.42 62.103C746.646 66.5389 744.96 70.1468 743.363 72.9266C741.766 75.7656 739.755 77.8061 737.33 79.0482C734.964 80.3494 731.77 81 727.749 81Z" fill="black"/>
<path d="M771.63 62.103V15.0821H785.292V50.9244H797.624V15.0821H811.287V50.9244H823.619V15.0821H837.281V62.103H771.63Z" fill="black"/>
<path d="M846.139 62.103V15.0821H859.802V32.5597H900.936V15.0821H914.599V62.103H900.936V43.7382H859.802V62.103H846.139Z" fill="black"/>
<path d="M945.682 63.2563C941.305 63.2563 937.283 62.3987 933.616 60.6835C930.008 58.9682 927.11 56.3067 924.922 52.6988C922.792 49.0318 921.728 44.4775 921.728 39.0361V37.2618C921.728 32.1752 922.792 27.9168 924.922 24.4863C927.11 20.9967 930.008 18.3647 933.616 16.5904C937.283 14.816 941.305 13.9288 945.682 13.9288C950.118 13.9288 954.139 14.816 957.747 16.5904C961.355 18.3647 964.224 20.9967 966.353 24.4863C968.541 27.9168 969.636 32.1752 969.636 37.2618V39.0361C969.636 44.4184 968.541 48.9135 966.353 52.5214C964.224 56.0701 961.355 58.7612 957.747 60.5947C954.139 62.3691 950.118 63.2563 945.682 63.2563ZM945.682 51.9003C947.811 51.9003 949.615 51.3976 951.094 50.3921C952.572 49.3275 953.696 47.8193 954.465 45.8675C955.234 43.9157 955.618 41.6386 955.618 39.0361V37.2618C955.618 34.8959 955.234 32.8258 954.465 31.0515C953.696 29.2771 952.572 27.8872 951.094 26.8817C949.615 25.8171 947.811 25.2848 945.682 25.2848C943.552 25.2848 941.748 25.8171 940.27 26.8817C938.791 27.8872 937.667 29.2771 936.899 31.0515C936.13 32.8258 935.745 34.8959 935.745 37.2618V39.0361C935.745 41.7568 936.13 44.0931 936.899 46.0449C937.667 47.9376 938.791 49.3866 940.27 50.3921C941.748 51.3976 943.552 51.9003 945.682 51.9003Z" fill="black"/>
<path d="M976.698 62.103V15.0821H993.289L1004.47 38.4151L1015.65 15.0821H1031.7V62.103H1018.75V33.2694L1008.64 53.2311H999.765L989.651 33.2694V62.103H976.698Z" fill="black"/>
<path d="M1062.73 62.103V15.0821H1076.39V50.9244H1099.04V15.0821H1112.71V50.9244H1135.35V15.0821H1149.02V62.103H1062.73Z" fill="black"/>
<path d="M1172.51 63.2563C1169.14 63.2563 1166.24 62.6057 1163.82 61.3045C1161.45 60.0033 1159.65 58.2289 1158.41 55.9814C1157.17 53.6747 1156.54 51.1314 1156.54 48.3516C1156.54 43.6791 1157.96 40.1008 1160.8 37.6166C1163.7 35.1325 1168.05 33.8905 1173.84 33.8905H1187.15V31.9387C1187.15 29.0997 1186.47 27.1479 1185.11 26.0832C1183.81 25.0186 1181.98 24.4863 1179.61 24.4863C1177.36 24.4863 1175.71 24.8412 1174.64 25.5509C1173.58 26.2015 1172.99 27.2957 1172.87 28.8335H1159.21C1159.38 25.9945 1160.27 23.4513 1161.87 21.2037C1163.52 18.9562 1165.86 17.1818 1168.88 15.8806C1171.95 14.5794 1175.68 13.9288 1180.05 13.9288C1184.19 13.9288 1187.83 14.5498 1190.97 15.7919C1194.1 17.034 1196.53 19.0449 1198.24 21.8248C1200.02 24.5455 1200.9 28.2125 1200.9 32.8258V50.126C1200.9 52.6101 1200.96 54.7985 1201.08 56.6911C1201.2 58.5246 1201.38 60.3286 1201.61 62.103H1188.57C1188.51 61.0975 1188.42 60.2103 1188.31 59.4414C1188.25 58.6725 1188.22 57.7262 1188.22 56.6024C1186.8 58.4951 1184.82 60.092 1182.27 61.3932C1179.79 62.6353 1176.54 63.2563 1172.51 63.2563ZM1176.95 53.586C1178.9 53.586 1180.65 53.2311 1182.18 52.5214C1183.72 51.8116 1184.93 50.747 1185.82 49.3275C1186.71 47.8489 1187.15 46.1928 1187.15 44.3593V42.4074H1176.51C1174.49 42.4074 1172.99 42.9398 1171.98 44.0044C1171.03 45.069 1170.56 46.2815 1170.56 47.6418C1170.56 49.4162 1171.03 50.8653 1171.98 51.989C1172.99 53.0537 1174.64 53.586 1176.95 53.586Z" fill="black"/>
<path d="M1209.34 79.8467V15.0821H1221.94V21.4699C1223.18 19.5772 1225.01 17.862 1227.44 16.3242C1229.92 14.7273 1232.97 13.9288 1236.58 13.9288C1243.2 13.9288 1248.23 15.8806 1251.66 19.7842C1255.09 23.6878 1256.8 29.5137 1256.8 37.2618V39.0361C1256.8 44.3593 1255.97 48.8248 1254.32 52.4326C1252.66 55.9814 1250.33 58.6725 1247.31 60.506C1244.29 62.3395 1240.72 63.2563 1236.58 63.2563C1233.91 63.2563 1231.37 62.6648 1228.95 61.4819C1226.58 60.2399 1224.6 58.4655 1223 56.1588V79.8467H1209.34ZM1233.29 51.989C1236.01 51.989 1238.26 50.8949 1240.04 48.7065C1241.87 46.4589 1242.79 43.2355 1242.79 39.0361V37.2618C1242.79 33.1807 1241.9 30.1643 1240.12 28.2125C1238.41 26.2015 1236.13 25.1961 1233.29 25.1961C1231.4 25.1961 1229.66 25.6101 1228.06 26.4381C1226.52 27.207 1225.28 28.3899 1224.33 29.9869C1223.44 31.5838 1223 33.5652 1223 35.931V40.3669C1223 42.7919 1223.44 44.8916 1224.33 46.6659C1225.28 48.3812 1226.52 49.7119 1228.06 50.6583C1229.66 51.5455 1231.4 51.989 1233.29 51.989Z" fill="black"/>
<path d="M1286.54 63.2563C1281.93 63.2563 1277.79 62.3987 1274.12 60.6835C1270.46 58.9091 1267.53 56.218 1265.34 52.6101C1263.21 49.0022 1262.15 44.4775 1262.15 39.0361V37.2618C1262.15 32.057 1263.18 27.7393 1265.25 24.3089C1267.32 20.8784 1270.13 18.3056 1273.68 16.5904C1277.29 14.816 1281.28 13.9288 1285.66 13.9288C1293.41 13.9288 1299.26 15.9398 1303.22 19.9617C1307.19 23.9244 1309.17 29.6911 1309.17 37.2618V42.23H1276.16C1276.28 44.5367 1276.82 46.4589 1277.76 47.9967C1278.77 49.5345 1280.04 50.6583 1281.58 51.368C1283.11 52.0186 1284.77 52.3439 1286.54 52.3439C1289.15 52.3439 1291.19 51.9595 1292.67 51.1906C1294.2 50.3625 1295.21 49.2683 1295.68 47.908H1308.28C1307.33 53.0537 1305 56.8981 1301.27 59.4414C1297.55 61.9847 1292.64 63.2563 1286.54 63.2563ZM1286.1 24.8412C1284.44 24.8412 1282.88 25.1073 1281.4 25.6397C1279.92 26.172 1278.71 27.0591 1277.76 28.3012C1276.87 29.4841 1276.37 31.1106 1276.25 33.1807H1295.77C1295.77 30.9923 1295.33 29.3067 1294.44 28.1238C1293.55 26.8817 1292.37 26.0241 1290.89 25.5509C1289.47 25.0778 1287.88 24.8412 1286.1 24.8412Z" fill="black"/>
</svg>
