<svg width="105" height="26" viewBox="0 0 105 26" fill="none" xmlns="http://www.w3.org/2000/svg">
<path d="M95.8019 25.2891C94.0025 25.2891 92.3992 24.9447 90.9919 24.256C89.5847 23.5673 88.4773 22.5228 87.6699 21.1224C86.8625 19.722 86.4587 17.9773 86.4587 15.8882V15.1995C86.4587 13.2712 86.874 11.6298 87.7045 10.2753C88.5581 8.92085 89.6885 7.89927 91.0957 7.21056C92.526 6.4989 94.0948 6.14307 95.8019 6.14307C97.6475 6.14307 99.1932 6.46446 100.439 7.10725C101.685 7.72709 102.642 8.56501 103.311 9.62103C103.98 10.677 104.361 11.8478 104.453 13.1334H98.9509C98.7894 12.307 98.4549 11.6757 97.9474 11.2395C97.4629 10.7803 96.7478 10.5508 95.8019 10.5508C95.0637 10.5508 94.3947 10.723 93.7949 11.0673C93.2181 11.4117 92.7567 11.9282 92.4107 12.6169C92.0877 13.2826 91.9262 14.1435 91.9262 15.1995V15.8882C91.9262 17.0131 92.0877 17.9429 92.4107 18.6775C92.7337 19.4121 93.1835 19.9631 93.7603 20.3304C94.337 20.6747 95.0176 20.8469 95.8019 20.8469C96.6094 20.8469 97.2899 20.6403 97.8436 20.2271C98.4203 19.7909 98.7894 19.1481 98.9509 18.2987H104.453C104.361 19.722 103.945 20.9617 103.207 22.0177C102.469 23.0737 101.466 23.8887 100.197 24.4626C98.9509 25.0136 97.486 25.2891 95.8019 25.2891Z" fill="#191919"/>
<path d="M72.7918 25.2891C71.4768 25.2891 70.3464 25.0365 69.4005 24.5315C68.4778 24.0264 67.7741 23.3377 67.2897 22.4654C66.8052 21.5701 66.563 20.5829 66.563 19.5039C66.563 17.6904 67.1167 16.3015 68.224 15.3373C69.3544 14.3731 71.05 13.891 73.3108 13.891H78.5015V13.1334C78.5015 12.0315 78.2362 11.2739 77.7056 10.8607C77.1981 10.4475 76.4829 10.2409 75.5601 10.2409C74.6835 10.2409 74.0375 10.3786 73.6223 10.6541C73.207 10.9066 72.9763 11.3313 72.9302 11.9282H67.6011C67.6703 10.8263 68.0164 9.83912 68.6393 8.96676C69.2852 8.0944 70.1964 7.40569 71.373 6.90064C72.5726 6.39559 74.026 6.14307 75.7332 6.14307C77.348 6.14307 78.7668 6.38411 79.9895 6.86621C81.2122 7.3483 82.158 8.12883 82.8271 9.20781C83.5191 10.2638 83.8652 11.6871 83.8652 13.4778V20.1927C83.8652 21.1568 83.8883 22.0062 83.9344 22.7409C83.9805 23.4525 84.0497 24.1527 84.142 24.8414H79.0552C79.0321 24.4511 78.9975 24.1068 78.9514 23.8084C78.9283 23.5099 78.9168 23.1426 78.9168 22.7064C78.3631 23.441 77.5903 24.0609 76.5983 24.5659C75.6293 25.048 74.3605 25.2891 72.7918 25.2891ZM74.522 21.5356C75.2833 21.5356 75.9638 21.3979 76.5637 21.1224C77.1635 20.8469 77.6364 20.4337 77.9824 19.8827C78.3285 19.3088 78.5015 18.666 78.5015 17.9544V17.1968H74.349C73.5646 17.1968 72.9763 17.4034 72.5842 17.8166C72.215 18.2298 72.0305 18.7005 72.0305 19.2285C72.0305 19.9172 72.215 20.4796 72.5842 20.9158C72.9763 21.329 73.6223 21.5356 74.522 21.5356Z" fill="#191919"/>
<path d="M35.8899 24.8513V6.60059H41.219V13.3843H58.2694V6.60059H63.5984V24.8513H58.2694V17.7232H41.219V24.8513H35.8899Z" fill="#191919"/>
<path d="M12.2186 25.2998C10.6499 25.2998 9.15036 25.0702 7.72005 24.6111C6.28973 24.152 5.03244 23.4288 3.94817 22.4417C2.8639 21.4545 2.01032 20.1804 1.38744 18.6194C0.764564 17.0353 0.453125 15.1529 0.453125 12.972V12.2833C0.453125 10.1712 0.764564 8.35766 1.38744 6.84251C2.01032 5.32735 2.8639 4.08768 3.94817 3.1235C5.03244 2.15931 6.28973 1.44765 7.72005 0.988511C9.15036 0.529373 10.6499 0.299805 12.2186 0.299805C13.8335 0.299805 15.3445 0.529373 16.7518 0.988511C18.159 1.44765 19.4048 2.15931 20.4891 3.1235C21.5733 4.08768 22.4269 5.32735 23.0498 6.84251C23.6727 8.35766 23.9841 10.1712 23.9841 12.2833V12.972C23.9841 15.1529 23.6727 17.0353 23.0498 18.6194C22.4269 20.1804 21.5733 21.4545 20.4891 22.4417C19.4048 23.4288 18.159 24.152 16.7518 24.6111C15.3445 25.0702 13.8335 25.2998 12.2186 25.2998ZM12.184 20.1345C13.1299 20.1345 14.0065 19.9279 14.8139 19.5147C15.6214 19.0785 16.2673 18.3554 16.7518 17.3453C17.2593 16.3122 17.5131 14.8544 17.5131 12.972V12.2833C17.5131 10.4926 17.2593 9.10375 16.7518 8.11661C16.2673 7.12947 15.6214 6.44076 14.8139 6.0505C14.0065 5.66023 13.1299 5.4651 12.184 5.4651C11.2843 5.4651 10.4307 5.66023 9.62329 6.0505C8.81585 6.44076 8.15837 7.12947 7.65084 8.11661C7.14331 9.10375 6.88954 10.4926 6.88954 12.2833V12.972C6.88954 14.8544 7.14331 16.3122 7.65084 17.3453C8.15837 18.3554 8.81585 19.0785 9.62329 19.5147C10.4307 19.9279 11.2843 20.1345 12.184 20.1345Z" fill="#191919"/>
</svg>
