<svg width="481" height="615" viewBox="0 0 481 615" fill="none" xmlns="http://www.w3.org/2000/svg">
<path fill-rule="evenodd" clip-rule="evenodd" d="M143.036 492.207L166.63 495.746L170.169 512.261L183.146 520.126L189.831 500.071L202.809 487.425V614.504H131.241V485.632L143.036 492.207Z" fill="#E7E7E4"/>
<path fill-rule="evenodd" clip-rule="evenodd" d="M344.775 70.386L276.663 46.9239C270.501 64.8131 260.875 81.3134 248.336 95.4827C235.797 109.652 220.59 121.213 203.584 129.505C186.577 137.797 168.103 142.659 149.217 143.812C130.332 144.964 111.404 142.386 93.5148 136.224L70.0528 204.336C96.8866 213.579 125.278 217.447 153.607 215.717C175.445 214.384 196.917 209.745 217.296 201.991C214.202 206.397 210.859 210.634 207.277 214.681C194.738 228.851 179.531 240.411 162.524 248.704C145.517 256.996 127.044 261.857 108.158 263.01C89.2724 264.163 70.3447 261.585 52.4554 255.422L28.9934 323.534C55.8271 332.778 84.2187 336.645 112.547 334.916C136.868 333.431 160.733 327.847 183.141 318.426L136.224 454.627L152.312 444.183L167.609 456.522L189.834 447.542L203.247 461.728L207.086 470.107L251.253 341.888C263.105 363.11 278.468 382.208 296.715 398.355C317.969 417.163 342.72 431.601 369.553 440.845L393.016 372.733C375.126 366.57 358.626 356.945 344.457 344.406C330.287 331.867 318.727 316.66 310.434 299.653C302.142 282.646 297.281 264.173 296.128 245.287C295.799 239.893 295.774 234.495 296.05 229.119C307.33 247.779 321.39 264.657 337.775 279.156C359.029 297.965 383.779 312.403 410.613 321.646L434.075 253.534C416.186 247.372 399.685 237.747 385.516 225.208C371.347 212.669 359.786 197.462 351.494 180.455C343.201 163.448 338.34 144.974 337.187 126.089C336.035 107.203 338.613 88.2752 344.775 70.386Z" fill="#E7E7E4"/>
</svg>
