<svg width="217" height="26" viewBox="0 0 217 26" fill="none" xmlns="http://www.w3.org/2000/svg">
<path d="M194.451 24.8224V6.24707H199.756V12.2753H202.719C205.107 12.2753 206.91 12.7893 208.128 13.8174C209.345 14.8455 209.954 16.4226 209.954 18.5489C209.954 19.7639 209.712 20.8503 209.23 21.8083C208.748 22.7663 207.978 23.514 206.922 24.0514C205.865 24.5654 204.464 24.8224 202.719 24.8224H194.451ZM199.756 20.7569H202.03C202.949 20.7569 203.615 20.5816 204.028 20.2312C204.441 19.8573 204.648 19.2965 204.648 18.5489C204.648 17.7778 204.441 17.217 204.028 16.8666C203.638 16.5161 202.972 16.3408 202.03 16.3408H199.756V20.7569ZM211.538 24.8224V6.24707H216.844V24.8224H211.538Z" fill="#191919"/>
<path d="M175.14 24.8224V10.6631H164.516V6.24707H191.068V10.6631H180.445V24.8224H175.14Z" fill="#191919"/>
<path d="M152.829 25.2996C151.037 25.2996 149.441 24.9491 148.04 24.2481C146.639 23.5472 145.537 22.4841 144.733 21.0588C143.929 19.6335 143.527 17.8578 143.527 15.7315V15.0306C143.527 13.0679 143.941 11.3973 144.767 10.0187C145.617 8.64018 146.743 7.60043 148.144 6.89947C149.567 6.17515 151.129 5.81299 152.829 5.81299C154.666 5.81299 156.205 6.1401 157.445 6.79433C158.685 7.42519 159.639 8.27802 160.305 9.35282C160.971 10.4276 161.35 11.6192 161.442 12.9277H155.964C155.803 12.0866 155.47 11.444 154.965 11.0001C154.482 10.5328 153.77 10.2991 152.829 10.2991C152.094 10.2991 151.428 10.4743 150.831 10.8248C150.256 11.1753 149.797 11.701 149.453 12.402C149.131 13.0796 148.97 13.9558 148.97 15.0306V15.7315C148.97 16.8764 149.131 17.8227 149.453 18.5704C149.774 19.3181 150.222 19.8789 150.796 20.2527C151.37 20.6032 152.048 20.7784 152.829 20.7784C153.633 20.7784 154.31 20.5681 154.861 20.1476C155.436 19.7036 155.803 19.0494 155.964 18.1849H161.442C161.35 19.6335 160.936 20.8952 160.201 21.97C159.466 23.0448 158.467 23.8743 157.204 24.4584C155.964 25.0192 154.505 25.2996 152.829 25.2996Z" fill="#191919"/>
<path d="M123.203 24.8224V6.24707H128.371V17.4624L136.122 6.24707H140.773V24.8224H135.605V13.6071L127.854 24.8224H123.203Z" fill="#191919"/>
<path d="M93.21 25.278C93.0033 25.278 92.7277 25.2664 92.3832 25.243C92.0616 25.243 91.809 25.2196 91.6252 25.1729V20.4414C91.6941 20.4648 91.8664 20.4765 92.142 20.4765C92.6703 20.4765 93.1066 20.2545 93.4511 19.8106C93.8186 19.3666 94.0827 18.619 94.2435 17.5675C94.4273 16.5161 94.5191 15.0791 94.5191 13.2566V6.24707H119.728V24.8224H114.422V10.6631H99.5145V13.9576C99.5145 16.2708 99.3767 18.175 99.1011 19.6704C98.8255 21.1658 98.4235 22.3223 97.8953 23.1401C97.3671 23.9345 96.701 24.4953 95.8971 24.8224C95.1163 25.1262 94.2205 25.278 93.21 25.278Z" fill="#191919"/>
<path d="M62.8491 17.6007V12.4136H89.2414V17.6007H62.8491Z" fill="#191919"/>
<path d="M44.9041 24.8224V6.24707H50.2095V13.2566H51.5875L56.6862 6.24707H62.474L55.7561 14.974L62.8185 24.8224H56.5484L51.5875 17.4624H50.2095V24.8224H44.9041Z" fill="#191919"/>
<path d="M33.4044 25.2996C31.613 25.2996 30.0052 24.9608 28.5813 24.2832C27.1573 23.5822 26.0204 22.5191 25.1706 21.0938C24.3438 19.6686 23.9304 17.8811 23.9304 15.7315V15.0306C23.9304 12.9744 24.3323 11.2688 25.1362 9.91359C25.9401 8.5584 27.031 7.54202 28.409 6.86442C29.81 6.16347 31.3603 5.81299 33.0599 5.81299C36.0686 5.81299 38.3424 6.60741 39.8812 8.19624C41.42 9.76171 42.1894 12.0398 42.1894 15.0306V16.9932H29.3737C29.4196 17.9045 29.6263 18.6639 29.9938 19.2714C30.3842 19.8789 30.878 20.3228 31.4752 20.6032C32.0723 20.8602 32.7154 20.9887 33.4044 20.9887C34.415 20.9887 35.2073 20.8368 35.7815 20.5331C36.3787 20.206 36.7691 19.7737 36.9528 19.2363H41.8449C41.4774 21.2691 40.5702 22.7878 39.1232 23.7925C37.6763 24.7972 35.77 25.2996 33.4044 25.2996ZM33.2321 10.1239C32.5891 10.1239 31.9804 10.229 31.4062 10.4393C30.8321 10.6496 30.3612 11.0001 29.9938 11.4907C29.6493 11.958 29.454 12.6006 29.4081 13.4184H36.9873C36.9873 12.5539 36.815 11.8879 36.4705 11.4206C36.126 10.93 35.6667 10.5912 35.0925 10.4043C34.5413 10.2173 33.9212 10.1239 33.2321 10.1239Z" fill="#191919"/>
<path d="M14.2451 24.8333V15.0549C13.648 15.4522 12.8556 15.8143 11.868 16.1414C10.9034 16.4452 9.75503 16.597 8.42293 16.597C5.91951 16.597 4.02471 15.9662 2.73855 14.7045C1.47535 13.4194 0.84375 11.3632 0.84375 8.53605V0.299805H7.0449V7.48461C7.0449 8.86316 7.33199 9.85618 7.90617 10.4637C8.48035 11.0478 9.2842 11.3399 10.3177 11.3399C11.2594 11.3399 12.0518 11.2347 12.6948 11.0244C13.3379 10.7908 13.8547 10.5455 14.2451 10.2884V0.299805H20.4807V24.8333H14.2451Z" fill="#191919"/>
</svg>
