<svg width="1223" height="79" viewBox="0 0 1223 79" fill="none" xmlns="http://www.w3.org/2000/svg">
<path d="M13.114 59.25H0V0H48.664V59.25H35.55V11.139H13.114V59.25Z" fill="black"/>
<path d="M79.4956 60.435C72.5963 60.435 67.2769 58.4863 63.5376 54.589C59.8509 50.6917 58.0076 45.6357 58.0076 39.421C58.0076 33.3643 59.8773 28.3083 63.6166 24.253C67.4086 20.1977 72.5436 18.17 79.0216 18.17C85.4996 18.17 90.3449 19.908 93.5576 23.384C96.7703 26.8073 98.3766 31.3367 98.3766 36.972C98.3766 37.8147 98.3239 38.6573 98.2186 39.5C98.1659 40.3427 98.0869 40.9747 97.9816 41.396L97.8236 42.028H70.0156C70.3843 44.7667 71.3849 46.926 73.0176 48.506C74.7029 50.086 76.9413 50.876 79.7326 50.876C81.0493 50.876 82.2343 50.7707 83.2876 50.56C84.3936 50.2967 85.2363 49.9807 85.8156 49.612C86.3949 49.2433 86.8689 48.8747 87.2376 48.506C87.6589 48.1373 87.9223 47.8213 88.0276 47.558L88.2646 47.242H97.5866V52.535C97.4813 52.7457 97.2969 53.0353 97.0336 53.404C96.8229 53.7727 96.2436 54.4047 95.2956 55.3C94.3476 56.1953 93.2416 56.9853 91.9776 57.67C90.7663 58.3547 89.0283 58.9867 86.7636 59.566C84.5516 60.1453 82.1289 60.435 79.4956 60.435ZM70.2526 34.839H86.9216C86.9216 32.785 86.2369 31.0733 84.8676 29.704C83.4983 28.3347 81.5233 27.65 78.9426 27.65C74.2553 27.65 71.3586 30.0463 70.2526 34.839Z" fill="black"/>
<path d="M118.206 79H106.277V19.355H117.416L117.969 25.043C119.286 22.9363 121.103 21.2773 123.42 20.066C125.79 18.802 128.397 18.17 131.241 18.17C136.666 18.17 140.985 20.1713 144.197 24.174C147.41 28.1767 149.016 33.18 149.016 39.184C149.016 45.2407 147.384 50.2967 144.118 54.352C140.853 58.4073 136.561 60.435 131.241 60.435C125.501 60.435 121.156 58.2493 118.206 53.878V79ZM127.607 49.691C130.609 49.691 132.927 48.7167 134.559 46.768C136.245 44.8193 137.087 42.2913 137.087 39.184C137.087 36.182 136.245 33.733 134.559 31.837C132.927 29.8883 130.609 28.914 127.607 28.914C124.816 28.914 122.551 29.8883 120.813 31.837C119.075 33.7857 118.206 36.2347 118.206 39.184C118.206 42.186 119.075 44.6877 120.813 46.689C122.551 48.6903 124.816 49.691 127.607 49.691Z" fill="black"/>
<path d="M197.807 59.25H156.964V18.96H196.938C201.204 18.96 204.627 19.8817 207.208 21.725C209.788 23.5157 211.079 26.0963 211.079 29.467C211.079 31.4157 210.552 33.1537 209.499 34.681C208.445 36.1557 206.997 37.2617 205.154 37.999C207.524 38.6837 209.367 39.8423 210.684 41.475C212 43.1077 212.659 45.03 212.659 47.242C212.659 51.192 211.316 54.194 208.63 56.248C205.944 58.2493 202.336 59.25 197.807 59.25ZM168.419 27.255V34.365H194.568C197.675 34.365 199.229 33.1537 199.229 30.731C199.229 28.4137 197.675 27.255 194.568 27.255H168.419ZM168.419 42.739V50.955H195.279C198.965 50.955 200.809 49.5857 200.809 46.847C200.809 44.1083 198.965 42.739 195.279 42.739H168.419Z" fill="black"/>
<path d="M238.465 59.25H220.611V19.355H232.54V31.363H238.623C244.206 31.363 248.446 32.6007 251.342 35.076C254.292 37.5513 255.766 40.843 255.766 44.951C255.766 48.901 254.371 52.2717 251.579 55.063C248.788 57.8543 244.417 59.25 238.465 59.25ZM271.408 59.25H259.479V19.355H271.408V59.25ZM232.54 40.29V50.323H237.517C241.573 50.323 243.6 48.585 243.6 45.109C243.6 41.8963 241.599 40.29 237.596 40.29H232.54Z" fill="black"/>
<path d="M309.919 10.823C307.813 12.403 304.837 13.193 300.992 13.193C297.148 13.193 294.172 12.403 292.065 10.823C290.011 9.243 288.721 7.68934 288.194 6.162V1.106H296.726C296.726 1.79067 296.805 2.449 296.963 3.081C297.121 3.713 297.543 4.345 298.227 4.977C298.965 5.609 299.886 5.925 300.992 5.925C302.467 5.925 303.547 5.39834 304.231 4.345C304.969 3.239 305.337 2.15934 305.337 1.106H313.869V6.162C313.343 7.68934 312.026 9.243 309.919 10.823ZM293.092 59.25H281.558V19.355H293.487V43.055L308.734 19.355H320.268V59.25H308.339V35.55L293.092 59.25Z" fill="black"/>
<path d="M360.684 59.25H348.755V19.355H405.635V59.25H393.706V29.072H360.684V59.25Z" fill="black"/>
<path d="M427.649 79H415.72V19.355H426.859L427.412 25.043C428.728 22.9363 430.545 21.2773 432.863 20.066C435.233 18.802 437.84 18.17 440.684 18.17C446.108 18.17 450.427 20.1713 453.64 24.174C456.852 28.1767 458.459 33.18 458.459 39.184C458.459 45.2407 456.826 50.2967 453.561 54.352C450.295 58.4073 446.003 60.435 440.684 60.435C434.943 60.435 430.598 58.2493 427.649 53.878V79ZM437.05 49.691C440.052 49.691 442.369 48.7167 444.002 46.768C445.687 44.8193 446.53 42.2913 446.53 39.184C446.53 36.182 445.687 33.733 444.002 31.837C442.369 29.8883 440.052 28.914 437.05 28.914C434.258 28.914 431.994 29.8883 430.256 31.837C428.518 33.7857 427.649 36.2347 427.649 39.184C427.649 42.186 428.518 44.6877 430.256 46.689C431.994 48.6903 434.258 49.691 437.05 49.691Z" fill="black"/>
<path d="M504.01 59.25H466.406V19.355H478.335V31.363H504.168C509.751 31.363 513.99 32.6007 516.887 35.076C519.836 37.5513 521.311 40.843 521.311 44.951C521.311 48.901 519.915 52.2717 517.124 55.063C514.333 57.8543 509.961 59.25 504.01 59.25ZM536.953 59.25H525.024V19.355H536.953V59.25ZM478.335 40.29V50.323H503.062C507.117 50.323 509.145 48.585 509.145 45.109C509.145 41.8963 507.144 40.29 503.141 40.29H478.335Z" fill="black"/>
<path d="M555.398 59.25H544.575V53.72L556.583 38.552L544.654 24.569V19.355H555.003L568.354 35.629V19.355H580.283V35.629L593.476 19.355H603.667V24.648L592.133 38.473L604.457 53.72V59.25H593.476L580.283 41.949V59.25H568.354V42.028L555.398 59.25Z" fill="black"/>
<path d="M644.726 54.352C640.934 58.4073 635.826 60.435 629.4 60.435C622.975 60.435 617.84 58.4073 613.995 54.352C610.203 50.2967 608.307 45.2407 608.307 39.184C608.307 33.18 610.203 28.1767 613.995 24.174C617.84 20.1713 622.975 18.17 629.4 18.17C635.826 18.17 640.934 20.1713 644.726 24.174C648.571 28.1767 650.493 33.18 650.493 39.184C650.493 45.2407 648.571 50.2967 644.726 54.352ZM622.527 47.005C624.107 49.059 626.398 50.086 629.4 50.086C632.402 50.086 634.667 49.059 636.194 47.005C637.774 44.951 638.564 42.344 638.564 39.184C638.564 36.1293 637.774 33.6013 636.194 31.6C634.614 29.546 632.35 28.519 629.4 28.519C626.451 28.519 624.186 29.546 622.606 31.6C621.026 33.6013 620.236 36.1293 620.236 39.184C620.236 42.344 621 44.951 622.527 47.005Z" fill="black"/>
<path d="M670.358 59.25H658.429V19.355H670.358V35.55L684.025 19.355H694.137V24.648L682.366 38.394L695.559 53.72V59.25H684.42L670.358 42.028V59.25Z" fill="black"/>
<path d="M739.563 60.435C732.874 60.435 727.713 58.46 724.079 54.51C720.497 50.56 718.707 45.5303 718.707 39.421C718.707 33.3643 720.603 28.3083 724.395 24.253C728.187 20.145 733.243 18.091 739.563 18.091C740.985 18.091 742.354 18.1963 743.671 18.407C744.987 18.6177 746.12 18.9073 747.068 19.276C748.016 19.6447 748.911 20.066 749.754 20.54C750.596 20.9613 751.307 21.4353 751.887 21.962C752.519 22.4887 753.045 23.0153 753.467 23.542C753.941 24.0687 754.336 24.569 754.652 25.043C754.968 25.4643 755.205 25.8593 755.363 26.228C755.573 26.5967 755.731 26.8863 755.837 27.097L755.916 27.413V32.706H746.989C747.041 32.706 746.989 32.5743 746.831 32.311C746.725 31.995 746.488 31.6263 746.12 31.205C745.804 30.7837 745.382 30.3623 744.856 29.941C744.329 29.5197 743.592 29.1773 742.644 28.914C741.748 28.598 740.721 28.44 739.563 28.44C736.666 28.44 734.454 29.4933 732.927 31.6C731.399 33.654 730.636 36.261 730.636 39.421C730.636 42.5283 731.399 45.0827 732.927 47.084C734.454 49.0853 736.666 50.086 739.563 50.086C741.511 50.086 743.091 49.7437 744.303 49.059C745.567 48.3217 746.357 47.6107 746.673 46.926L747.068 45.82H755.995V51.113C755.889 51.3763 755.731 51.7187 755.521 52.14C755.363 52.5613 754.862 53.2987 754.02 54.352C753.177 55.4053 752.203 56.3533 751.097 57.196C749.991 57.986 748.411 58.7233 746.357 59.408C744.303 60.0927 742.038 60.435 739.563 60.435Z" fill="black"/>
<path d="M794.412 59.25H782.483V19.355H839.363V59.25H827.434V29.072H794.412V59.25Z" fill="black"/>
<path d="M859.955 60.435C855.584 60.435 852.318 59.1973 850.159 56.722C847.947 54.2993 846.841 51.4027 846.841 48.032C846.841 44.1347 848.263 41.1063 851.107 38.947C854.004 36.735 858.296 35.629 863.984 35.629C865.195 35.629 866.407 35.708 867.618 35.866C868.882 35.9713 869.83 36.0767 870.462 36.182L871.41 36.419V34.681C871.41 30.257 869.224 28.045 864.853 28.045C863.905 28.045 863.01 28.1767 862.167 28.44C861.377 28.6507 860.745 28.9403 860.271 29.309C859.797 29.6777 859.376 30.0463 859.007 30.415C858.638 30.7837 858.401 31.0733 858.296 31.284L858.059 31.679H849.053V26.386L849.132 26.307C850.659 23.147 853.424 20.856 857.427 19.434C859.692 18.5913 862.246 18.17 865.09 18.17C871.094 18.17 875.623 19.6183 878.678 22.515C881.785 25.359 883.339 29.546 883.339 35.076V59.25H872.595L871.805 54.194C869.277 58.3547 865.327 60.435 859.955 60.435ZM863.826 51.271C866.407 51.271 868.329 50.5337 869.593 49.059C870.804 47.5843 871.41 46.1623 871.41 44.793V43.055C869.567 42.6337 867.355 42.423 864.774 42.423C860.666 42.423 858.612 43.924 858.612 46.926C858.612 49.8227 860.35 51.271 863.826 51.271Z" fill="black"/>
<path d="M904.889 79H892.96V19.355H904.099L904.652 25.043C905.968 22.9363 907.785 21.2773 910.103 20.066C912.473 18.802 915.08 18.17 917.924 18.17C923.348 18.17 927.667 20.1713 930.88 24.174C934.092 28.1767 935.699 33.18 935.699 39.184C935.699 45.2407 934.066 50.2967 930.801 54.352C927.535 58.4073 923.243 60.435 917.924 60.435C912.183 60.435 907.838 58.2493 904.889 53.878V79ZM914.29 49.691C917.292 49.691 919.609 48.7167 921.242 46.768C922.927 44.8193 923.77 42.2913 923.77 39.184C923.77 36.182 922.927 33.733 921.242 31.837C919.609 29.8883 917.292 28.914 914.29 28.914C911.498 28.914 909.234 29.8883 907.496 31.837C905.758 33.7857 904.889 36.2347 904.889 39.184C904.889 42.186 905.758 44.6877 907.496 46.689C909.234 48.6903 911.498 49.691 914.29 49.691Z" fill="black"/>
<path d="M954.153 60.435C949.782 60.435 946.517 59.1973 944.357 56.722C942.145 54.2993 941.039 51.4027 941.039 48.032C941.039 44.1347 942.461 41.1063 945.305 38.947C948.202 36.735 952.494 35.629 958.182 35.629C959.394 35.629 960.605 35.708 961.816 35.866C963.08 35.9713 964.028 36.0767 964.66 36.182L965.608 36.419V34.681C965.608 30.257 963.423 28.045 959.051 28.045C958.103 28.045 957.208 28.1767 956.365 28.44C955.575 28.6507 954.943 28.9403 954.469 29.309C953.995 29.6777 953.574 30.0463 953.205 30.415C952.837 30.7837 952.6 31.0733 952.494 31.284L952.257 31.679H943.251V26.386L943.33 26.307C944.858 23.147 947.623 20.856 951.625 19.434C953.89 18.5913 956.444 18.17 959.288 18.17C965.292 18.17 969.822 19.6183 972.876 22.515C975.984 25.359 977.537 29.546 977.537 35.076V59.25H966.793L966.003 54.194C963.475 58.3547 959.525 60.435 954.153 60.435ZM958.024 51.271C960.605 51.271 962.527 50.5337 963.791 49.059C965.003 47.5843 965.608 46.1623 965.608 44.793V43.055C963.765 42.6337 961.553 42.423 958.972 42.423C954.864 42.423 952.81 43.924 952.81 46.926C952.81 49.8227 954.548 51.271 958.024 51.271Z" fill="black"/>
<path d="M1057.55 59.25H987.158V19.355H999.087V49.691H1016.39V19.355H1028.32V49.691H1045.62V19.355H1057.55V59.25Z" fill="black"/>
<path d="M1104.18 60.435C1098.81 60.435 1094.36 58.8813 1090.83 55.774C1087.3 52.6667 1085.12 48.6377 1084.28 43.687H1079.61V59.25H1067.69V19.355H1079.61V34.128H1084.35C1085.3 29.5987 1087.49 25.7803 1090.91 22.673C1094.28 19.671 1098.71 18.17 1104.18 18.17C1110.5 18.17 1115.53 20.1713 1119.27 24.174C1123.01 28.1767 1124.88 33.18 1124.88 39.184C1124.88 45.2407 1123.01 50.2967 1119.27 54.352C1115.53 58.4073 1110.5 60.435 1104.18 60.435ZM1104.18 49.928C1107.03 49.928 1109.19 48.9273 1110.66 46.926C1112.19 44.9247 1112.95 42.344 1112.95 39.184C1112.95 36.1293 1112.19 33.6277 1110.66 31.679C1109.19 29.6777 1107.03 28.677 1104.18 28.677C1101.34 28.677 1099.15 29.6777 1097.63 31.679C1096.1 33.6803 1095.34 36.182 1095.34 39.184C1095.34 42.344 1096.07 44.9247 1097.55 46.926C1099.07 48.9273 1101.29 49.928 1104.18 49.928Z" fill="black"/>
<path d="M1161.58 59.25H1149.65V29.072H1128.4V19.355H1182.91V29.072H1161.58V59.25Z" fill="black"/>
<path d="M1199.08 60.435C1194.71 60.435 1191.45 59.1973 1189.29 56.722C1187.08 54.2993 1185.97 51.4027 1185.97 48.032C1185.97 44.1347 1187.39 41.1063 1190.24 38.947C1193.13 36.735 1197.43 35.629 1203.11 35.629C1204.32 35.629 1205.54 35.708 1206.75 35.866C1208.01 35.9713 1208.96 36.0767 1209.59 36.182L1210.54 36.419V34.681C1210.54 30.257 1208.35 28.045 1203.98 28.045C1203.03 28.045 1202.14 28.1767 1201.3 28.44C1200.51 28.6507 1199.87 28.9403 1199.4 29.309C1198.93 29.6777 1198.5 30.0463 1198.14 30.415C1197.77 30.7837 1197.53 31.0733 1197.43 31.284L1197.19 31.679H1188.18V26.386L1188.26 26.307C1189.79 23.147 1192.55 20.856 1196.56 19.434C1198.82 18.5913 1201.38 18.17 1204.22 18.17C1210.22 18.17 1214.75 19.6183 1217.81 22.515C1220.91 25.359 1222.47 29.546 1222.47 35.076V59.25H1211.72L1210.93 54.194C1208.41 58.3547 1204.46 60.435 1199.08 60.435ZM1202.96 51.271C1205.54 51.271 1207.46 50.5337 1208.72 49.059C1209.93 47.5843 1210.54 46.1623 1210.54 44.793V43.055C1208.7 42.6337 1206.48 42.423 1203.9 42.423C1199.8 42.423 1197.74 43.924 1197.74 46.926C1197.74 49.8227 1199.48 51.271 1202.96 51.271Z" fill="black"/>
</svg>
