<svg width="334" height="74" viewBox="0 0 334 74" fill="none" xmlns="http://www.w3.org/2000/svg">
<path d="M291.973 57.4579V24.3002H263.086V13.959H333.5V24.3002H304.613V57.4579H291.973Z" fill="black"/>
<path d="M221.98 73.8661V58.5184C214.649 58.5184 209.013 56.6307 205.073 52.8553C201.134 49.0252 199.164 43.4716 199.164 36.1944V34.4709C199.164 27.4673 201.134 22.1325 205.073 18.4665C209.013 14.7459 214.649 12.8855 221.98 12.8855V0H234.62V12.8855C241.952 12.8855 247.587 14.7459 251.527 18.4665C255.466 22.1325 257.436 27.4673 257.436 34.4709V36.1944C257.436 43.4716 255.466 49.0252 251.527 52.8553C247.587 56.6307 241.952 58.5184 234.62 58.5184V73.8661H221.98ZM244.551 36.1123V34.4709C244.551 30.8049 243.703 28.0418 242.006 26.1814C240.365 24.3211 237.766 23.3909 234.209 23.3909V48.013C237.766 48.013 240.365 47.0007 242.006 44.9763C243.703 42.8971 244.551 39.9424 244.551 36.1123ZM211.968 34.4709V36.1123C211.968 39.9971 212.816 42.9518 214.512 44.9763C216.263 47.0007 218.916 48.013 222.473 48.013V23.3909C218.752 23.3909 216.071 24.3485 214.43 26.2635C212.788 28.1786 211.968 30.9143 211.968 34.4709Z" fill="black"/>
<path d="M150.719 57.4579V13.959H163.03V40.2225L181.496 13.959H192.576V57.4579H180.265V31.1944L161.799 57.4579H150.719Z" fill="black"/>
<path d="M100.215 73.8556V13.942H111.869V19.8512C113.018 18.1003 114.714 16.5136 116.958 15.091C119.256 13.6137 122.074 12.875 125.411 12.875C131.54 12.875 136.19 14.6806 139.364 18.2918C142.537 21.9031 144.124 27.2926 144.124 34.4603V36.1018C144.124 41.0262 143.358 45.1572 141.826 48.4949C140.294 51.7778 138.133 54.2674 135.342 55.9636C132.552 57.6597 129.241 58.5078 125.411 58.5078C122.949 58.5078 120.596 57.9607 118.353 56.8664C116.164 55.7173 114.331 54.0759 112.854 51.942V73.8556H100.215ZM122.375 48.0845C124.892 48.0845 126.971 47.0723 128.612 45.0478C130.308 42.9686 131.157 39.9866 131.157 36.1018V34.4603C131.157 30.6849 130.336 27.8944 128.694 26.0888C127.108 24.2285 125.001 23.2983 122.375 23.2983C120.624 23.2983 119.01 23.6813 117.532 24.4474C116.11 25.1587 114.961 26.253 114.085 27.7303C113.265 29.2076 112.854 31.0406 112.854 33.2292V37.3329C112.854 39.5762 113.265 41.5186 114.085 43.1601C114.961 44.7469 116.11 45.978 117.532 46.8534C119.01 47.6741 120.624 48.0845 122.375 48.0845Z" fill="black"/>
<path d="M0 68.121V45.3045H6.56588C7.27718 43.4989 7.85169 41.3924 8.28942 38.9849C8.78186 36.5227 9.16487 33.8963 9.43845 31.1058C9.71202 28.3153 9.90353 25.4701 10.013 22.5702C10.1771 19.6156 10.2592 16.743 10.2592 13.9525V0H88.236V45.3045H94.0632V68.121H81.2597V57.4514H12.8035V68.121H0ZM20.7646 45.3045H73.4627V12.1469H24.0475V15.594C24.0475 22.2693 23.7739 28.0418 23.2268 32.9115C22.7343 37.7264 21.9136 41.8575 20.7646 45.3045Z" fill="black"/>
</svg>
