<svg width="605" height="65" viewBox="0 0 605 65" fill="none" xmlns="http://www.w3.org/2000/svg">
<path d="M539.598 64.7795V46.1228H543.756C544.449 45.0822 544.994 43.8186 545.39 42.332C545.836 40.7959 546.157 38.9129 546.355 36.683C546.553 34.4531 546.652 31.802 546.652 28.7297V16.0938H600.545V46.1228H605.001V64.7795H595.347V55.4883H549.252V64.7795H539.598ZM554.97 46.1228H589.109V25.4592H557.197V30.2163C557.197 33.9823 557.024 37.1537 556.678 39.7305C556.331 42.2577 555.762 44.3885 554.97 46.1228Z" fill="#191919"/>
<path d="M516.601 56.4521C512.938 56.4521 509.571 55.7336 506.502 54.2966C503.482 52.8595 501.056 50.6297 499.224 47.6069C497.442 44.5346 496.551 40.7191 496.551 36.1602V34.6736C496.551 30.4121 497.442 26.8443 499.224 23.9702C501.056 21.0466 503.482 18.8415 506.502 17.3549C509.571 15.8683 512.938 15.125 516.601 15.125C520.314 15.125 523.681 15.8683 526.701 17.3549C529.721 18.8415 532.122 21.0466 533.904 23.9702C535.736 26.8443 536.652 30.4121 536.652 34.6736V36.1602C536.652 40.6695 535.736 44.4355 533.904 47.4583C532.122 50.4314 529.721 52.6861 526.701 54.2222C523.681 55.7088 520.314 56.4521 516.601 56.4521ZM516.601 46.938C518.383 46.938 519.893 46.5168 521.131 45.6744C522.369 44.7824 523.309 43.5188 523.953 41.8836C524.597 40.2483 524.918 38.3405 524.918 36.1602V34.6736C524.918 32.6915 524.597 30.9572 523.953 29.4706C523.309 27.984 522.369 26.8195 521.131 25.9771C519.893 25.0851 518.383 24.6392 516.601 24.6392C514.819 24.6392 513.309 25.0851 512.071 25.9771C510.834 26.8195 509.893 27.984 509.249 29.4706C508.606 30.9572 508.284 32.6915 508.284 34.6736V36.1602C508.284 38.4396 508.606 40.397 509.249 42.0322C509.893 43.6179 510.834 44.832 512.071 45.6744C513.309 46.5168 514.819 46.938 516.601 46.938Z" fill="#191919"/>
<path d="M453.434 55.4883L465.984 34.9734L454.176 16.0938H466.801L474.524 28.0608L481.95 16.0938H494.277L482.544 34.6018L495.02 55.4883H482.321L474.078 41.4401L465.835 55.4883H453.434Z" fill="#191919"/>
<path d="M431.89 56.4521C428.227 56.4521 424.86 55.7336 421.791 54.2966C418.771 52.8595 416.345 50.6297 414.513 47.6069C412.731 44.5346 411.84 40.7191 411.84 36.1602V34.6736C411.84 30.4121 412.731 26.8443 414.513 23.9702C416.345 21.0466 418.771 18.8415 421.791 17.3549C424.86 15.8683 428.227 15.125 431.89 15.125C435.603 15.125 438.97 15.8683 441.99 17.3549C445.01 18.8415 447.411 21.0466 449.193 23.9702C451.025 26.8443 451.941 30.4121 451.941 34.6736V36.1602C451.941 40.6695 451.025 44.4355 449.193 47.4583C447.411 50.4314 445.01 52.6861 441.99 54.2222C438.97 55.7088 435.603 56.4521 431.89 56.4521ZM431.89 46.938C433.673 46.938 435.183 46.5168 436.42 45.6744C437.658 44.7824 438.599 43.5188 439.242 41.8836C439.886 40.2483 440.208 38.3405 440.208 36.1602V34.6736C440.208 32.6915 439.886 30.9572 439.242 29.4706C438.599 27.984 437.658 26.8195 436.42 25.9771C435.183 25.0851 433.673 24.6392 431.89 24.6392C430.108 24.6392 428.598 25.0851 427.36 25.9771C426.123 26.8195 425.182 27.984 424.538 29.4706C423.895 30.9572 423.573 32.6915 423.573 34.6736V36.1602C423.573 38.4396 423.895 40.397 424.538 42.0322C425.182 43.6179 426.123 44.832 427.36 45.6744C428.598 46.5168 430.108 46.938 431.89 46.938Z" fill="#191919"/>
<path d="M347.211 55.4883V16.0938H405.931V55.4883H394.495V25.4592H358.647V55.4883H347.211Z" fill="#191919"/>
<path d="M283.324 55.4876V16.0931H294.463V39.8785L311.172 16.0931H321.197V55.4876H310.058V31.7022L293.349 55.4876H283.324ZM302.261 12.0793C297.409 12.0793 293.968 11.1378 291.938 9.25479C289.909 7.37178 288.894 4.54727 288.894 0.78125H298.993C298.993 2.5156 299.266 3.70487 299.81 4.34906C300.355 4.99325 301.172 5.31534 302.261 5.31534C303.35 5.31534 304.167 4.99325 304.711 4.34906C305.256 3.70487 305.528 2.5156 305.528 0.78125H315.628C315.628 4.54727 314.613 7.37178 312.583 9.25479C310.553 11.1378 307.112 12.0793 302.261 12.0793Z" fill="#191919"/>
<path d="M238 55.4883V16.0938H249.139V39.8791L265.848 16.0938H275.873V55.4883H264.734V31.7029L248.025 55.4883H238Z" fill="#191919"/>
<path d="M171.084 55.4883V16.0938H182.52V30.7366H219.11V16.0938H230.546V55.4883H219.11V40.1021H182.52V55.4883H171.084Z" fill="#191919"/>
<path d="M117.627 55.4883V16.0938H131.514L140.871 35.6424L150.228 16.0938H163.669V55.4883H152.827V31.3313L144.361 48.0554H136.935L128.469 31.3313V55.4883H117.627Z" fill="#191919"/>
<path d="M50.7031 55.4883V16.0938H61.8423V40.9596L100.14 16.0938H110.166V55.4883H99.0265V30.6224L60.7283 55.4883H50.7031Z" fill="#191919"/>
<path d="M22.2783 56.4553C17.4266 56.4553 13.367 55.7368 10.0995 54.2997C6.832 52.8627 4.35664 50.8063 2.67339 48.1304C1.03965 45.405 0.148522 42.1593 0 38.3933H13.8125C13.9611 39.979 14.3076 41.3417 14.8522 42.4814C15.4463 43.6211 16.3374 44.513 17.5256 45.1572C18.7138 45.7519 20.298 46.0492 22.2783 46.0492C25.2487 46.0492 27.4023 45.5041 28.739 44.4139C30.0757 43.3238 30.744 41.7876 30.744 39.8055C30.744 38.5171 30.4965 37.3774 30.0014 36.3864C29.5063 35.3953 28.5905 34.6272 27.2538 34.0822C25.9171 33.5371 24.011 33.2645 21.5357 33.2645H16.783V24.1964H21.5357C24.3081 24.1964 26.2141 23.6017 27.2538 22.4125C28.3429 21.2232 28.8875 19.8853 28.8875 18.3987C28.8875 16.9121 28.4419 15.6237 27.5508 14.5335C26.6597 13.4434 24.9022 12.8983 22.2783 12.8983C20.694 12.8983 19.3821 13.1461 18.3424 13.6416C17.3028 14.0876 16.4859 14.8061 15.8918 15.7971C15.3473 16.7386 15.0255 17.9527 14.9264 19.4393H1.11391C1.31194 13.6911 3.11896 9.42959 6.53496 6.65463C9.95096 3.87967 15.1987 2.49219 22.2783 2.49219C29.3578 2.49219 34.5313 3.75579 37.7988 6.28298C41.0663 8.76063 42.7 12.4275 42.7 17.2837C42.7 20.0091 42.0069 22.3381 40.6207 24.2707C39.284 26.1537 37.3532 27.5164 34.8284 28.3588C37.9968 29.1021 40.3979 30.5391 42.0317 32.6699C43.7149 34.7511 44.5566 37.4765 44.5566 40.8461C44.5566 43.9184 43.7397 46.6438 42.1059 49.0224C40.5217 51.3513 38.0959 53.1848 34.8284 54.5227C31.5609 55.8111 27.3775 56.4553 22.2783 56.4553Z" fill="#191919"/>
</svg>
