<svg width="333" height="78" viewBox="0 0 333 78" fill="none" xmlns="http://www.w3.org/2000/svg">
<path d="M287.898 76.6779V15.112H299.869V21.1843C301.05 19.3851 302.792 17.7546 305.096 16.2927C307.457 14.7747 310.351 14.0156 313.779 14.0156C320.074 14.0156 324.851 15.871 328.111 19.5819C331.37 23.2927 333 28.8308 333 36.1962V37.883C333 42.9432 332.213 47.1881 330.64 50.6178C329.066 53.9913 326.846 56.5495 323.98 58.2925C321.114 60.0354 317.713 60.9069 313.779 60.9069C311.25 60.9069 308.834 60.3447 306.529 59.2202C304.281 58.0395 302.398 56.3527 300.881 54.16V76.6779H287.898ZM310.66 50.1961C313.245 50.1961 315.381 49.156 317.067 47.0757C318.809 44.9391 319.68 41.8749 319.68 37.883V36.1962C319.68 32.3167 318.837 29.4493 317.151 27.5939C315.522 25.6822 313.358 24.7264 310.66 24.7264C308.862 24.7264 307.204 25.12 305.686 25.9071C304.225 26.638 303.045 27.7625 302.146 29.2806C301.303 30.7987 300.881 32.6822 300.881 34.9312V39.148C300.881 41.4532 301.303 43.4492 302.146 45.1359C303.045 46.7664 304.225 48.0315 305.686 48.9311C307.204 49.7745 308.862 50.1961 310.66 50.1961Z" fill="#191919"/>
<path d="M246.198 77.7795C245.355 77.7795 244.512 77.6951 243.669 77.5265V66.7314C244.512 66.9 245.355 66.9844 246.198 66.9844C247.322 66.9844 248.25 66.7314 248.98 66.2253C249.711 65.7755 250.357 65.0165 250.919 63.9482C251.538 62.88 252.184 61.4744 252.858 59.7314L233.975 15.1172H248.306L259.434 44.8881L269.972 15.1172H282.87L265.841 59.8157C264.155 64.0326 262.553 67.4623 261.036 70.1048C259.518 72.8036 257.607 74.7434 255.303 75.9241C253.055 77.161 250.02 77.7795 246.198 77.7795Z" fill="#191919"/>
<path d="M187.627 59.8157V15.1172H200.61V31.9846H203.982L216.458 15.1172H230.621L214.182 36.1171L231.464 59.8157H216.121L203.982 42.105H200.61V59.8157H187.627Z" fill="#191919"/>
<path d="M109.205 59.8157V15.1172H122.188V31.7316H166.176V15.1172H179.159V59.8157H166.176V42.358H122.188V59.8157H109.205Z" fill="#191919"/>
<path d="M79.7382 60.9069C75.5793 60.9069 71.7576 60.0917 68.2731 58.4612C64.8448 56.8306 62.0909 54.3005 60.0115 50.8708C57.9882 47.3849 56.9766 43.0556 56.9766 37.883V36.1962C56.9766 31.3609 57.9882 27.3127 60.0115 24.0517C62.0909 20.7345 64.8448 18.2325 68.2731 16.5457C71.7576 14.859 75.5793 14.0156 79.7382 14.0156C83.9534 14.0156 87.7751 14.859 91.2034 16.5457C94.6317 18.2325 97.3574 20.7345 99.3807 24.0517C101.46 27.3127 102.5 31.3609 102.5 36.1962V37.883C102.5 42.9994 101.46 47.2725 99.3807 50.7022C97.3574 54.0756 94.6317 56.6339 91.2034 58.3768C87.7751 60.0636 83.9534 60.9069 79.7382 60.9069ZM79.7382 50.1118C81.7615 50.1118 83.4756 49.6339 84.8807 48.6781C86.2857 47.666 87.3536 46.2323 88.0842 44.3769C88.8148 42.5215 89.1801 40.3568 89.1801 37.883V36.1962C89.1801 33.9472 88.8148 31.9794 88.0842 30.2926C87.3536 28.6059 86.2857 27.2846 84.8807 26.3288C83.4756 25.3168 81.7615 24.8107 79.7382 24.8107C77.715 24.8107 76.0008 25.3168 74.5958 26.3288C73.1907 27.2846 72.1229 28.6059 71.3923 30.2926C70.6617 31.9794 70.2964 33.9472 70.2964 36.1962V37.883C70.2964 40.4693 70.6617 42.6902 71.3923 44.5456C72.1229 46.3448 73.1907 47.7223 74.5958 48.6781C76.0008 49.6339 77.715 50.1118 79.7382 50.1118Z" fill="#191919"/>
<path d="M0 59.8171V0.78125H15.1744V24.1426H19.3896L37.4303 0.78125H53.9536L31.1919 28.3594L54.7966 59.8171H37.0931L19.3896 34.769H15.1744V59.8171H0Z" fill="#191919"/>
</svg>
