<svg width="659" height="53" viewBox="0 0 659 53" fill="none" xmlns="http://www.w3.org/2000/svg">
<path d="M634.382 52.7413C631.571 52.7413 629.154 52.1988 627.132 51.1139C625.16 50.0289 623.655 48.5495 622.62 46.6755C621.584 44.7521 621.066 42.6315 621.066 40.3137C621.066 36.4177 622.25 33.4341 624.617 31.3629C627.034 29.2916 630.658 28.256 635.491 28.256H646.587V26.6285C646.587 24.2614 646.02 22.6339 644.886 21.7462C643.801 20.8586 642.272 20.4147 640.3 20.4147C638.426 20.4147 637.045 20.7106 636.157 21.3024C635.269 21.8449 634.776 22.7572 634.678 24.0394H623.286C623.434 21.6723 624.173 19.5517 625.505 17.6777C626.886 15.8037 628.834 14.3242 631.349 13.2392C633.913 12.1543 637.02 11.6118 640.67 11.6118C644.122 11.6118 647.155 12.1296 649.768 13.1653C652.382 14.2009 654.404 15.8776 655.834 18.1955C657.314 20.464 658.053 23.5216 658.053 27.3683V41.7932C658.053 43.8644 658.103 45.6891 658.201 47.2672C658.3 48.796 658.448 50.3002 658.645 51.7797H647.771C647.722 50.9413 647.648 50.2015 647.549 49.5604C647.5 48.9193 647.475 48.1303 647.475 47.1933C646.291 48.7714 644.639 50.1029 642.519 51.1879C640.448 52.2235 637.735 52.7413 634.382 52.7413ZM638.08 44.6782C639.708 44.6782 641.163 44.3823 642.445 43.7905C643.727 43.1987 644.738 42.311 645.478 41.1274C646.218 39.8945 646.587 38.5137 646.587 36.9849V35.3574H637.711C636.034 35.3574 634.776 35.8013 633.938 36.689C633.149 37.5767 632.754 38.5876 632.754 39.7219C632.754 41.2014 633.149 42.4096 633.938 43.3466C634.776 44.2343 636.157 44.6782 638.08 44.6782Z" fill="black"/>
<path d="M579.988 51.7858V12.5796H591.38V27.3744H594.339L605.287 12.5796H617.715L603.29 30.9991L618.455 51.7858H604.991L594.339 36.2512H591.38V51.7858H579.988Z" fill="black"/>
<path d="M560.365 51.7858V38.0266C559.231 38.6677 557.924 39.2595 556.445 39.802C554.965 40.3445 553.017 40.6157 550.601 40.6157C545.669 40.6157 542.02 39.4321 539.653 37.065C537.335 34.6978 536.176 31.0977 536.176 26.2648V12.5796H547.716V25.1552C547.716 27.3251 548.16 28.8785 549.047 29.8155C549.984 30.7032 551.661 31.147 554.077 31.147C555.705 31.147 557.061 30.9498 558.146 30.5553C559.231 30.1114 559.971 29.6922 560.365 29.2977V12.5796H571.757V51.7858H560.365Z" fill="black"/>
<path d="M512.593 52.7413C508.746 52.7413 505.294 52.0262 502.236 50.5961C499.179 49.1166 496.738 46.8727 494.913 43.8644C493.138 40.8562 492.25 37.0835 492.25 32.5464V31.067C492.25 26.7272 493.113 23.1271 494.839 20.2668C496.565 17.4064 498.908 15.2612 501.867 13.831C504.875 12.3516 508.204 11.6118 511.853 11.6118C518.313 11.6118 523.196 13.2886 526.5 16.642C529.804 19.9462 531.456 24.7545 531.456 31.067V35.2095H503.938C504.037 37.1328 504.48 38.7356 505.269 40.0178C506.108 41.3 507.168 42.237 508.45 42.8288C509.733 43.3713 511.113 43.6425 512.593 43.6425C514.763 43.6425 516.464 43.322 517.697 42.6809C518.979 41.9904 519.818 41.0781 520.212 39.9438H530.716C529.927 44.2343 527.979 47.4399 524.873 49.5604C521.766 51.681 517.672 52.7413 512.593 52.7413ZM512.223 20.7106C510.842 20.7106 509.535 20.9325 508.302 21.3764C507.069 21.8202 506.058 22.56 505.269 23.5956C504.53 24.5819 504.11 25.9381 504.012 27.6642H520.286C520.286 25.8395 519.916 24.434 519.176 23.4476C518.437 22.412 517.45 21.6969 516.218 21.3024C515.034 20.9079 513.702 20.7106 512.223 20.7106Z" fill="black"/>
<path d="M465.859 51.7858V21.9003H453.801V12.5796H489.308V21.9003H477.251V51.7858H465.859Z" fill="black"/>
<path d="M384.793 51.7858V12.5796H446.512V51.7858H435.12V21.9003H396.185V51.7858H384.793Z" fill="black"/>
<path d="M354.081 52.7413C351.27 52.7413 348.853 52.1988 346.832 51.1139C344.859 50.0289 343.355 48.5495 342.319 46.6755C341.283 44.7521 340.766 42.6315 340.766 40.3137C340.766 36.4177 341.949 33.4341 344.316 31.3629C346.733 29.2916 350.358 28.256 355.191 28.256H366.287V26.6285C366.287 24.2614 365.72 22.6339 364.585 21.7462C363.5 20.8586 361.971 20.4147 359.999 20.4147C358.125 20.4147 356.744 20.7106 355.856 21.3024C354.969 21.8449 354.475 22.7572 354.377 24.0394H342.985C343.133 21.6723 343.873 19.5517 345.204 17.6777C346.585 15.8037 348.533 14.3242 351.048 13.2392C353.612 12.1543 356.719 11.6118 360.369 11.6118C363.821 11.6118 366.854 12.1296 369.468 13.1653C372.081 14.2009 374.103 15.8776 375.533 18.1955C377.013 20.464 377.753 23.5216 377.753 27.3683V41.7932C377.753 43.8644 377.802 45.6891 377.901 47.2672C377.999 48.796 378.147 50.3002 378.344 51.7797H367.47C367.421 50.9413 367.347 50.2015 367.248 49.5604C367.199 48.9193 367.174 48.1303 367.174 47.1933C365.991 48.7714 364.339 50.1029 362.218 51.1879C360.147 52.2235 357.434 52.7413 354.081 52.7413ZM357.78 44.6782C359.407 44.6782 360.862 44.3823 362.144 43.7905C363.426 43.1987 364.437 42.311 365.177 41.1274C365.917 39.8945 366.287 38.5137 366.287 36.9849V35.3574H357.41C355.733 35.3574 354.475 35.8013 353.637 36.689C352.848 37.5767 352.454 38.5876 352.454 39.7219C352.454 41.2014 352.848 42.4096 353.637 43.3466C354.475 44.2343 355.856 44.6782 357.78 44.6782Z" fill="black"/>
<path d="M278.258 51.7858L288.244 37.2869C285.285 36.3006 283.115 34.8457 281.735 32.9224C280.403 30.9991 279.737 28.7306 279.737 26.1168C279.737 23.5524 280.329 21.2592 281.513 19.2372C282.696 17.166 284.546 15.5385 287.061 14.355C289.576 13.1714 292.806 12.5796 296.751 12.5796H315.985V51.7858H304.519V38.5444H298.971L290.685 51.7858H278.258ZM291.129 26.1168C291.129 27.547 291.622 28.5826 292.609 29.2237C293.644 29.8155 294.902 30.1114 296.381 30.1114H304.519V21.9003H296.381C294.902 21.9003 293.644 22.2455 292.609 22.9359C291.622 23.6264 291.129 24.6867 291.129 26.1168Z" fill="black"/>
<path d="M249.401 52.7413C246.59 52.7413 244.174 52.1988 242.152 51.1139C240.179 50.0289 238.675 48.5495 237.639 46.6755C236.604 44.7521 236.086 42.6315 236.086 40.3137C236.086 36.4177 237.27 33.4341 239.637 31.3629C242.053 29.2916 245.678 28.256 250.511 28.256H261.607V26.6285C261.607 24.2614 261.04 22.6339 259.906 21.7462C258.821 20.8586 257.292 20.4147 255.319 20.4147C253.445 20.4147 252.064 20.7106 251.177 21.3024C250.289 21.8449 249.796 22.7572 249.697 24.0394H238.305C238.453 21.6723 239.193 19.5517 240.524 17.6777C241.905 15.8037 243.853 14.3242 246.368 13.2392C248.933 12.1543 252.04 11.6118 255.689 11.6118C259.141 11.6118 262.174 12.1296 264.788 13.1653C267.402 14.2009 269.424 15.8776 270.854 18.1955C272.333 20.464 273.073 23.5216 273.073 27.3683V41.7932C273.073 43.8644 273.122 45.6891 273.221 47.2672C273.319 48.796 273.467 50.3002 273.665 51.7797H262.791C262.741 50.9413 262.667 50.2015 262.569 49.5604C262.519 48.9193 262.495 48.1303 262.495 47.1933C261.311 48.7714 259.659 50.1029 257.538 51.1879C255.467 52.2235 252.755 52.7413 249.401 52.7413ZM253.1 44.6782C254.727 44.6782 256.182 44.3823 257.464 43.7905C258.747 43.1987 259.758 42.311 260.497 41.1274C261.237 39.8945 261.607 38.5137 261.607 36.9849V35.3574H252.73C251.053 35.3574 249.796 35.8013 248.957 36.689C248.168 37.5767 247.774 38.5876 247.774 39.7219C247.774 41.2014 248.168 42.4096 248.957 43.3466C249.796 44.2343 251.177 44.6782 253.1 44.6782Z" fill="black"/>
<path d="M167.305 51.7858V12.5796H178.697V27.1525H218.371V12.5796H229.763V51.7858H218.371V36.4732H178.697V51.7858H167.305Z" fill="black"/>
<path d="M147.697 51.7858V38.0266C146.563 38.6677 145.256 39.2595 143.777 39.802C142.297 40.3445 140.349 40.6157 137.933 40.6157C133.001 40.6157 129.352 39.4321 126.985 37.065C124.667 34.6978 123.508 31.0977 123.508 26.2648V12.5796H135.048V25.1552C135.048 27.3251 135.492 28.8785 136.379 29.8155C137.316 30.7032 138.993 31.147 141.41 31.147C143.037 31.147 144.393 30.9498 145.478 30.5553C146.563 30.1114 147.303 29.6922 147.697 29.2977V12.5796H159.089V51.7858H147.697Z" fill="black"/>
<path d="M3.32883 52.7434C2.9343 52.7434 2.36717 52.7187 1.62743 52.6694C0.937003 52.6694 0.394528 52.6201 0 52.5215V40.8336C0.147948 40.8829 0.517817 40.9076 1.10961 40.9076C2.09593 40.9076 2.9343 40.7843 3.62472 40.5377C4.36446 40.2418 4.98091 39.65 5.47407 38.7623C5.96723 37.8253 6.38642 36.4691 6.73163 34.6938C7.12615 32.9184 7.39739 30.5512 7.54534 27.5923C7.69329 24.584 7.76726 20.8113 7.76726 16.2743V0H46.9734V51.7817H33.5842V10.8742H20.1949V17.7537C20.1949 23.9182 19.9483 29.0964 19.4551 33.2883C18.962 37.4308 18.2222 40.7843 17.2359 43.3487C16.2989 45.9131 15.14 47.8858 13.7591 49.2666C12.3783 50.5982 10.8002 51.5105 9.02482 52.0037C7.29876 52.4968 5.4001 52.7434 3.32883 52.7434Z" fill="black"/>
<path d="M55.1328 52.2775V13.0713H66.2289V38.8935L106.53 13.0713H116.516V52.2775H105.42V26.4552L65.1193 52.2775H55.1328Z" fill="black"/>
</svg>
