<svg width="965" height="78" viewBox="0 0 965 78" fill="none" xmlns="http://www.w3.org/2000/svg">
<path d="M922.266 61.3269L933.371 45.203C930.081 44.1061 927.668 42.4883 926.132 40.3494C924.651 38.2105 923.911 35.6877 923.911 32.781C923.911 29.9292 924.569 27.379 925.885 25.1304C927.201 22.827 929.258 21.0172 932.055 19.7009C934.852 18.3847 938.444 17.7266 942.832 17.7266H964.221V61.3269H951.47V46.6015H945.3L936.086 61.3269H922.266ZM936.58 32.781C936.58 34.3715 937.128 35.5232 938.225 36.2361C939.377 36.8943 940.775 37.2233 942.42 37.2233H951.47V28.0919H942.42C940.775 28.0919 939.377 28.4758 938.225 29.2436C937.128 30.0114 936.58 31.1906 936.58 32.781Z" fill="#191919"/>
<path d="M847.797 61.3269V17.7266H860.137V45.2471L904.954 17.7266H916.06V61.3269H903.72V33.8064L858.903 61.3269H847.797Z" fill="#191919"/>
<path d="M821.055 62.4033C816.777 62.4033 812.966 61.5806 809.62 59.9353C806.275 58.29 803.643 55.7947 801.723 52.4492C799.803 49.1038 798.844 44.9357 798.844 39.945V38.2997C798.844 33.6929 799.831 29.7716 801.805 26.5358C803.834 23.3001 806.522 20.8596 809.867 19.2143C813.267 17.5141 816.997 16.6641 821.055 16.6641C825.443 16.6641 829.117 17.4319 832.079 18.9675C835.04 20.4482 837.316 22.45 838.907 24.9728C840.497 27.4956 841.402 30.2926 841.621 33.3638H828.541C828.157 31.3895 827.362 29.8813 826.156 28.8393C825.004 27.7424 823.304 27.194 821.055 27.194C819.3 27.194 817.71 27.6053 816.284 28.4279C814.913 29.2506 813.816 30.4846 812.993 32.1298C812.225 33.7203 811.842 35.7769 811.842 38.2997V39.945C811.842 42.6323 812.225 44.8535 812.993 46.6084C813.761 48.3634 814.831 49.6797 816.202 50.5572C817.573 51.3798 819.191 51.7911 821.055 51.7911C822.975 51.7911 824.593 51.2975 825.909 50.3104C827.28 49.2683 828.157 47.7327 828.541 45.7035H841.621C841.402 49.1038 840.415 52.0653 838.66 54.5881C836.905 57.1109 834.519 59.0579 831.503 60.4289C828.541 61.7452 825.059 62.4033 821.055 62.4033Z" fill="#191919"/>
<path d="M773.727 62.4033C769.449 62.4033 765.638 61.5806 762.292 59.9353C758.947 58.29 756.314 55.7947 754.395 52.4492C752.475 49.1038 751.516 44.9357 751.516 39.945V38.2997C751.516 33.6929 752.503 29.7716 754.477 26.5358C756.506 23.3001 759.194 20.8596 762.539 19.2143C765.939 17.5141 769.669 16.6641 773.727 16.6641C778.115 16.6641 781.789 17.4319 784.751 18.9675C787.712 20.4482 789.988 22.45 791.579 24.9728C793.169 27.4956 794.074 30.2926 794.293 33.3638H781.213C780.829 31.3895 780.034 29.8813 778.828 28.8393C777.676 27.7424 775.976 27.194 773.727 27.194C771.972 27.194 770.382 27.6053 768.956 28.4279C767.585 29.2506 766.488 30.4846 765.665 32.1298C764.897 33.7203 764.513 35.7769 764.513 38.2997V39.945C764.513 42.6323 764.897 44.8535 765.665 46.6084C766.433 48.3634 767.502 49.6797 768.873 50.5572C770.245 51.3798 771.862 51.7911 773.727 51.7911C775.647 51.7911 777.265 51.2975 778.581 50.3104C779.952 49.2683 780.829 47.7327 781.213 45.7035H794.293C794.074 49.1038 793.087 52.0653 791.332 54.5881C789.577 57.1109 787.191 59.0579 784.175 60.4289C781.213 61.7452 777.731 62.4033 773.727 62.4033Z" fill="#191919"/>
<path d="M725.615 62.4033C721.337 62.4033 717.498 61.6081 714.098 60.0176C710.698 58.3723 707.983 55.8769 705.954 52.5315C703.979 49.1861 702.992 44.9906 702.992 39.945V38.2997C702.992 33.4735 703.952 29.47 705.871 26.289C707.791 23.1081 710.396 20.7225 713.687 19.132C717.032 17.4867 720.734 16.6641 724.792 16.6641C731.977 16.6641 737.406 18.5287 741.081 22.2581C744.755 25.9326 746.592 31.2798 746.592 38.2997V42.9065H715.99C716.1 45.0454 716.593 46.8278 717.471 48.2537C718.403 49.6797 719.582 50.7217 721.008 51.3798C722.434 51.9831 723.97 52.2847 725.615 52.2847C728.028 52.2847 729.92 51.9282 731.291 51.2153C732.717 50.4475 733.649 49.4329 734.088 48.1715H745.77C744.892 52.9428 742.726 56.5076 739.271 58.8659C735.816 61.2242 731.264 62.4033 725.615 62.4033ZM725.204 26.7826C723.668 26.7826 722.215 27.0294 720.844 27.523C719.473 28.0166 718.348 28.8393 717.471 29.991C716.648 31.0878 716.182 32.596 716.072 34.5155H734.17C734.17 32.4863 733.759 30.9233 732.937 29.8264C732.114 28.6747 731.017 27.8795 729.646 27.4408C728.33 27.002 726.849 26.7826 725.204 26.7826Z" fill="#191919"/>
<path d="M662.557 77.7805V62.397C655.208 62.397 649.559 60.5049 645.611 56.7207C641.662 52.8817 639.688 47.3151 639.688 40.021V38.2934C639.688 31.2735 641.662 25.9263 645.611 22.2518C649.559 18.5224 655.208 16.6578 662.557 16.6578V3.74219H675.226V16.6578C682.575 16.6578 688.224 18.5224 692.172 22.2518C696.121 25.9263 698.096 31.2735 698.096 38.2934V40.021C698.096 47.3151 696.121 52.8817 692.172 56.7207C688.224 60.5049 682.575 62.397 675.226 62.397V77.7805H662.557ZM685.18 39.9387V38.2934C685.18 34.6189 684.33 31.8493 682.63 29.9847C680.984 28.12 678.379 27.1877 674.815 27.1877V51.8671C678.379 51.8671 680.984 50.8525 682.63 48.8233C684.33 46.7393 685.18 43.7777 685.18 39.9387ZM652.521 38.2934V39.9387C652.521 43.8326 653.371 46.7941 655.071 48.8233C656.826 50.8525 659.486 51.8671 663.051 51.8671V27.1877C659.321 27.1877 656.634 28.1474 654.989 30.0669C653.343 31.9864 652.521 34.7286 652.521 38.2934Z" fill="#191919"/>
<path d="M612.571 62.4033C608.512 62.4033 604.783 61.6081 601.383 60.0176C598.037 58.4272 595.35 55.9592 593.321 52.6138C591.347 49.2135 590.359 44.9906 590.359 39.945V38.2997C590.359 33.5832 591.347 29.6345 593.321 26.4536C595.35 23.2178 598.037 20.7773 601.383 19.132C604.783 17.4867 608.512 16.6641 612.571 16.6641C616.684 16.6641 620.413 17.4867 623.759 19.132C627.104 20.7773 629.764 23.2178 631.739 26.4536C633.768 29.6345 634.782 33.5832 634.782 38.2997V39.945C634.782 44.9357 633.768 49.1038 631.739 52.4492C629.764 55.7398 627.104 58.2352 623.759 59.9353C620.413 61.5806 616.684 62.4033 612.571 62.4033ZM612.571 51.8734C614.545 51.8734 616.218 51.4072 617.589 50.4749C618.96 49.4877 620.002 48.0892 620.715 46.2794C621.428 44.4696 621.785 42.3581 621.785 39.945V38.2997C621.785 36.106 621.428 34.1865 620.715 32.5412C620.002 30.8959 618.96 29.6071 617.589 28.6747C616.218 27.6875 614.545 27.194 612.571 27.194C610.597 27.194 608.924 27.6875 607.553 28.6747C606.182 29.6071 605.14 30.8959 604.427 32.5412C603.714 34.1865 603.357 36.106 603.357 38.2997V39.945C603.357 42.4678 603.714 44.6341 604.427 46.4439C605.14 48.1989 606.182 49.5426 607.553 50.4749C608.924 51.4072 610.597 51.8734 612.571 51.8734Z" fill="#191919"/>
<path d="M541.398 77.7868V17.7335H553.08V23.6566C554.232 21.9016 555.932 20.3111 558.18 18.8852C560.484 17.4044 563.308 16.6641 566.654 16.6641C572.796 16.6641 577.458 18.4739 580.639 22.0935C583.82 25.7132 585.41 31.1152 585.41 38.2997V39.945C585.41 44.8809 584.642 49.0215 583.107 52.367C581.571 55.6576 579.405 58.1529 576.608 59.8531C573.811 61.5532 570.493 62.4033 566.654 62.4033C564.186 62.4033 561.828 61.8549 559.579 60.758C557.385 59.6063 555.548 57.961 554.067 55.8221V77.7868H541.398ZM563.61 51.9557C566.133 51.9557 568.217 50.9411 569.862 48.9119C571.562 46.8278 572.412 43.8389 572.412 39.945V38.2997C572.412 34.5155 571.59 31.7185 569.944 29.9087C568.354 28.044 566.242 27.1117 563.61 27.1117C561.855 27.1117 560.237 27.4956 558.756 28.2634C557.33 28.9764 556.179 30.0732 555.301 31.554C554.479 33.0348 554.067 34.872 554.067 37.0657V41.179C554.067 43.4275 554.479 45.3745 555.301 47.0198C556.179 48.6102 557.33 49.8442 558.756 50.7217C560.237 51.5443 561.855 51.9557 563.61 51.9557Z" fill="#191919"/>
<path d="M477.727 61.3269V17.7266H533.209V61.3269H520.54V28.0919H490.395V61.3269H477.727Z" fill="#191919"/>
<path d="M405.852 61.3269V17.7266H418.52V34.1795H421.811L433.986 17.7266H447.807L431.765 38.2105L448.629 61.3269H433.657L421.811 44.0513H418.52V61.3269H405.852Z" fill="#191919"/>
<path d="M371.706 62.4033C368.58 62.4033 365.893 61.8 363.644 60.5935C361.45 59.3869 359.778 57.7416 358.626 55.6576C357.474 53.5187 356.898 51.1604 356.898 48.5828C356.898 44.2502 358.215 40.9322 360.847 38.6288C363.534 36.3253 367.565 35.1736 372.94 35.1736H385.28V33.3638C385.28 30.7313 384.649 28.9215 383.388 27.9343C382.181 26.9472 380.481 26.4536 378.287 26.4536C376.203 26.4536 374.668 26.7826 373.68 27.4408C372.693 28.044 372.145 29.0586 372.035 30.4845H359.366C359.531 27.8521 360.354 25.4938 361.834 23.4098C363.37 21.3257 365.536 19.6804 368.333 18.4739C371.185 17.2673 374.64 16.6641 378.699 16.6641C382.538 16.6641 385.91 17.2399 388.817 18.3916C391.724 19.5433 393.972 21.408 395.563 23.9856C397.208 26.5084 398.031 29.9087 398.031 34.1865V50.2281C398.031 52.5315 398.086 54.5607 398.195 56.3157C398.305 58.0158 398.47 59.6885 398.689 61.3338H386.596C386.541 60.4015 386.459 59.5789 386.349 58.8659C386.294 58.1529 386.267 57.2754 386.267 56.2334C384.951 57.9884 383.113 59.4692 380.755 60.6757C378.452 61.8274 375.435 62.4033 371.706 62.4033ZM375.819 53.4364C377.629 53.4364 379.247 53.1074 380.673 52.4492C382.099 51.7911 383.223 50.804 384.046 49.4877C384.868 48.1166 385.28 46.581 385.28 44.8809V43.0711H375.408C373.543 43.0711 372.145 43.5646 371.213 44.5518C370.335 45.539 369.896 46.6633 369.896 47.9247C369.896 49.57 370.335 50.9136 371.213 51.9557C372.145 52.9428 373.68 53.4364 375.819 53.4364Z" fill="#191919"/>
<path d="M311.211 61.3269V17.7266H323.88V34.1795H327.17L339.345 17.7266H353.166L337.124 38.2105L353.989 61.3269H339.016L327.17 44.0513H323.88V61.3269H311.211Z" fill="#191919"/>
<path d="M231.345 61.3269V28.0919H203.586V17.7266H271.773V28.0919H244.014V61.3269H231.345Z" fill="#191919"/>
<path d="M153.453 61.3281V17.7278H165.793V44.0525L184.302 17.7278H195.408V61.3281H183.068V35.0034L164.559 61.3281H153.453ZM174.431 13.2855C169.056 13.2855 165.244 12.2435 162.996 10.1594C160.747 8.0754 159.623 4.94933 159.623 0.78125H170.811C170.811 2.70076 171.113 4.017 171.716 4.72996C172.319 5.44292 173.224 5.79941 174.431 5.79941C175.637 5.79941 176.542 5.44292 177.145 4.72996C177.749 4.017 178.05 2.70076 178.05 0.78125H189.238C189.238 4.94933 188.114 8.0754 185.865 10.1594C183.617 12.2435 179.805 13.2855 174.431 13.2855Z" fill="#191919"/>
<path d="M125.912 62.4033C121.634 62.4033 117.795 61.6081 114.395 60.0176C110.995 58.3723 108.28 55.8769 106.251 52.5315C104.276 49.1861 103.289 44.9906 103.289 39.945V38.2997C103.289 33.4735 104.249 29.47 106.168 26.289C108.088 23.1081 110.693 20.7225 113.983 19.132C117.329 17.4867 121.031 16.6641 125.089 16.6641C132.274 16.6641 137.703 18.5287 141.378 22.2581C145.052 25.9326 146.889 31.2798 146.889 38.2997V42.9065H116.287C116.397 45.0454 116.89 46.8278 117.768 48.2537C118.7 49.6797 119.879 50.7217 121.305 51.3798C122.731 51.9831 124.267 52.2847 125.912 52.2847C128.325 52.2847 130.217 51.9282 131.588 51.2153C133.014 50.4475 133.946 49.4329 134.385 48.1715H146.067C145.189 52.9428 143.023 56.5076 139.568 58.8659C136.113 61.2242 131.561 62.4033 125.912 62.4033ZM125.501 26.7826C123.965 26.7826 122.512 27.0294 121.141 27.523C119.769 28.0166 118.645 28.8393 117.768 29.991C116.945 31.0878 116.479 32.596 116.369 34.5155H134.467C134.467 32.4863 134.056 30.9233 133.233 29.8264C132.411 28.6747 131.314 27.8795 129.943 27.4408C128.627 27.002 127.146 26.7826 125.501 26.7826Z" fill="#191919"/>
<path d="M58.8203 61.3269V17.7266H71.4891V34.1795H74.7797L86.9549 17.7266H100.775L84.7337 38.2105L101.598 61.3269H86.6258L74.7797 44.0513H71.4891V61.3269H58.8203Z" fill="#191919"/>
<path d="M26.7361 62.3961C21.4711 62.3961 16.8094 61.4364 12.751 59.5168C8.74749 57.5425 5.62143 54.389 3.37286 50.0564C1.12429 45.7238 0 39.9927 0 32.8631V31.3C0 26.2545 0.68554 21.9218 2.05662 18.3022C3.4277 14.6825 5.31979 11.721 7.73289 9.41759C10.2008 7.11418 13.0527 5.41404 16.2884 4.31717C19.5242 3.22031 23.0067 2.67188 26.7361 2.67188C30.0815 2.67188 33.235 3.05578 36.1965 3.82358C39.158 4.59139 41.7357 5.79794 43.9294 7.44323C46.178 9.08853 47.9878 11.2274 49.3589 13.8599C50.73 16.4924 51.5526 19.7007 51.8268 23.4849H36.4433C35.9497 20.4685 34.798 18.3022 32.9882 16.986C31.1784 15.6697 29.0943 15.0116 26.7361 15.0116C24.5423 15.0116 22.568 15.56 20.813 16.6569C19.1129 17.6989 17.7692 19.399 16.782 21.7573C15.7948 24.1156 15.3012 27.2965 15.3012 31.3V33.0276C15.3012 36.2085 15.6029 38.8958 16.2062 41.0895C16.8094 43.2833 17.6321 45.0382 18.6741 46.3545C19.771 47.6707 21.0049 48.6305 22.376 49.2337C23.7471 49.7822 25.2004 50.0564 26.7361 50.0564C29.5331 50.0564 31.7542 49.3983 33.3995 48.082C35.0996 46.711 36.1142 44.5447 36.4433 41.5831H51.8268C51.6074 45.4221 50.8122 48.6853 49.4411 51.3726C48.1249 54.0051 46.3425 56.144 44.0939 57.7893C41.9002 59.3797 39.3226 60.5589 36.361 61.3267C33.3995 62.0396 30.1912 62.3961 26.7361 62.3961Z" fill="#191919"/>
</svg>
