<svg width="217" height="25" viewBox="0 0 217 25" fill="none" xmlns="http://www.w3.org/2000/svg">
<path d="M194.287 24.5226V5.94727H199.592V11.9755H202.555C204.943 11.9755 206.746 12.4895 207.964 13.5176C209.181 14.5457 209.79 16.1228 209.79 18.2491C209.79 19.464 209.548 20.5505 209.066 21.5085C208.584 22.4665 207.814 23.2142 206.758 23.7516C205.701 24.2656 204.3 24.5226 202.555 24.5226H194.287ZM199.592 20.4571H201.866C202.784 20.4571 203.451 20.2818 203.864 19.9313C204.277 19.5575 204.484 18.9967 204.484 18.2491C204.484 17.478 204.277 16.9172 203.864 16.5668C203.474 16.2163 202.807 16.041 201.866 16.041H199.592V20.4571ZM211.374 24.5226V5.94727H216.68V24.5226H211.374Z" fill="#FF5C00"/>
<path d="M174.976 24.5226V10.3633H164.352V5.94727H190.904V10.3633H180.281V24.5226H174.976Z" fill="#FF5C00"/>
<path d="M152.665 24.9998C150.873 24.9998 149.277 24.6493 147.876 23.9483C146.475 23.2474 145.373 22.1843 144.569 20.759C143.765 19.3337 143.363 17.558 143.363 15.4317V14.7308C143.363 12.7681 143.776 11.0975 144.603 9.71893C145.453 8.34038 146.578 7.30062 147.979 6.59967C149.403 5.87535 150.965 5.51318 152.665 5.51318C154.502 5.51318 156.041 5.8403 157.281 6.49452C158.521 7.12538 159.475 7.97821 160.141 9.05301C160.807 10.1278 161.186 11.3194 161.277 12.6279H155.8C155.639 11.7867 155.306 11.1442 154.801 10.7003C154.318 10.233 153.606 9.99931 152.665 9.99931C151.93 9.99931 151.264 10.1745 150.667 10.525C150.092 10.8755 149.633 11.4012 149.289 12.1022C148.967 12.7798 148.806 13.656 148.806 14.7308V15.4317C148.806 16.5766 148.967 17.5229 149.289 18.2706C149.61 19.0183 150.058 19.579 150.632 19.9529C151.206 20.3034 151.884 20.4786 152.665 20.4786C153.469 20.4786 154.146 20.2683 154.697 19.8477C155.272 19.4038 155.639 18.7496 155.8 17.8851H161.277C161.186 19.3337 160.772 20.5954 160.037 21.6702C159.302 22.745 158.303 23.5745 157.04 24.1586C155.8 24.7194 154.341 24.9998 152.665 24.9998Z" fill="#FF5C00"/>
<path d="M123.039 24.5226V5.94727H128.206V17.1626L135.958 5.94727H140.609V24.5226H135.441V13.3073L127.69 24.5226H123.039Z" fill="#FF5C00"/>
<path d="M93.0459 24.9782C92.8392 24.9782 92.5636 24.9666 92.2191 24.9432C91.8976 24.9432 91.6449 24.9198 91.4612 24.8731V20.1416C91.5301 20.165 91.7023 20.1767 91.978 20.1767C92.5062 20.1767 92.9426 19.9547 93.2871 19.5108C93.6546 19.0668 93.9187 18.3192 94.0795 17.2677C94.2632 16.2163 94.3551 14.7793 94.3551 12.9568V5.94727H119.564V24.5226H114.258V10.3633H99.3504V13.6578C99.3504 15.9709 99.2126 17.8752 98.937 19.3706C98.6614 20.866 98.2595 22.0225 97.7312 22.8403C97.203 23.6347 96.5369 24.1955 95.7331 24.5226C94.9522 24.8264 94.0565 24.9782 93.0459 24.9782Z" fill="#FF5C00"/>
<path d="M62.6851 17.3008V12.1138H89.0773V17.3008H62.6851Z" fill="#FF5C00"/>
<path d="M44.74 24.5226V5.94727H50.0454V12.9568H51.4235L56.5222 5.94727H62.3099L55.592 14.6742L62.6544 24.5226H56.3844L51.4235 17.1626H50.0454V24.5226H44.74Z" fill="#FF5C00"/>
<path d="M33.2403 24.9998C31.4489 24.9998 29.8412 24.661 28.4172 23.9834C26.9933 23.2824 25.8564 22.2193 25.0066 20.794C24.1798 19.3688 23.7664 17.5813 23.7664 15.4317V14.7308C23.7664 12.6746 24.1683 10.969 24.9721 9.61378C25.776 8.2586 26.8669 7.24221 28.245 6.56462C29.646 5.86366 31.1963 5.51318 32.8958 5.51318C35.9045 5.51318 38.1783 6.3076 39.7171 7.89644C41.2559 9.46191 42.0253 11.74 42.0253 14.7308V16.6934H29.2096C29.2555 17.6047 29.4622 18.3641 29.8297 18.9716C30.2201 19.579 30.7139 20.023 31.3111 20.3034C31.9082 20.5604 32.5513 20.6889 33.2403 20.6889C34.2509 20.6889 35.0433 20.537 35.6174 20.2333C36.2146 19.9062 36.605 19.4739 36.7888 18.9365H41.6808C41.3133 20.9693 40.4061 22.488 38.9592 23.4927C37.5122 24.4974 35.606 24.9998 33.2403 24.9998ZM33.0681 9.82407C32.425 9.82407 31.8164 9.92921 31.2422 10.1395C30.668 10.3498 30.1972 10.7003 29.8297 11.1909C29.4852 11.6582 29.29 12.3008 29.244 13.1186H36.8232C36.8232 12.2541 36.651 11.5881 36.3065 11.1208C35.962 10.6302 35.5026 10.2914 34.9284 10.1044C34.3772 9.91753 33.7571 9.82407 33.0681 9.82407Z" fill="#FF5C00"/>
<path d="M14.0811 24.5335V14.7551C13.4839 15.1523 12.6915 15.5145 11.704 15.8416C10.7393 16.1454 9.59097 16.2972 8.25887 16.2972C5.75544 16.2972 3.86065 15.6664 2.57448 14.4047C1.31129 13.1196 0.679688 11.0634 0.679688 8.23624V0H6.88084V7.18481C6.88084 8.56335 7.16793 9.55638 7.74211 10.1639C8.31629 10.748 9.12014 11.0401 10.1537 11.0401C11.0953 11.0401 11.8877 10.9349 12.5308 10.7246C13.1739 10.491 13.6906 10.2457 14.0811 9.98863V0H20.3167V24.5335H14.0811Z" fill="#FF5C00"/>
</svg>
