<svg width="343" height="64" viewBox="0 0 343 64" fill="none" xmlns="http://www.w3.org/2000/svg">
<path d="M325.129 50.5033C321.552 50.5033 318.342 49.8383 315.498 48.5083C312.655 47.1324 310.384 45.0457 308.688 42.248C307.036 39.4504 306.211 35.9419 306.211 31.7226V30.3467C306.211 26.3108 307.014 22.9628 308.619 20.3028C310.224 17.6428 312.402 15.6477 315.154 14.3177C317.952 12.9418 321.047 12.2539 324.441 12.2539C330.449 12.2539 334.99 13.8132 338.062 16.9319C341.135 20.0047 342.672 24.4763 342.672 30.3467V34.1992H317.08C317.172 35.9878 317.585 37.4783 318.319 38.6708C319.098 39.8632 320.084 40.7346 321.277 41.2849C322.469 41.7894 323.753 42.0417 325.129 42.0417C327.147 42.0417 328.729 41.7435 329.876 41.1473C331.068 40.5053 331.848 39.6568 332.215 38.602H341.984C341.25 42.592 339.438 45.5731 336.549 47.5452C333.66 49.5172 329.853 50.5033 325.129 50.5033ZM324.785 20.7156C323.501 20.7156 322.286 20.9219 321.139 21.3347C319.993 21.7475 319.052 22.4354 318.319 23.3985C317.631 24.3158 317.241 25.577 317.149 27.1822H332.284C332.284 25.4853 331.94 24.1782 331.252 23.2609C330.564 22.2978 329.647 21.6328 328.5 21.2659C327.399 20.899 326.161 20.7156 324.785 20.7156Z" fill="#F1B8FF"/>
<path d="M262.551 58.2084V40.9412H266.403C267.045 39.978 267.55 38.8085 267.917 37.4327C268.329 36.0109 268.628 34.2682 268.811 32.2043C268.994 30.1405 269.086 27.6869 269.086 24.8434V13.1484H299.012V40.9412H303.139V58.2084H294.196V49.6092H271.494V58.2084H262.551ZM276.791 40.9412H288.417V21.8165H278.855V26.2193C278.855 29.7048 278.694 32.64 278.373 35.0249C278.052 37.3639 277.525 39.336 276.791 40.9412Z" fill="#F1B8FF"/>
<path d="M196.371 50.1717V13.7109H206.965V27.2633H244.798V13.7109H255.393V50.1717H244.798V35.9314H206.965V50.1717H196.371Z" fill="#F1B8FF"/>
<path d="M171.41 50.9603C167.833 50.9603 164.623 50.2953 161.779 48.9653C158.936 47.5894 156.666 45.5027 154.969 42.7051C153.318 39.9074 152.492 36.399 152.492 32.1796V30.8037C152.492 26.7678 153.295 23.4198 154.9 20.7598C156.505 18.0998 158.684 16.1048 161.435 14.7748C164.233 13.3989 167.329 12.7109 170.723 12.7109C176.731 12.7109 181.271 14.2703 184.344 17.3889C187.417 20.4617 188.953 24.9333 188.953 30.8037V34.6562H163.362C163.453 36.4448 163.866 37.9354 164.6 39.1278C165.38 40.3202 166.366 41.1916 167.558 41.7419C168.75 42.2464 170.035 42.4987 171.41 42.4987C173.428 42.4987 175.011 42.2006 176.157 41.6044C177.35 40.9623 178.129 40.1138 178.496 39.059H188.265C187.531 43.049 185.72 46.0301 182.83 48.0022C179.941 49.9743 176.134 50.9603 171.41 50.9603ZM171.067 21.1726C169.782 21.1726 168.567 21.379 167.42 21.7917C166.274 22.2045 165.334 22.8924 164.6 23.8555C163.912 24.7728 163.522 26.034 163.43 27.6392H178.565C178.565 25.9423 178.221 24.6352 177.533 23.718C176.845 22.7548 175.928 22.0898 174.781 21.7229C173.681 21.356 172.442 21.1726 171.067 21.1726Z" fill="#F1B8FF"/>
<path d="M108.605 63.3677V13.1482H118.374V18.1014C119.337 16.6338 120.759 15.3038 122.639 14.1113C124.566 12.8731 126.928 12.2539 129.725 12.2539C134.862 12.2539 138.76 13.7674 141.42 16.7943C144.08 19.8212 145.41 24.3387 145.41 30.3467V31.7226C145.41 35.8502 144.768 39.3128 143.484 42.1104C142.2 44.8622 140.388 46.9489 138.049 48.3707C135.71 49.7924 132.936 50.5033 129.725 50.5033C127.661 50.5033 125.689 50.0447 123.809 49.1274C121.974 48.1643 120.438 46.7884 119.2 44.9998V63.3677H108.605ZM127.18 41.7665C129.289 41.7665 131.032 40.918 132.408 39.2211C133.83 37.4783 134.541 34.9788 134.541 31.7226V30.3467C134.541 27.1822 133.853 24.8432 132.477 23.3297C131.147 21.7704 129.381 20.9907 127.18 20.9907C125.712 20.9907 124.359 21.3118 123.121 21.9538C121.929 22.5501 120.965 23.4673 120.232 24.7056C119.544 25.9439 119.2 27.4803 119.2 29.3148V32.7545C119.2 34.6348 119.544 36.263 120.232 37.6388C120.965 38.9689 121.929 40.0008 123.121 40.7346C124.359 41.4225 125.712 41.7665 127.18 41.7665Z" fill="#F1B8FF"/>
<path d="M84.0275 51.0589C80.496 51.0589 77.3086 50.2793 74.4651 48.7199C71.6675 47.1147 69.4661 44.7528 67.8609 41.6342C66.2557 38.4697 65.4531 34.5484 65.4531 29.8704V28.4945C65.4531 23.0369 66.0723 18.3818 67.3106 14.5294C68.5488 10.6311 70.5897 7.60414 73.4332 5.4486C76.2767 3.29306 80.1291 2.10064 84.9906 1.87132C86.9168 1.7796 88.8201 1.7108 90.7005 1.66494C92.5808 1.61908 94.3236 1.50442 95.9288 1.32097C97.534 1.09166 98.8411 0.747688 99.85 0.289062V9.36985C99.3914 9.64503 98.6118 9.89727 97.5111 10.1266C96.4562 10.3559 94.9886 10.5393 93.1082 10.6769C91.2737 10.7687 88.9118 10.8604 86.0225 10.9521C83.3625 10.9521 81.161 11.3419 79.4183 12.1216C77.7214 12.8554 76.4143 14.0249 75.497 15.6301C74.6256 17.2353 74.0294 19.3679 73.7084 22.0279C74.3963 20.7896 75.3136 19.6889 76.4601 18.7258C77.6526 17.7627 79.1202 17.006 80.8629 16.4556C82.6516 15.8594 84.7383 15.5613 87.1232 15.5613C90.1501 15.5613 92.8331 16.1575 95.1721 17.3499C97.5111 18.4965 99.3226 20.2393 100.607 22.5783C101.937 24.9173 102.602 27.8754 102.602 31.4527V32.691C102.602 36.5434 101.776 39.8455 100.125 42.5973C98.4742 45.349 96.2498 47.4587 93.4522 48.9263C90.6546 50.3481 87.513 51.0589 84.0275 51.0589ZM84.0275 42.2533C86.504 42.2533 88.4073 41.4736 89.7374 39.9143C91.0674 38.3091 91.7324 36.2224 91.7324 33.6541V32.2782C91.7324 29.5264 91.0444 27.4168 89.6686 25.9492C88.2927 24.4357 86.4123 23.679 84.0275 23.679C81.6885 23.679 79.8081 24.4357 78.3864 25.9492C77.0105 27.4168 76.3225 29.5264 76.3225 32.2782V33.3789C76.3225 35.1217 76.6436 36.681 77.2857 38.0569C77.9736 39.3869 78.8909 40.4188 80.0374 41.1526C81.2298 41.8864 82.5599 42.2533 84.0275 42.2533Z" fill="#F1B8FF"/>
<path d="M23.3899 51.0576C20.2713 51.0576 17.2902 50.599 14.4467 49.6818C11.6032 48.7645 9.10372 47.3198 6.94818 45.3477C4.79264 43.3756 3.09572 40.8303 1.85743 37.7116C0.619144 34.5471 0 30.7864 0 26.4294V25.0536C0 20.8342 0.619144 17.211 1.85743 14.1841C3.09572 11.1572 4.79264 8.68061 6.94818 6.75438C9.10372 4.82815 11.6032 3.40641 14.4467 2.48916C17.2902 1.57191 20.2713 1.11328 23.3899 1.11328C26.6003 1.11328 29.6043 1.57191 32.4019 2.48916C35.1995 3.40641 37.6761 4.82815 39.8316 6.75438C41.9872 8.68061 43.6841 11.1572 44.9224 14.1841C46.1607 17.211 46.7798 20.8342 46.7798 25.0536V26.4294C46.7798 30.7864 46.1607 34.5471 44.9224 37.7116C43.6841 40.8303 41.9872 43.3756 39.8316 45.3477C37.6761 47.3198 35.1995 48.7645 32.4019 49.6818C29.6043 50.599 26.6003 51.0576 23.3899 51.0576ZM23.3211 40.7385C25.2015 40.7385 26.9443 40.3258 28.5495 39.5003C30.1546 38.6289 31.4388 37.1842 32.4019 35.1662C33.4109 33.1024 33.9154 30.1902 33.9154 26.4294V25.0536C33.9154 21.4763 33.4109 18.7016 32.4019 16.7295C31.4388 14.7574 30.1546 13.3815 28.5495 12.6019C26.9443 11.8222 25.2015 11.4324 23.3211 11.4324C21.5325 11.4324 19.8356 11.8222 18.2304 12.6019C16.6252 13.3815 15.3181 14.7574 14.3091 16.7295C13.3001 18.7016 12.7957 21.4763 12.7957 25.0536V26.4294C12.7957 30.1902 13.3001 33.1024 14.3091 35.1662C15.3181 37.1842 16.6252 38.6289 18.2304 39.5003C19.8356 40.3258 21.5325 40.7385 23.3211 40.7385Z" fill="#F1B8FF"/>
</svg>
