<svg width="27" height="25" viewBox="0 0 27 25" fill="none" xmlns="http://www.w3.org/2000/svg">
<path fill-rule="evenodd" clip-rule="evenodd" d="M1.84865 10.7823C9.09492 7.26532 13.9189 4.92839 16.3412 3.79463C23.2355 0.57845 24.6847 0.023138 25.6164 0C25.8234 0 26.2789 0.0462763 26.5895 0.323932C26.8379 0.555312 26.9 0.856106 26.9414 1.08749C26.9829 1.31887 27.0243 1.80476 26.9828 2.17497C26.6102 6.57118 24.9953 17.2378 24.1672 22.143C23.8152 24.2255 23.132 24.9196 22.4695 24.989C21.0202 25.1278 19.9229 23.9247 18.5358 22.9066C16.3412 21.3101 15.1197 20.3151 12.9872 18.7418C10.5235 16.937 12.1177 15.9421 13.5255 14.3224C13.8982 13.9059 20.2542 7.42729 20.3784 6.84884C20.3991 6.77943 20.3991 6.50177 20.2542 6.36294C20.1092 6.22411 19.9022 6.27039 19.7366 6.31667C19.5088 6.36294 16.0306 8.9544 9.26055 14.0679C8.26678 14.8314 7.37652 15.2016 6.56908 15.1785C5.67882 15.1554 3.98113 14.6232 2.6975 14.1604C1.14473 13.6051 -0.0974857 13.3043 0.00603244 12.3325C0.0681433 11.8235 0.689252 11.3145 1.84865 10.7823Z" fill="white"/>
</svg>
